<svg width="44" height="44" viewBox="0 0 44 44" fill="none" xmlns="http://www.w3.org/2000/svg">
<path d="M0 22.0002C0 34.1503 9.84972 44 22.0002 44C34.1505 44 44 34.1503 44 22.0002C44 9.8497 34.1505 -7.62939e-06 22.0002 -7.62939e-06C9.84972 -7.62939e-06 0 9.8497 0 22.0002Z" fill="url(#paint0_linear_1497_32163)" style=""/>
<path d="M1.07849 22.0004C1.07849 33.5545 10.4451 42.9214 21.9997 42.9214C33.5541 42.9214 42.9207 33.5545 42.9207 22.0004C42.9207 10.4456 33.5541 1.07893 21.9997 1.07893C10.4451 1.07893 1.07849 10.4456 1.07849 22.0004Z" fill="url(#paint1_radial_1497_32163)" style=""/>
<path d="M9.3136 22.0012C9.3136 25.6916 10.8787 29.0142 13.3758 31.3481H30.8271C33.3284 29.0142 34.8937 25.6916 34.8937 22.0012C34.8937 14.9349 29.1679 9.20905 22.1016 9.20905C15.0394 9.20905 9.3136 14.9349 9.3136 22.0012Z" fill="url(#paint2_linear_1497_32163)" style=""/>
<path d="M1.64905 22.0001C1.64905 33.222 10.7786 42.3516 22.0005 42.3516C33.2225 42.3516 42.3522 33.222 42.3522 22.0001C42.3522 10.7781 33.2225 1.6484 22.0005 1.6484C10.7786 1.6484 1.64905 10.7781 1.64905 22.0001ZM2.05748 22.0001C2.05748 11.0037 11.0039 2.05705 22.0005 2.05705C32.9972 2.05705 41.9436 11.0037 41.9436 22.0001C41.9436 32.9965 32.9972 41.9429 22.0005 41.9429C11.0039 41.9429 2.05748 32.9965 2.05748 22.0001Z" fill="url(#paint3_linear_1497_32163)" style=""/>
<path d="M20.5287 33.0529L19.9214 37.1314H20.7888L20.6647 37.9726H21.537L20.5769 38.5678L20.4211 39.6262H23.8805L24.45 35.7719H23.5826L23.9885 33.0529H20.5287ZM20.7151 34.918C20.7519 34.6644 20.8877 34.4344 21.0787 34.2675C21.27 34.1007 21.5143 33.9984 21.7656 33.9964H21.7674H21.7695C21.7892 33.9964 21.8087 33.9963 21.8286 33.9984L21.7579 34.4817C21.738 34.478 21.7183 34.4759 21.6967 34.4759C21.4549 34.478 21.2299 34.6741 21.1926 34.918C21.1571 35.1597 21.3249 35.3582 21.5664 35.3582C21.7338 35.3582 21.8923 35.2617 21.986 35.1227H21.6631L21.722 34.7265H22.5557L22.5576 34.7902C22.559 34.8315 22.5546 34.8746 22.5481 34.918C22.5112 35.1713 22.3736 35.4013 22.1823 35.5684C21.9913 35.7353 21.7472 35.8375 21.4957 35.8394H21.4937H21.4918C20.9888 35.8375 20.6395 35.4249 20.7151 34.918Z" fill="url(#paint4_linear_1497_32163)" style=""/>
<path d="M6.46066 26.5018L6.52348 26.7021L5.79541 26.9288L5.86889 27.1641L6.89087 26.8463L6.8371 26.6727C6.78332 26.6597 6.74044 26.6335 6.70845 26.5936C6.67647 26.5542 6.65167 26.5053 6.63382 26.448L6.46066 26.5018Z" fill="url(#paint5_linear_1497_32163)" style=""/>
<path d="M6.69955 27.2573C6.59942 27.2868 6.49905 27.316 6.39938 27.3454L6.47402 27.5471C6.49905 27.5626 6.52107 27.5805 6.53915 27.6018C6.55816 27.6229 6.57276 27.6481 6.58412 27.6787C6.59316 27.7022 6.59664 27.7242 6.59478 27.7443C6.59339 27.7652 6.58853 27.784 6.58018 27.8007C6.5723 27.8178 6.56118 27.8329 6.54657 27.8447C6.53243 27.857 6.51667 27.8663 6.49952 27.8728C6.46011 27.8876 6.42303 27.8878 6.38872 27.8735C6.35418 27.8596 6.32752 27.8264 6.30828 27.7745C6.29646 27.7358 6.296 27.701 6.30712 27.669C6.31871 27.6373 6.33842 27.6127 6.36577 27.5948L6.28256 27.3693C6.17454 27.4233 6.10732 27.4917 6.08043 27.5749C6.05377 27.6579 6.05957 27.7518 6.09898 27.857C6.11822 27.911 6.14487 27.9581 6.17801 27.9986C6.2107 28.0392 6.24848 28.0703 6.29136 28.0925C6.33471 28.1145 6.38223 28.1273 6.43322 28.1303C6.48445 28.1333 6.53822 28.1245 6.59478 28.1032C6.64392 28.0853 6.68588 28.0612 6.72111 28.0322C6.75588 28.0035 6.78208 27.9701 6.80039 27.9314C6.81801 27.8929 6.82751 27.8505 6.82797 27.8042C6.8289 27.7578 6.81916 27.7087 6.79992 27.6563C6.78926 27.6273 6.77512 27.5988 6.7582 27.5712C6.74059 27.5438 6.7188 27.5179 6.69098 27.4935C6.71949 27.4864 6.74846 27.4782 6.77767 27.4704C6.80688 27.4625 6.83562 27.4541 6.8639 27.4458L7.03079 27.8966L7.23802 27.8199L6.99626 27.1679C6.89914 27.1982 6.79992 27.2286 6.69955 27.2573Z" fill="url(#paint6_linear_1497_32163)" style=""/>
<path d="M7.05641 28.1866C6.98687 28.1979 6.91362 28.2206 6.8362 28.2552C6.75786 28.2902 6.69156 28.3296 6.63755 28.3732C6.58308 28.4165 6.54159 28.464 6.51308 28.5155C6.48433 28.5672 6.47019 28.6226 6.46904 28.6824C6.46811 28.7426 6.48295 28.8055 6.51262 28.872C6.54206 28.9383 6.57914 28.9909 6.62411 29.0301C6.66908 29.0686 6.7203 29.0952 6.77755 29.1086C6.83481 29.1223 6.89809 29.123 6.96717 29.1119C7.03624 29.1003 7.10949 29.0769 7.18784 29.0419C7.26526 29.0078 7.33062 28.9684 7.38533 28.9241C7.43957 28.8803 7.48129 28.8321 7.51003 28.7802C7.53808 28.728 7.55338 28.6726 7.55431 28.6135C7.55593 28.5547 7.54225 28.4925 7.51304 28.4279C7.48384 28.3627 7.44676 28.3103 7.40179 28.2709C7.35612 28.2318 7.30489 28.2049 7.24741 28.191C7.21542 28.1831 7.18181 28.1791 7.14634 28.1791C7.1176 28.1791 7.0877 28.1817 7.05641 28.1866ZM6.86518 28.8782C6.83226 28.8775 6.80305 28.8694 6.77755 28.8534C6.75159 28.8381 6.73166 28.8136 6.71637 28.7809C6.7013 28.7466 6.69689 28.7151 6.70292 28.6856C6.70918 28.6559 6.72285 28.6293 6.74371 28.604C6.76411 28.5781 6.79146 28.5551 6.82484 28.534C6.85845 28.5127 6.89531 28.4939 6.93518 28.4758C6.97459 28.458 7.01352 28.4446 7.05131 28.4339C7.08932 28.4237 7.12456 28.4195 7.15701 28.4209C7.18969 28.4221 7.2189 28.4304 7.24439 28.4466C7.27035 28.4619 7.29076 28.4863 7.30582 28.5206C7.32043 28.5535 7.32506 28.5848 7.31903 28.6135C7.31323 28.6416 7.29956 28.6692 7.27847 28.6944C7.25737 28.7199 7.23002 28.7429 7.1971 28.7637C7.16396 28.7848 7.12803 28.8041 7.08932 28.8212C7.04852 28.8391 7.00958 28.8534 6.97134 28.8639C6.93518 28.8736 6.90087 28.8785 6.86912 28.8785C6.86773 28.8785 6.86634 28.8785 6.86518 28.8782Z" fill="url(#paint7_linear_1497_32163)" style=""/>
<path d="M7.08289 30.0149L7.20481 30.229L7.94007 29.8125L8.19226 30.2571L8.38836 30.146L8.01447 29.4866L7.08289 30.0149Z" fill="url(#paint8_linear_1497_32163)" style=""/>
<path d="M7.59839 30.9065L7.70641 31.0706L8.5119 31.1344L7.98086 31.4855L8.11646 31.6909L9.0098 31.1005L8.90132 30.9364L8.08841 30.8776L8.62664 30.5217L8.49104 30.3161L7.59839 30.9065Z" fill="url(#paint9_linear_1497_32163)" style=""/>
<path d="M8.33154 31.988L8.48221 32.183L8.81507 31.9262L8.90361 32.0414L8.72629 32.4989L8.90153 32.7263L9.13124 32.1081L9.74828 32.0706L9.57582 31.8471L9.07259 31.8935L8.99239 31.7894L9.32942 31.5286L9.17922 31.3335L8.33154 31.988Z" fill="url(#paint10_linear_1497_32163)" style=""/>
<path d="M9.0564 32.9065L9.21981 33.0905L9.53436 32.8115L9.63055 32.9199L9.48475 33.3889L9.67552 33.6035L9.86189 32.9712L10.4752 32.8921L10.2875 32.6805L9.78887 32.7612L9.70148 32.6631L10.0204 32.3796L9.85679 32.1954L9.0564 32.9065Z" fill="url(#paint11_linear_1497_32163)" style=""/>
<path d="M10.534 33.1475C10.4668 33.1486 10.4003 33.1651 10.3354 33.195C10.2698 33.2249 10.2088 33.2692 10.1518 33.3276C10.0955 33.3849 10.0521 33.446 10.0232 33.5116C9.99395 33.5765 9.97911 33.6428 9.97842 33.7098C9.97772 33.777 9.9914 33.8429 10.0204 33.9082C10.0491 33.9731 10.0929 34.0357 10.153 34.0939C10.2116 34.1523 10.2737 34.1952 10.3403 34.2223C10.407 34.2494 10.4747 34.2615 10.5426 34.2589C10.6103 34.2564 10.6771 34.2395 10.7422 34.2089C10.8073 34.1783 10.8685 34.134 10.9248 34.0768C10.9819 34.0184 11.0245 33.9562 11.0533 33.8911C11.0818 33.826 11.0959 33.7592 11.0954 33.6927C11.0954 33.6257 11.0813 33.5599 11.0514 33.4954C11.0227 33.4307 10.9786 33.37 10.92 33.3128C10.8616 33.256 10.7994 33.2138 10.7336 33.1864C10.6722 33.1602 10.6103 33.1473 10.5479 33.1473C10.5433 33.1473 10.5387 33.1475 10.534 33.1475ZM10.4249 34.004C10.3868 33.9924 10.3505 33.9697 10.3157 33.9361C10.2807 33.8999 10.2561 33.8626 10.2427 33.8243C10.2292 33.7865 10.2251 33.7478 10.2288 33.7098C10.2327 33.6725 10.2436 33.6354 10.2624 33.6004C10.2807 33.5645 10.3046 33.5323 10.3333 33.5026C10.3616 33.4736 10.3931 33.4495 10.4281 33.4305C10.4633 33.4108 10.4993 33.399 10.5368 33.3937C10.5739 33.3888 10.6121 33.3927 10.6506 33.405C10.6893 33.4168 10.7262 33.4409 10.7614 33.4752C10.7978 33.5102 10.8217 33.5476 10.834 33.5861C10.846 33.6248 10.8502 33.6632 10.8458 33.7013C10.8409 33.739 10.8291 33.775 10.8099 33.81C10.7904 33.8447 10.767 33.8758 10.7399 33.9043C10.7125 33.9321 10.6812 33.9562 10.6465 33.9759C10.6117 33.9956 10.5755 34.0086 10.538 34.0135C10.5259 34.0151 10.5139 34.016 10.5018 34.016C10.4763 34.016 10.4506 34.0121 10.4249 34.004Z" fill="url(#paint12_linear_1497_32163)" style=""/>
<path d="M11.7424 33.9252C11.7574 33.9925 11.7978 34.0534 11.8636 34.1088C11.9285 34.1628 11.9953 34.1918 12.0639 34.1944C12.1318 34.1971 12.1983 34.1672 12.2614 34.1047L12.1068 33.9753C12.0857 33.9957 12.0639 34.0062 12.0398 34.0057C12.0164 34.0057 11.9936 33.9969 11.9718 33.9786C11.9515 33.9609 11.9385 33.9405 11.9341 33.9174C11.9292 33.8935 11.9348 33.8696 11.9503 33.8439L11.7973 33.7164C11.7458 33.7885 11.7271 33.8585 11.7424 33.9252ZM10.7716 34.6638L10.9218 34.7899L11.7122 34.6211L11.3033 35.1093L11.4927 35.2676L12.1798 34.4463L12.0291 34.3202L11.2333 34.4962L11.648 34.0013L11.4587 33.843L10.7716 34.6638Z" fill="url(#paint13_linear_1497_32163)" style=""/>
<path d="M11.787 35.4941L11.9877 35.6376L12.2302 35.2978L12.5721 35.5426L12.3299 35.8822L12.5297 36.0256L13.1527 35.1545L12.952 35.0108L12.7012 35.3618L12.3595 35.1175L12.6103 34.7665L12.4096 34.6228L11.787 35.4941Z" fill="url(#paint14_linear_1497_32163)" style=""/>
<path d="M13.3936 35.475C13.3285 35.4919 13.2677 35.5227 13.2112 35.5668C13.1546 35.6113 13.105 35.6678 13.0626 35.7378C13.0209 35.8069 12.9931 35.8762 12.9796 35.9465C12.9659 36.0167 12.9664 36.0842 12.9812 36.15C12.9961 36.2151 13.0248 36.2765 13.067 36.3336C13.1099 36.3904 13.1667 36.4407 13.2388 36.4842C13.309 36.5276 13.3795 36.5552 13.4506 36.5663C13.5218 36.5777 13.5899 36.5739 13.6558 36.5559C13.7211 36.538 13.7823 36.5069 13.8389 36.4622C13.8957 36.4175 13.9448 36.36 13.9861 36.2914C14.0285 36.2211 14.0563 36.1511 14.0688 36.0816C14.082 36.0116 14.0809 35.9441 14.0654 35.8785C14.0501 35.8134 14.0206 35.7529 13.9775 35.6964C13.9344 35.6403 13.8778 35.5914 13.8078 35.5485C13.7381 35.5068 13.6678 35.4792 13.5971 35.4676C13.5681 35.4625 13.5396 35.4599 13.5114 35.4599C13.4713 35.4599 13.4321 35.465 13.3936 35.475ZM13.4826 36.3347C13.443 36.3322 13.4026 36.318 13.3612 36.293C13.3185 36.2661 13.2865 36.2355 13.2645 36.2014C13.2432 36.1669 13.23 36.131 13.2246 36.093C13.22 36.0554 13.2225 36.0172 13.2323 35.9785C13.2422 35.9397 13.2582 35.9027 13.2793 35.8672C13.3002 35.8329 13.3257 35.8025 13.3556 35.7754C13.3853 35.7485 13.4175 35.7286 13.4529 35.7151C13.4882 35.7015 13.526 35.6964 13.5665 35.6998C13.6071 35.7026 13.6481 35.7175 13.6903 35.743C13.7337 35.7694 13.7654 35.7997 13.7863 35.8343C13.8069 35.8693 13.8194 35.9059 13.8234 35.9437C13.8278 35.9817 13.8247 36.0195 13.8139 36.058C13.8032 36.0962 13.7877 36.1324 13.767 36.1655C13.7466 36.1991 13.7216 36.2295 13.6924 36.2566C13.6634 36.2833 13.6307 36.3041 13.595 36.318C13.5656 36.3296 13.535 36.3357 13.5028 36.3357C13.4961 36.3357 13.4893 36.3354 13.4826 36.3347Z" fill="url(#paint15_linear_1497_32163)" style=""/>
<path d="M13.9628 36.8925L14.3471 37.0879C14.3939 37.1115 14.4433 37.1315 14.4952 37.1472C14.5469 37.1628 14.5972 37.1693 14.6466 37.1674C14.6959 37.1653 14.7423 37.1517 14.7861 37.1264C14.8302 37.1011 14.8672 37.0589 14.8976 36.9996C14.925 36.9446 14.9372 36.8918 14.9333 36.8406C14.9294 36.7893 14.9085 36.7432 14.8712 36.701C14.9155 36.6978 14.9539 36.6836 14.9864 36.6591C15.0193 36.6338 15.045 36.6018 15.0654 36.5624C15.0888 36.517 15.1002 36.4739 15.1002 36.4345C15.0997 36.3944 15.0912 36.3584 15.0738 36.3251C15.0568 36.2924 15.033 36.2623 15.0017 36.2361C14.9706 36.2094 14.9356 36.1862 14.8971 36.1665L14.4481 35.938L13.9628 36.8925ZM14.7506 36.5425C14.7156 36.542 14.6751 36.5307 14.6301 36.5075L14.4753 36.4287L14.5661 36.2495L14.7414 36.3387C14.7585 36.3471 14.7745 36.3564 14.7891 36.3661C14.804 36.3761 14.8162 36.387 14.8253 36.3992C14.8343 36.4108 14.8399 36.4245 14.842 36.4396C14.8441 36.4546 14.8403 36.4709 14.8311 36.4894C14.813 36.5246 14.7868 36.5425 14.7518 36.5425C14.7513 36.5425 14.7511 36.5425 14.7506 36.5425ZM14.5868 36.937C14.5666 36.9356 14.5455 36.931 14.5221 36.9219C14.4984 36.9141 14.4743 36.9032 14.4491 36.8906L14.2833 36.806L14.383 36.6102L14.5726 36.7073C14.5935 36.7177 14.6125 36.7286 14.6303 36.74C14.6484 36.7516 14.6633 36.7641 14.6742 36.778C14.6855 36.7912 14.6925 36.806 14.6948 36.8227C14.6971 36.8392 14.6929 36.8575 14.683 36.8772C14.6716 36.8999 14.6577 36.9152 14.6412 36.925C14.6262 36.9331 14.6092 36.937 14.5907 36.937C14.5893 36.937 14.5879 36.937 14.5868 36.937Z" fill="url(#paint16_linear_1497_32163)" style=""/>
<path d="M27.7879 36.7963C27.7786 36.8505 27.7557 36.8948 27.7181 36.93C27.6815 36.9644 27.6347 36.9931 27.5781 37.0149L27.6446 37.1839L27.8398 37.1071L28.1184 37.8169L28.3479 37.7265L27.9566 36.73L27.7879 36.7963Z" fill="url(#paint17_linear_1497_32163)" style=""/>
<path d="M28.2692 36.6022C28.3065 36.6968 28.344 36.7937 28.3802 36.8917C28.4164 36.9895 28.4528 37.0874 28.4894 37.1845L28.685 37.0962C28.6985 37.0695 28.7154 37.0468 28.7349 37.0271C28.7543 37.0065 28.7791 36.9902 28.8083 36.9766C28.8313 36.9664 28.8528 36.961 28.8737 36.961C28.8941 36.961 28.9129 36.9647 28.9309 36.9715C28.9481 36.9786 28.9634 36.9891 28.9768 37.0023C28.9898 37.0157 29.0005 37.0306 29.0084 37.0468C29.0255 37.0853 29.0285 37.1224 29.0167 37.1574C29.0051 37.1926 28.9738 37.2216 28.9235 37.2447C28.886 37.2596 28.8514 37.2624 28.819 37.2531C28.7863 37.2443 28.7603 37.2264 28.7404 37.2002L28.5218 37.2994C28.5835 37.4035 28.6567 37.4654 28.7411 37.4863C28.8262 37.5074 28.9191 37.4944 29.0213 37.448C29.0735 37.4239 29.1187 37.3945 29.1567 37.359C29.1945 37.3233 29.2228 37.2832 29.2422 37.2383C29.2613 37.1942 29.2703 37.146 29.2696 37.0948C29.2694 37.0438 29.2566 36.9907 29.2316 36.9351C29.2096 36.8876 29.1829 36.8474 29.1516 36.8145C29.1201 36.7818 29.0846 36.758 29.045 36.7429C29.0056 36.7276 28.9622 36.7211 28.9156 36.7241C28.8691 36.7269 28.8215 36.7399 28.7712 36.7626C28.7425 36.7758 28.7154 36.7918 28.689 36.8111C28.6625 36.8298 28.6387 36.8542 28.6162 36.8829C28.6071 36.8549 28.5972 36.8271 28.5867 36.7981C28.577 36.77 28.5663 36.7415 28.5559 36.7142L28.9938 36.5153L28.9024 36.3141L28.2692 36.6022Z" fill="url(#paint18_linear_1497_32163)" style=""/>
<path d="M29.671 35.9408C29.6119 35.9438 29.5512 35.9621 29.4891 35.9955C29.4256 36.0296 29.3764 36.0701 29.3403 36.1181C29.3043 36.1659 29.2814 36.2192 29.2714 36.2778C29.2619 36.336 29.2647 36.3995 29.2812 36.4681C29.2969 36.537 29.3252 36.6084 29.3648 36.6828C29.4056 36.7586 29.4497 36.8216 29.4972 36.8728C29.5443 36.9238 29.5948 36.9623 29.6479 36.9869C29.7012 37.0112 29.7582 37.0221 29.8178 37.0187C29.878 37.0149 29.9397 36.9959 30.0034 36.9619C30.0674 36.9276 30.1175 36.8863 30.1532 36.839C30.1889 36.791 30.2111 36.738 30.2206 36.68C30.2301 36.6214 30.2264 36.5588 30.21 36.4908C30.1933 36.4229 30.1657 36.3513 30.1249 36.2757C30.0846 36.2011 30.041 36.1385 29.993 36.0873C29.9453 36.0363 29.8943 35.9985 29.8405 35.9737C29.7925 35.9512 29.7427 35.9403 29.691 35.9403C29.6843 35.9403 29.6778 35.9406 29.671 35.9408ZM29.8043 36.7848C29.7744 36.7806 29.7466 36.769 29.7197 36.7502C29.6928 36.7315 29.6673 36.7062 29.6444 36.6742C29.6203 36.6422 29.5987 36.607 29.5779 36.5683C29.5582 36.5305 29.5412 36.4929 29.528 36.4558C29.5155 36.4185 29.5083 36.384 29.5072 36.3508C29.5062 36.3184 29.513 36.289 29.5266 36.2618C29.5401 36.2349 29.5628 36.2132 29.5962 36.1953C29.6284 36.1782 29.6588 36.1717 29.6877 36.1756C29.7169 36.1791 29.7448 36.1911 29.7716 36.2101C29.7985 36.2294 29.8236 36.2551 29.8467 36.2866C29.8697 36.3182 29.8917 36.3527 29.9114 36.3898C29.9323 36.429 29.9497 36.4672 29.9622 36.5043C29.9756 36.5411 29.983 36.5764 29.9847 36.6093C29.9863 36.6422 29.9805 36.6717 29.9664 36.6988C29.9525 36.7257 29.9297 36.7472 29.8982 36.7644C29.8711 36.7785 29.8456 36.7859 29.821 36.7859C29.8155 36.7859 29.8099 36.7855 29.8043 36.7848Z" fill="url(#paint19_linear_1497_32163)" style=""/>
<path d="M30.5093 35.4183L31.1031 36.3096L31.3078 36.1733L30.8394 35.4695L31.2649 35.186L31.14 34.9985L30.5093 35.4183Z" fill="url(#paint20_linear_1497_32163)" style=""/>
<path d="M31.892 34.4307V35.2457L31.4979 34.7346L31.3032 34.8845L31.9562 35.7329L32.1119 35.6128L32.1175 34.805L32.5062 35.3092L32.7014 35.159L32.048 34.3106L31.892 34.4307Z" fill="url(#paint21_linear_1497_32163)" style=""/>
<path d="M32.7516 33.692L32.8341 34.1906L32.7353 34.278L32.4521 33.9602L32.2678 34.1248L32.9822 34.9226L33.1653 34.7585L32.8853 34.4451L32.9933 34.3482L33.463 34.4924L33.6771 34.3007L33.0439 34.1167L32.9623 33.5035L32.7516 33.692Z" fill="url(#paint22_linear_1497_32163)" style=""/>
<path d="M33.5317 32.922L33.6472 33.4138L33.5559 33.5077L33.2501 33.2101L33.0781 33.3867L33.8451 34.134L34.0174 33.9574L33.7158 33.6642L33.8176 33.5601L34.2957 33.6716L34.496 33.4662L33.8516 33.3255L33.7288 32.7201L33.5317 32.922Z" fill="url(#paint23_linear_1497_32163)" style=""/>
<path d="M34.4834 32.0426C34.4167 32.0477 34.3518 32.0669 34.2892 32.101C34.2275 32.1349 34.1696 32.1828 34.117 32.2454C34.0643 32.3075 34.0263 32.3727 34.0036 32.4406C33.9807 32.5085 33.9728 32.5753 33.9797 32.6425C33.9858 32.7095 34.0069 32.7746 34.0414 32.8372C34.0755 32.9005 34.1241 32.9582 34.1865 33.011C34.2484 33.0632 34.3121 33.101 34.38 33.1258C34.4473 33.1501 34.5142 33.1601 34.5808 33.1561C34.648 33.1517 34.7124 33.133 34.7755 33.0998C34.8385 33.0667 34.8974 33.0185 34.9512 32.9542C35.0052 32.8919 35.0439 32.8263 35.0657 32.7581C35.088 32.6895 35.0951 32.6216 35.0877 32.5539C35.0798 32.4865 35.059 32.4209 35.0235 32.3581C34.9883 32.2953 34.9401 32.2378 34.8786 32.1858C34.8163 32.133 34.7509 32.095 34.6842 32.0709C34.6283 32.0512 34.5722 32.0414 34.5166 32.0414C34.5054 32.0414 34.4943 32.0417 34.4834 32.0426ZM34.5627 32.9063C34.5251 32.9056 34.4878 32.8965 34.451 32.8808C34.4143 32.8648 34.38 32.8437 34.3483 32.817C34.3175 32.7911 34.2915 32.7609 34.2699 32.7278C34.2479 32.6939 34.2331 32.6587 34.2254 32.6216C34.2176 32.585 34.2187 32.5468 34.2285 32.5071C34.2375 32.4682 34.2588 32.4292 34.2903 32.3914C34.3226 32.353 34.358 32.3263 34.3958 32.3117C34.4334 32.2964 34.4718 32.2899 34.5094 32.2915C34.5476 32.2936 34.5843 32.3029 34.6209 32.3196C34.6568 32.3363 34.69 32.3571 34.7201 32.3822C34.7495 32.4079 34.7759 32.4373 34.7982 32.4705C34.8202 32.5036 34.8353 32.5386 34.8434 32.5762C34.8513 32.6133 34.8508 32.6513 34.842 32.69C34.8337 32.7287 34.813 32.7663 34.7817 32.8033C34.7488 32.8407 34.7138 32.8678 34.6763 32.884C34.6417 32.8986 34.6063 32.9063 34.5708 32.9063C34.568 32.9063 34.5655 32.9063 34.5627 32.9063Z" fill="url(#paint24_linear_1497_32163)" style=""/>
<path d="M34.6909 31.0144C34.7129 31.0338 34.725 31.0554 34.7266 31.079C34.7285 31.1027 34.7208 31.1256 34.7039 31.1488C34.6879 31.1708 34.6685 31.1847 34.6457 31.1912C34.623 31.1975 34.5984 31.1935 34.572 31.1799L34.4552 31.3417C34.5312 31.388 34.6022 31.4015 34.6682 31.3815C34.7331 31.3618 34.7915 31.3173 34.8416 31.2478C34.8914 31.1787 34.9146 31.1106 34.9128 31.0419C34.9104 30.9731 34.8766 30.9098 34.8091 30.851L34.6909 31.0144ZM35.0409 31.0672L35.2734 31.8481L34.7496 31.4705L34.6059 31.6703L35.4739 32.2971L35.5894 32.1374L35.3641 31.3614L35.8798 31.7339L36.0247 31.534L35.1559 30.9077L35.0409 31.0672Z" fill="url(#paint25_linear_1497_32163)" style=""/>
<path d="M35.6635 30.0967L36.0309 30.3215L35.8118 30.6799L35.4442 30.4552L35.3156 30.6659L36.2293 31.2239L36.3579 31.0134L36.0017 30.796L36.2207 30.4372L36.577 30.6546L36.7059 30.4448L35.7917 29.8864L35.6635 30.0967Z" fill="url(#paint26_linear_1497_32163)" style=""/>
<path d="M36.4487 28.9241C36.3851 28.9438 36.3265 28.9774 36.2734 29.0245C36.2203 29.0718 36.1761 29.1316 36.1385 29.2041C36.1014 29.2769 36.0794 29.3492 36.0727 29.4202C36.0655 29.4911 36.0732 29.5588 36.0952 29.6225C36.1165 29.6863 36.1517 29.7449 36.1997 29.7982C36.2475 29.8515 36.3077 29.897 36.3808 29.9338C36.4524 29.9704 36.5235 29.9932 36.5947 30.0015C36.6663 30.0099 36.7333 30.0048 36.7975 29.9853C36.8617 29.966 36.9211 29.9329 36.9748 29.8863C37.0282 29.84 37.0743 29.779 37.1123 29.7048C37.151 29.6313 37.1726 29.5588 37.1788 29.4876C37.1851 29.4158 37.1765 29.3481 37.1538 29.2834C37.1318 29.2194 37.0961 29.1606 37.0469 29.1077C36.9978 29.0542 36.9378 29.0094 36.8661 28.9726C36.7929 28.9359 36.7215 28.9132 36.6506 28.9056C36.6306 28.9033 36.6107 28.9021 36.591 28.9021C36.5418 28.9021 36.4943 28.9095 36.4487 28.9241ZM36.6086 29.7475C36.5692 29.7403 36.5314 29.7271 36.4939 29.7083C36.4582 29.69 36.4262 29.6668 36.397 29.6392C36.3682 29.6112 36.346 29.5806 36.3295 29.5463C36.3138 29.5124 36.3061 29.4749 36.3063 29.4341C36.3063 29.394 36.3182 29.3516 36.3409 29.3075C36.3631 29.2623 36.3919 29.2287 36.425 29.2055C36.4582 29.1823 36.4939 29.167 36.5314 29.1603C36.5685 29.1531 36.607 29.1541 36.6459 29.1619C36.6846 29.1698 36.7215 29.1826 36.757 29.2007C36.792 29.2183 36.8237 29.241 36.8529 29.2686C36.8821 29.2957 36.9044 29.3263 36.9208 29.3608C36.9378 29.3954 36.9456 29.432 36.9461 29.4721C36.9461 29.5115 36.9352 29.553 36.9132 29.5961C36.8891 29.6404 36.8613 29.6747 36.8286 29.699C36.7954 29.7231 36.7609 29.7391 36.7233 29.7465C36.7043 29.7505 36.6849 29.7523 36.6652 29.7523C36.6466 29.7523 36.6278 29.7507 36.6086 29.7475Z" fill="url(#paint27_linear_1497_32163)" style=""/>
<path d="M36.9282 27.8516C36.8888 27.8549 36.8531 27.866 36.8216 27.8852C36.79 27.9047 36.7617 27.9311 36.7376 27.9643C36.7133 27.9969 36.6924 28.0333 36.676 28.0732L36.4806 28.5377L37.4676 28.9526L37.6342 28.5553C37.6546 28.5076 37.6711 28.4566 37.6829 28.4035C37.695 28.3507 37.698 28.2999 37.6922 28.251C37.6866 28.2021 37.6697 28.1567 37.6412 28.1147C37.6131 28.0723 37.5682 28.0387 37.507 28.0129C37.4504 27.9893 37.3962 27.9809 37.3454 27.9886C37.2953 27.9962 37.2499 28.0199 37.211 28.0609C37.2045 28.0166 37.1876 27.9789 37.1609 27.9487C37.1336 27.9179 37.0995 27.894 37.0585 27.8769C37.0177 27.8595 36.9799 27.8509 36.9446 27.8509C36.9391 27.8509 36.9335 27.8511 36.9282 27.8516ZM36.7826 28.3973L36.8586 28.216C36.8661 28.1986 36.8742 28.1819 36.8828 28.1662C36.8916 28.1506 36.9015 28.1383 36.9129 28.1281C36.924 28.1177 36.937 28.1115 36.9523 28.1087C36.9676 28.1054 36.9838 28.1077 37.0031 28.1156C37.0397 28.1314 37.0596 28.1571 37.0617 28.1921C37.0638 28.2273 37.055 28.2684 37.0353 28.315L36.9681 28.4749L36.7826 28.3973ZM37.1558 28.5544L37.239 28.3576C37.2476 28.3368 37.2573 28.3166 37.2671 28.2978C37.2775 28.279 37.2891 28.2635 37.3016 28.2512C37.3141 28.2392 37.3287 28.2313 37.3452 28.2276C37.3614 28.2239 37.3797 28.2269 37.3997 28.2352C37.4233 28.245 37.44 28.2579 37.4507 28.2739C37.4606 28.2895 37.4664 28.3073 37.4664 28.327C37.4666 28.3472 37.4636 28.3688 37.4569 28.3933C37.45 28.4172 37.4414 28.442 37.4305 28.468L37.3579 28.6395L37.1558 28.5544Z" fill="url(#paint28_linear_1497_32163)" style=""/>
<path d="M4.52588 21.9999L5.71893 24.0479L6.91176 21.9999L5.71893 19.9516L4.52588 21.9999ZM5.34574 21.9999L5.71893 21.3592L6.0919 21.9999L5.71893 22.6404L5.34574 21.9999Z" fill="url(#paint29_linear_1497_32163)" style=""/>
<path d="M37.2906 21.9999L38.4832 24.0479L39.6763 21.9999L38.4832 19.9516L37.2906 21.9999ZM38.1103 21.9999L38.4832 21.3592L38.8567 21.9999L38.4832 22.6404L38.1103 21.9999Z" fill="url(#paint30_linear_1497_32163)" style=""/>
<path d="M7.2903 11.0028C7.07566 11.0844 6.8784 11.2049 6.69899 11.3641C6.51888 11.5241 6.36103 11.7114 6.22496 11.9267C6.03605 12.2262 5.91181 12.5243 5.85201 12.821C5.79244 13.1174 5.79452 13.4037 5.85826 13.6784C5.92224 13.954 6.04811 14.2148 6.23748 14.4616C6.42547 14.7083 6.67534 14.9294 6.98525 15.1253C7.28867 15.3167 7.59094 15.4449 7.89181 15.5096C8.19291 15.5745 8.48266 15.5761 8.76151 15.5149C9.0406 15.4535 9.3016 15.3323 9.54591 15.1522C9.78953 14.9718 10.0072 14.73 10.1986 14.4269C10.2837 14.292 10.357 14.1478 10.4177 13.9948C10.4789 13.842 10.5232 13.6886 10.5505 13.5351C10.5793 13.3817 10.5876 13.228 10.5774 13.0736C10.5684 12.9195 10.5343 12.7707 10.4768 12.627C10.3646 12.3368 10.2021 12.0899 9.99096 11.8873C9.77863 11.6849 9.53965 11.4993 9.27309 11.3315L9.13076 11.2413L7.89691 13.1965L8.72952 13.7217L9.30669 12.8071C9.37368 12.8699 9.42097 12.9417 9.44647 13.0219C9.47266 13.1024 9.48193 13.1861 9.47544 13.2739C9.46849 13.3615 9.44809 13.4505 9.41355 13.5409C9.37948 13.6318 9.33706 13.7176 9.28629 13.7975C9.17132 13.9804 9.04592 14.1142 8.91009 14.1995C8.77449 14.2848 8.63379 14.3341 8.48799 14.3469C8.34196 14.3594 8.19662 14.3425 8.04943 14.2957C7.9027 14.2491 7.75992 14.1821 7.62107 14.0945C7.50054 14.0182 7.38858 13.9257 7.28358 13.8165C7.17881 13.7069 7.10046 13.5834 7.04715 13.4452C6.9943 13.3071 6.9739 13.1585 6.98641 13.0011C6.99916 12.8428 7.06129 12.6763 7.17209 12.5011C7.29818 12.3006 7.43934 12.1606 7.59372 12.0822C7.74786 12.0034 7.92218 12 8.11712 12.0718L8.73508 11.0915C8.47014 10.9699 8.21656 10.9047 7.97479 10.895C7.94906 10.8941 7.92357 10.8934 7.89807 10.8934C7.68505 10.8934 7.48269 10.9302 7.2903 11.0028Z" fill="url(#paint31_linear_1497_32163)" style=""/>
<path d="M8.61243 8.90341L11.6005 12.3801L14.2231 10.1261L13.5177 9.30604L11.7846 10.7963L11.3411 10.2807L12.7704 9.05201L12.0949 8.26644L10.6654 9.4945L10.2102 8.96437L11.9433 7.47417L11.2345 6.64967L8.61243 8.90341Z" fill="url(#paint32_linear_1497_32163)" style=""/>
<path d="M12.6138 5.7979L14.5639 9.94751L17.6929 8.47722L17.2337 7.49836L15.1642 8.4705L14.8752 7.85485L16.5814 7.05376L16.1405 6.11615L14.4345 6.91724L14.1371 6.2842L16.2066 5.31228L15.7437 4.32761L12.6138 5.7979Z" fill="url(#paint33_linear_1497_32163)" style=""/>
<path d="M20.1238 3.41155L19.4111 5.30277L18.7903 5.39758L18.5233 3.65656L17.3652 3.83389L18.0583 8.36572L19.2171 8.18864L18.953 6.46686L19.6 6.36741L20.7791 7.94919L22.1235 7.74359L20.4303 5.58557L21.4425 3.20966L20.1238 3.41155Z" fill="url(#paint34_linear_1497_32163)" style=""/>
<path d="M24.0849 3.54655C23.7903 3.61169 23.5293 3.72851 23.3012 3.89818C23.0735 4.06739 22.8835 4.28667 22.7316 4.55555C22.58 4.82421 22.476 5.13551 22.4201 5.48946C22.3635 5.84758 22.3635 6.17882 22.4201 6.48294C22.4769 6.78682 22.5865 7.05432 22.7483 7.28518C22.9106 7.51652 23.1238 7.70729 23.386 7.85842C23.6482 8.00909 23.9541 8.11201 24.3041 8.16741C24.5598 8.20774 24.812 8.21075 25.0596 8.17551C25.3081 8.14074 25.5359 8.06518 25.7448 7.94975C25.9524 7.83431 26.1342 7.67692 26.2879 7.47827C26.442 7.27986 26.5519 7.03948 26.6184 6.75692L25.4993 6.58006C25.4198 6.77732 25.2948 6.91918 25.1238 7.00564C24.9529 7.09233 24.7413 7.11551 24.49 7.07587C24.2937 7.04481 24.1335 6.98154 24.0086 6.88465C23.8837 6.78869 23.7893 6.67533 23.7247 6.54506C23.6602 6.41456 23.6206 6.2727 23.6055 6.11971C23.5904 5.96626 23.5944 5.81746 23.6171 5.67259C23.6405 5.52354 23.6818 5.37889 23.7413 5.23958C23.8007 5.1005 23.8809 4.97974 23.9822 4.87798C24.0835 4.77599 24.2079 4.70043 24.3554 4.65198C24.503 4.60308 24.6746 4.5938 24.8711 4.62486C25.1268 4.66566 25.3178 4.75374 25.4423 4.88934C25.5672 5.02517 25.6395 5.19879 25.6583 5.41182L26.7515 5.58497C26.7728 5.28665 26.7438 5.02008 26.665 4.7848C26.5869 4.54907 26.4698 4.34624 26.3159 4.17518C26.1613 4.00434 25.9738 3.86457 25.7531 3.75516C25.5324 3.64598 25.2914 3.57066 25.0315 3.52963C24.8797 3.50529 24.7318 3.49347 24.5883 3.49347C24.4142 3.49347 24.2462 3.51109 24.0849 3.54655Z" fill="url(#paint35_linear_1497_32163)" style=""/>
<path d="M28.9461 5.22971C28.6684 5.31269 28.4111 5.45571 28.1758 5.65783C27.9394 5.86019 27.7382 6.11841 27.5738 6.43157C27.4086 6.74449 27.307 7.0551 27.2697 7.36199C27.2322 7.66912 27.2563 7.96119 27.342 8.23819C27.4283 8.51519 27.5722 8.77085 27.7762 9.00497C27.9797 9.23931 28.2396 9.43959 28.5569 9.60671C28.8666 9.77013 29.1742 9.86772 29.4822 9.90063C29.7891 9.93331 30.083 9.90526 30.364 9.81625C30.6451 9.72817 30.9031 9.58099 31.1389 9.37538C31.3739 9.17024 31.5726 8.91271 31.7357 8.6035C31.9008 8.29057 31.9998 7.98043 32.0322 7.67283C32.0651 7.36547 32.0373 7.07527 31.9497 6.80221C31.8621 6.52892 31.7167 6.27673 31.5134 6.04517C31.3116 5.81407 31.0573 5.61797 30.752 5.4571C30.4423 5.29392 30.1338 5.19448 29.8257 5.15901C29.733 5.14835 29.6417 5.14301 29.5518 5.14301C29.3424 5.14301 29.1405 5.17199 28.9461 5.22971ZM29.1016 8.64267C28.9148 8.54393 28.772 8.42826 28.6735 8.29614C28.5747 8.16332 28.511 8.02239 28.4827 7.87311C28.454 7.72406 28.4544 7.5727 28.4839 7.41994C28.5131 7.26673 28.5643 7.12209 28.6366 6.98441C28.7045 6.8546 28.7924 6.73476 28.899 6.62512C29.0059 6.51549 29.1271 6.43064 29.2636 6.37083C29.3999 6.3108 29.5513 6.28321 29.717 6.28762C29.8832 6.29225 30.058 6.34302 30.2416 6.43945C30.4245 6.53588 30.561 6.6534 30.6523 6.79178C30.743 6.9297 30.8 7.07341 30.8238 7.22246C30.8477 7.37173 30.8419 7.52124 30.8069 7.67098C30.7719 7.82095 30.7233 7.9554 30.6607 8.07338C30.5944 8.19925 30.5093 8.317 30.4052 8.42548C30.3018 8.53442 30.1825 8.62018 30.0469 8.68277C29.911 8.74605 29.7639 8.77804 29.6041 8.7792C29.6016 8.7792 29.5993 8.7792 29.5967 8.7792C29.4398 8.7792 29.2745 8.73377 29.1016 8.64267Z" fill="url(#paint36_linear_1497_32163)" style=""/>
<path d="M30.8829 11.0655L31.7612 11.8423L34.798 8.40729L33.9195 7.63101L30.8829 11.0655Z" fill="url(#paint37_linear_1497_32163)" style=""/>
<path d="M32.3412 12.224L33.0113 13.1862L35.1315 11.7096L34.1362 14.8013L34.7428 15.6731L38.5051 13.0533L37.8355 12.0914L35.6835 13.5902L36.7296 10.5024L36.1039 9.60443L32.3412 12.224Z" fill="url(#paint38_linear_1497_32163)" style=""/>
<path d="M15.6038 16.6892L15.5679 16.7252C15.3463 16.9468 15.0313 17.1273 14.6312 17.262C14.2223 17.3997 13.6811 17.5033 13.0223 17.5696L12.9117 17.5805V18.3846H13.5916C13.9757 18.3846 14.2406 18.4483 14.379 18.574C14.5121 18.695 14.5825 18.9699 14.5825 19.369V24.3821C14.5825 24.7576 14.5028 25.0339 14.3461 25.2034C14.192 25.3705 13.9381 25.4553 13.5916 25.4553H12.9117V26.3721H18.4614V25.4553H17.8323C17.4855 25.4553 17.2315 25.3716 17.0773 25.2061C16.9207 25.0385 16.8412 24.7615 16.8412 24.3821V16.6892H15.6038Z" fill="url(#paint39_radial_1497_32163)" style=""/>
<path d="M19.9536 16.6746C19.8783 17.5042 19.7774 18.3602 19.6536 19.2185C19.5299 20.0789 19.3776 20.9584 19.2023 21.8325L19.1759 21.963L20.2299 22.0895L20.2705 22.02C20.4297 21.75 20.6149 21.5381 20.8214 21.3902C21.0238 21.2458 21.2252 21.1756 21.4368 21.1756C21.8888 21.1756 22.2152 21.3452 22.4338 21.6939C22.6605 22.0562 22.7762 22.6199 22.7762 23.3693C22.7762 24.1486 22.648 24.7517 22.3956 25.1625C22.1515 25.5595 21.8128 25.7526 21.3608 25.7526C21.1334 25.7526 20.9255 25.7141 20.7433 25.6386C20.6218 25.588 20.5651 25.55 20.54 25.5319C20.5542 25.5157 20.5748 25.4937 20.6054 25.4633C20.9533 25.1201 21.1295 24.7731 21.1295 24.4325C21.1295 24.0807 21.0222 23.79 20.8105 23.5689C20.5973 23.3461 20.3161 23.2335 19.9747 23.2335C19.6115 23.2335 19.3055 23.3649 19.0649 23.6238C18.8268 23.8804 18.7061 24.2056 18.7061 24.5906C18.7061 25.1826 18.9787 25.6784 19.5169 26.0642C20.0424 26.4408 20.7178 26.6316 21.5256 26.6316C22.591 26.6316 23.4743 26.3085 24.1512 25.6708C24.8299 25.0313 25.1741 24.2056 25.1741 23.2172C25.1741 22.3274 24.882 21.5815 24.3056 21.0008C23.7298 20.4204 22.9901 20.1258 22.1077 20.1258C21.7734 20.1258 21.4468 20.1858 21.1362 20.3047C20.8984 20.396 20.6383 20.5379 20.3609 20.7277C20.4494 20.196 20.5152 19.7938 20.5581 19.521C20.5994 19.2609 20.636 19.0233 20.6691 18.8075C20.9434 18.9026 21.2095 18.9774 21.4621 19.0308C21.7602 19.0933 22.0393 19.1251 22.2913 19.1251C22.9213 19.1251 23.4794 18.9248 23.9497 18.5294C24.412 18.1414 24.812 17.5454 25.1391 16.758L25.21 16.5876H24.552L24.5151 16.6382C24.3547 16.857 24.1825 17.0125 24.0028 17.1001C23.8225 17.1887 23.5833 17.2334 23.2915 17.2334C22.8902 17.2334 22.2083 17.1089 21.2653 16.8642L21.0495 16.8067L19.9666 16.5304L19.9536 16.6746Z" fill="url(#paint40_radial_1497_32163)" style=""/>
<path d="M26.3776 17.9996C25.7958 18.9186 25.5007 20.1291 25.5007 21.5973C25.5007 23.1072 25.7884 24.3304 26.3554 25.2321C26.9337 26.1525 27.7162 26.6189 28.6812 26.6189C29.6163 26.6189 30.3923 26.1432 30.9874 25.2042C31.5715 24.2828 31.8672 23.0692 31.8672 21.5973C31.8672 20.0827 31.5798 18.8607 31.0126 17.9648C30.434 17.0508 29.6499 16.5877 28.6812 16.5877C27.7457 16.5877 26.9708 17.0626 26.3776 17.9996ZM28.1527 25.1479C28.0264 24.7569 27.962 24.0756 27.962 23.1227V20.0398C27.962 19.083 28.0264 18.3983 28.1527 18.0049C28.2661 17.6514 28.439 17.4794 28.6812 17.4794C28.9274 17.4794 29.1021 17.6514 29.2155 18.0049C29.3418 18.3983 29.406 19.083 29.406 20.0398V23.1227C29.406 24.0756 29.3418 24.7569 29.2155 25.1479C29.1021 25.4996 28.9274 25.6704 28.6812 25.6704C28.439 25.6704 28.2661 25.4996 28.1527 25.1479Z" fill="url(#paint41_radial_1497_32163)" style=""/>
<defs>
<linearGradient id="paint0_linear_1497_32163" x1="41.4875" y1="3.308" x2="1.43544" y2="41.7253" gradientUnits="userSpaceOnUse">
<stop stop-color="#E5E4E4" style="stop-color:#E5E4E4;stop-color:color(display-p3 0.8980 0.8941 0.8941);stop-opacity:1;"/>
<stop offset="0.0916688" stop-color="#E5E4E4" style="stop-color:#E5E4E4;stop-color:color(display-p3 0.8980 0.8941 0.8941);stop-opacity:1;"/>
<stop offset="0.276102" stop-color="#99A7AE" style="stop-color:#99A7AE;stop-color:color(display-p3 0.6000 0.6549 0.6824);stop-opacity:1;"/>
<stop offset="0.588153" stop-color="#A6BAC3" style="stop-color:#A6BAC3;stop-color:color(display-p3 0.6510 0.7294 0.7647);stop-opacity:1;"/>
<stop offset="0.720506" stop-color="#A6BAC3" style="stop-color:#A6BAC3;stop-color:color(display-p3 0.6510 0.7294 0.7647);stop-opacity:1;"/>
<stop offset="0.9549" stop-color="#657178" style="stop-color:#657178;stop-color:color(display-p3 0.3961 0.4431 0.4706);stop-opacity:1;"/>
<stop offset="1" stop-color="#657178" style="stop-color:#657178;stop-color:color(display-p3 0.3961 0.4431 0.4706);stop-opacity:1;"/>
</linearGradient>
<radialGradient id="paint1_radial_1497_32163" cx="0" cy="0" r="1" gradientUnits="userSpaceOnUse" gradientTransform="translate(21.9995 22.0002) scale(20.9212 20.9213)">
<stop stop-color="#4C535A" style="stop-color:#4C535A;stop-color:color(display-p3 0.2980 0.3255 0.3529);stop-opacity:1;"/>
<stop offset="0.525396" stop-color="#4C535A" style="stop-color:#4C535A;stop-color:color(display-p3 0.2980 0.3255 0.3529);stop-opacity:1;"/>
<stop offset="0.997191" stop-color="#2C3640" style="stop-color:#2C3640;stop-color:color(display-p3 0.1725 0.2118 0.2510);stop-opacity:1;"/>
<stop offset="1" stop-color="#2C3640" style="stop-color:#2C3640;stop-color:color(display-p3 0.1725 0.2118 0.2510);stop-opacity:1;"/>
</radialGradient>
<linearGradient id="paint2_linear_1497_32163" x1="41.5358" y1="3.3576" x2="1.4837" y2="41.7749" gradientUnits="userSpaceOnUse">
<stop stop-color="#E5E4E4" style="stop-color:#E5E4E4;stop-color:color(display-p3 0.8980 0.8941 0.8941);stop-opacity:1;"/>
<stop offset="0.0916688" stop-color="#E5E4E4" style="stop-color:#E5E4E4;stop-color:color(display-p3 0.8980 0.8941 0.8941);stop-opacity:1;"/>
<stop offset="0.276102" stop-color="#99A7AE" style="stop-color:#99A7AE;stop-color:color(display-p3 0.6000 0.6549 0.6824);stop-opacity:1;"/>
<stop offset="0.588153" stop-color="#A6BAC3" style="stop-color:#A6BAC3;stop-color:color(display-p3 0.6510 0.7294 0.7647);stop-opacity:1;"/>
<stop offset="0.720506" stop-color="#A6BAC3" style="stop-color:#A6BAC3;stop-color:color(display-p3 0.6510 0.7294 0.7647);stop-opacity:1;"/>
<stop offset="0.9549" stop-color="#657178" style="stop-color:#657178;stop-color:color(display-p3 0.3961 0.4431 0.4706);stop-opacity:1;"/>
<stop offset="1" stop-color="#657178" style="stop-color:#657178;stop-color:color(display-p3 0.3961 0.4431 0.4706);stop-opacity:1;"/>
</linearGradient>
<linearGradient id="paint3_linear_1497_32163" x1="41.488" y1="3.30808" x2="1.43596" y2="41.7254" gradientUnits="userSpaceOnUse">
<stop stop-color="#E5E4E4" style="stop-color:#E5E4E4;stop-color:color(display-p3 0.8980 0.8941 0.8941);stop-opacity:1;"/>
<stop offset="0.0916688" stop-color="#E5E4E4" style="stop-color:#E5E4E4;stop-color:color(display-p3 0.8980 0.8941 0.8941);stop-opacity:1;"/>
<stop offset="0.276102" stop-color="#99A7AE" style="stop-color:#99A7AE;stop-color:color(display-p3 0.6000 0.6549 0.6824);stop-opacity:1;"/>
<stop offset="0.588153" stop-color="#A6BAC3" style="stop-color:#A6BAC3;stop-color:color(display-p3 0.6510 0.7294 0.7647);stop-opacity:1;"/>
<stop offset="0.720506" stop-color="#A6BAC3" style="stop-color:#A6BAC3;stop-color:color(display-p3 0.6510 0.7294 0.7647);stop-opacity:1;"/>
<stop offset="0.9549" stop-color="#657178" style="stop-color:#657178;stop-color:color(display-p3 0.3961 0.4431 0.4706);stop-opacity:1;"/>
<stop offset="1" stop-color="#657178" style="stop-color:#657178;stop-color:color(display-p3 0.3961 0.4431 0.4706);stop-opacity:1;"/>
</linearGradient>
<linearGradient id="paint4_linear_1497_32163" x1="46.8272" y1="12.7219" x2="9.73483" y2="48.3003" gradientUnits="userSpaceOnUse">
<stop stop-color="#E5E4E4" style="stop-color:#E5E4E4;stop-color:color(display-p3 0.8980 0.8941 0.8941);stop-opacity:1;"/>
<stop offset="0.0916688" stop-color="#E5E4E4" style="stop-color:#E5E4E4;stop-color:color(display-p3 0.8980 0.8941 0.8941);stop-opacity:1;"/>
<stop offset="0.276102" stop-color="#99A7AE" style="stop-color:#99A7AE;stop-color:color(display-p3 0.6000 0.6549 0.6824);stop-opacity:1;"/>
<stop offset="0.588153" stop-color="#A6BAC3" style="stop-color:#A6BAC3;stop-color:color(display-p3 0.6510 0.7294 0.7647);stop-opacity:1;"/>
<stop offset="0.720506" stop-color="#A6BAC3" style="stop-color:#A6BAC3;stop-color:color(display-p3 0.6510 0.7294 0.7647);stop-opacity:1;"/>
<stop offset="0.9549" stop-color="#657178" style="stop-color:#657178;stop-color:color(display-p3 0.3961 0.4431 0.4706);stop-opacity:1;"/>
<stop offset="1" stop-color="#657178" style="stop-color:#657178;stop-color:color(display-p3 0.3961 0.4431 0.4706);stop-opacity:1;"/>
</linearGradient>
<linearGradient id="paint5_linear_1497_32163" x1="36.4266" y1="-1.96817" x2="-3.62528" y2="36.449" gradientUnits="userSpaceOnUse">
<stop stop-color="#E5E4E4" style="stop-color:#E5E4E4;stop-color:color(display-p3 0.8980 0.8941 0.8941);stop-opacity:1;"/>
<stop offset="0.0916688" stop-color="#E5E4E4" style="stop-color:#E5E4E4;stop-color:color(display-p3 0.8980 0.8941 0.8941);stop-opacity:1;"/>
<stop offset="0.276102" stop-color="#99A7AE" style="stop-color:#99A7AE;stop-color:color(display-p3 0.6000 0.6549 0.6824);stop-opacity:1;"/>
<stop offset="0.588153" stop-color="#A6BAC3" style="stop-color:#A6BAC3;stop-color:color(display-p3 0.6510 0.7294 0.7647);stop-opacity:1;"/>
<stop offset="0.720506" stop-color="#A6BAC3" style="stop-color:#A6BAC3;stop-color:color(display-p3 0.6510 0.7294 0.7647);stop-opacity:1;"/>
<stop offset="0.9549" stop-color="#657178" style="stop-color:#657178;stop-color:color(display-p3 0.3961 0.4431 0.4706);stop-opacity:1;"/>
<stop offset="1" stop-color="#657178" style="stop-color:#657178;stop-color:color(display-p3 0.3961 0.4431 0.4706);stop-opacity:1;"/>
</linearGradient>
<linearGradient id="paint6_linear_1497_32163" x1="36.9715" y1="-1.40054" x2="-3.08032" y2="37.0168" gradientUnits="userSpaceOnUse">
<stop stop-color="#E5E4E4" style="stop-color:#E5E4E4;stop-color:color(display-p3 0.8980 0.8941 0.8941);stop-opacity:1;"/>
<stop offset="0.0916688" stop-color="#E5E4E4" style="stop-color:#E5E4E4;stop-color:color(display-p3 0.8980 0.8941 0.8941);stop-opacity:1;"/>
<stop offset="0.276102" stop-color="#99A7AE" style="stop-color:#99A7AE;stop-color:color(display-p3 0.6000 0.6549 0.6824);stop-opacity:1;"/>
<stop offset="0.588153" stop-color="#A6BAC3" style="stop-color:#A6BAC3;stop-color:color(display-p3 0.6510 0.7294 0.7647);stop-opacity:1;"/>
<stop offset="0.720506" stop-color="#A6BAC3" style="stop-color:#A6BAC3;stop-color:color(display-p3 0.6510 0.7294 0.7647);stop-opacity:1;"/>
<stop offset="0.9549" stop-color="#657178" style="stop-color:#657178;stop-color:color(display-p3 0.3961 0.4431 0.4706);stop-opacity:1;"/>
<stop offset="1" stop-color="#657178" style="stop-color:#657178;stop-color:color(display-p3 0.3961 0.4431 0.4706);stop-opacity:1;"/>
</linearGradient>
<linearGradient id="paint7_linear_1497_32163" x1="37.6266" y1="-0.717138" x2="-2.42545" y2="37.7002" gradientUnits="userSpaceOnUse">
<stop stop-color="#E5E4E4" style="stop-color:#E5E4E4;stop-color:color(display-p3 0.8980 0.8941 0.8941);stop-opacity:1;"/>
<stop offset="0.0916688" stop-color="#E5E4E4" style="stop-color:#E5E4E4;stop-color:color(display-p3 0.8980 0.8941 0.8941);stop-opacity:1;"/>
<stop offset="0.276102" stop-color="#99A7AE" style="stop-color:#99A7AE;stop-color:color(display-p3 0.6000 0.6549 0.6824);stop-opacity:1;"/>
<stop offset="0.588153" stop-color="#A6BAC3" style="stop-color:#A6BAC3;stop-color:color(display-p3 0.6510 0.7294 0.7647);stop-opacity:1;"/>
<stop offset="0.720506" stop-color="#A6BAC3" style="stop-color:#A6BAC3;stop-color:color(display-p3 0.6510 0.7294 0.7647);stop-opacity:1;"/>
<stop offset="0.9549" stop-color="#657178" style="stop-color:#657178;stop-color:color(display-p3 0.3961 0.4431 0.4706);stop-opacity:1;"/>
<stop offset="1" stop-color="#657178" style="stop-color:#657178;stop-color:color(display-p3 0.3961 0.4431 0.4706);stop-opacity:1;"/>
</linearGradient>
<linearGradient id="paint8_linear_1497_32163" x1="38.6887" y1="0.390792" x2="-1.36306" y2="38.808" gradientUnits="userSpaceOnUse">
<stop stop-color="#E5E4E4" style="stop-color:#E5E4E4;stop-color:color(display-p3 0.8980 0.8941 0.8941);stop-opacity:1;"/>
<stop offset="0.0916688" stop-color="#E5E4E4" style="stop-color:#E5E4E4;stop-color:color(display-p3 0.8980 0.8941 0.8941);stop-opacity:1;"/>
<stop offset="0.276102" stop-color="#99A7AE" style="stop-color:#99A7AE;stop-color:color(display-p3 0.6000 0.6549 0.6824);stop-opacity:1;"/>
<stop offset="0.588153" stop-color="#A6BAC3" style="stop-color:#A6BAC3;stop-color:color(display-p3 0.6510 0.7294 0.7647);stop-opacity:1;"/>
<stop offset="0.720506" stop-color="#A6BAC3" style="stop-color:#A6BAC3;stop-color:color(display-p3 0.6510 0.7294 0.7647);stop-opacity:1;"/>
<stop offset="0.9549" stop-color="#657178" style="stop-color:#657178;stop-color:color(display-p3 0.3961 0.4431 0.4706);stop-opacity:1;"/>
<stop offset="1" stop-color="#657178" style="stop-color:#657178;stop-color:color(display-p3 0.3961 0.4431 0.4706);stop-opacity:1;"/>
</linearGradient>
<linearGradient id="paint9_linear_1497_32163" x1="39.4227" y1="1.15522" x2="-0.629187" y2="39.5726" gradientUnits="userSpaceOnUse">
<stop stop-color="#E5E4E4" style="stop-color:#E5E4E4;stop-color:color(display-p3 0.8980 0.8941 0.8941);stop-opacity:1;"/>
<stop offset="0.0916688" stop-color="#E5E4E4" style="stop-color:#E5E4E4;stop-color:color(display-p3 0.8980 0.8941 0.8941);stop-opacity:1;"/>
<stop offset="0.276102" stop-color="#99A7AE" style="stop-color:#99A7AE;stop-color:color(display-p3 0.6000 0.6549 0.6824);stop-opacity:1;"/>
<stop offset="0.588153" stop-color="#A6BAC3" style="stop-color:#A6BAC3;stop-color:color(display-p3 0.6510 0.7294 0.7647);stop-opacity:1;"/>
<stop offset="0.720506" stop-color="#A6BAC3" style="stop-color:#A6BAC3;stop-color:color(display-p3 0.6510 0.7294 0.7647);stop-opacity:1;"/>
<stop offset="0.9549" stop-color="#657178" style="stop-color:#657178;stop-color:color(display-p3 0.3961 0.4431 0.4706);stop-opacity:1;"/>
<stop offset="1" stop-color="#657178" style="stop-color:#657178;stop-color:color(display-p3 0.3961 0.4431 0.4706);stop-opacity:1;"/>
</linearGradient>
<linearGradient id="paint10_linear_1497_32163" x1="40.2877" y1="2.05717" x2="0.23585" y2="40.4744" gradientUnits="userSpaceOnUse">
<stop stop-color="#E5E4E4" style="stop-color:#E5E4E4;stop-color:color(display-p3 0.8980 0.8941 0.8941);stop-opacity:1;"/>
<stop offset="0.0916688" stop-color="#E5E4E4" style="stop-color:#E5E4E4;stop-color:color(display-p3 0.8980 0.8941 0.8941);stop-opacity:1;"/>
<stop offset="0.276102" stop-color="#99A7AE" style="stop-color:#99A7AE;stop-color:color(display-p3 0.6000 0.6549 0.6824);stop-opacity:1;"/>
<stop offset="0.588153" stop-color="#A6BAC3" style="stop-color:#A6BAC3;stop-color:color(display-p3 0.6510 0.7294 0.7647);stop-opacity:1;"/>
<stop offset="0.720506" stop-color="#A6BAC3" style="stop-color:#A6BAC3;stop-color:color(display-p3 0.6510 0.7294 0.7647);stop-opacity:1;"/>
<stop offset="0.9549" stop-color="#657178" style="stop-color:#657178;stop-color:color(display-p3 0.3961 0.4431 0.4706);stop-opacity:1;"/>
<stop offset="1" stop-color="#657178" style="stop-color:#657178;stop-color:color(display-p3 0.3961 0.4431 0.4706);stop-opacity:1;"/>
</linearGradient>
<linearGradient id="paint11_linear_1497_32163" x1="41.07" y1="2.87258" x2="1.01788" y2="41.2899" gradientUnits="userSpaceOnUse">
<stop stop-color="#E5E4E4" style="stop-color:#E5E4E4;stop-color:color(display-p3 0.8980 0.8941 0.8941);stop-opacity:1;"/>
<stop offset="0.0916688" stop-color="#E5E4E4" style="stop-color:#E5E4E4;stop-color:color(display-p3 0.8980 0.8941 0.8941);stop-opacity:1;"/>
<stop offset="0.276102" stop-color="#99A7AE" style="stop-color:#99A7AE;stop-color:color(display-p3 0.6000 0.6549 0.6824);stop-opacity:1;"/>
<stop offset="0.588153" stop-color="#A6BAC3" style="stop-color:#A6BAC3;stop-color:color(display-p3 0.6510 0.7294 0.7647);stop-opacity:1;"/>
<stop offset="0.720506" stop-color="#A6BAC3" style="stop-color:#A6BAC3;stop-color:color(display-p3 0.6510 0.7294 0.7647);stop-opacity:1;"/>
<stop offset="0.9549" stop-color="#657178" style="stop-color:#657178;stop-color:color(display-p3 0.3961 0.4431 0.4706);stop-opacity:1;"/>
<stop offset="1" stop-color="#657178" style="stop-color:#657178;stop-color:color(display-p3 0.3961 0.4431 0.4706);stop-opacity:1;"/>
</linearGradient>
<linearGradient id="paint12_linear_1497_32163" x1="41.8412" y1="3.67693" x2="1.78952" y2="42.0942" gradientUnits="userSpaceOnUse">
<stop stop-color="#E5E4E4" style="stop-color:#E5E4E4;stop-color:color(display-p3 0.8980 0.8941 0.8941);stop-opacity:1;"/>
<stop offset="0.0916688" stop-color="#E5E4E4" style="stop-color:#E5E4E4;stop-color:color(display-p3 0.8980 0.8941 0.8941);stop-opacity:1;"/>
<stop offset="0.276102" stop-color="#99A7AE" style="stop-color:#99A7AE;stop-color:color(display-p3 0.6000 0.6549 0.6824);stop-opacity:1;"/>
<stop offset="0.588153" stop-color="#A6BAC3" style="stop-color:#A6BAC3;stop-color:color(display-p3 0.6510 0.7294 0.7647);stop-opacity:1;"/>
<stop offset="0.720506" stop-color="#A6BAC3" style="stop-color:#A6BAC3;stop-color:color(display-p3 0.6510 0.7294 0.7647);stop-opacity:1;"/>
<stop offset="0.9549" stop-color="#657178" style="stop-color:#657178;stop-color:color(display-p3 0.3961 0.4431 0.4706);stop-opacity:1;"/>
<stop offset="1" stop-color="#657178" style="stop-color:#657178;stop-color:color(display-p3 0.3961 0.4431 0.4706);stop-opacity:1;"/>
</linearGradient>
<linearGradient id="paint13_linear_1497_32163" x1="42.7167" y1="4.58965" x2="2.66486" y2="43.0069" gradientUnits="userSpaceOnUse">
<stop stop-color="#E5E4E4" style="stop-color:#E5E4E4;stop-color:color(display-p3 0.8980 0.8941 0.8941);stop-opacity:1;"/>
<stop offset="0.0916688" stop-color="#E5E4E4" style="stop-color:#E5E4E4;stop-color:color(display-p3 0.8980 0.8941 0.8941);stop-opacity:1;"/>
<stop offset="0.276102" stop-color="#99A7AE" style="stop-color:#99A7AE;stop-color:color(display-p3 0.6000 0.6549 0.6824);stop-opacity:1;"/>
<stop offset="0.588153" stop-color="#A6BAC3" style="stop-color:#A6BAC3;stop-color:color(display-p3 0.6510 0.7294 0.7647);stop-opacity:1;"/>
<stop offset="0.720506" stop-color="#A6BAC3" style="stop-color:#A6BAC3;stop-color:color(display-p3 0.6510 0.7294 0.7647);stop-opacity:1;"/>
<stop offset="0.9549" stop-color="#657178" style="stop-color:#657178;stop-color:color(display-p3 0.3961 0.4431 0.4706);stop-opacity:1;"/>
<stop offset="1" stop-color="#657178" style="stop-color:#657178;stop-color:color(display-p3 0.3961 0.4431 0.4706);stop-opacity:1;"/>
</linearGradient>
<linearGradient id="paint14_linear_1497_32163" x1="43.5772" y1="5.48633" x2="3.52511" y2="43.9036" gradientUnits="userSpaceOnUse">
<stop stop-color="#E5E4E4" style="stop-color:#E5E4E4;stop-color:color(display-p3 0.8980 0.8941 0.8941);stop-opacity:1;"/>
<stop offset="0.0916688" stop-color="#E5E4E4" style="stop-color:#E5E4E4;stop-color:color(display-p3 0.8980 0.8941 0.8941);stop-opacity:1;"/>
<stop offset="0.276102" stop-color="#99A7AE" style="stop-color:#99A7AE;stop-color:color(display-p3 0.6000 0.6549 0.6824);stop-opacity:1;"/>
<stop offset="0.588153" stop-color="#A6BAC3" style="stop-color:#A6BAC3;stop-color:color(display-p3 0.6510 0.7294 0.7647);stop-opacity:1;"/>
<stop offset="0.720506" stop-color="#A6BAC3" style="stop-color:#A6BAC3;stop-color:color(display-p3 0.6510 0.7294 0.7647);stop-opacity:1;"/>
<stop offset="0.9549" stop-color="#657178" style="stop-color:#657178;stop-color:color(display-p3 0.3961 0.4431 0.4706);stop-opacity:1;"/>
<stop offset="1" stop-color="#657178" style="stop-color:#657178;stop-color:color(display-p3 0.3961 0.4431 0.4706);stop-opacity:1;"/>
</linearGradient>
<linearGradient id="paint15_linear_1497_32163" x1="44.4276" y1="6.37307" x2="4.37538" y2="44.7904" gradientUnits="userSpaceOnUse">
<stop stop-color="#E5E4E4" style="stop-color:#E5E4E4;stop-color:color(display-p3 0.8980 0.8941 0.8941);stop-opacity:1;"/>
<stop offset="0.0916688" stop-color="#E5E4E4" style="stop-color:#E5E4E4;stop-color:color(display-p3 0.8980 0.8941 0.8941);stop-opacity:1;"/>
<stop offset="0.276102" stop-color="#99A7AE" style="stop-color:#99A7AE;stop-color:color(display-p3 0.6000 0.6549 0.6824);stop-opacity:1;"/>
<stop offset="0.588153" stop-color="#A6BAC3" style="stop-color:#A6BAC3;stop-color:color(display-p3 0.6510 0.7294 0.7647);stop-opacity:1;"/>
<stop offset="0.720506" stop-color="#A6BAC3" style="stop-color:#A6BAC3;stop-color:color(display-p3 0.6510 0.7294 0.7647);stop-opacity:1;"/>
<stop offset="0.9549" stop-color="#657178" style="stop-color:#657178;stop-color:color(display-p3 0.3961 0.4431 0.4706);stop-opacity:1;"/>
<stop offset="1" stop-color="#657178" style="stop-color:#657178;stop-color:color(display-p3 0.3961 0.4431 0.4706);stop-opacity:1;"/>
</linearGradient>
<linearGradient id="paint16_linear_1497_32163" x1="45.2114" y1="7.19091" x2="5.15928" y2="45.608" gradientUnits="userSpaceOnUse">
<stop stop-color="#E5E4E4" style="stop-color:#E5E4E4;stop-color:color(display-p3 0.8980 0.8941 0.8941);stop-opacity:1;"/>
<stop offset="0.0916688" stop-color="#E5E4E4" style="stop-color:#E5E4E4;stop-color:color(display-p3 0.8980 0.8941 0.8941);stop-opacity:1;"/>
<stop offset="0.276102" stop-color="#99A7AE" style="stop-color:#99A7AE;stop-color:color(display-p3 0.6000 0.6549 0.6824);stop-opacity:1;"/>
<stop offset="0.588153" stop-color="#A6BAC3" style="stop-color:#A6BAC3;stop-color:color(display-p3 0.6510 0.7294 0.7647);stop-opacity:1;"/>
<stop offset="0.720506" stop-color="#A6BAC3" style="stop-color:#A6BAC3;stop-color:color(display-p3 0.6510 0.7294 0.7647);stop-opacity:1;"/>
<stop offset="0.9549" stop-color="#657178" style="stop-color:#657178;stop-color:color(display-p3 0.3961 0.4431 0.4706);stop-opacity:1;"/>
<stop offset="1" stop-color="#657178" style="stop-color:#657178;stop-color:color(display-p3 0.3961 0.4431 0.4706);stop-opacity:1;"/>
</linearGradient>
<linearGradient id="paint17_linear_1497_32163" x1="52.0198" y1="14.2877" x2="11.968" y2="52.7055" gradientUnits="userSpaceOnUse">
<stop stop-color="#E5E4E4" style="stop-color:#E5E4E4;stop-color:color(display-p3 0.8980 0.8941 0.8941);stop-opacity:1;"/>
<stop offset="0.0916688" stop-color="#E5E4E4" style="stop-color:#E5E4E4;stop-color:color(display-p3 0.8980 0.8941 0.8941);stop-opacity:1;"/>
<stop offset="0.276102" stop-color="#99A7AE" style="stop-color:#99A7AE;stop-color:color(display-p3 0.6000 0.6549 0.6824);stop-opacity:1;"/>
<stop offset="0.588153" stop-color="#A6BAC3" style="stop-color:#A6BAC3;stop-color:color(display-p3 0.6510 0.7294 0.7647);stop-opacity:1;"/>
<stop offset="0.720506" stop-color="#A6BAC3" style="stop-color:#A6BAC3;stop-color:color(display-p3 0.6510 0.7294 0.7647);stop-opacity:1;"/>
<stop offset="0.9549" stop-color="#657178" style="stop-color:#657178;stop-color:color(display-p3 0.3961 0.4431 0.4706);stop-opacity:1;"/>
<stop offset="1" stop-color="#657178" style="stop-color:#657178;stop-color:color(display-p3 0.3961 0.4431 0.4706);stop-opacity:1;"/>
</linearGradient>
<linearGradient id="paint18_linear_1497_32163" x1="52.1878" y1="14.4637" x2="12.1357" y2="52.8808" gradientUnits="userSpaceOnUse">
<stop stop-color="#E5E4E4" style="stop-color:#E5E4E4;stop-color:color(display-p3 0.8980 0.8941 0.8941);stop-opacity:1;"/>
<stop offset="0.0916688" stop-color="#E5E4E4" style="stop-color:#E5E4E4;stop-color:color(display-p3 0.8980 0.8941 0.8941);stop-opacity:1;"/>
<stop offset="0.276102" stop-color="#99A7AE" style="stop-color:#99A7AE;stop-color:color(display-p3 0.6000 0.6549 0.6824);stop-opacity:1;"/>
<stop offset="0.588153" stop-color="#A6BAC3" style="stop-color:#A6BAC3;stop-color:color(display-p3 0.6510 0.7294 0.7647);stop-opacity:1;"/>
<stop offset="0.720506" stop-color="#A6BAC3" style="stop-color:#A6BAC3;stop-color:color(display-p3 0.6510 0.7294 0.7647);stop-opacity:1;"/>
<stop offset="0.9549" stop-color="#657178" style="stop-color:#657178;stop-color:color(display-p3 0.3961 0.4431 0.4706);stop-opacity:1;"/>
<stop offset="1" stop-color="#657178" style="stop-color:#657178;stop-color:color(display-p3 0.3961 0.4431 0.4706);stop-opacity:1;"/>
</linearGradient>
<linearGradient id="paint19_linear_1497_32163" x1="52.4321" y1="14.7189" x2="12.3798" y2="53.1364" gradientUnits="userSpaceOnUse">
<stop stop-color="#E5E4E4" style="stop-color:#E5E4E4;stop-color:color(display-p3 0.8980 0.8941 0.8941);stop-opacity:1;"/>
<stop offset="0.0916688" stop-color="#E5E4E4" style="stop-color:#E5E4E4;stop-color:color(display-p3 0.8980 0.8941 0.8941);stop-opacity:1;"/>
<stop offset="0.276102" stop-color="#99A7AE" style="stop-color:#99A7AE;stop-color:color(display-p3 0.6000 0.6549 0.6824);stop-opacity:1;"/>
<stop offset="0.588153" stop-color="#A6BAC3" style="stop-color:#A6BAC3;stop-color:color(display-p3 0.6510 0.7294 0.7647);stop-opacity:1;"/>
<stop offset="0.720506" stop-color="#A6BAC3" style="stop-color:#A6BAC3;stop-color:color(display-p3 0.6510 0.7294 0.7647);stop-opacity:1;"/>
<stop offset="0.9549" stop-color="#657178" style="stop-color:#657178;stop-color:color(display-p3 0.3961 0.4431 0.4706);stop-opacity:1;"/>
<stop offset="1" stop-color="#657178" style="stop-color:#657178;stop-color:color(display-p3 0.3961 0.4431 0.4706);stop-opacity:1;"/>
</linearGradient>
<linearGradient id="paint20_linear_1497_32163" x1="52.648" y1="14.9437" x2="12.5959" y2="53.361" gradientUnits="userSpaceOnUse">
<stop stop-color="#E5E4E4" style="stop-color:#E5E4E4;stop-color:color(display-p3 0.8980 0.8941 0.8941);stop-opacity:1;"/>
<stop offset="0.0916688" stop-color="#E5E4E4" style="stop-color:#E5E4E4;stop-color:color(display-p3 0.8980 0.8941 0.8941);stop-opacity:1;"/>
<stop offset="0.276102" stop-color="#99A7AE" style="stop-color:#99A7AE;stop-color:color(display-p3 0.6000 0.6549 0.6824);stop-opacity:1;"/>
<stop offset="0.588153" stop-color="#A6BAC3" style="stop-color:#A6BAC3;stop-color:color(display-p3 0.6510 0.7294 0.7647);stop-opacity:1;"/>
<stop offset="0.720506" stop-color="#A6BAC3" style="stop-color:#A6BAC3;stop-color:color(display-p3 0.6510 0.7294 0.7647);stop-opacity:1;"/>
<stop offset="0.9549" stop-color="#657178" style="stop-color:#657178;stop-color:color(display-p3 0.3961 0.4431 0.4706);stop-opacity:1;"/>
<stop offset="1" stop-color="#657178" style="stop-color:#657178;stop-color:color(display-p3 0.3961 0.4431 0.4706);stop-opacity:1;"/>
</linearGradient>
<linearGradient id="paint21_linear_1497_32163" x1="52.7856" y1="15.0866" x2="12.7333" y2="53.5037" gradientUnits="userSpaceOnUse">
<stop stop-color="#E5E4E4" style="stop-color:#E5E4E4;stop-color:color(display-p3 0.8980 0.8941 0.8941);stop-opacity:1;"/>
<stop offset="0.0916688" stop-color="#E5E4E4" style="stop-color:#E5E4E4;stop-color:color(display-p3 0.8980 0.8941 0.8941);stop-opacity:1;"/>
<stop offset="0.276102" stop-color="#99A7AE" style="stop-color:#99A7AE;stop-color:color(display-p3 0.6000 0.6549 0.6824);stop-opacity:1;"/>
<stop offset="0.588153" stop-color="#A6BAC3" style="stop-color:#A6BAC3;stop-color:color(display-p3 0.6510 0.7294 0.7647);stop-opacity:1;"/>
<stop offset="0.720506" stop-color="#A6BAC3" style="stop-color:#A6BAC3;stop-color:color(display-p3 0.6510 0.7294 0.7647);stop-opacity:1;"/>
<stop offset="0.9549" stop-color="#657178" style="stop-color:#657178;stop-color:color(display-p3 0.3961 0.4431 0.4706);stop-opacity:1;"/>
<stop offset="1" stop-color="#657178" style="stop-color:#657178;stop-color:color(display-p3 0.3961 0.4431 0.4706);stop-opacity:1;"/>
</linearGradient>
<linearGradient id="paint22_linear_1497_32163" x1="52.8464" y1="15.1497" x2="12.7943" y2="53.5667" gradientUnits="userSpaceOnUse">
<stop stop-color="#E5E4E4" style="stop-color:#E5E4E4;stop-color:color(display-p3 0.8980 0.8941 0.8941);stop-opacity:1;"/>
<stop offset="0.0916688" stop-color="#E5E4E4" style="stop-color:#E5E4E4;stop-color:color(display-p3 0.8980 0.8941 0.8941);stop-opacity:1;"/>
<stop offset="0.276102" stop-color="#99A7AE" style="stop-color:#99A7AE;stop-color:color(display-p3 0.6000 0.6549 0.6824);stop-opacity:1;"/>
<stop offset="0.588153" stop-color="#A6BAC3" style="stop-color:#A6BAC3;stop-color:color(display-p3 0.6510 0.7294 0.7647);stop-opacity:1;"/>
<stop offset="0.720506" stop-color="#A6BAC3" style="stop-color:#A6BAC3;stop-color:color(display-p3 0.6510 0.7294 0.7647);stop-opacity:1;"/>
<stop offset="0.9549" stop-color="#657178" style="stop-color:#657178;stop-color:color(display-p3 0.3961 0.4431 0.4706);stop-opacity:1;"/>
<stop offset="1" stop-color="#657178" style="stop-color:#657178;stop-color:color(display-p3 0.3961 0.4431 0.4706);stop-opacity:1;"/>
</linearGradient>
<linearGradient id="paint23_linear_1497_32163" x1="52.8442" y1="15.1478" x2="12.7923" y2="53.5651" gradientUnits="userSpaceOnUse">
<stop stop-color="#E5E4E4" style="stop-color:#E5E4E4;stop-color:color(display-p3 0.8980 0.8941 0.8941);stop-opacity:1;"/>
<stop offset="0.0916688" stop-color="#E5E4E4" style="stop-color:#E5E4E4;stop-color:color(display-p3 0.8980 0.8941 0.8941);stop-opacity:1;"/>
<stop offset="0.276102" stop-color="#99A7AE" style="stop-color:#99A7AE;stop-color:color(display-p3 0.6000 0.6549 0.6824);stop-opacity:1;"/>
<stop offset="0.588153" stop-color="#A6BAC3" style="stop-color:#A6BAC3;stop-color:color(display-p3 0.6510 0.7294 0.7647);stop-opacity:1;"/>
<stop offset="0.720506" stop-color="#A6BAC3" style="stop-color:#A6BAC3;stop-color:color(display-p3 0.6510 0.7294 0.7647);stop-opacity:1;"/>
<stop offset="0.9549" stop-color="#657178" style="stop-color:#657178;stop-color:color(display-p3 0.3961 0.4431 0.4706);stop-opacity:1;"/>
<stop offset="1" stop-color="#657178" style="stop-color:#657178;stop-color:color(display-p3 0.3961 0.4431 0.4706);stop-opacity:1;"/>
</linearGradient>
<linearGradient id="paint24_linear_1497_32163" x1="52.7891" y1="15.0898" x2="12.7369" y2="53.5069" gradientUnits="userSpaceOnUse">
<stop stop-color="#E5E4E4" style="stop-color:#E5E4E4;stop-color:color(display-p3 0.8980 0.8941 0.8941);stop-opacity:1;"/>
<stop offset="0.0916688" stop-color="#E5E4E4" style="stop-color:#E5E4E4;stop-color:color(display-p3 0.8980 0.8941 0.8941);stop-opacity:1;"/>
<stop offset="0.276102" stop-color="#99A7AE" style="stop-color:#99A7AE;stop-color:color(display-p3 0.6000 0.6549 0.6824);stop-opacity:1;"/>
<stop offset="0.588153" stop-color="#A6BAC3" style="stop-color:#A6BAC3;stop-color:color(display-p3 0.6510 0.7294 0.7647);stop-opacity:1;"/>
<stop offset="0.720506" stop-color="#A6BAC3" style="stop-color:#A6BAC3;stop-color:color(display-p3 0.6510 0.7294 0.7647);stop-opacity:1;"/>
<stop offset="0.9549" stop-color="#657178" style="stop-color:#657178;stop-color:color(display-p3 0.3961 0.4431 0.4706);stop-opacity:1;"/>
<stop offset="1" stop-color="#657178" style="stop-color:#657178;stop-color:color(display-p3 0.3961 0.4431 0.4706);stop-opacity:1;"/>
</linearGradient>
<linearGradient id="paint25_linear_1497_32163" x1="52.5674" y1="14.8595" x2="12.5157" y2="53.2768" gradientUnits="userSpaceOnUse">
<stop stop-color="#E5E4E4" style="stop-color:#E5E4E4;stop-color:color(display-p3 0.8980 0.8941 0.8941);stop-opacity:1;"/>
<stop offset="0.0916688" stop-color="#E5E4E4" style="stop-color:#E5E4E4;stop-color:color(display-p3 0.8980 0.8941 0.8941);stop-opacity:1;"/>
<stop offset="0.276102" stop-color="#99A7AE" style="stop-color:#99A7AE;stop-color:color(display-p3 0.6000 0.6549 0.6824);stop-opacity:1;"/>
<stop offset="0.588153" stop-color="#A6BAC3" style="stop-color:#A6BAC3;stop-color:color(display-p3 0.6510 0.7294 0.7647);stop-opacity:1;"/>
<stop offset="0.720506" stop-color="#A6BAC3" style="stop-color:#A6BAC3;stop-color:color(display-p3 0.6510 0.7294 0.7647);stop-opacity:1;"/>
<stop offset="0.9549" stop-color="#657178" style="stop-color:#657178;stop-color:color(display-p3 0.3961 0.4431 0.4706);stop-opacity:1;"/>
<stop offset="1" stop-color="#657178" style="stop-color:#657178;stop-color:color(display-p3 0.3961 0.4431 0.4706);stop-opacity:1;"/>
</linearGradient>
<linearGradient id="paint26_linear_1497_32163" x1="52.4746" y1="14.7631" x2="12.4228" y2="53.1802" gradientUnits="userSpaceOnUse">
<stop stop-color="#E5E4E4" style="stop-color:#E5E4E4;stop-color:color(display-p3 0.8980 0.8941 0.8941);stop-opacity:1;"/>
<stop offset="0.0916688" stop-color="#E5E4E4" style="stop-color:#E5E4E4;stop-color:color(display-p3 0.8980 0.8941 0.8941);stop-opacity:1;"/>
<stop offset="0.276102" stop-color="#99A7AE" style="stop-color:#99A7AE;stop-color:color(display-p3 0.6000 0.6549 0.6824);stop-opacity:1;"/>
<stop offset="0.588153" stop-color="#A6BAC3" style="stop-color:#A6BAC3;stop-color:color(display-p3 0.6510 0.7294 0.7647);stop-opacity:1;"/>
<stop offset="0.720506" stop-color="#A6BAC3" style="stop-color:#A6BAC3;stop-color:color(display-p3 0.6510 0.7294 0.7647);stop-opacity:1;"/>
<stop offset="0.9549" stop-color="#657178" style="stop-color:#657178;stop-color:color(display-p3 0.3961 0.4431 0.4706);stop-opacity:1;"/>
<stop offset="1" stop-color="#657178" style="stop-color:#657178;stop-color:color(display-p3 0.3961 0.4431 0.4706);stop-opacity:1;"/>
</linearGradient>
<linearGradient id="paint27_linear_1497_32163" x1="52.2197" y1="14.4965" x2="12.1673" y2="52.9139" gradientUnits="userSpaceOnUse">
<stop stop-color="#E5E4E4" style="stop-color:#E5E4E4;stop-color:color(display-p3 0.8980 0.8941 0.8941);stop-opacity:1;"/>
<stop offset="0.0916688" stop-color="#E5E4E4" style="stop-color:#E5E4E4;stop-color:color(display-p3 0.8980 0.8941 0.8941);stop-opacity:1;"/>
<stop offset="0.276102" stop-color="#99A7AE" style="stop-color:#99A7AE;stop-color:color(display-p3 0.6000 0.6549 0.6824);stop-opacity:1;"/>
<stop offset="0.588153" stop-color="#A6BAC3" style="stop-color:#A6BAC3;stop-color:color(display-p3 0.6510 0.7294 0.7647);stop-opacity:1;"/>
<stop offset="0.720506" stop-color="#A6BAC3" style="stop-color:#A6BAC3;stop-color:color(display-p3 0.6510 0.7294 0.7647);stop-opacity:1;"/>
<stop offset="0.9549" stop-color="#657178" style="stop-color:#657178;stop-color:color(display-p3 0.3961 0.4431 0.4706);stop-opacity:1;"/>
<stop offset="1" stop-color="#657178" style="stop-color:#657178;stop-color:color(display-p3 0.3961 0.4431 0.4706);stop-opacity:1;"/>
</linearGradient>
<linearGradient id="paint28_linear_1497_32163" x1="51.949" y1="14.2146" x2="11.897" y2="52.6317" gradientUnits="userSpaceOnUse">
<stop stop-color="#E5E4E4" style="stop-color:#E5E4E4;stop-color:color(display-p3 0.8980 0.8941 0.8941);stop-opacity:1;"/>
<stop offset="0.0916688" stop-color="#E5E4E4" style="stop-color:#E5E4E4;stop-color:color(display-p3 0.8980 0.8941 0.8941);stop-opacity:1;"/>
<stop offset="0.276102" stop-color="#99A7AE" style="stop-color:#99A7AE;stop-color:color(display-p3 0.6000 0.6549 0.6824);stop-opacity:1;"/>
<stop offset="0.588153" stop-color="#A6BAC3" style="stop-color:#A6BAC3;stop-color:color(display-p3 0.6510 0.7294 0.7647);stop-opacity:1;"/>
<stop offset="0.720506" stop-color="#A6BAC3" style="stop-color:#A6BAC3;stop-color:color(display-p3 0.6510 0.7294 0.7647);stop-opacity:1;"/>
<stop offset="0.9549" stop-color="#657178" style="stop-color:#657178;stop-color:color(display-p3 0.3961 0.4431 0.4706);stop-opacity:1;"/>
<stop offset="1" stop-color="#657178" style="stop-color:#657178;stop-color:color(display-p3 0.3961 0.4431 0.4706);stop-opacity:1;"/>
</linearGradient>
<linearGradient id="paint29_linear_1497_32163" x1="33.6858" y1="-4.8256" x2="-6.36628" y2="33.5917" gradientUnits="userSpaceOnUse">
<stop stop-color="#E5E4E4" style="stop-color:#E5E4E4;stop-color:color(display-p3 0.8980 0.8941 0.8941);stop-opacity:1;"/>
<stop offset="0.0916688" stop-color="#E5E4E4" style="stop-color:#E5E4E4;stop-color:color(display-p3 0.8980 0.8941 0.8941);stop-opacity:1;"/>
<stop offset="0.276102" stop-color="#99A7AE" style="stop-color:#99A7AE;stop-color:color(display-p3 0.6000 0.6549 0.6824);stop-opacity:1;"/>
<stop offset="0.588153" stop-color="#A6BAC3" style="stop-color:#A6BAC3;stop-color:color(display-p3 0.6510 0.7294 0.7647);stop-opacity:1;"/>
<stop offset="0.720506" stop-color="#A6BAC3" style="stop-color:#A6BAC3;stop-color:color(display-p3 0.6510 0.7294 0.7647);stop-opacity:1;"/>
<stop offset="0.9549" stop-color="#657178" style="stop-color:#657178;stop-color:color(display-p3 0.3961 0.4431 0.4706);stop-opacity:1;"/>
<stop offset="1" stop-color="#657178" style="stop-color:#657178;stop-color:color(display-p3 0.3961 0.4431 0.4706);stop-opacity:1;"/>
</linearGradient>
<linearGradient id="paint30_linear_1497_32163" x1="49.3861" y1="11.542" x2="9.33411" y2="49.9592" gradientUnits="userSpaceOnUse">
<stop stop-color="#E5E4E4" style="stop-color:#E5E4E4;stop-color:color(display-p3 0.8980 0.8941 0.8941);stop-opacity:1;"/>
<stop offset="0.0916688" stop-color="#E5E4E4" style="stop-color:#E5E4E4;stop-color:color(display-p3 0.8980 0.8941 0.8941);stop-opacity:1;"/>
<stop offset="0.276102" stop-color="#99A7AE" style="stop-color:#99A7AE;stop-color:color(display-p3 0.6000 0.6549 0.6824);stop-opacity:1;"/>
<stop offset="0.588153" stop-color="#A6BAC3" style="stop-color:#A6BAC3;stop-color:color(display-p3 0.6510 0.7294 0.7647);stop-opacity:1;"/>
<stop offset="0.720506" stop-color="#A6BAC3" style="stop-color:#A6BAC3;stop-color:color(display-p3 0.6510 0.7294 0.7647);stop-opacity:1;"/>
<stop offset="0.9549" stop-color="#657178" style="stop-color:#657178;stop-color:color(display-p3 0.3961 0.4431 0.4706);stop-opacity:1;"/>
<stop offset="1" stop-color="#657178" style="stop-color:#657178;stop-color:color(display-p3 0.3961 0.4431 0.4706);stop-opacity:1;"/>
</linearGradient>
<linearGradient id="paint31_linear_1497_32163" x1="30.4757" y1="-8.17166" x2="-9.57636" y2="30.2456" gradientUnits="userSpaceOnUse">
<stop stop-color="#E5E4E4" style="stop-color:#E5E4E4;stop-color:color(display-p3 0.8980 0.8941 0.8941);stop-opacity:1;"/>
<stop offset="0.0916688" stop-color="#E5E4E4" style="stop-color:#E5E4E4;stop-color:color(display-p3 0.8980 0.8941 0.8941);stop-opacity:1;"/>
<stop offset="0.276102" stop-color="#99A7AE" style="stop-color:#99A7AE;stop-color:color(display-p3 0.6000 0.6549 0.6824);stop-opacity:1;"/>
<stop offset="0.588153" stop-color="#A6BAC3" style="stop-color:#A6BAC3;stop-color:color(display-p3 0.6510 0.7294 0.7647);stop-opacity:1;"/>
<stop offset="0.720506" stop-color="#A6BAC3" style="stop-color:#A6BAC3;stop-color:color(display-p3 0.6510 0.7294 0.7647);stop-opacity:1;"/>
<stop offset="0.9549" stop-color="#657178" style="stop-color:#657178;stop-color:color(display-p3 0.3961 0.4431 0.4706);stop-opacity:1;"/>
<stop offset="1" stop-color="#657178" style="stop-color:#657178;stop-color:color(display-p3 0.3961 0.4431 0.4706);stop-opacity:1;"/>
</linearGradient>
<linearGradient id="paint32_linear_1497_32163" x1="30.1795" y1="-8.48116" x2="-9.87257" y2="29.9361" gradientUnits="userSpaceOnUse">
<stop stop-color="#E5E4E4" style="stop-color:#E5E4E4;stop-color:color(display-p3 0.8980 0.8941 0.8941);stop-opacity:1;"/>
<stop offset="0.0916688" stop-color="#E5E4E4" style="stop-color:#E5E4E4;stop-color:color(display-p3 0.8980 0.8941 0.8941);stop-opacity:1;"/>
<stop offset="0.276102" stop-color="#99A7AE" style="stop-color:#99A7AE;stop-color:color(display-p3 0.6000 0.6549 0.6824);stop-opacity:1;"/>
<stop offset="0.588153" stop-color="#A6BAC3" style="stop-color:#A6BAC3;stop-color:color(display-p3 0.6510 0.7294 0.7647);stop-opacity:1;"/>
<stop offset="0.720506" stop-color="#A6BAC3" style="stop-color:#A6BAC3;stop-color:color(display-p3 0.6510 0.7294 0.7647);stop-opacity:1;"/>
<stop offset="0.9549" stop-color="#657178" style="stop-color:#657178;stop-color:color(display-p3 0.3961 0.4431 0.4706);stop-opacity:1;"/>
<stop offset="1" stop-color="#657178" style="stop-color:#657178;stop-color:color(display-p3 0.3961 0.4431 0.4706);stop-opacity:1;"/>
</linearGradient>
<linearGradient id="paint33_linear_1497_32163" x1="30.7817" y1="-7.85281" x2="-9.27035" y2="30.5645" gradientUnits="userSpaceOnUse">
<stop stop-color="#E5E4E4" style="stop-color:#E5E4E4;stop-color:color(display-p3 0.8980 0.8941 0.8941);stop-opacity:1;"/>
<stop offset="0.0916688" stop-color="#E5E4E4" style="stop-color:#E5E4E4;stop-color:color(display-p3 0.8980 0.8941 0.8941);stop-opacity:1;"/>
<stop offset="0.276102" stop-color="#99A7AE" style="stop-color:#99A7AE;stop-color:color(display-p3 0.6000 0.6549 0.6824);stop-opacity:1;"/>
<stop offset="0.588153" stop-color="#A6BAC3" style="stop-color:#A6BAC3;stop-color:color(display-p3 0.6510 0.7294 0.7647);stop-opacity:1;"/>
<stop offset="0.720506" stop-color="#A6BAC3" style="stop-color:#A6BAC3;stop-color:color(display-p3 0.6510 0.7294 0.7647);stop-opacity:1;"/>
<stop offset="0.9549" stop-color="#657178" style="stop-color:#657178;stop-color:color(display-p3 0.3961 0.4431 0.4706);stop-opacity:1;"/>
<stop offset="1" stop-color="#657178" style="stop-color:#657178;stop-color:color(display-p3 0.3961 0.4431 0.4706);stop-opacity:1;"/>
</linearGradient>
<linearGradient id="paint34_linear_1497_32163" x1="32.3078" y1="-6.26203" x2="-7.74413" y2="32.1553" gradientUnits="userSpaceOnUse">
<stop stop-color="#E5E4E4" style="stop-color:#E5E4E4;stop-color:color(display-p3 0.8980 0.8941 0.8941);stop-opacity:1;"/>
<stop offset="0.0916688" stop-color="#E5E4E4" style="stop-color:#E5E4E4;stop-color:color(display-p3 0.8980 0.8941 0.8941);stop-opacity:1;"/>
<stop offset="0.276102" stop-color="#99A7AE" style="stop-color:#99A7AE;stop-color:color(display-p3 0.6000 0.6549 0.6824);stop-opacity:1;"/>
<stop offset="0.588153" stop-color="#A6BAC3" style="stop-color:#A6BAC3;stop-color:color(display-p3 0.6510 0.7294 0.7647);stop-opacity:1;"/>
<stop offset="0.720506" stop-color="#A6BAC3" style="stop-color:#A6BAC3;stop-color:color(display-p3 0.6510 0.7294 0.7647);stop-opacity:1;"/>
<stop offset="0.9549" stop-color="#657178" style="stop-color:#657178;stop-color:color(display-p3 0.3961 0.4431 0.4706);stop-opacity:1;"/>
<stop offset="1" stop-color="#657178" style="stop-color:#657178;stop-color:color(display-p3 0.3961 0.4431 0.4706);stop-opacity:1;"/>
</linearGradient>
<linearGradient id="paint35_linear_1497_32163" x1="34.6799" y1="-3.78958" x2="-5.37215" y2="34.6277" gradientUnits="userSpaceOnUse">
<stop stop-color="#E5E4E4" style="stop-color:#E5E4E4;stop-color:color(display-p3 0.8980 0.8941 0.8941);stop-opacity:1;"/>
<stop offset="0.0916688" stop-color="#E5E4E4" style="stop-color:#E5E4E4;stop-color:color(display-p3 0.8980 0.8941 0.8941);stop-opacity:1;"/>
<stop offset="0.276102" stop-color="#99A7AE" style="stop-color:#99A7AE;stop-color:color(display-p3 0.6000 0.6549 0.6824);stop-opacity:1;"/>
<stop offset="0.588153" stop-color="#A6BAC3" style="stop-color:#A6BAC3;stop-color:color(display-p3 0.6510 0.7294 0.7647);stop-opacity:1;"/>
<stop offset="0.720506" stop-color="#A6BAC3" style="stop-color:#A6BAC3;stop-color:color(display-p3 0.6510 0.7294 0.7647);stop-opacity:1;"/>
<stop offset="0.9549" stop-color="#657178" style="stop-color:#657178;stop-color:color(display-p3 0.3961 0.4431 0.4706);stop-opacity:1;"/>
<stop offset="1" stop-color="#657178" style="stop-color:#657178;stop-color:color(display-p3 0.3961 0.4431 0.4706);stop-opacity:1;"/>
</linearGradient>
<linearGradient id="paint36_linear_1497_32163" x1="37.921" y1="-0.410429" x2="-2.1311" y2="38.0069" gradientUnits="userSpaceOnUse">
<stop stop-color="#E5E4E4" style="stop-color:#E5E4E4;stop-color:color(display-p3 0.8980 0.8941 0.8941);stop-opacity:1;"/>
<stop offset="0.0916688" stop-color="#E5E4E4" style="stop-color:#E5E4E4;stop-color:color(display-p3 0.8980 0.8941 0.8941);stop-opacity:1;"/>
<stop offset="0.276102" stop-color="#99A7AE" style="stop-color:#99A7AE;stop-color:color(display-p3 0.6000 0.6549 0.6824);stop-opacity:1;"/>
<stop offset="0.588153" stop-color="#A6BAC3" style="stop-color:#A6BAC3;stop-color:color(display-p3 0.6510 0.7294 0.7647);stop-opacity:1;"/>
<stop offset="0.720506" stop-color="#A6BAC3" style="stop-color:#A6BAC3;stop-color:color(display-p3 0.6510 0.7294 0.7647);stop-opacity:1;"/>
<stop offset="0.9549" stop-color="#657178" style="stop-color:#657178;stop-color:color(display-p3 0.3961 0.4431 0.4706);stop-opacity:1;"/>
<stop offset="1" stop-color="#657178" style="stop-color:#657178;stop-color:color(display-p3 0.3961 0.4431 0.4706);stop-opacity:1;"/>
</linearGradient>
<linearGradient id="paint37_linear_1497_32163" x1="40.5559" y1="2.336" x2="0.503759" y2="40.7533" gradientUnits="userSpaceOnUse">
<stop stop-color="#E5E4E4" style="stop-color:#E5E4E4;stop-color:color(display-p3 0.8980 0.8941 0.8941);stop-opacity:1;"/>
<stop offset="0.0916688" stop-color="#E5E4E4" style="stop-color:#E5E4E4;stop-color:color(display-p3 0.8980 0.8941 0.8941);stop-opacity:1;"/>
<stop offset="0.276102" stop-color="#99A7AE" style="stop-color:#99A7AE;stop-color:color(display-p3 0.6000 0.6549 0.6824);stop-opacity:1;"/>
<stop offset="0.588153" stop-color="#A6BAC3" style="stop-color:#A6BAC3;stop-color:color(display-p3 0.6510 0.7294 0.7647);stop-opacity:1;"/>
<stop offset="0.720506" stop-color="#A6BAC3" style="stop-color:#A6BAC3;stop-color:color(display-p3 0.6510 0.7294 0.7647);stop-opacity:1;"/>
<stop offset="0.9549" stop-color="#657178" style="stop-color:#657178;stop-color:color(display-p3 0.3961 0.4431 0.4706);stop-opacity:1;"/>
<stop offset="1" stop-color="#657178" style="stop-color:#657178;stop-color:color(display-p3 0.3961 0.4431 0.4706);stop-opacity:1;"/>
</linearGradient>
<linearGradient id="paint38_linear_1497_32163" x1="43.243" y1="5.13809" x2="3.19089" y2="43.5553" gradientUnits="userSpaceOnUse">
<stop stop-color="#E5E4E4" style="stop-color:#E5E4E4;stop-color:color(display-p3 0.8980 0.8941 0.8941);stop-opacity:1;"/>
<stop offset="0.0916688" stop-color="#E5E4E4" style="stop-color:#E5E4E4;stop-color:color(display-p3 0.8980 0.8941 0.8941);stop-opacity:1;"/>
<stop offset="0.276102" stop-color="#99A7AE" style="stop-color:#99A7AE;stop-color:color(display-p3 0.6000 0.6549 0.6824);stop-opacity:1;"/>
<stop offset="0.588153" stop-color="#A6BAC3" style="stop-color:#A6BAC3;stop-color:color(display-p3 0.6510 0.7294 0.7647);stop-opacity:1;"/>
<stop offset="0.720506" stop-color="#A6BAC3" style="stop-color:#A6BAC3;stop-color:color(display-p3 0.6510 0.7294 0.7647);stop-opacity:1;"/>
<stop offset="0.9549" stop-color="#657178" style="stop-color:#657178;stop-color:color(display-p3 0.3961 0.4431 0.4706);stop-opacity:1;"/>
<stop offset="1" stop-color="#657178" style="stop-color:#657178;stop-color:color(display-p3 0.3961 0.4431 0.4706);stop-opacity:1;"/>
</linearGradient>
<radialGradient id="paint39_radial_1497_32163" cx="0" cy="0" r="1" gradientUnits="userSpaceOnUse" gradientTransform="translate(15.6867 21.5307) scale(3.94584 3.94584)">
<stop stop-color="#4C535A" style="stop-color:#4C535A;stop-color:color(display-p3 0.2980 0.3255 0.3529);stop-opacity:1;"/>
<stop offset="0.525396" stop-color="#4C535A" style="stop-color:#4C535A;stop-color:color(display-p3 0.2980 0.3255 0.3529);stop-opacity:1;"/>
<stop offset="0.997191" stop-color="#2C3640" style="stop-color:#2C3640;stop-color:color(display-p3 0.1725 0.2118 0.2510);stop-opacity:1;"/>
<stop offset="1" stop-color="#2C3640" style="stop-color:#2C3640;stop-color:color(display-p3 0.1725 0.2118 0.2510);stop-opacity:1;"/>
</radialGradient>
<radialGradient id="paint40_radial_1497_32163" cx="0" cy="0" r="1" gradientUnits="userSpaceOnUse" gradientTransform="translate(21.958 21.581) scale(4.24751 4.2475)">
<stop stop-color="#4C535A" style="stop-color:#4C535A;stop-color:color(display-p3 0.2980 0.3255 0.3529);stop-opacity:1;"/>
<stop offset="0.525396" stop-color="#4C535A" style="stop-color:#4C535A;stop-color:color(display-p3 0.2980 0.3255 0.3529);stop-opacity:1;"/>
<stop offset="0.997191" stop-color="#2C3640" style="stop-color:#2C3640;stop-color:color(display-p3 0.1725 0.2118 0.2510);stop-opacity:1;"/>
<stop offset="1" stop-color="#2C3640" style="stop-color:#2C3640;stop-color:color(display-p3 0.1725 0.2118 0.2510);stop-opacity:1;"/>
</radialGradient>
<radialGradient id="paint41_radial_1497_32163" cx="0" cy="0" r="1" gradientUnits="userSpaceOnUse" gradientTransform="translate(28.6841 21.6033) scale(4.20048)">
<stop stop-color="#4C535A" style="stop-color:#4C535A;stop-color:color(display-p3 0.2980 0.3255 0.3529);stop-opacity:1;"/>
<stop offset="0.525396" stop-color="#4C535A" style="stop-color:#4C535A;stop-color:color(display-p3 0.2980 0.3255 0.3529);stop-opacity:1;"/>
<stop offset="0.997191" stop-color="#2C3640" style="stop-color:#2C3640;stop-color:color(display-p3 0.1725 0.2118 0.2510);stop-opacity:1;"/>
<stop offset="1" stop-color="#2C3640" style="stop-color:#2C3640;stop-color:color(display-p3 0.1725 0.2118 0.2510);stop-opacity:1;"/>
</radialGradient>
</defs>
</svg>
