<svg width="44" height="44" viewBox="0 0 44 44" fill="none" xmlns="http://www.w3.org/2000/svg">
<path d="M0.0272217 22.0715C0.0272217 34.1788 9.84211 43.9937 21.9494 43.9937C34.0564 43.9937 43.8711 34.1788 43.8711 22.0715C43.8711 9.96467 34.0564 0.149796 21.9494 0.149796C9.84211 0.149796 0.0272217 9.96467 0.0272217 22.0715Z" fill="url(#paint0_linear_1497_31320)" style=""/>
<path d="M1.10242 22.0712C1.10242 33.5849 10.436 42.9182 21.9494 42.9182C33.4626 42.9182 42.7959 33.5849 42.7959 22.0712C42.7959 10.558 33.4626 1.22469 21.9494 1.22469C10.436 1.22469 1.10242 10.558 1.10242 22.0712Z" fill="url(#paint1_radial_1497_31320)" style=""/>
<path d="M9.3075 22.073C9.3075 25.7503 10.8672 29.0611 13.3557 31.3865H30.7448C33.237 29.0611 34.7965 25.7503 34.7965 22.073C34.7965 15.0319 29.0913 9.32619 22.0499 9.32619C15.0132 9.32619 9.3075 15.0319 9.3075 22.073Z" fill="url(#paint2_linear_1497_31320)" style=""/>
<path d="M10.0006 22.1427C10.0006 25.3765 11.3215 28.5029 13.6336 30.7637H30.4677C32.8148 28.4773 34.1043 25.4264 34.1043 22.1427C34.1043 15.4962 28.697 10.0888 22.0504 10.0888C15.4063 10.0888 10.0006 15.4962 10.0006 22.1427Z" fill="url(#paint3_linear_1497_31320)" style=""/>
<path d="M1.67053 22.0713C1.67053 33.2533 10.7678 42.3508 21.95 42.3508C33.1318 42.3508 42.2291 33.2533 42.2291 22.0713C42.2291 10.8896 33.1318 1.79229 21.95 1.79229C10.7678 1.79229 1.67053 10.8896 1.67053 22.0713ZM2.07773 22.0713C2.07773 11.1141 10.9925 2.19973 21.95 2.19973C32.9073 2.19973 41.8219 11.1141 41.8219 22.0713C41.8219 33.0286 32.9073 41.9436 21.95 41.9436C10.9925 41.9436 2.07773 33.0286 2.07773 22.0713Z" fill="url(#paint4_linear_1497_31320)" style=""/>
<path d="M20.1904 32.7424L19.5367 37.1308H20.4701L20.3366 38.0358H21.275L20.2421 38.6763L20.0742 39.8149H23.7965L24.4093 35.6681H23.476L23.9125 32.7424H20.1904ZM20.3909 34.7491C20.4304 34.4765 20.5766 34.2294 20.7821 34.0494C20.9875 33.8698 21.2503 33.7598 21.5208 33.7577H21.5231H21.5252C21.5464 33.7577 21.5672 33.7577 21.5885 33.7598L21.5127 34.28C21.4912 34.2756 21.47 34.2735 21.4469 34.2735C21.1868 34.2756 20.9445 34.4871 20.9043 34.7491C20.8664 35.0091 21.0468 35.2228 21.3067 35.2228C21.4868 35.2228 21.6568 35.1191 21.7582 34.9694H21.4106L21.4739 34.5433H22.371L22.3733 34.6119C22.3747 34.6562 22.3698 34.7026 22.3631 34.7491C22.3234 35.0218 22.1749 35.2692 21.9693 35.4489C21.764 35.6286 21.5009 35.7385 21.2307 35.7408H21.2286H21.2263C20.6851 35.7385 20.3091 35.2946 20.3909 34.7491Z" fill="url(#paint5_linear_1497_31320)" style=""/>
<path d="M6.46173 26.5909L6.53448 26.8172C6.5689 26.8124 6.59916 26.8205 6.62572 26.8396C6.65205 26.859 6.67099 26.8886 6.68369 26.9279C6.69478 26.9621 6.69593 26.9935 6.68623 27.0214C6.67653 27.0489 6.65713 27.0681 6.62803 27.0789C6.61925 27.0812 6.60839 27.0838 6.59477 27.0854C6.58068 27.0873 6.56682 27.0859 6.5525 27.0799C6.53795 27.0745 6.52386 27.0646 6.51046 27.0503C6.49683 27.035 6.48529 27.014 6.47651 26.9863L6.4511 26.9076L6.2587 26.9697L6.29681 27.0868C6.3116 27.133 6.31183 27.1685 6.29751 27.1928C6.28342 27.2175 6.26263 27.2342 6.23607 27.2425C6.21482 27.2492 6.19588 27.251 6.17833 27.2475C6.16077 27.2445 6.1453 27.2376 6.13167 27.2272C6.1185 27.2166 6.10719 27.2032 6.09749 27.1863C6.08802 27.1702 6.08016 27.1526 6.07416 27.133C6.06053 27.0912 6.05753 27.0508 6.06423 27.0115C6.07139 26.9722 6.09402 26.941 6.13329 26.9179L6.05938 26.6884C5.95567 26.729 5.8873 26.7971 5.85497 26.8921C5.82286 26.9868 5.82425 27.0893 5.85935 27.1993C5.87367 27.2432 5.89285 27.2859 5.9164 27.3272C5.94019 27.3686 5.97115 27.4048 6.00833 27.4362C6.04598 27.4674 6.08917 27.4885 6.13814 27.4998C6.18687 27.5109 6.24277 27.5067 6.30536 27.4882C6.35987 27.4716 6.40537 27.4432 6.44025 27.4039C6.47559 27.3651 6.49522 27.3164 6.49753 27.2596C6.52917 27.2877 6.56613 27.3064 6.60886 27.3148C6.65205 27.3238 6.69385 27.3217 6.7352 27.3085C6.78555 27.2921 6.82528 27.2688 6.85369 27.2374C6.8821 27.2057 6.90196 27.1702 6.91374 27.1304C6.92482 27.0903 6.92875 27.0473 6.92505 27.0016C6.92159 26.9558 6.91235 26.9103 6.8985 26.8667C6.88279 26.8168 6.86108 26.7724 6.83498 26.7329C6.80841 26.6932 6.777 26.6609 6.74005 26.6357C6.70379 26.6105 6.66221 26.5939 6.61579 26.5847C6.59708 26.5812 6.57768 26.5793 6.55758 26.5793C6.52733 26.5793 6.49545 26.5833 6.46173 26.5909Z" fill="url(#paint6_linear_1497_31320)" style=""/>
<path d="M6.81084 27.6108C6.71106 27.6418 6.61267 27.673 6.51358 27.7042L6.59188 27.9037C6.61729 27.9187 6.63923 27.9363 6.65794 27.9568C6.67688 27.9776 6.69213 28.0026 6.70414 28.0328C6.71314 28.0557 6.71707 28.0779 6.71591 28.0987C6.71476 28.1188 6.71037 28.1375 6.70275 28.155C6.6949 28.1716 6.68381 28.1867 6.66972 28.1994C6.65586 28.2114 6.64062 28.2213 6.62353 28.2278C6.58472 28.2437 6.54777 28.2439 6.51358 28.231C6.47894 28.2174 6.45145 28.185 6.43113 28.1335C6.41842 28.0957 6.41727 28.0608 6.42813 28.0289C6.43875 27.997 6.45769 27.9721 6.48541 27.9536L6.39717 27.7307C6.29116 27.7866 6.2251 27.8561 6.20016 27.9393C6.17498 28.0224 6.1833 28.1162 6.22418 28.2197C6.2452 28.2735 6.27222 28.3199 6.30571 28.3592C6.33897 28.3991 6.37754 28.4296 6.4212 28.4507C6.46416 28.4724 6.51197 28.4837 6.56255 28.4858C6.61382 28.4881 6.66718 28.4781 6.72308 28.456C6.77158 28.4366 6.81339 28.4128 6.84757 28.3827C6.88175 28.353 6.90716 28.3188 6.92448 28.2802C6.9418 28.2416 6.95012 28.1991 6.94989 28.1529C6.94943 28.107 6.93903 28.0578 6.91871 28.0065C6.90716 27.9776 6.89284 27.9494 6.87506 27.9227C6.8575 27.8954 6.83486 27.8698 6.80692 27.8462C6.83556 27.8383 6.86397 27.83 6.89284 27.8213C6.92194 27.8129 6.95012 27.8042 6.97807 27.7952L7.15361 28.2407L7.35825 28.1606L7.10441 27.5154C7.00809 27.548 6.91039 27.5797 6.81084 27.6108Z" fill="url(#paint7_linear_1497_31320)" style=""/>
<path d="M7.18484 28.5289C7.11555 28.5411 7.04303 28.5651 6.96634 28.6009C6.8892 28.6379 6.82361 28.6783 6.77048 28.7224C6.71713 28.7672 6.67717 28.8155 6.64945 28.867C6.62197 28.9188 6.6088 28.9744 6.60926 29.0342C6.60973 29.0943 6.6252 29.1571 6.65592 29.2222C6.68641 29.2876 6.72475 29.3389 6.77048 29.377C6.81621 29.4149 6.86795 29.4398 6.925 29.4523C6.98251 29.4645 7.04534 29.4645 7.1137 29.4518C7.18207 29.4391 7.25506 29.4149 7.3322 29.3782C7.40888 29.3426 7.47333 29.3019 7.52691 29.2571C7.5798 29.2123 7.61999 29.1636 7.64794 29.1109C7.67519 29.059 7.68905 29.0028 7.68905 28.9439C7.68905 28.8853 7.6745 28.8243 7.64401 28.7605C7.61399 28.6961 7.57565 28.6444 7.52991 28.6063C7.48418 28.5677 7.43198 28.542 7.37493 28.5291C7.34583 28.5226 7.31511 28.5194 7.28301 28.5194C7.25159 28.5194 7.21879 28.5224 7.18484 28.5289ZM6.91969 29.1989C6.89359 29.1837 6.8728 29.1599 6.85756 29.1273C6.84185 29.0934 6.83677 29.062 6.84231 29.0329C6.84785 29.0037 6.86102 28.9763 6.88089 28.9502C6.90144 28.9248 6.928 28.9014 6.96103 28.8795C6.99383 28.858 7.03009 28.8377 7.06913 28.8194C7.10839 28.8012 7.14673 28.7859 7.18415 28.7753C7.22203 28.7645 7.25691 28.7589 7.28947 28.7598C7.32204 28.761 7.35137 28.7689 7.37747 28.7836C7.40311 28.7982 7.42367 28.8229 7.43984 28.8569C7.45531 28.8894 7.45993 28.9201 7.45462 28.9488C7.4493 28.9772 7.43614 29.0049 7.41535 29.0303C7.39503 29.056 7.36846 29.0795 7.33613 29.1012C7.30333 29.1225 7.26776 29.1426 7.22988 29.1608C7.18946 29.1795 7.15112 29.1941 7.11324 29.2054C7.07606 29.2158 7.04049 29.2216 7.00769 29.2216C6.97466 29.2216 6.94533 29.2139 6.91969 29.1989Z" fill="url(#paint8_linear_1497_31320)" style=""/>
<path d="M7.24719 30.3468L7.37215 30.5581L8.09694 30.1285L8.35678 30.5664L8.54964 30.4523L8.16461 29.8024L7.24719 30.3468Z" fill="url(#paint9_linear_1497_31320)" style=""/>
<path d="M7.77551 31.2251L7.88684 31.3859L8.69016 31.4342L8.16793 31.7945L8.30767 31.9966L9.18582 31.391L9.07426 31.2302L8.26379 31.1868L8.79317 30.8219L8.65367 30.6198L7.77551 31.2251Z" fill="url(#paint10_linear_1497_31320)" style=""/>
<path d="M8.52771 32.2874L8.68154 32.4787L9.0079 32.2165L9.09867 32.329L8.93075 32.7889L9.10999 33.0122L9.32641 32.3916L9.94056 32.3426L9.76433 32.1232L9.26404 32.1791L9.18182 32.0768L9.51326 31.8105L9.3592 31.6192L8.52771 32.2874Z" fill="url(#paint11_linear_1497_31320)" style=""/>
<path d="M9.27417 33.1983L9.44139 33.3785L9.74881 33.0946L9.84698 33.2006L9.7114 33.6704L9.90564 33.8806L10.0789 33.2466L10.6877 33.1556L10.4967 32.9489L10.0015 33.0394L9.91258 32.9429L10.2248 32.6546L10.0576 32.474L9.27417 33.1983Z" fill="url(#paint12_linear_1497_31320)" style=""/>
<path d="M10.7427 33.3987C10.6762 33.4022 10.6101 33.4192 10.5459 33.4509C10.4817 33.4814 10.4216 33.5269 10.366 33.586C10.3105 33.6449 10.2692 33.7066 10.2415 33.7722C10.2135 33.8378 10.2001 33.9043 10.2008 33.971C10.2013 34.0373 10.2165 34.1034 10.2461 34.1678C10.2761 34.2323 10.3214 34.2928 10.3819 34.3501C10.4415 34.4069 10.5043 34.4485 10.5711 34.4741C10.6381 34.4995 10.705 34.511 10.7732 34.5067C10.8406 34.5027 10.9067 34.4852 10.9714 34.4535C11.0358 34.4217 11.0954 34.3764 11.1504 34.3177C11.2062 34.2586 11.2476 34.1958 11.2746 34.1304C11.3019 34.065 11.3146 33.9988 11.3132 33.9322C11.312 33.8652 11.2961 33.7999 11.2658 33.7364C11.2353 33.6726 11.1903 33.6126 11.1312 33.5569C11.0718 33.5015 11.009 33.4604 10.9429 33.4336C10.8836 33.41 10.8235 33.3982 10.763 33.3982C10.7563 33.3982 10.7496 33.3985 10.7427 33.3987ZM10.6505 34.2554C10.6129 34.244 10.5764 34.2223 10.541 34.1893C10.5052 34.1544 10.4805 34.1177 10.4664 34.0796C10.4526 34.0424 10.447 34.0041 10.45 33.9666C10.4531 33.9283 10.4637 33.8918 10.4812 33.856C10.4992 33.8202 10.5219 33.7872 10.5498 33.7576C10.5775 33.7281 10.6085 33.7038 10.6429 33.6835C10.6778 33.6636 10.7136 33.6514 10.7505 33.6454C10.788 33.6391 10.8256 33.6421 10.8646 33.6539C10.9032 33.6657 10.9404 33.6879 10.9762 33.7221C11.0132 33.7562 11.0376 33.7927 11.0506 33.8306C11.0635 33.8692 11.0681 33.9073 11.0642 33.9452C11.0603 33.9828 11.0494 34.0191 11.0309 34.0547C11.0125 34.0895 10.9898 34.1209 10.963 34.1496C10.936 34.1787 10.9055 34.2025 10.8713 34.2228C10.8372 34.2429 10.8014 34.2565 10.7639 34.2625C10.7505 34.2646 10.7369 34.2658 10.7233 34.2658C10.6993 34.2658 10.675 34.2623 10.6505 34.2554Z" fill="url(#paint13_linear_1497_31320)" style=""/>
<path d="M11.9722 34.1593C11.9884 34.2256 12.0297 34.2856 12.0965 34.3397C12.162 34.3919 12.2293 34.4189 12.2976 34.421C12.366 34.4221 12.4309 34.3909 12.4928 34.3272L12.3364 34.2015C12.3159 34.2221 12.2937 34.2334 12.2701 34.2339C12.2466 34.2339 12.224 34.2253 12.2022 34.2073C12.1812 34.1907 12.1678 34.1704 12.1627 34.147C12.1577 34.1237 12.1627 34.0992 12.178 34.0743L12.0228 33.9498C11.9727 34.023 11.956 34.0928 11.9722 34.1593ZM11.0199 34.9146L11.1721 35.037L11.9565 34.8529L11.5588 35.3476L11.7505 35.5012L12.4187 34.6697L12.2658 34.5471L11.4763 34.7386L11.8791 34.2364L11.6879 34.0826L11.0199 34.9146Z" fill="url(#paint14_linear_1497_31320)" style=""/>
<path d="M12.038 35.7142L12.2405 35.854L12.4757 35.5107L12.821 35.7477L12.5858 36.0905L12.7884 36.2297L13.3919 35.3497L13.1891 35.2105L12.9464 35.5648L12.6006 35.3283L12.8436 34.9737L12.641 34.8347L12.038 35.7142Z" fill="url(#paint15_linear_1497_31320)" style=""/>
<path d="M13.6389 35.6648C13.5745 35.683 13.5142 35.7149 13.4588 35.7597C13.4033 35.8048 13.3551 35.8625 13.3142 35.933C13.274 36.0027 13.2479 36.0725 13.2354 36.1425C13.2234 36.2127 13.2253 36.2801 13.2414 36.3455C13.2571 36.4099 13.2872 36.4702 13.3304 36.5266C13.3742 36.5824 13.4322 36.6312 13.5041 36.673C13.575 36.7148 13.6459 36.7409 13.717 36.7506C13.7879 36.7605 13.8563 36.7557 13.9212 36.7363C13.9861 36.7176 14.0464 36.6848 14.102 36.639C14.1572 36.5931 14.205 36.5358 14.2452 36.4658C14.2861 36.3956 14.312 36.3258 14.3233 36.2554C14.3351 36.1854 14.3323 36.1182 14.3159 36.0538C14.2993 35.9889 14.2688 35.9288 14.2249 35.8736C14.1808 35.8189 14.1233 35.7706 14.0531 35.7297C13.9826 35.6895 13.9119 35.6634 13.8415 35.653C13.8156 35.6491 13.7902 35.6472 13.765 35.6472C13.7219 35.6472 13.6798 35.653 13.6389 35.6648ZM13.7445 36.5194C13.7052 36.5175 13.6643 36.5044 13.6225 36.4806C13.5793 36.4543 13.547 36.4245 13.5248 36.3907C13.5027 36.3572 13.4883 36.3215 13.4833 36.2836C13.4775 36.2462 13.4791 36.2083 13.4883 36.1695C13.4976 36.1304 13.5121 36.0935 13.5329 36.0577C13.5528 36.0228 13.5775 35.9919 13.6066 35.9648C13.6359 35.9371 13.6678 35.9166 13.7027 35.9022C13.7376 35.8886 13.7752 35.8826 13.8154 35.8847C13.8558 35.8877 13.8972 35.9011 13.9399 35.9256C13.9835 35.9507 14.0157 35.9805 14.0371 36.015C14.0582 36.0494 14.0715 36.0852 14.0766 36.123C14.0815 36.1607 14.0789 36.199 14.069 36.2371C14.0588 36.2753 14.0443 36.3115 14.0244 36.3455C14.0048 36.379 13.9808 36.4101 13.9521 36.4376C13.9235 36.4649 13.8912 36.4861 13.8563 36.5007C13.8251 36.5134 13.7918 36.5196 13.757 36.5196C13.7528 36.5196 13.7487 36.5196 13.7445 36.5194Z" fill="url(#paint16_linear_1497_31320)" style=""/>
<path d="M14.2358 37.0661L14.6223 37.2534C14.6694 37.276 14.7188 37.2947 14.7708 37.3095C14.823 37.3238 14.8738 37.3296 14.9227 37.3266C14.9713 37.3234 15.0172 37.3091 15.0606 37.283C15.1041 37.2571 15.1403 37.2146 15.1687 37.1545C15.1955 37.0996 15.2066 37.0464 15.2015 36.9954C15.1967 36.9446 15.1752 36.8989 15.1366 36.8575C15.1812 36.8534 15.2193 36.8386 15.2512 36.8136C15.2831 36.7882 15.3082 36.7554 15.3274 36.7159C15.3498 36.6695 15.3604 36.6266 15.3597 36.5873C15.3584 36.5476 15.3494 36.5118 15.3316 36.479C15.3142 36.4471 15.2895 36.4175 15.2577 36.3916C15.226 36.3653 15.1907 36.3431 15.1521 36.3244L14.7003 36.1057L14.2358 37.0661ZM14.8932 36.6695L14.7368 36.594L14.8244 36.4141L15.0006 36.4991C15.0177 36.5069 15.0338 36.5161 15.0486 36.5251C15.0639 36.5351 15.0757 36.5455 15.0854 36.5575C15.0948 36.5695 15.1004 36.5827 15.1027 36.5974C15.1048 36.6127 15.1015 36.6291 15.093 36.6473C15.0754 36.6836 15.0486 36.7014 15.0138 36.7018C15.0131 36.7018 15.0124 36.7018 15.0119 36.7018C14.9768 36.7018 14.9373 36.691 14.8932 36.6695ZM14.8583 37.098C14.8382 37.097 14.817 37.0931 14.7934 37.0853C14.7698 37.0769 14.7454 37.067 14.7202 37.0548L14.5534 36.9737L14.6481 36.7774L14.8401 36.8695C14.8609 36.8797 14.8798 36.8905 14.898 36.9009C14.9163 36.9123 14.9311 36.924 14.9421 36.9377C14.9537 36.9511 14.9609 36.9663 14.9636 36.9827C14.9659 36.9989 14.9629 37.0169 14.9528 37.0365C14.9422 37.0592 14.9288 37.0753 14.9124 37.0848C14.8971 37.0933 14.8809 37.098 14.8627 37.098C14.8613 37.098 14.8597 37.098 14.8583 37.098Z" fill="url(#paint17_linear_1497_31320)" style=""/>
<path d="M27.983 36.7109C27.9377 36.7176 27.8929 36.7298 27.8504 36.7469C27.8024 36.7665 27.759 36.7906 27.7218 36.8201C27.6839 36.849 27.6539 36.8834 27.6312 36.9213C27.6095 36.9599 27.5954 37.0024 27.5894 37.0493C27.5846 37.0966 27.5903 37.1474 27.6072 37.2026L27.8278 37.1137C27.8206 37.0797 27.8257 37.0488 27.8437 37.0213C27.861 36.9936 27.8885 36.9721 27.9269 36.9566C27.9604 36.943 27.9918 36.9403 28.02 36.9479C28.0486 36.9553 28.0689 36.9735 28.0819 37.0015C28.0851 37.0098 28.0883 37.0211 28.0911 37.0345C28.0941 37.0481 28.0932 37.062 28.0888 37.0772C28.0837 37.0918 28.0752 37.1061 28.0618 37.1209C28.0479 37.1356 28.0273 37.1486 28.0003 37.1594L27.9234 37.1904L27.9992 37.3777L28.1137 37.3315C28.1583 37.3133 28.1936 37.3105 28.2191 37.3232C28.2447 37.3354 28.2627 37.3546 28.2731 37.3807C28.2814 37.4013 28.2849 37.4204 28.2823 37.4382C28.2805 37.4558 28.2747 37.4717 28.2652 37.4853C28.2558 37.4997 28.2431 37.5121 28.2269 37.5227C28.2117 37.5336 28.1946 37.5429 28.1759 37.55C28.1352 37.5666 28.0946 37.5726 28.0548 37.5685C28.0149 37.5646 27.9825 37.544 27.9569 37.5066L27.7331 37.5969C27.7814 37.6974 27.8541 37.7609 27.9507 37.7861C28.0479 37.8112 28.15 37.8025 28.2569 37.7595C28.2997 37.7422 28.3412 37.72 28.3803 37.6934C28.42 37.6669 28.4537 37.6334 28.4828 37.5937C28.5112 37.5539 28.5292 37.5093 28.5369 37.4597C28.544 37.4103 28.5366 37.3546 28.5131 37.2941C28.4923 37.2405 28.4613 37.1975 28.4198 37.1654C28.3775 37.1329 28.3285 37.1169 28.2713 37.1185C28.2976 37.0855 28.3131 37.0472 28.3188 37.0035C28.3246 36.9601 28.3193 36.9183 28.3036 36.8781C28.2833 36.8289 28.2565 36.791 28.223 36.7649C28.19 36.7391 28.1525 36.7215 28.1123 36.7132C28.0899 36.7083 28.0668 36.706 28.0433 36.706C28.0237 36.706 28.0036 36.7077 27.983 36.7109Z" fill="url(#paint18_linear_1497_31320)" style=""/>
<path d="M28.4835 36.4949C28.5228 36.5889 28.5609 36.6843 28.5995 36.7808C28.6373 36.8781 28.6762 36.9744 28.714 37.0712L28.9071 36.9783C28.9205 36.9522 28.9362 36.9291 28.9559 36.9086C28.975 36.888 28.9988 36.8711 29.0284 36.8571C29.0503 36.8464 29.072 36.8407 29.0926 36.8404C29.1129 36.84 29.1321 36.8432 29.1501 36.8499C29.1674 36.8564 29.1831 36.8663 29.1965 36.8795C29.2097 36.8924 29.2208 36.9072 29.2284 36.9231C29.2469 36.9612 29.2501 36.9979 29.2395 37.0333C29.2284 37.0689 29.1981 37.098 29.148 37.1224C29.1108 37.1377 29.0764 37.1416 29.0441 37.1328C29.0115 37.1245 28.9854 37.1072 28.9651 37.0816L28.7489 37.1848C28.8129 37.2871 28.8861 37.3474 28.9713 37.3663C29.0563 37.3855 29.1487 37.371 29.2494 37.3227C29.3007 37.2975 29.3453 37.267 29.3822 37.2312C29.4196 37.1947 29.4474 37.1543 29.4654 37.1097C29.4836 37.0647 29.4919 37.0166 29.4901 36.9656C29.4889 36.9148 29.4748 36.8619 29.4487 36.8074C29.4259 36.7605 29.3989 36.7206 29.3668 36.6887C29.3344 36.657 29.2982 36.6337 29.2589 36.6198C29.2192 36.6051 29.1762 36.5997 29.13 36.6034C29.0843 36.6074 29.036 36.6208 28.9866 36.645C28.9584 36.6582 28.9311 36.675 28.9057 36.6944C28.8796 36.7138 28.8561 36.7386 28.8346 36.7677C28.8247 36.7402 28.8143 36.712 28.8032 36.6843C28.7928 36.6559 28.7824 36.6282 28.7715 36.6011L29.2032 36.3937L29.1088 36.1958L28.4835 36.4949Z" fill="url(#paint19_linear_1497_31320)" style=""/>
<path d="M29.8651 35.8085C29.8066 35.8131 29.7466 35.8321 29.6849 35.8662C29.6235 35.9011 29.5747 35.9434 29.5399 35.9917C29.5043 36.0399 29.4823 36.0933 29.4738 36.152C29.4655 36.2104 29.4694 36.2735 29.4867 36.3414C29.5043 36.4097 29.5339 36.4804 29.5752 36.5538C29.6175 36.6282 29.6627 36.6906 29.7103 36.7407C29.7586 36.7904 29.8099 36.8275 29.8634 36.8509C29.917 36.8749 29.9732 36.8837 30.033 36.8793C30.0926 36.8744 30.154 36.8546 30.2166 36.8192C30.2803 36.7839 30.3289 36.7416 30.3635 36.6936C30.3979 36.6453 30.4196 36.592 30.427 36.5342C30.4353 36.476 30.4309 36.4132 30.4132 36.346C30.3958 36.2783 30.366 36.2074 30.3245 36.1333C30.2829 36.0596 30.2376 35.9979 30.1891 35.9478C30.1408 35.8981 30.0891 35.8614 30.0346 35.8376C29.9884 35.8177 29.9404 35.8076 29.8909 35.8076C29.8824 35.8076 29.8738 35.8078 29.8651 35.8085ZM30.0145 36.6465C29.9854 36.643 29.9568 36.6321 29.93 36.6139C29.9027 36.5957 29.8775 36.5709 29.8531 36.5391C29.8293 36.5081 29.8066 36.4737 29.7856 36.4358C29.7646 36.3979 29.7466 36.361 29.7329 36.3245C29.7193 36.2878 29.7115 36.2533 29.7101 36.2208C29.7089 36.188 29.7142 36.1582 29.7276 36.1312C29.7406 36.1044 29.7637 36.0817 29.796 36.0635C29.8276 36.0462 29.8579 36.0388 29.887 36.042C29.9159 36.0452 29.9434 36.0563 29.9704 36.075C29.9979 36.0938 30.0233 36.1185 30.0473 36.1494C30.0709 36.1806 30.0935 36.2145 30.114 36.2513C30.1358 36.2894 30.1533 36.3273 30.1669 36.364C30.1806 36.4005 30.1884 36.4354 30.191 36.4684C30.1933 36.5012 30.1875 36.5305 30.1748 36.5575C30.1619 36.5846 30.1395 36.6067 30.1078 36.6248C30.0806 36.6395 30.0545 36.6474 30.0293 36.6474C30.0244 36.6474 30.0196 36.6469 30.0145 36.6465Z" fill="url(#paint20_linear_1497_31320)" style=""/>
<path d="M30.6876 35.2736L31.2969 36.1497L31.4986 36.0092L31.0177 35.3177L31.4362 35.0274L31.3078 34.8428L30.6876 35.2736Z" fill="url(#paint21_linear_1497_31320)" style=""/>
<path d="M32.0463 34.2626L32.0617 35.0747L31.6594 34.5723L31.4681 34.7259L32.135 35.5586L32.2876 35.4362L32.2777 34.6308L32.675 35.126L32.8662 34.9726L32.1985 34.1402L32.0463 34.2626Z" fill="url(#paint22_linear_1497_31320)" style=""/>
<path d="M32.8871 33.5106L32.979 34.0053L32.8832 34.0947L32.594 33.7838L32.4138 33.9508L33.14 34.7319L33.3201 34.5647L33.0351 34.2578L33.1405 34.1596L33.6114 34.294L33.8209 34.0986L33.1866 33.9277L33.0936 33.3189L32.8871 33.5106Z" fill="url(#paint23_linear_1497_31320)" style=""/>
<path d="M33.6574 32.7203L33.7831 33.2075L33.6941 33.3029L33.384 33.0125L33.2156 33.192L33.9946 33.9214L34.1626 33.7419L33.8563 33.4555L33.9558 33.35L34.4346 33.4511L34.63 33.2421L33.9847 33.1155L33.8503 32.5143L33.6574 32.7203Z" fill="url(#paint24_linear_1497_31320)" style=""/>
<path d="M34.5795 31.8341C34.5129 31.8401 34.4487 31.8609 34.3873 31.8958C34.3261 31.9306 34.2697 31.9798 34.2182 32.0429C34.1669 32.1057 34.1307 32.1715 34.1094 32.2395C34.0875 32.3069 34.0808 32.3748 34.0889 32.4411C34.097 32.5081 34.1189 32.5723 34.1547 32.6344C34.1896 32.6958 34.2392 32.7529 34.3028 32.8042C34.3651 32.855 34.4296 32.8917 34.497 32.9146C34.5647 32.9379 34.6319 32.9467 34.698 32.9409C34.7645 32.9358 34.8289 32.9157 34.8913 32.8813C34.9534 32.8471 35.0105 32.7977 35.0633 32.7328C35.1158 32.6697 35.1525 32.6039 35.1733 32.5353C35.1943 32.467 35.2001 32.3988 35.1908 32.3314C35.1823 32.2642 35.1599 32.1997 35.1234 32.1376C35.0871 32.0757 35.0384 32.0196 34.976 31.9685C34.9125 31.9172 34.8472 31.8805 34.7802 31.8583C34.7275 31.8408 34.6751 31.832 34.6231 31.832C34.6083 31.832 34.5938 31.8327 34.5795 31.8341ZM34.6755 32.6928C34.6377 32.6924 34.6005 32.6845 34.5635 32.6697C34.5266 32.6543 34.4919 32.634 34.4601 32.6081C34.4286 32.5827 34.4025 32.5533 34.3799 32.5203C34.3575 32.4875 34.3425 32.4526 34.3337 32.4159C34.3254 32.3794 34.3254 32.3413 34.3344 32.3016C34.3432 32.2621 34.3633 32.2235 34.3938 32.1854C34.4256 32.1464 34.46 32.1189 34.497 32.1034C34.5344 32.0875 34.5723 32.0803 34.6104 32.0817C34.6478 32.0826 34.6852 32.0909 34.7217 32.1071C34.758 32.123 34.791 32.1427 34.8215 32.1679C34.8522 32.1926 34.8786 32.2212 34.9012 32.2538C34.9238 32.2863 34.9398 32.3212 34.9481 32.3584C34.9573 32.3949 34.9573 32.4328 34.9492 32.4716C34.9409 32.5104 34.9218 32.5485 34.8913 32.5857C34.8589 32.6245 34.8245 32.6515 34.7876 32.6681C34.7518 32.6845 34.7153 32.6928 34.6783 32.6928C34.6774 32.6928 34.6765 32.6928 34.6755 32.6928Z" fill="url(#paint25_linear_1497_31320)" style=""/>
<path d="M34.7746 30.7941C34.7968 30.8135 34.809 30.8348 34.8116 30.8577C34.8134 30.8812 34.8067 30.9048 34.7903 30.9281C34.7753 30.9505 34.7564 30.9648 34.7333 30.9713C34.7106 30.9778 34.6855 30.9748 34.6594 30.962L34.5469 31.1249C34.6231 31.1699 34.6938 31.1815 34.7594 31.1607C34.8238 31.1397 34.8811 31.0939 34.9296 31.0239C34.9774 30.9549 34.9996 30.8856 34.9963 30.8175C34.9929 30.7489 34.9571 30.6865 34.8892 30.6294L34.7746 30.7941ZM35.1245 30.8401L35.3719 31.6134L34.8425 31.2475L34.703 31.4494L35.5807 32.0564L35.692 31.8954L35.4523 31.1267L35.974 31.4873L36.1131 31.2852L35.2354 30.6786L35.1245 30.8401Z" fill="url(#paint26_linear_1497_31320)" style=""/>
<path d="M35.719 29.8715L36.0902 30.0879L35.8789 30.4499L35.5079 30.233L35.3839 30.445L36.305 30.9836L36.4291 30.7716L36.0699 30.5614L36.2817 30.2002L36.6402 30.4101L36.7647 30.1976L35.8435 29.6593L35.719 29.8715Z" fill="url(#paint27_linear_1497_31320)" style=""/>
<path d="M36.4797 28.6875C36.4162 28.7086 36.3587 28.7432 36.3065 28.7908C36.2554 28.8391 36.2111 28.8998 36.1755 28.9728C36.1397 29.046 36.1191 29.1181 36.1141 29.1892C36.1085 29.2601 36.1171 29.3273 36.1404 29.3904C36.1633 29.4532 36.1995 29.5109 36.2485 29.5634C36.2972 29.6156 36.3582 29.6595 36.431 29.6953C36.5037 29.7301 36.5753 29.7512 36.6458 29.7583C36.7171 29.7652 36.7841 29.7588 36.8474 29.738C36.9109 29.7174 36.9691 29.6833 37.0225 29.6359C37.0744 29.5886 37.1192 29.5274 37.1557 29.4523C37.1927 29.3786 37.2132 29.3058 37.2181 29.2345C37.2223 29.1631 37.2128 29.0954 37.1892 29.0317C37.1652 28.9686 37.1287 28.9109 37.0788 28.8584C37.0289 28.8067 36.9687 28.7631 36.8959 28.728C36.8229 28.6924 36.7506 28.6716 36.6802 28.6651C36.664 28.6637 36.6481 28.663 36.6321 28.663C36.579 28.663 36.5282 28.6714 36.4797 28.6875ZM36.6545 29.5045C36.6153 29.4982 36.5765 29.486 36.54 29.4675C36.5037 29.4507 36.4711 29.4283 36.442 29.4012C36.4122 29.3738 36.3896 29.3437 36.373 29.3098C36.3561 29.2761 36.3478 29.2391 36.3471 29.1989C36.3469 29.1582 36.3575 29.116 36.3787 29.0716C36.4007 29.0264 36.4284 28.992 36.461 28.9682C36.494 28.9448 36.5289 28.9287 36.5658 28.9213C36.603 28.9134 36.6414 28.9134 36.6799 28.9206C36.7192 28.9275 36.7566 28.94 36.7913 28.9571C36.8264 28.9742 36.8589 28.9959 36.8887 29.0224C36.9183 29.0495 36.9416 29.0795 36.9587 29.1134C36.9754 29.1476 36.9841 29.1841 36.9853 29.2236C36.9862 29.2633 36.9763 29.3047 36.955 29.3481C36.9322 29.3929 36.9044 29.4276 36.8728 29.4518C36.8407 29.4765 36.806 29.4932 36.7691 29.5015C36.7481 29.5061 36.7268 29.5084 36.7051 29.5084C36.6885 29.5084 36.6716 29.507 36.6545 29.5045Z" fill="url(#paint28_linear_1497_31320)" style=""/>
<path d="M36.9364 27.6081C36.8973 27.6116 36.862 27.6238 36.8311 27.6439C36.7996 27.6635 36.7719 27.6903 36.7486 27.7236C36.7248 27.7571 36.7056 27.7938 36.6895 27.834L36.5035 28.2999L37.4951 28.6946L37.6542 28.295C37.6729 28.2467 37.6882 28.1961 37.6986 28.1435C37.7099 28.0904 37.7118 28.0391 37.7055 27.9906C37.6986 27.9421 37.6808 27.897 37.6519 27.8559C37.6233 27.8148 37.5776 27.7818 37.5157 27.7575C37.4588 27.7349 37.4055 27.7277 37.3551 27.7361C37.3046 27.7448 37.2604 27.7698 37.2223 27.8109C37.2147 27.767 37.1974 27.7296 37.1701 27.6998C37.1422 27.67 37.1082 27.6469 37.0671 27.6307C37.0278 27.615 36.9914 27.6069 36.9576 27.6069C36.9505 27.6069 36.9433 27.6074 36.9364 27.6081ZM36.802 28.1543L36.8743 27.9723C36.8816 27.9548 36.889 27.9379 36.8973 27.9222C36.9061 27.9065 36.9156 27.8938 36.9269 27.8836C36.9378 27.8735 36.9505 27.8668 36.9652 27.8633C36.9805 27.8601 36.9969 27.8622 37.0156 27.8698C37.0533 27.8843 37.0731 27.9095 37.0759 27.9449C37.0787 27.98 37.0708 28.0208 37.0526 28.0675L36.9879 28.2285L36.802 28.1543ZM37.1773 28.3035L37.2558 28.1063C37.2641 28.085 37.2731 28.0645 37.2828 28.0458C37.2928 28.0269 37.3039 28.0111 37.3161 27.9989C37.3286 27.9867 37.3431 27.9788 37.3595 27.9749C37.3755 27.9707 37.3937 27.973 37.4143 27.9811C37.4374 27.9901 37.4547 28.0026 37.4648 28.0185C37.4752 28.0338 37.4812 28.0516 37.4822 28.0714C37.4826 28.0913 37.4801 28.113 37.4736 28.137C37.4672 28.1608 37.4588 28.1858 37.4487 28.2121L37.3805 28.3844L37.1773 28.3035Z" fill="url(#paint29_linear_1497_31320)" style=""/>
<path d="M4.53796 22.0714L5.72654 24.1125L6.91512 22.0714L5.72654 20.0308L4.53796 22.0714ZM5.35491 22.0714L5.72654 21.4333L6.09817 22.0714L5.72654 22.7099L5.35491 22.0714Z" fill="url(#paint30_linear_1497_31320)" style=""/>
<path d="M37.1847 22.0714L38.3735 24.1125L39.5621 22.0714L38.3735 20.0308L37.1847 22.0714ZM38.0016 22.0714L38.3735 21.4333L38.7454 22.0714L38.3735 22.7099L38.0016 22.0714Z" fill="url(#paint31_linear_1497_31320)" style=""/>
<path d="M7.2921 11.113C7.07822 11.1945 6.88167 11.3147 6.70266 11.4733C6.5232 11.6325 6.36568 11.8191 6.23033 12.0339C6.04209 12.3323 5.91828 12.6296 5.85869 12.9248C5.79957 13.2204 5.80141 13.5054 5.86516 13.7791C5.92891 14.0537 6.05433 14.3136 6.2428 14.5598C6.43012 14.8056 6.67933 15.0259 6.98814 15.2213C7.29025 15.4116 7.59167 15.5396 7.89124 15.604C8.19173 15.6685 8.48045 15.6705 8.75808 15.6091C9.03593 15.5481 9.29601 15.4273 9.53945 15.2479C9.78243 15.0679 9.99908 14.8273 10.1901 14.5254C10.2746 14.3905 10.3476 14.2468 10.4084 14.0946C10.4691 13.9422 10.5135 13.7893 10.5409 13.6366C10.5691 13.4837 10.5779 13.3306 10.5675 13.1765C10.5583 13.0231 10.5245 12.8749 10.4673 12.7314C10.3555 12.4425 10.1936 12.1965 9.98268 11.9946C9.77181 11.793 9.53322 11.608 9.26783 11.4405L9.12578 11.3507L7.89655 13.2989L8.7262 13.8225L9.30109 12.9111C9.36807 12.9737 9.41496 13.0453 9.44036 13.1252C9.46669 13.2052 9.4757 13.2885 9.46946 13.3761C9.4623 13.4632 9.44198 13.5523 9.4078 13.6421C9.37384 13.7329 9.33158 13.8184 9.28099 13.8981C9.16643 14.0803 9.04102 14.2136 8.9059 14.2986C8.77101 14.3836 8.63081 14.4325 8.48576 14.4452C8.34002 14.4577 8.19474 14.4409 8.04853 14.3944C7.9021 14.348 7.75982 14.281 7.6217 14.1939C7.50159 14.118 7.39003 14.0258 7.2854 13.9166C7.181 13.8078 7.1027 13.6844 7.04935 13.5468C6.99692 13.4091 6.9766 13.2613 6.98884 13.1042C7.00177 12.9467 7.06367 12.7809 7.17408 12.6062C7.30019 12.4065 7.44039 12.2672 7.59421 12.1887C7.74758 12.1101 7.92173 12.1069 8.11551 12.1785L8.73174 11.2015C8.46751 11.0805 8.21529 11.0155 7.97416 11.0058C7.94852 11.0058 7.92288 11.0035 7.89771 11.0035C7.68521 11.0035 7.48358 11.04 7.2921 11.1123" fill="url(#paint32_linear_1497_31320)" style=""/>
<path d="M8.60828 9.02104L11.5857 12.4856L14.1992 10.2396L13.4963 9.42223L11.7691 10.9071L11.3273 10.3932L12.7517 9.16932L12.0786 8.38632L10.6545 9.61048L10.2006 9.082L11.9273 7.59687L11.221 6.77553L8.60828 9.02104Z" fill="url(#paint33_linear_1497_31320)" style=""/>
<path d="M12.5973 5.92668L14.5405 10.0615L17.6581 8.5965L17.2003 7.6211L15.1384 8.58979L14.8506 7.97633L16.5506 7.17811L16.1111 6.24359L14.4113 7.04181L14.1152 6.41127L16.1773 5.44281L15.7161 4.46163L12.5973 5.92668Z" fill="url(#paint34_linear_1497_31320)" style=""/>
<path d="M20.0802 3.54953L19.37 5.43378L18.7514 5.52826L18.4853 3.79367L17.3312 3.97014L18.022 8.48608L19.1766 8.30961L18.9136 6.59349L19.5582 6.49486L20.7332 8.07078L22.0726 7.86614L20.3855 5.71559L21.3942 3.34813L20.0802 3.54953Z" fill="url(#paint35_linear_1497_31320)" style=""/>
<path d="M24.0255 3.68409C23.7322 3.749 23.4721 3.8654 23.2448 4.03447C23.0178 4.20308 22.8284 4.42134 22.6773 4.68927C22.5263 4.95696 22.4226 5.26717 22.3667 5.61986C22.3106 5.97694 22.3106 6.30677 22.3667 6.6098C22.4233 6.91284 22.5327 7.17939 22.6942 7.40944C22.8554 7.63994 23.0679 7.83002 23.3291 7.98038C23.5906 8.13074 23.8955 8.23329 24.2438 8.28849C24.4988 8.32868 24.7503 8.33146 24.9967 8.29636C25.2446 8.26194 25.4716 8.18688 25.6797 8.07139C25.8867 7.9566 26.0678 7.79976 26.2207 7.60158C26.3745 7.40387 26.4837 7.16459 26.5503 6.88304L25.4351 6.70682C25.3559 6.90315 25.2314 7.04449 25.0607 7.13087C24.8905 7.21702 24.6799 7.24012 24.4293 7.20063C24.2334 7.16991 24.074 7.10663 23.9495 7.01031C23.8253 6.91469 23.7313 6.8015 23.6668 6.67169C23.6024 6.54189 23.5631 6.40054 23.5479 6.24787C23.5331 6.0952 23.537 5.94669 23.5596 5.80256C23.5827 5.65382 23.6239 5.50991 23.6834 5.3711C23.7426 5.23228 23.8223 5.11219 23.9234 5.0108C24.0244 4.90894 24.1482 4.83386 24.2953 4.78513C24.4424 4.73662 24.6136 4.72762 24.8092 4.75857C25.064 4.79899 25.2541 4.88676 25.3783 5.02188C25.5028 5.15723 25.5746 5.33046 25.5933 5.54272L26.6826 5.71524C26.7041 5.41798 26.675 5.15237 26.5967 4.9177C26.5186 4.68303 26.4022 4.48072 26.2486 4.3105C26.0948 4.14004 25.9079 4.00074 25.688 3.89172C25.4682 3.78293 25.2277 3.70787 24.969 3.66676C24.8177 3.64297 24.6708 3.63098 24.5279 3.63098C24.3542 3.63098 24.1865 3.64876 24.0255 3.68409Z" fill="url(#paint36_linear_1497_31320)" style=""/>
<path d="M28.8697 5.3606C28.5928 5.44351 28.3369 5.5858 28.1025 5.78744C27.8669 5.98907 27.6664 6.24612 27.5026 6.55817C27.3379 6.87021 27.2368 7.17925 27.1996 7.48552C27.1622 7.79156 27.1862 8.08259 27.2714 8.3586C27.3573 8.63461 27.501 8.88937 27.7043 9.12242C27.9068 9.35593 28.166 9.55594 28.4822 9.72223C28.7905 9.88507 29.0973 9.98233 29.4038 10.0149C29.7098 10.0475 30.0029 10.0197 30.2828 9.93105C30.5628 9.84328 30.8201 9.69661 31.0547 9.49174C31.2889 9.2871 31.4869 9.03071 31.6497 8.72237C31.8139 8.41079 31.9126 8.10174 31.9451 7.79501C31.9779 7.48875 31.95 7.19957 31.8629 6.92749C31.7756 6.65517 31.6305 6.40388 31.4282 6.17314C31.2268 5.94286 30.9737 5.74769 30.6695 5.58717C30.3609 5.42433 30.0535 5.3257 29.7463 5.29036C29.6539 5.27974 29.5629 5.27443 29.4733 5.27443C29.2647 5.27443 29.0635 5.30308 28.8697 5.3606ZM29.025 8.76142C28.8388 8.66302 28.6965 8.54775 28.5981 8.41586C28.5 8.28398 28.4364 8.14332 28.408 7.99458C28.3794 7.84606 28.3799 7.69548 28.4094 7.54304C28.4383 7.3906 28.4891 7.24623 28.5616 7.10904C28.6293 6.97969 28.7168 6.86053 28.8229 6.75105C28.9296 6.64203 29.0504 6.55726 29.1864 6.49744C29.322 6.43808 29.4726 6.41057 29.6382 6.41519C29.8036 6.41958 29.9777 6.46994 30.1606 6.56626C30.3429 6.66234 30.4792 6.77946 30.5699 6.91711C30.6602 7.05454 30.7173 7.19775 30.7411 7.34649C30.7649 7.49477 30.7589 7.6442 30.7242 7.79341C30.6893 7.94261 30.6406 8.0768 30.5782 8.19436C30.5122 8.31978 30.4276 8.4369 30.3239 8.54499C30.2207 8.65378 30.102 8.73923 29.9666 8.80159C29.8315 8.86442 29.6846 8.89629 29.5257 8.89768C29.5232 8.89768 29.5206 8.89768 29.5183 8.89768C29.3617 8.89768 29.1973 8.85219 29.025 8.76142Z" fill="url(#paint37_linear_1497_31320)" style=""/>
<path d="M30.7999 11.1762L31.6753 11.95L34.7008 8.52742L33.8254 7.75367L30.7999 11.1762Z" fill="url(#paint38_linear_1497_31320)" style=""/>
<path d="M32.2534 12.3302L32.9214 13.2892L35.0336 11.8177L34.0418 14.8986L34.6465 15.7671L38.3954 13.1569L37.7281 12.1984L35.5838 13.6916L36.6259 10.615L36.0028 9.72028L32.2534 12.3302Z" fill="url(#paint39_linear_1497_31320)" style=""/>
<mask id="mask0_1497_31320" style="mask-type:luminance" maskUnits="userSpaceOnUse" x="0" y="0" width="44" height="44">
<path d="M0 0H44V44H0V0Z" fill="white" style="fill:white;fill-opacity:1;"/>
</mask>
<g mask="url(#mask0_1497_31320)">
<path d="M14.7984 26.5964C13.9327 26.5964 13.2273 26.4186 12.7014 26.0677C12.1641 25.7097 11.8916 25.2291 11.8916 24.6394C11.8916 24.2588 12.0027 23.943 12.2228 23.7003C12.445 23.455 12.7307 23.3305 13.0719 23.3305C13.3818 23.3305 13.6375 23.4314 13.8322 23.6305C14.0258 23.8287 14.1237 24.0927 14.1237 24.4149C14.1237 24.6942 14.0359 24.9547 13.8627 25.1898C13.7234 25.3783 13.6662 25.4591 13.6428 25.494C13.6581 25.5178 13.7103 25.5716 13.8816 25.6492C14.068 25.7335 14.2794 25.776 14.5097 25.776C14.9212 25.776 15.2146 25.6261 15.4065 25.3175C15.604 24.9995 15.704 24.4842 15.704 23.786C15.704 23.1196 15.5536 22.6253 15.2571 22.3168C14.9614 22.0091 14.4875 21.8532 13.8486 21.8532H13.5474V20.8896L13.6327 20.8857C14.3847 20.8524 14.9176 20.682 15.2164 20.3792C15.5146 20.0768 15.6657 19.5516 15.6657 18.8178C15.6657 18.2628 15.5765 17.863 15.401 17.6294C15.2289 17.4008 14.9501 17.2899 14.5482 17.2899C14.3447 17.2899 14.1685 17.3276 14.0242 17.4017C13.9038 17.4636 13.8348 17.5283 13.8348 17.5793L13.835 17.5791C13.8389 17.5791 13.8743 17.6449 14.0835 17.8944C14.2764 18.1237 14.3741 18.3808 14.3741 18.6575C14.3741 18.9591 14.2711 19.2128 14.068 19.4114C13.8657 19.6091 13.6015 19.7096 13.2837 19.7096C12.9631 19.7096 12.6975 19.5911 12.4942 19.358C12.2946 19.1282 12.1932 18.8321 12.1932 18.478C12.1932 17.9242 12.4593 17.4486 12.9841 17.0645C13.4996 16.6866 14.1406 16.4951 14.8885 16.4951C15.7557 16.4951 16.4824 16.715 17.048 17.149C17.6204 17.5886 17.9107 18.1501 17.9107 18.8178C17.9107 19.4668 17.6747 20.0011 17.2095 20.4066C16.8064 20.7573 16.1752 21.0529 15.3294 21.2871C16.26 21.5312 16.9545 21.8465 17.398 22.2258C17.9042 22.6586 18.1609 23.2377 18.1609 23.9463C18.1609 24.729 17.846 25.3741 17.2252 25.8647C16.611 26.3502 15.7943 26.5964 14.7984 26.5964Z" fill="#231F20" style="fill:#231F20;fill:color(display-p3 0.1373 0.1216 0.1255);fill-opacity:1;"/>
<path d="M21.6172 26.6094C20.8058 26.6094 20.1274 26.4179 19.6011 26.0407C19.0652 25.6566 18.7936 25.1635 18.7936 24.5752C18.7936 24.1943 18.913 23.8728 19.1481 23.6195C19.3849 23.3642 19.6865 23.2347 20.0445 23.2347C20.3808 23.2347 20.6573 23.3453 20.8663 23.5638C21.0747 23.7811 21.18 24.0675 21.18 24.4149C21.18 24.7505 21.0049 25.0935 20.6591 25.4347C20.5968 25.4975 20.5723 25.5268 20.563 25.5397C20.5762 25.5397 20.621 25.5922 20.8104 25.6707C20.9996 25.7492 21.2148 25.7892 21.4502 25.7892C21.9219 25.7892 22.275 25.588 22.5298 25.1739C22.7891 24.7517 22.921 24.1334 22.921 23.3367C22.921 22.5699 22.8023 21.9918 22.5683 21.6188C22.3394 21.2538 21.9992 21.0765 21.5271 21.0765C21.3079 21.0765 21.0913 21.152 20.8827 21.3007C20.6688 21.4534 20.4776 21.6721 20.3138 21.9505L20.2843 22.0008L19.2768 21.8795L19.2959 21.7851C19.4745 20.8982 19.6288 20.0057 19.7544 19.1326C19.8796 18.2614 19.9819 17.3929 20.0586 16.5508L20.0681 16.4466L21.1259 16.7162L21.3442 16.7742C22.3036 17.0236 22.9979 17.15 23.4079 17.15C23.7096 17.15 23.9574 17.1033 24.1449 17.0114C24.3323 16.9199 24.5115 16.7585 24.6776 16.5316L24.7044 16.4951H25.3L25.2488 16.6187C24.9192 17.4119 24.517 18.0117 24.0526 18.4016C23.5823 18.7968 23.024 18.997 22.3935 18.997C22.1406 18.997 21.8602 18.9652 21.5602 18.9021C21.2929 18.846 21.0107 18.7656 20.7199 18.6628C20.6852 18.8926 20.6455 19.1479 20.6014 19.4287C20.5557 19.7193 20.4841 20.1549 20.387 20.7351C20.6922 20.5203 20.9769 20.3614 21.2356 20.2623C21.5461 20.1433 21.8731 20.0831 22.2076 20.0831C23.0926 20.0831 23.8338 20.378 24.4113 20.9598C24.9887 21.5421 25.2813 22.2898 25.2813 23.1825C25.2813 24.1745 24.9363 25.003 24.2554 25.6448C23.5756 26.2849 22.6882 26.6094 21.6172 26.6094Z" fill="#231F20" style="fill:#231F20;fill:color(display-p3 0.1373 0.1216 0.1255);fill-opacity:1;"/>
<path d="M29.1099 17.3283C28.8466 17.3283 28.6604 17.5105 28.5399 17.8856C28.411 18.2882 28.3452 18.9859 28.3452 19.9604V23.0864C28.3452 24.0562 28.411 24.7512 28.5399 25.1512C28.6604 25.5243 28.8466 25.7056 29.1099 25.7056C29.3771 25.7056 29.5654 25.5243 29.6862 25.1512C29.8151 24.7512 29.8807 24.0562 29.8807 23.0864V19.9604C29.8807 18.9859 29.8151 18.2882 29.6862 17.8858C29.5654 17.5105 29.3771 17.3283 29.1099 17.3283ZM29.1099 26.5964C28.1444 26.5964 27.361 26.129 26.7815 25.2067C26.2103 24.2976 25.9207 23.064 25.9207 21.5393C25.9207 20.0574 26.2179 18.8363 26.8041 17.9103C27.3986 16.9712 28.1745 16.4951 29.1099 16.4951C30.0791 16.4951 30.8648 16.9594 31.4441 17.875C32.0158 18.7776 32.3054 20.0105 32.3054 21.5393C32.3054 23.0254 32.0072 24.2495 31.4187 25.178C30.8221 26.1192 30.0453 26.5964 29.1099 26.5964Z" fill="#231F20" style="fill:#231F20;fill:color(display-p3 0.1373 0.1216 0.1255);fill-opacity:1;"/>
</g>
<defs>
<linearGradient id="paint0_linear_1497_31320" x1="41.7952" y1="3.98038" x2="-2.72967" y2="44.5686" gradientUnits="userSpaceOnUse">
<stop stop-color="#FAF778" style="stop-color:#FAF778;stop-color:color(display-p3 0.9804 0.9686 0.4706);stop-opacity:1;"/>
<stop offset="0.112186" stop-color="#FAF778" style="stop-color:#FAF778;stop-color:color(display-p3 0.9804 0.9686 0.4706);stop-opacity:1;"/>
<stop offset="0.3379" stop-color="#CDAD29" style="stop-color:#CDAD29;stop-color:color(display-p3 0.8039 0.6784 0.1608);stop-opacity:1;"/>
<stop offset="0.688867" stop-color="#A58311" style="stop-color:#A58311;stop-color:color(display-p3 0.6471 0.5137 0.0667);stop-opacity:1;"/>
<stop offset="0.944732" stop-color="#A58311" style="stop-color:#A58311;stop-color:color(display-p3 0.6471 0.5137 0.0667);stop-opacity:1;"/>
<stop offset="1" stop-color="#A58311" style="stop-color:#A58311;stop-color:color(display-p3 0.6471 0.5137 0.0667);stop-opacity:1;"/>
</linearGradient>
<radialGradient id="paint1_radial_1497_31320" cx="0" cy="0" r="1" gradientUnits="userSpaceOnUse" gradientTransform="translate(21.9492 22.0714) scale(20.8468)">
<stop stop-color="#372926" style="stop-color:#372926;stop-color:color(display-p3 0.2157 0.1608 0.1490);stop-opacity:1;"/>
<stop offset="0.526876" stop-color="#372926" style="stop-color:#372926;stop-color:color(display-p3 0.2157 0.1608 0.1490);stop-opacity:1;"/>
<stop offset="1" stop-color="#0C0300" style="stop-color:#0C0300;stop-color:color(display-p3 0.0471 0.0118 0.0000);stop-opacity:1;"/>
</radialGradient>
<linearGradient id="paint2_linear_1497_31320" x1="41.8402" y1="4.02933" x2="-2.68465" y2="44.6176" gradientUnits="userSpaceOnUse">
<stop stop-color="#FAF778" style="stop-color:#FAF778;stop-color:color(display-p3 0.9804 0.9686 0.4706);stop-opacity:1;"/>
<stop offset="0.112186" stop-color="#FAF778" style="stop-color:#FAF778;stop-color:color(display-p3 0.9804 0.9686 0.4706);stop-opacity:1;"/>
<stop offset="0.3379" stop-color="#CDAD29" style="stop-color:#CDAD29;stop-color:color(display-p3 0.8039 0.6784 0.1608);stop-opacity:1;"/>
<stop offset="0.688867" stop-color="#A58311" style="stop-color:#A58311;stop-color:color(display-p3 0.6471 0.5137 0.0667);stop-opacity:1;"/>
<stop offset="0.944732" stop-color="#A58311" style="stop-color:#A58311;stop-color:color(display-p3 0.6471 0.5137 0.0667);stop-opacity:1;"/>
<stop offset="1" stop-color="#A58311" style="stop-color:#A58311;stop-color:color(display-p3 0.6471 0.5137 0.0667);stop-opacity:1;"/>
</linearGradient>
<linearGradient id="paint3_linear_1497_31320" x1="30.4125" y1="12.1922" x2="13.3084" y2="32.5542" gradientUnits="userSpaceOnUse">
<stop stop-color="#895A1D" style="stop-color:#895A1D;stop-color:color(display-p3 0.5373 0.3529 0.1137);stop-opacity:1;"/>
<stop offset="0.055268" stop-color="#895A1D" style="stop-color:#895A1D;stop-color:color(display-p3 0.5373 0.3529 0.1137);stop-opacity:1;"/>
<stop offset="0.311133" stop-color="#895A1D" style="stop-color:#895A1D;stop-color:color(display-p3 0.5373 0.3529 0.1137);stop-opacity:1;"/>
<stop offset="0.6621" stop-color="#CDAD29" style="stop-color:#CDAD29;stop-color:color(display-p3 0.8039 0.6784 0.1608);stop-opacity:1;"/>
<stop offset="0.887814" stop-color="#FAF778" style="stop-color:#FAF778;stop-color:color(display-p3 0.9804 0.9686 0.4706);stop-opacity:1;"/>
<stop offset="1" stop-color="#FAF778" style="stop-color:#FAF778;stop-color:color(display-p3 0.9804 0.9686 0.4706);stop-opacity:1;"/>
</linearGradient>
<linearGradient id="paint4_linear_1497_31320" x1="41.7958" y1="3.98019" x2="-2.72907" y2="44.5684" gradientUnits="userSpaceOnUse">
<stop stop-color="#FAF778" style="stop-color:#FAF778;stop-color:color(display-p3 0.9804 0.9686 0.4706);stop-opacity:1;"/>
<stop offset="0.112186" stop-color="#FAF778" style="stop-color:#FAF778;stop-color:color(display-p3 0.9804 0.9686 0.4706);stop-opacity:1;"/>
<stop offset="0.3379" stop-color="#CDAD29" style="stop-color:#CDAD29;stop-color:color(display-p3 0.8039 0.6784 0.1608);stop-opacity:1;"/>
<stop offset="0.688867" stop-color="#A58311" style="stop-color:#A58311;stop-color:color(display-p3 0.6471 0.5137 0.0667);stop-opacity:1;"/>
<stop offset="0.944732" stop-color="#A58311" style="stop-color:#A58311;stop-color:color(display-p3 0.6471 0.5137 0.0667);stop-opacity:1;"/>
<stop offset="1" stop-color="#A58311" style="stop-color:#A58311;stop-color:color(display-p3 0.6471 0.5137 0.0667);stop-opacity:1;"/>
</linearGradient>
<linearGradient id="paint5_linear_1497_31320" x1="48.8886" y1="11.7615" x2="4.36376" y2="52.3497" gradientUnits="userSpaceOnUse">
<stop stop-color="#FAF778" style="stop-color:#FAF778;stop-color:color(display-p3 0.9804 0.9686 0.4706);stop-opacity:1;"/>
<stop offset="0.112186" stop-color="#FAF778" style="stop-color:#FAF778;stop-color:color(display-p3 0.9804 0.9686 0.4706);stop-opacity:1;"/>
<stop offset="0.3379" stop-color="#CDAD29" style="stop-color:#CDAD29;stop-color:color(display-p3 0.8039 0.6784 0.1608);stop-opacity:1;"/>
<stop offset="0.688867" stop-color="#A58311" style="stop-color:#A58311;stop-color:color(display-p3 0.6471 0.5137 0.0667);stop-opacity:1;"/>
<stop offset="0.944732" stop-color="#A58311" style="stop-color:#A58311;stop-color:color(display-p3 0.6471 0.5137 0.0667);stop-opacity:1;"/>
<stop offset="1" stop-color="#A58311" style="stop-color:#A58311;stop-color:color(display-p3 0.6471 0.5137 0.0667);stop-opacity:1;"/>
</linearGradient>
<linearGradient id="paint6_linear_1497_31320" x1="37.1904" y1="-1.07161" x2="-7.3348" y2="39.5166" gradientUnits="userSpaceOnUse">
<stop stop-color="#FAF778" style="stop-color:#FAF778;stop-color:color(display-p3 0.9804 0.9686 0.4706);stop-opacity:1;"/>
<stop offset="0.112186" stop-color="#FAF778" style="stop-color:#FAF778;stop-color:color(display-p3 0.9804 0.9686 0.4706);stop-opacity:1;"/>
<stop offset="0.3379" stop-color="#CDAD29" style="stop-color:#CDAD29;stop-color:color(display-p3 0.8039 0.6784 0.1608);stop-opacity:1;"/>
<stop offset="0.688867" stop-color="#A58311" style="stop-color:#A58311;stop-color:color(display-p3 0.6471 0.5137 0.0667);stop-opacity:1;"/>
<stop offset="0.944732" stop-color="#A58311" style="stop-color:#A58311;stop-color:color(display-p3 0.6471 0.5137 0.0667);stop-opacity:1;"/>
<stop offset="1" stop-color="#A58311" style="stop-color:#A58311;stop-color:color(display-p3 0.6471 0.5137 0.0667);stop-opacity:1;"/>
</linearGradient>
<linearGradient id="paint7_linear_1497_31320" x1="37.8738" y1="-0.322298" x2="-6.65096" y2="40.2659" gradientUnits="userSpaceOnUse">
<stop stop-color="#FAF778" style="stop-color:#FAF778;stop-color:color(display-p3 0.9804 0.9686 0.4706);stop-opacity:1;"/>
<stop offset="0.112186" stop-color="#FAF778" style="stop-color:#FAF778;stop-color:color(display-p3 0.9804 0.9686 0.4706);stop-opacity:1;"/>
<stop offset="0.3379" stop-color="#CDAD29" style="stop-color:#CDAD29;stop-color:color(display-p3 0.8039 0.6784 0.1608);stop-opacity:1;"/>
<stop offset="0.688867" stop-color="#A58311" style="stop-color:#A58311;stop-color:color(display-p3 0.6471 0.5137 0.0667);stop-opacity:1;"/>
<stop offset="0.944732" stop-color="#A58311" style="stop-color:#A58311;stop-color:color(display-p3 0.6471 0.5137 0.0667);stop-opacity:1;"/>
<stop offset="1" stop-color="#A58311" style="stop-color:#A58311;stop-color:color(display-p3 0.6471 0.5137 0.0667);stop-opacity:1;"/>
</linearGradient>
<linearGradient id="paint8_linear_1497_31320" x1="38.5223" y1="0.389986" x2="-6.00251" y2="40.9781" gradientUnits="userSpaceOnUse">
<stop stop-color="#FAF778" style="stop-color:#FAF778;stop-color:color(display-p3 0.9804 0.9686 0.4706);stop-opacity:1;"/>
<stop offset="0.112186" stop-color="#FAF778" style="stop-color:#FAF778;stop-color:color(display-p3 0.9804 0.9686 0.4706);stop-opacity:1;"/>
<stop offset="0.3379" stop-color="#CDAD29" style="stop-color:#CDAD29;stop-color:color(display-p3 0.8039 0.6784 0.1608);stop-opacity:1;"/>
<stop offset="0.688867" stop-color="#A58311" style="stop-color:#A58311;stop-color:color(display-p3 0.6471 0.5137 0.0667);stop-opacity:1;"/>
<stop offset="0.944732" stop-color="#A58311" style="stop-color:#A58311;stop-color:color(display-p3 0.6471 0.5137 0.0667);stop-opacity:1;"/>
<stop offset="1" stop-color="#A58311" style="stop-color:#A58311;stop-color:color(display-p3 0.6471 0.5137 0.0667);stop-opacity:1;"/>
</linearGradient>
<linearGradient id="paint9_linear_1497_31320" x1="39.565" y1="1.53295" x2="-4.95968" y2="42.1213" gradientUnits="userSpaceOnUse">
<stop stop-color="#FAF778" style="stop-color:#FAF778;stop-color:color(display-p3 0.9804 0.9686 0.4706);stop-opacity:1;"/>
<stop offset="0.112186" stop-color="#FAF778" style="stop-color:#FAF778;stop-color:color(display-p3 0.9804 0.9686 0.4706);stop-opacity:1;"/>
<stop offset="0.3379" stop-color="#CDAD29" style="stop-color:#CDAD29;stop-color:color(display-p3 0.8039 0.6784 0.1608);stop-opacity:1;"/>
<stop offset="0.688867" stop-color="#A58311" style="stop-color:#A58311;stop-color:color(display-p3 0.6471 0.5137 0.0667);stop-opacity:1;"/>
<stop offset="0.944732" stop-color="#A58311" style="stop-color:#A58311;stop-color:color(display-p3 0.6471 0.5137 0.0667);stop-opacity:1;"/>
<stop offset="1" stop-color="#A58311" style="stop-color:#A58311;stop-color:color(display-p3 0.6471 0.5137 0.0667);stop-opacity:1;"/>
</linearGradient>
<linearGradient id="paint10_linear_1497_31320" x1="40.2811" y1="2.31906" x2="-4.24377" y2="42.9073" gradientUnits="userSpaceOnUse">
<stop stop-color="#FAF778" style="stop-color:#FAF778;stop-color:color(display-p3 0.9804 0.9686 0.4706);stop-opacity:1;"/>
<stop offset="0.112186" stop-color="#FAF778" style="stop-color:#FAF778;stop-color:color(display-p3 0.9804 0.9686 0.4706);stop-opacity:1;"/>
<stop offset="0.3379" stop-color="#CDAD29" style="stop-color:#CDAD29;stop-color:color(display-p3 0.8039 0.6784 0.1608);stop-opacity:1;"/>
<stop offset="0.688867" stop-color="#A58311" style="stop-color:#A58311;stop-color:color(display-p3 0.6471 0.5137 0.0667);stop-opacity:1;"/>
<stop offset="0.944732" stop-color="#A58311" style="stop-color:#A58311;stop-color:color(display-p3 0.6471 0.5137 0.0667);stop-opacity:1;"/>
<stop offset="1" stop-color="#A58311" style="stop-color:#A58311;stop-color:color(display-p3 0.6471 0.5137 0.0667);stop-opacity:1;"/>
</linearGradient>
<linearGradient id="paint11_linear_1497_31320" x1="41.1246" y1="3.24404" x2="-3.40031" y2="43.8322" gradientUnits="userSpaceOnUse">
<stop stop-color="#FAF778" style="stop-color:#FAF778;stop-color:color(display-p3 0.9804 0.9686 0.4706);stop-opacity:1;"/>
<stop offset="0.112186" stop-color="#FAF778" style="stop-color:#FAF778;stop-color:color(display-p3 0.9804 0.9686 0.4706);stop-opacity:1;"/>
<stop offset="0.3379" stop-color="#CDAD29" style="stop-color:#CDAD29;stop-color:color(display-p3 0.8039 0.6784 0.1608);stop-opacity:1;"/>
<stop offset="0.688867" stop-color="#A58311" style="stop-color:#A58311;stop-color:color(display-p3 0.6471 0.5137 0.0667);stop-opacity:1;"/>
<stop offset="0.944732" stop-color="#A58311" style="stop-color:#A58311;stop-color:color(display-p3 0.6471 0.5137 0.0667);stop-opacity:1;"/>
<stop offset="1" stop-color="#A58311" style="stop-color:#A58311;stop-color:color(display-p3 0.6471 0.5137 0.0667);stop-opacity:1;"/>
</linearGradient>
<linearGradient id="paint12_linear_1497_31320" x1="41.8929" y1="4.08745" x2="-2.63215" y2="44.6756" gradientUnits="userSpaceOnUse">
<stop stop-color="#FAF778" style="stop-color:#FAF778;stop-color:color(display-p3 0.9804 0.9686 0.4706);stop-opacity:1;"/>
<stop offset="0.112186" stop-color="#FAF778" style="stop-color:#FAF778;stop-color:color(display-p3 0.9804 0.9686 0.4706);stop-opacity:1;"/>
<stop offset="0.3379" stop-color="#CDAD29" style="stop-color:#CDAD29;stop-color:color(display-p3 0.8039 0.6784 0.1608);stop-opacity:1;"/>
<stop offset="0.688867" stop-color="#A58311" style="stop-color:#A58311;stop-color:color(display-p3 0.6471 0.5137 0.0667);stop-opacity:1;"/>
<stop offset="0.944732" stop-color="#A58311" style="stop-color:#A58311;stop-color:color(display-p3 0.6471 0.5137 0.0667);stop-opacity:1;"/>
<stop offset="1" stop-color="#A58311" style="stop-color:#A58311;stop-color:color(display-p3 0.6471 0.5137 0.0667);stop-opacity:1;"/>
</linearGradient>
<linearGradient id="paint13_linear_1497_31320" x1="42.6308" y1="4.89715" x2="-1.89419" y2="45.4853" gradientUnits="userSpaceOnUse">
<stop stop-color="#FAF778" style="stop-color:#FAF778;stop-color:color(display-p3 0.9804 0.9686 0.4706);stop-opacity:1;"/>
<stop offset="0.112186" stop-color="#FAF778" style="stop-color:#FAF778;stop-color:color(display-p3 0.9804 0.9686 0.4706);stop-opacity:1;"/>
<stop offset="0.3379" stop-color="#CDAD29" style="stop-color:#CDAD29;stop-color:color(display-p3 0.8039 0.6784 0.1608);stop-opacity:1;"/>
<stop offset="0.688867" stop-color="#A58311" style="stop-color:#A58311;stop-color:color(display-p3 0.6471 0.5137 0.0667);stop-opacity:1;"/>
<stop offset="0.944732" stop-color="#A58311" style="stop-color:#A58311;stop-color:color(display-p3 0.6471 0.5137 0.0667);stop-opacity:1;"/>
<stop offset="1" stop-color="#A58311" style="stop-color:#A58311;stop-color:color(display-p3 0.6471 0.5137 0.0667);stop-opacity:1;"/>
</linearGradient>
<linearGradient id="paint14_linear_1497_31320" x1="43.4856" y1="5.83416" x2="-1.03915" y2="46.4224" gradientUnits="userSpaceOnUse">
<stop stop-color="#FAF778" style="stop-color:#FAF778;stop-color:color(display-p3 0.9804 0.9686 0.4706);stop-opacity:1;"/>
<stop offset="0.112186" stop-color="#FAF778" style="stop-color:#FAF778;stop-color:color(display-p3 0.9804 0.9686 0.4706);stop-opacity:1;"/>
<stop offset="0.3379" stop-color="#CDAD29" style="stop-color:#CDAD29;stop-color:color(display-p3 0.8039 0.6784 0.1608);stop-opacity:1;"/>
<stop offset="0.688867" stop-color="#A58311" style="stop-color:#A58311;stop-color:color(display-p3 0.6471 0.5137 0.0667);stop-opacity:1;"/>
<stop offset="0.944732" stop-color="#A58311" style="stop-color:#A58311;stop-color:color(display-p3 0.6471 0.5137 0.0667);stop-opacity:1;"/>
<stop offset="1" stop-color="#A58311" style="stop-color:#A58311;stop-color:color(display-p3 0.6471 0.5137 0.0667);stop-opacity:1;"/>
</linearGradient>
<linearGradient id="paint15_linear_1497_31320" x1="44.3057" y1="6.73442" x2="-0.219016" y2="47.3226" gradientUnits="userSpaceOnUse">
<stop stop-color="#FAF778" style="stop-color:#FAF778;stop-color:color(display-p3 0.9804 0.9686 0.4706);stop-opacity:1;"/>
<stop offset="0.112186" stop-color="#FAF778" style="stop-color:#FAF778;stop-color:color(display-p3 0.9804 0.9686 0.4706);stop-opacity:1;"/>
<stop offset="0.3379" stop-color="#CDAD29" style="stop-color:#CDAD29;stop-color:color(display-p3 0.8039 0.6784 0.1608);stop-opacity:1;"/>
<stop offset="0.688867" stop-color="#A58311" style="stop-color:#A58311;stop-color:color(display-p3 0.6471 0.5137 0.0667);stop-opacity:1;"/>
<stop offset="0.944732" stop-color="#A58311" style="stop-color:#A58311;stop-color:color(display-p3 0.6471 0.5137 0.0667);stop-opacity:1;"/>
<stop offset="1" stop-color="#A58311" style="stop-color:#A58311;stop-color:color(display-p3 0.6471 0.5137 0.0667);stop-opacity:1;"/>
</linearGradient>
<linearGradient id="paint16_linear_1497_31320" x1="45.1217" y1="7.62886" x2="0.596533" y2="48.2171" gradientUnits="userSpaceOnUse">
<stop stop-color="#FAF778" style="stop-color:#FAF778;stop-color:color(display-p3 0.9804 0.9686 0.4706);stop-opacity:1;"/>
<stop offset="0.112186" stop-color="#FAF778" style="stop-color:#FAF778;stop-color:color(display-p3 0.9804 0.9686 0.4706);stop-opacity:1;"/>
<stop offset="0.3379" stop-color="#CDAD29" style="stop-color:#CDAD29;stop-color:color(display-p3 0.8039 0.6784 0.1608);stop-opacity:1;"/>
<stop offset="0.688867" stop-color="#A58311" style="stop-color:#A58311;stop-color:color(display-p3 0.6471 0.5137 0.0667);stop-opacity:1;"/>
<stop offset="0.944732" stop-color="#A58311" style="stop-color:#A58311;stop-color:color(display-p3 0.6471 0.5137 0.0667);stop-opacity:1;"/>
<stop offset="1" stop-color="#A58311" style="stop-color:#A58311;stop-color:color(display-p3 0.6471 0.5137 0.0667);stop-opacity:1;"/>
</linearGradient>
<linearGradient id="paint17_linear_1497_31320" x1="45.8688" y1="8.44888" x2="1.34381" y2="49.0372" gradientUnits="userSpaceOnUse">
<stop stop-color="#FAF778" style="stop-color:#FAF778;stop-color:color(display-p3 0.9804 0.9686 0.4706);stop-opacity:1;"/>
<stop offset="0.112186" stop-color="#FAF778" style="stop-color:#FAF778;stop-color:color(display-p3 0.9804 0.9686 0.4706);stop-opacity:1;"/>
<stop offset="0.3379" stop-color="#CDAD29" style="stop-color:#CDAD29;stop-color:color(display-p3 0.8039 0.6784 0.1608);stop-opacity:1;"/>
<stop offset="0.688867" stop-color="#A58311" style="stop-color:#A58311;stop-color:color(display-p3 0.6471 0.5137 0.0667);stop-opacity:1;"/>
<stop offset="0.944732" stop-color="#A58311" style="stop-color:#A58311;stop-color:color(display-p3 0.6471 0.5137 0.0667);stop-opacity:1;"/>
<stop offset="1" stop-color="#A58311" style="stop-color:#A58311;stop-color:color(display-p3 0.6471 0.5137 0.0667);stop-opacity:1;"/>
</linearGradient>
<linearGradient id="paint18_linear_1497_31320" x1="52.1254" y1="15.3127" x2="7.60032" y2="55.901" gradientUnits="userSpaceOnUse">
<stop stop-color="#FAF778" style="stop-color:#FAF778;stop-color:color(display-p3 0.9804 0.9686 0.4706);stop-opacity:1;"/>
<stop offset="0.112186" stop-color="#FAF778" style="stop-color:#FAF778;stop-color:color(display-p3 0.9804 0.9686 0.4706);stop-opacity:1;"/>
<stop offset="0.3379" stop-color="#CDAD29" style="stop-color:#CDAD29;stop-color:color(display-p3 0.8039 0.6784 0.1608);stop-opacity:1;"/>
<stop offset="0.688867" stop-color="#A58311" style="stop-color:#A58311;stop-color:color(display-p3 0.6471 0.5137 0.0667);stop-opacity:1;"/>
<stop offset="0.944732" stop-color="#A58311" style="stop-color:#A58311;stop-color:color(display-p3 0.6471 0.5137 0.0667);stop-opacity:1;"/>
<stop offset="1" stop-color="#A58311" style="stop-color:#A58311;stop-color:color(display-p3 0.6471 0.5137 0.0667);stop-opacity:1;"/>
</linearGradient>
<linearGradient id="paint19_linear_1497_31320" x1="52.3288" y1="15.5357" x2="7.80393" y2="56.1238" gradientUnits="userSpaceOnUse">
<stop stop-color="#FAF778" style="stop-color:#FAF778;stop-color:color(display-p3 0.9804 0.9686 0.4706);stop-opacity:1;"/>
<stop offset="0.112186" stop-color="#FAF778" style="stop-color:#FAF778;stop-color:color(display-p3 0.9804 0.9686 0.4706);stop-opacity:1;"/>
<stop offset="0.3379" stop-color="#CDAD29" style="stop-color:#CDAD29;stop-color:color(display-p3 0.8039 0.6784 0.1608);stop-opacity:1;"/>
<stop offset="0.688867" stop-color="#A58311" style="stop-color:#A58311;stop-color:color(display-p3 0.6471 0.5137 0.0667);stop-opacity:1;"/>
<stop offset="0.944732" stop-color="#A58311" style="stop-color:#A58311;stop-color:color(display-p3 0.6471 0.5137 0.0667);stop-opacity:1;"/>
<stop offset="1" stop-color="#A58311" style="stop-color:#A58311;stop-color:color(display-p3 0.6471 0.5137 0.0667);stop-opacity:1;"/>
</linearGradient>
<linearGradient id="paint20_linear_1497_31320" x1="52.532" y1="15.7586" x2="8.00694" y2="56.3469" gradientUnits="userSpaceOnUse">
<stop stop-color="#FAF778" style="stop-color:#FAF778;stop-color:color(display-p3 0.9804 0.9686 0.4706);stop-opacity:1;"/>
<stop offset="0.112186" stop-color="#FAF778" style="stop-color:#FAF778;stop-color:color(display-p3 0.9804 0.9686 0.4706);stop-opacity:1;"/>
<stop offset="0.3379" stop-color="#CDAD29" style="stop-color:#CDAD29;stop-color:color(display-p3 0.8039 0.6784 0.1608);stop-opacity:1;"/>
<stop offset="0.688867" stop-color="#A58311" style="stop-color:#A58311;stop-color:color(display-p3 0.6471 0.5137 0.0667);stop-opacity:1;"/>
<stop offset="0.944732" stop-color="#A58311" style="stop-color:#A58311;stop-color:color(display-p3 0.6471 0.5137 0.0667);stop-opacity:1;"/>
<stop offset="1" stop-color="#A58311" style="stop-color:#A58311;stop-color:color(display-p3 0.6471 0.5137 0.0667);stop-opacity:1;"/>
</linearGradient>
<linearGradient id="paint21_linear_1497_31320" x1="52.7008" y1="15.9442" x2="8.17621" y2="56.5325" gradientUnits="userSpaceOnUse">
<stop stop-color="#FAF778" style="stop-color:#FAF778;stop-color:color(display-p3 0.9804 0.9686 0.4706);stop-opacity:1;"/>
<stop offset="0.112186" stop-color="#FAF778" style="stop-color:#FAF778;stop-color:color(display-p3 0.9804 0.9686 0.4706);stop-opacity:1;"/>
<stop offset="0.3379" stop-color="#CDAD29" style="stop-color:#CDAD29;stop-color:color(display-p3 0.8039 0.6784 0.1608);stop-opacity:1;"/>
<stop offset="0.688867" stop-color="#A58311" style="stop-color:#A58311;stop-color:color(display-p3 0.6471 0.5137 0.0667);stop-opacity:1;"/>
<stop offset="0.944732" stop-color="#A58311" style="stop-color:#A58311;stop-color:color(display-p3 0.6471 0.5137 0.0667);stop-opacity:1;"/>
<stop offset="1" stop-color="#A58311" style="stop-color:#A58311;stop-color:color(display-p3 0.6471 0.5137 0.0667);stop-opacity:1;"/>
</linearGradient>
<linearGradient id="paint22_linear_1497_31320" x1="52.7942" y1="16.0459" x2="8.26935" y2="56.6342" gradientUnits="userSpaceOnUse">
<stop stop-color="#FAF778" style="stop-color:#FAF778;stop-color:color(display-p3 0.9804 0.9686 0.4706);stop-opacity:1;"/>
<stop offset="0.112186" stop-color="#FAF778" style="stop-color:#FAF778;stop-color:color(display-p3 0.9804 0.9686 0.4706);stop-opacity:1;"/>
<stop offset="0.3379" stop-color="#CDAD29" style="stop-color:#CDAD29;stop-color:color(display-p3 0.8039 0.6784 0.1608);stop-opacity:1;"/>
<stop offset="0.688867" stop-color="#A58311" style="stop-color:#A58311;stop-color:color(display-p3 0.6471 0.5137 0.0667);stop-opacity:1;"/>
<stop offset="0.944732" stop-color="#A58311" style="stop-color:#A58311;stop-color:color(display-p3 0.6471 0.5137 0.0667);stop-opacity:1;"/>
<stop offset="1" stop-color="#A58311" style="stop-color:#A58311;stop-color:color(display-p3 0.6471 0.5137 0.0667);stop-opacity:1;"/>
</linearGradient>
<linearGradient id="paint23_linear_1497_31320" x1="52.815" y1="16.0687" x2="8.29024" y2="56.6569" gradientUnits="userSpaceOnUse">
<stop stop-color="#FAF778" style="stop-color:#FAF778;stop-color:color(display-p3 0.9804 0.9686 0.4706);stop-opacity:1;"/>
<stop offset="0.112186" stop-color="#FAF778" style="stop-color:#FAF778;stop-color:color(display-p3 0.9804 0.9686 0.4706);stop-opacity:1;"/>
<stop offset="0.3379" stop-color="#CDAD29" style="stop-color:#CDAD29;stop-color:color(display-p3 0.8039 0.6784 0.1608);stop-opacity:1;"/>
<stop offset="0.688867" stop-color="#A58311" style="stop-color:#A58311;stop-color:color(display-p3 0.6471 0.5137 0.0667);stop-opacity:1;"/>
<stop offset="0.944732" stop-color="#A58311" style="stop-color:#A58311;stop-color:color(display-p3 0.6471 0.5137 0.0667);stop-opacity:1;"/>
<stop offset="1" stop-color="#A58311" style="stop-color:#A58311;stop-color:color(display-p3 0.6471 0.5137 0.0667);stop-opacity:1;"/>
</linearGradient>
<linearGradient id="paint24_linear_1497_31320" x1="52.7787" y1="16.0288" x2="8.25397" y2="56.6171" gradientUnits="userSpaceOnUse">
<stop stop-color="#FAF778" style="stop-color:#FAF778;stop-color:color(display-p3 0.9804 0.9686 0.4706);stop-opacity:1;"/>
<stop offset="0.112186" stop-color="#FAF778" style="stop-color:#FAF778;stop-color:color(display-p3 0.9804 0.9686 0.4706);stop-opacity:1;"/>
<stop offset="0.3379" stop-color="#CDAD29" style="stop-color:#CDAD29;stop-color:color(display-p3 0.8039 0.6784 0.1608);stop-opacity:1;"/>
<stop offset="0.688867" stop-color="#A58311" style="stop-color:#A58311;stop-color:color(display-p3 0.6471 0.5137 0.0667);stop-opacity:1;"/>
<stop offset="0.944732" stop-color="#A58311" style="stop-color:#A58311;stop-color:color(display-p3 0.6471 0.5137 0.0667);stop-opacity:1;"/>
<stop offset="1" stop-color="#A58311" style="stop-color:#A58311;stop-color:color(display-p3 0.6471 0.5137 0.0667);stop-opacity:1;"/>
</linearGradient>
<linearGradient id="paint25_linear_1497_31320" x1="52.6912" y1="15.9334" x2="8.16613" y2="56.5217" gradientUnits="userSpaceOnUse">
<stop stop-color="#FAF778" style="stop-color:#FAF778;stop-color:color(display-p3 0.9804 0.9686 0.4706);stop-opacity:1;"/>
<stop offset="0.112186" stop-color="#FAF778" style="stop-color:#FAF778;stop-color:color(display-p3 0.9804 0.9686 0.4706);stop-opacity:1;"/>
<stop offset="0.3379" stop-color="#CDAD29" style="stop-color:#CDAD29;stop-color:color(display-p3 0.8039 0.6784 0.1608);stop-opacity:1;"/>
<stop offset="0.688867" stop-color="#A58311" style="stop-color:#A58311;stop-color:color(display-p3 0.6471 0.5137 0.0667);stop-opacity:1;"/>
<stop offset="0.944732" stop-color="#A58311" style="stop-color:#A58311;stop-color:color(display-p3 0.6471 0.5137 0.0667);stop-opacity:1;"/>
<stop offset="1" stop-color="#A58311" style="stop-color:#A58311;stop-color:color(display-p3 0.6471 0.5137 0.0667);stop-opacity:1;"/>
</linearGradient>
<linearGradient id="paint26_linear_1497_31320" x1="52.4413" y1="15.6577" x2="7.91618" y2="56.2459" gradientUnits="userSpaceOnUse">
<stop stop-color="#FAF778" style="stop-color:#FAF778;stop-color:color(display-p3 0.9804 0.9686 0.4706);stop-opacity:1;"/>
<stop offset="0.112186" stop-color="#FAF778" style="stop-color:#FAF778;stop-color:color(display-p3 0.9804 0.9686 0.4706);stop-opacity:1;"/>
<stop offset="0.3379" stop-color="#CDAD29" style="stop-color:#CDAD29;stop-color:color(display-p3 0.8039 0.6784 0.1608);stop-opacity:1;"/>
<stop offset="0.688867" stop-color="#A58311" style="stop-color:#A58311;stop-color:color(display-p3 0.6471 0.5137 0.0667);stop-opacity:1;"/>
<stop offset="0.944732" stop-color="#A58311" style="stop-color:#A58311;stop-color:color(display-p3 0.6471 0.5137 0.0667);stop-opacity:1;"/>
<stop offset="1" stop-color="#A58311" style="stop-color:#A58311;stop-color:color(display-p3 0.6471 0.5137 0.0667);stop-opacity:1;"/>
</linearGradient>
<linearGradient id="paint27_linear_1497_31320" x1="52.3129" y1="15.5185" x2="7.78793" y2="56.1067" gradientUnits="userSpaceOnUse">
<stop stop-color="#FAF778" style="stop-color:#FAF778;stop-color:color(display-p3 0.9804 0.9686 0.4706);stop-opacity:1;"/>
<stop offset="0.112186" stop-color="#FAF778" style="stop-color:#FAF778;stop-color:color(display-p3 0.9804 0.9686 0.4706);stop-opacity:1;"/>
<stop offset="0.3379" stop-color="#CDAD29" style="stop-color:#CDAD29;stop-color:color(display-p3 0.8039 0.6784 0.1608);stop-opacity:1;"/>
<stop offset="0.688867" stop-color="#A58311" style="stop-color:#A58311;stop-color:color(display-p3 0.6471 0.5137 0.0667);stop-opacity:1;"/>
<stop offset="0.944732" stop-color="#A58311" style="stop-color:#A58311;stop-color:color(display-p3 0.6471 0.5137 0.0667);stop-opacity:1;"/>
<stop offset="1" stop-color="#A58311" style="stop-color:#A58311;stop-color:color(display-p3 0.6471 0.5137 0.0667);stop-opacity:1;"/>
</linearGradient>
<linearGradient id="paint28_linear_1497_31320" x1="52.0294" y1="15.2068" x2="7.5044" y2="55.795" gradientUnits="userSpaceOnUse">
<stop stop-color="#FAF778" style="stop-color:#FAF778;stop-color:color(display-p3 0.9804 0.9686 0.4706);stop-opacity:1;"/>
<stop offset="0.112186" stop-color="#FAF778" style="stop-color:#FAF778;stop-color:color(display-p3 0.9804 0.9686 0.4706);stop-opacity:1;"/>
<stop offset="0.3379" stop-color="#CDAD29" style="stop-color:#CDAD29;stop-color:color(display-p3 0.8039 0.6784 0.1608);stop-opacity:1;"/>
<stop offset="0.688867" stop-color="#A58311" style="stop-color:#A58311;stop-color:color(display-p3 0.6471 0.5137 0.0667);stop-opacity:1;"/>
<stop offset="0.944732" stop-color="#A58311" style="stop-color:#A58311;stop-color:color(display-p3 0.6471 0.5137 0.0667);stop-opacity:1;"/>
<stop offset="1" stop-color="#A58311" style="stop-color:#A58311;stop-color:color(display-p3 0.6471 0.5137 0.0667);stop-opacity:1;"/>
</linearGradient>
<linearGradient id="paint29_linear_1497_31320" x1="51.7344" y1="14.8834" x2="7.20969" y2="55.4717" gradientUnits="userSpaceOnUse">
<stop stop-color="#FAF778" style="stop-color:#FAF778;stop-color:color(display-p3 0.9804 0.9686 0.4706);stop-opacity:1;"/>
<stop offset="0.112186" stop-color="#FAF778" style="stop-color:#FAF778;stop-color:color(display-p3 0.9804 0.9686 0.4706);stop-opacity:1;"/>
<stop offset="0.3379" stop-color="#CDAD29" style="stop-color:#CDAD29;stop-color:color(display-p3 0.8039 0.6784 0.1608);stop-opacity:1;"/>
<stop offset="0.688867" stop-color="#A58311" style="stop-color:#A58311;stop-color:color(display-p3 0.6471 0.5137 0.0667);stop-opacity:1;"/>
<stop offset="0.944732" stop-color="#A58311" style="stop-color:#A58311;stop-color:color(display-p3 0.6471 0.5137 0.0667);stop-opacity:1;"/>
<stop offset="1" stop-color="#A58311" style="stop-color:#A58311;stop-color:color(display-p3 0.6471 0.5137 0.0667);stop-opacity:1;"/>
</linearGradient>
<linearGradient id="paint30_linear_1497_31320" x1="34.4326" y1="-4.09641" x2="-10.0922" y2="36.4918" gradientUnits="userSpaceOnUse">
<stop stop-color="#FAF778" style="stop-color:#FAF778;stop-color:color(display-p3 0.9804 0.9686 0.4706);stop-opacity:1;"/>
<stop offset="0.112186" stop-color="#FAF778" style="stop-color:#FAF778;stop-color:color(display-p3 0.9804 0.9686 0.4706);stop-opacity:1;"/>
<stop offset="0.3379" stop-color="#CDAD29" style="stop-color:#CDAD29;stop-color:color(display-p3 0.8039 0.6784 0.1608);stop-opacity:1;"/>
<stop offset="0.688867" stop-color="#A58311" style="stop-color:#A58311;stop-color:color(display-p3 0.6471 0.5137 0.0667);stop-opacity:1;"/>
<stop offset="0.944732" stop-color="#A58311" style="stop-color:#A58311;stop-color:color(display-p3 0.6471 0.5137 0.0667);stop-opacity:1;"/>
<stop offset="1" stop-color="#A58311" style="stop-color:#A58311;stop-color:color(display-p3 0.6471 0.5137 0.0667);stop-opacity:1;"/>
</linearGradient>
<linearGradient id="paint31_linear_1497_31320" x1="49.2493" y1="12.1574" x2="4.72441" y2="52.7456" gradientUnits="userSpaceOnUse">
<stop stop-color="#FAF778" style="stop-color:#FAF778;stop-color:color(display-p3 0.9804 0.9686 0.4706);stop-opacity:1;"/>
<stop offset="0.112186" stop-color="#FAF778" style="stop-color:#FAF778;stop-color:color(display-p3 0.9804 0.9686 0.4706);stop-opacity:1;"/>
<stop offset="0.3379" stop-color="#CDAD29" style="stop-color:#CDAD29;stop-color:color(display-p3 0.8039 0.6784 0.1608);stop-opacity:1;"/>
<stop offset="0.688867" stop-color="#A58311" style="stop-color:#A58311;stop-color:color(display-p3 0.6471 0.5137 0.0667);stop-opacity:1;"/>
<stop offset="0.944732" stop-color="#A58311" style="stop-color:#A58311;stop-color:color(display-p3 0.6471 0.5137 0.0667);stop-opacity:1;"/>
<stop offset="1" stop-color="#A58311" style="stop-color:#A58311;stop-color:color(display-p3 0.6471 0.5137 0.0667);stop-opacity:1;"/>
</linearGradient>
<linearGradient id="paint32_linear_1497_31320" x1="31.1861" y1="-7.65773" x2="-13.3389" y2="32.9305" gradientUnits="userSpaceOnUse">
<stop stop-color="#FAF778" style="stop-color:#FAF778;stop-color:color(display-p3 0.9804 0.9686 0.4706);stop-opacity:1;"/>
<stop offset="0.112186" stop-color="#FAF778" style="stop-color:#FAF778;stop-color:color(display-p3 0.9804 0.9686 0.4706);stop-opacity:1;"/>
<stop offset="0.3379" stop-color="#CDAD29" style="stop-color:#CDAD29;stop-color:color(display-p3 0.8039 0.6784 0.1608);stop-opacity:1;"/>
<stop offset="0.688867" stop-color="#A58311" style="stop-color:#A58311;stop-color:color(display-p3 0.6471 0.5137 0.0667);stop-opacity:1;"/>
<stop offset="0.944732" stop-color="#A58311" style="stop-color:#A58311;stop-color:color(display-p3 0.6471 0.5137 0.0667);stop-opacity:1;"/>
<stop offset="1" stop-color="#A58311" style="stop-color:#A58311;stop-color:color(display-p3 0.6471 0.5137 0.0667);stop-opacity:1;"/>
</linearGradient>
<linearGradient id="paint33_linear_1497_31320" x1="30.8149" y1="-8.06459" x2="-13.71" y2="32.5237" gradientUnits="userSpaceOnUse">
<stop stop-color="#FAF778" style="stop-color:#FAF778;stop-color:color(display-p3 0.9804 0.9686 0.4706);stop-opacity:1;"/>
<stop offset="0.112186" stop-color="#FAF778" style="stop-color:#FAF778;stop-color:color(display-p3 0.9804 0.9686 0.4706);stop-opacity:1;"/>
<stop offset="0.3379" stop-color="#CDAD29" style="stop-color:#CDAD29;stop-color:color(display-p3 0.8039 0.6784 0.1608);stop-opacity:1;"/>
<stop offset="0.688867" stop-color="#A58311" style="stop-color:#A58311;stop-color:color(display-p3 0.6471 0.5137 0.0667);stop-opacity:1;"/>
<stop offset="0.944732" stop-color="#A58311" style="stop-color:#A58311;stop-color:color(display-p3 0.6471 0.5137 0.0667);stop-opacity:1;"/>
<stop offset="1" stop-color="#A58311" style="stop-color:#A58311;stop-color:color(display-p3 0.6471 0.5137 0.0667);stop-opacity:1;"/>
</linearGradient>
<linearGradient id="paint34_linear_1497_31320" x1="31.3264" y1="-7.50489" x2="-13.1985" y2="33.0834" gradientUnits="userSpaceOnUse">
<stop stop-color="#FAF778" style="stop-color:#FAF778;stop-color:color(display-p3 0.9804 0.9686 0.4706);stop-opacity:1;"/>
<stop offset="0.112186" stop-color="#FAF778" style="stop-color:#FAF778;stop-color:color(display-p3 0.9804 0.9686 0.4706);stop-opacity:1;"/>
<stop offset="0.3379" stop-color="#CDAD29" style="stop-color:#CDAD29;stop-color:color(display-p3 0.8039 0.6784 0.1608);stop-opacity:1;"/>
<stop offset="0.688867" stop-color="#A58311" style="stop-color:#A58311;stop-color:color(display-p3 0.6471 0.5137 0.0667);stop-opacity:1;"/>
<stop offset="0.944732" stop-color="#A58311" style="stop-color:#A58311;stop-color:color(display-p3 0.6471 0.5137 0.0667);stop-opacity:1;"/>
<stop offset="1" stop-color="#A58311" style="stop-color:#A58311;stop-color:color(display-p3 0.6471 0.5137 0.0667);stop-opacity:1;"/>
</linearGradient>
<linearGradient id="paint35_linear_1497_31320" x1="32.7331" y1="-5.9609" x2="-11.7918" y2="34.6273" gradientUnits="userSpaceOnUse">
<stop stop-color="#FAF778" style="stop-color:#FAF778;stop-color:color(display-p3 0.9804 0.9686 0.4706);stop-opacity:1;"/>
<stop offset="0.112186" stop-color="#FAF778" style="stop-color:#FAF778;stop-color:color(display-p3 0.9804 0.9686 0.4706);stop-opacity:1;"/>
<stop offset="0.3379" stop-color="#CDAD29" style="stop-color:#CDAD29;stop-color:color(display-p3 0.8039 0.6784 0.1608);stop-opacity:1;"/>
<stop offset="0.688867" stop-color="#A58311" style="stop-color:#A58311;stop-color:color(display-p3 0.6471 0.5137 0.0667);stop-opacity:1;"/>
<stop offset="0.944732" stop-color="#A58311" style="stop-color:#A58311;stop-color:color(display-p3 0.6471 0.5137 0.0667);stop-opacity:1;"/>
<stop offset="1" stop-color="#A58311" style="stop-color:#A58311;stop-color:color(display-p3 0.6471 0.5137 0.0667);stop-opacity:1;"/>
</linearGradient>
<linearGradient id="paint36_linear_1497_31320" x1="34.9723" y1="-3.50338" x2="-9.55243" y2="37.0848" gradientUnits="userSpaceOnUse">
<stop stop-color="#FAF778" style="stop-color:#FAF778;stop-color:color(display-p3 0.9804 0.9686 0.4706);stop-opacity:1;"/>
<stop offset="0.112186" stop-color="#FAF778" style="stop-color:#FAF778;stop-color:color(display-p3 0.9804 0.9686 0.4706);stop-opacity:1;"/>
<stop offset="0.3379" stop-color="#CDAD29" style="stop-color:#CDAD29;stop-color:color(display-p3 0.8039 0.6784 0.1608);stop-opacity:1;"/>
<stop offset="0.688867" stop-color="#A58311" style="stop-color:#A58311;stop-color:color(display-p3 0.6471 0.5137 0.0667);stop-opacity:1;"/>
<stop offset="0.944732" stop-color="#A58311" style="stop-color:#A58311;stop-color:color(display-p3 0.6471 0.5137 0.0667);stop-opacity:1;"/>
<stop offset="1" stop-color="#A58311" style="stop-color:#A58311;stop-color:color(display-p3 0.6471 0.5137 0.0667);stop-opacity:1;"/>
</linearGradient>
<linearGradient id="paint37_linear_1497_31320" x1="38.0723" y1="-0.103534" x2="-6.4527" y2="40.4847" gradientUnits="userSpaceOnUse">
<stop stop-color="#FAF778" style="stop-color:#FAF778;stop-color:color(display-p3 0.9804 0.9686 0.4706);stop-opacity:1;"/>
<stop offset="0.112186" stop-color="#FAF778" style="stop-color:#FAF778;stop-color:color(display-p3 0.9804 0.9686 0.4706);stop-opacity:1;"/>
<stop offset="0.3379" stop-color="#CDAD29" style="stop-color:#CDAD29;stop-color:color(display-p3 0.8039 0.6784 0.1608);stop-opacity:1;"/>
<stop offset="0.688867" stop-color="#A58311" style="stop-color:#A58311;stop-color:color(display-p3 0.6471 0.5137 0.0667);stop-opacity:1;"/>
<stop offset="0.944732" stop-color="#A58311" style="stop-color:#A58311;stop-color:color(display-p3 0.6471 0.5137 0.0667);stop-opacity:1;"/>
<stop offset="1" stop-color="#A58311" style="stop-color:#A58311;stop-color:color(display-p3 0.6471 0.5137 0.0667);stop-opacity:1;"/>
</linearGradient>
<linearGradient id="paint38_linear_1497_31320" x1="40.6135" y1="2.68394" x2="-3.91134" y2="43.2721" gradientUnits="userSpaceOnUse">
<stop stop-color="#FAF778" style="stop-color:#FAF778;stop-color:color(display-p3 0.9804 0.9686 0.4706);stop-opacity:1;"/>
<stop offset="0.112186" stop-color="#FAF778" style="stop-color:#FAF778;stop-color:color(display-p3 0.9804 0.9686 0.4706);stop-opacity:1;"/>
<stop offset="0.3379" stop-color="#CDAD29" style="stop-color:#CDAD29;stop-color:color(display-p3 0.8039 0.6784 0.1608);stop-opacity:1;"/>
<stop offset="0.688867" stop-color="#A58311" style="stop-color:#A58311;stop-color:color(display-p3 0.6471 0.5137 0.0667);stop-opacity:1;"/>
<stop offset="0.944732" stop-color="#A58311" style="stop-color:#A58311;stop-color:color(display-p3 0.6471 0.5137 0.0667);stop-opacity:1;"/>
<stop offset="1" stop-color="#A58311" style="stop-color:#A58311;stop-color:color(display-p3 0.6471 0.5137 0.0667);stop-opacity:1;"/>
</linearGradient>
<linearGradient id="paint39_linear_1497_31320" x1="43.2213" y1="5.54489" x2="-1.30343" y2="46.1331" gradientUnits="userSpaceOnUse">
<stop stop-color="#FAF778" style="stop-color:#FAF778;stop-color:color(display-p3 0.9804 0.9686 0.4706);stop-opacity:1;"/>
<stop offset="0.112186" stop-color="#FAF778" style="stop-color:#FAF778;stop-color:color(display-p3 0.9804 0.9686 0.4706);stop-opacity:1;"/>
<stop offset="0.3379" stop-color="#CDAD29" style="stop-color:#CDAD29;stop-color:color(display-p3 0.8039 0.6784 0.1608);stop-opacity:1;"/>
<stop offset="0.688867" stop-color="#A58311" style="stop-color:#A58311;stop-color:color(display-p3 0.6471 0.5137 0.0667);stop-opacity:1;"/>
<stop offset="0.944732" stop-color="#A58311" style="stop-color:#A58311;stop-color:color(display-p3 0.6471 0.5137 0.0667);stop-opacity:1;"/>
<stop offset="1" stop-color="#A58311" style="stop-color:#A58311;stop-color:color(display-p3 0.6471 0.5137 0.0667);stop-opacity:1;"/>
</linearGradient>
</defs>
</svg>
