<svg width="44" height="44" viewBox="0 0 44 44" fill="none" xmlns="http://www.w3.org/2000/svg">
<path d="M0 21.9998C0 34.1502 9.85007 44 22.0002 44C34.1502 44 44 34.1502 44 21.9998C44 9.84983 34.1502 3.8147e-06 22.0002 3.8147e-06C9.85007 3.8147e-06 0 9.84983 0 21.9998Z" fill="url(#paint0_radial_1497_31530)" style=""/>
<path d="M1.07837 22.0001C1.07837 33.5548 10.4451 42.9214 21.9996 42.9214C33.5538 42.9214 42.9204 33.5548 42.9204 22.0001C42.9204 10.4459 33.5538 1.07939 21.9996 1.07939C10.4451 1.07939 1.07837 10.4459 1.07837 22.0001Z" fill="url(#paint1_linear_1497_31530)" style=""/>
<path d="M9.31311 22.0015C9.31311 25.6919 10.8786 29.0144 13.3758 31.3481H30.8268C33.3279 29.0144 34.8929 25.6919 34.8929 22.0015C34.8929 14.9353 29.1674 9.2093 22.1012 9.2093C15.0391 9.2093 9.31311 14.9353 9.31311 22.0015Z" fill="url(#paint2_radial_1497_31530)" style=""/>
<path d="M1.64868 21.9998C1.64868 33.2217 10.7783 42.3516 22.0004 42.3516C33.2222 42.3516 42.3517 33.2217 42.3517 21.9998C42.3517 10.7782 33.2222 1.64859 22.0004 1.64859C10.7783 1.64859 1.64868 10.7782 1.64868 21.9998ZM2.05733 21.9998C2.05733 11.0035 11.0039 2.05748 22.0004 2.05748C32.9967 2.05748 41.9432 11.0035 41.9432 21.9998C41.9432 32.9961 32.9967 41.9429 22.0004 41.9429C11.0039 41.9429 2.05733 32.9961 2.05733 21.9998Z" fill="url(#paint3_radial_1497_31530)" style=""/>
<path d="M20.235 32.7089L19.579 37.113H20.5154L20.3817 38.0211H21.3232L20.2869 38.6639L20.1186 39.8066H23.8542L24.4689 35.645H23.5322L23.9703 32.7089H20.235ZM20.4359 34.7227C20.4756 34.4492 20.6225 34.2012 20.8288 34.0206C21.0349 33.8403 21.2987 33.7299 21.5703 33.7279H21.5722H21.5745C21.5958 33.7279 21.6167 33.7279 21.638 33.7299L21.562 34.2519C21.5407 34.2475 21.5193 34.2454 21.4957 34.2454C21.2349 34.2475 20.9915 34.4599 20.9514 34.7227C20.9134 34.9837 21.0942 35.1981 21.3552 35.1981C21.536 35.1981 21.7068 35.094 21.8084 34.9438H21.4595L21.5228 34.5162H22.4233L22.4256 34.585C22.427 34.6295 22.4219 34.6761 22.4154 34.7227C22.3756 34.9965 22.2265 35.2447 22.0202 35.425C21.8142 35.6054 21.5504 35.7157 21.2787 35.718H21.2766H21.2746C20.7317 35.7157 20.3543 35.2702 20.4359 34.7227Z" fill="url(#paint4_radial_1497_31530)" style=""/>
<path d="M6.45704 26.5356L6.53005 26.7628C6.56436 26.7579 6.59449 26.766 6.62115 26.7853C6.6478 26.8047 6.66705 26.8344 6.67956 26.8738C6.69092 26.9081 6.69161 26.9396 6.68188 26.9677C6.6726 26.9953 6.65291 27.0145 6.6237 27.0254C6.61489 27.0277 6.60376 27.0303 6.59009 27.0319C6.57618 27.0338 6.5625 27.0324 6.54813 27.0263C6.5333 27.021 6.51916 27.011 6.50572 26.9967C6.49204 26.9814 6.48068 26.9603 6.47164 26.9325L6.44614 26.8534L6.25306 26.9158L6.2913 27.0333C6.30591 27.0797 6.30638 27.1153 6.292 27.1397C6.27763 27.1645 6.257 27.1812 6.23034 27.1895C6.20925 27.1962 6.18978 27.1981 6.17239 27.1946C6.15478 27.1916 6.13925 27.1846 6.12581 27.1742C6.11236 27.1636 6.101 27.1501 6.09126 27.1332C6.08176 27.117 6.07388 27.0994 6.06786 27.0797C6.05418 27.0377 6.05117 26.9971 6.05766 26.9577C6.06507 26.9183 6.08779 26.887 6.1272 26.8638L6.05302 26.6335C5.94895 26.6743 5.88034 26.7426 5.84788 26.8379C5.81566 26.9329 5.81729 27.0358 5.85229 27.1462C5.86666 27.1902 5.88567 27.2331 5.90931 27.2746C5.93319 27.3161 5.96448 27.3525 6.00203 27.384C6.03935 27.4153 6.08293 27.4364 6.13207 27.4477C6.18121 27.4589 6.2373 27.4547 6.29965 27.4361C6.35482 27.4195 6.40025 27.3909 6.43525 27.3515C6.47071 27.3126 6.49041 27.2637 6.49296 27.2067C6.52449 27.235 6.56135 27.2537 6.60446 27.2621C6.64781 27.2711 6.68976 27.269 6.73125 27.2558C6.78178 27.2394 6.82165 27.2159 6.85016 27.1844C6.8789 27.1527 6.89861 27.117 6.91043 27.0771C6.92132 27.0368 6.92572 26.9937 6.92178 26.9478C6.91831 26.9019 6.90904 26.8562 6.89513 26.8124C6.87914 26.7623 6.85758 26.7178 6.83139 26.6782C6.8045 26.6383 6.77297 26.6059 6.73635 26.5806C6.69973 26.5553 6.65824 26.5386 6.61141 26.5294C6.59264 26.5259 6.57316 26.524 6.553 26.524C6.52263 26.524 6.49065 26.528 6.45704 26.5356Z" fill="url(#paint5_radial_1497_31530)" style=""/>
<path d="M6.80088 27.5338C6.73088 27.5421 6.65648 27.5614 6.57837 27.5927C6.4984 27.6242 6.43025 27.6606 6.37393 27.7016C6.31783 27.7426 6.27425 27.7885 6.24389 27.8384C6.21306 27.8887 6.1959 27.9434 6.19243 28.0032C6.18918 28.0637 6.20077 28.1274 6.22743 28.1944C6.25408 28.2619 6.28955 28.3166 6.33243 28.3573C6.37554 28.3984 6.42538 28.4264 6.48264 28.4424C6.53942 28.4586 6.60224 28.4626 6.67131 28.4542C6.74085 28.4454 6.81502 28.4255 6.89476 28.3944C6.97357 28.3629 7.04126 28.3265 7.09712 28.285C7.15298 28.2435 7.19679 28.1969 7.22785 28.1462C7.25891 28.0954 7.27607 28.0407 7.28001 27.9818C7.28372 27.923 7.27235 27.8604 7.24663 27.7948C7.21997 27.7287 7.18543 27.6743 7.14209 27.633C7.09851 27.5915 7.04821 27.563 6.99142 27.5463C6.95318 27.5352 6.91192 27.5296 6.86765 27.5296C6.84609 27.5296 6.82383 27.5308 6.80088 27.5338ZM6.57998 28.2164C6.5473 28.2143 6.5181 28.2048 6.4933 28.1881C6.46826 28.1715 6.44902 28.1462 6.43535 28.1126C6.4219 28.0776 6.41866 28.0461 6.42631 28.0168C6.43372 27.9881 6.4481 27.961 6.47035 27.9371C6.49214 27.9128 6.52019 27.8905 6.55472 27.8713C6.58949 27.8511 6.62658 27.8333 6.66714 27.8175C6.70724 27.8017 6.74619 27.7895 6.78466 27.7811C6.82337 27.7721 6.8586 27.7691 6.89129 27.7718C6.92397 27.7746 6.95272 27.7846 6.97752 27.8013C7.00278 27.8175 7.02179 27.8437 7.03593 27.8782C7.04891 27.9123 7.05215 27.9429 7.04497 27.9719C7.03778 27.9997 7.02294 28.0264 7.00069 28.0509C6.97821 28.0753 6.94993 28.0971 6.91609 28.1168C6.88201 28.1362 6.84539 28.1538 6.80599 28.1689C6.76473 28.1851 6.72486 28.1981 6.68638 28.2065C6.65532 28.2136 6.62612 28.2169 6.59853 28.2169C6.59227 28.2169 6.58601 28.2169 6.57998 28.2164Z" fill="url(#paint6_radial_1497_31530)" style=""/>
<path d="M7.20774 28.5362C7.13866 28.5492 7.06541 28.5737 6.98915 28.6101C6.91173 28.6463 6.84637 28.6876 6.79283 28.7321C6.73928 28.7773 6.69941 28.8259 6.67183 28.8779C6.64471 28.9298 6.63173 28.9859 6.63196 29.0459C6.63289 29.1057 6.64865 29.169 6.67948 29.2341C6.711 29.2992 6.74925 29.3509 6.79515 29.3892C6.84104 29.4265 6.89296 29.4518 6.95091 29.4641C7.0084 29.4761 7.0719 29.4759 7.14005 29.4631C7.20866 29.4499 7.28168 29.4251 7.3591 29.388C7.43582 29.3516 7.50049 29.3108 7.55404 29.2652C7.60688 29.2207 7.64745 29.1715 7.67503 29.1189C7.70215 29.0663 7.71606 29.01 7.71559 28.9509C7.71559 28.892 7.70007 28.8308 7.67017 28.7668C7.63934 28.7021 7.60109 28.6507 7.5545 28.6125C7.50838 28.5742 7.45645 28.5485 7.39873 28.5357C7.37022 28.5295 7.34032 28.5265 7.30903 28.5265C7.27658 28.5265 7.24297 28.5297 7.20774 28.5362ZM6.94465 29.21C6.91799 29.1947 6.89737 29.1708 6.88184 29.1379C6.86584 29.1045 6.86074 29.0733 6.8663 29.0436C6.87186 29.0139 6.88462 28.9863 6.90502 28.9606C6.92495 28.9351 6.95161 28.911 6.98475 28.889C7.0179 28.867 7.05382 28.8468 7.09299 28.8285C7.13217 28.8097 7.17042 28.7949 7.2082 28.7835C7.24575 28.7726 7.28099 28.7673 7.31367 28.7678C7.34635 28.7687 7.37602 28.7761 7.40198 28.7914C7.42817 28.8062 7.44903 28.8308 7.46526 28.8644C7.48102 28.8971 7.48566 28.9277 7.48056 28.9567C7.475 28.9854 7.46224 29.0128 7.44185 29.0387C7.42098 29.0647 7.39433 29.0881 7.36211 29.1103C7.32896 29.1319 7.2935 29.1516 7.25549 29.1694C7.21515 29.1887 7.17645 29.2045 7.1389 29.2151C7.10088 29.2262 7.06588 29.2323 7.03297 29.2323C6.99982 29.2323 6.97038 29.2249 6.94465 29.21Z" fill="url(#paint7_radial_1497_31530)" style=""/>
<path d="M7.27393 30.3557L7.40048 30.5667L8.12646 30.1335L8.38862 30.5718L8.58171 30.4566L8.19299 29.8059L7.27393 30.3557Z" fill="url(#paint8_radial_1497_31530)" style=""/>
<path d="M7.81067 31.2396L7.92309 31.4014L8.72927 31.4464L8.20703 31.8096L8.34727 32.012L9.2267 31.401L9.11451 31.2396L8.30045 31.1998L8.83033 30.831L8.68986 30.6286L7.81067 31.2396Z" fill="url(#paint9_radial_1497_31530)" style=""/>
<path d="M8.56946 32.3026L8.7243 32.4945L9.05113 32.23L9.14269 32.3424L8.9758 32.8051L9.1566 33.0283L9.37193 32.4046L9.98781 32.3529L9.80979 32.1336L9.30795 32.1913L9.22544 32.0891L9.55643 31.8207L9.40114 31.6292L8.56946 32.3026Z" fill="url(#paint10_radial_1497_31530)" style=""/>
<path d="M9.32166 33.2141L9.48947 33.3942L9.79753 33.1079L9.89627 33.2146L9.76184 33.6863L9.95793 33.8967L10.129 33.26L10.7398 33.1663L10.5472 32.9591L10.0506 33.0519L9.96094 32.9556L10.2732 32.665L10.1051 32.4846L9.32166 33.2141Z" fill="url(#paint11_radial_1497_31530)" style=""/>
<path d="M10.798 33.4099C10.7306 33.4134 10.6648 33.4305 10.6001 33.4623C10.5356 33.4936 10.4754 33.5397 10.42 33.5988C10.3648 33.6581 10.3238 33.7207 10.296 33.7866C10.2684 33.8522 10.2549 33.9182 10.2556 33.9854C10.2568 34.0529 10.2719 34.1183 10.3022 34.1827C10.3324 34.2476 10.3778 34.3086 10.4392 34.3658C10.4986 34.4228 10.5623 34.4641 10.6298 34.4898C10.6965 34.5149 10.764 34.5253 10.8323 34.5218C10.9003 34.5174 10.9663 34.4991 11.031 34.4671C11.0952 34.4347 11.1552 34.389 11.2104 34.3304C11.266 34.2705 11.3073 34.2075 11.3344 34.1417C11.3613 34.0763 11.374 34.0096 11.3722 33.9426C11.3706 33.8756 11.3543 33.8102 11.3237 33.7462C11.2931 33.6823 11.2477 33.6229 11.1879 33.5671C11.1283 33.511 11.0655 33.4702 10.9988 33.444C10.9399 33.4213 10.8806 33.4092 10.8212 33.4092C10.8136 33.4092 10.8057 33.4094 10.798 33.4099ZM10.7088 34.2694C10.6703 34.2587 10.6337 34.2367 10.598 34.2036C10.5616 34.1686 10.537 34.1319 10.5227 34.0944C10.5088 34.0559 10.503 34.0179 10.506 33.9801C10.509 33.9423 10.5192 33.9055 10.537 33.8693C10.5547 33.8338 10.5774 33.8007 10.6056 33.7696C10.6332 33.7407 10.6638 33.7154 10.6986 33.6959C10.7334 33.6755 10.7693 33.6628 10.8064 33.6565C10.8439 33.6507 10.8819 33.6538 10.9204 33.6649C10.9596 33.6769 10.9971 33.6992 11.0331 33.7328C11.0702 33.7673 11.0952 33.8032 11.1082 33.8422C11.1214 33.8802 11.1263 33.9191 11.1225 33.9567C11.1186 33.9947 11.1077 34.0311 11.0894 34.0663C11.0711 34.1018 11.0484 34.1338 11.0217 34.1625C10.9946 34.1908 10.964 34.2156 10.9299 34.2365C10.8954 34.2569 10.8595 34.2703 10.8219 34.2764C10.808 34.2787 10.7939 34.2798 10.7797 34.2798C10.7561 34.2798 10.7324 34.2763 10.7088 34.2694Z" fill="url(#paint12_radial_1497_31530)" style=""/>
<path d="M12.0235 34.1611C12.04 34.2274 12.0815 34.2877 12.1485 34.3412C12.2145 34.3938 12.2822 34.421 12.3508 34.4224C12.4194 34.4237 12.4846 34.3922 12.546 34.328L12.3891 34.2024C12.3684 34.2235 12.3464 34.2344 12.3225 34.2346C12.2989 34.2348 12.2762 34.2265 12.2542 34.2091C12.2331 34.192 12.2196 34.172 12.2145 34.1479C12.2097 34.1243 12.2143 34.1002 12.2294 34.0749L12.0734 33.95C12.0235 34.0241 12.0068 34.0941 12.0235 34.1611ZM11.0697 34.9214L11.2231 35.044L12.0096 34.8572L11.6121 35.3546L11.8045 35.5085L12.473 34.672L12.3193 34.5491L11.5275 34.7434L11.9301 34.2388L11.7377 34.0849L11.0697 34.9214Z" fill="url(#paint13_radial_1497_31530)" style=""/>
<path d="M12.105 35.729L12.3087 35.8677L12.5435 35.5223L12.8912 35.7592L12.6562 36.1041L12.8599 36.2432L13.4621 35.3575L13.2588 35.2191L13.0159 35.5756L12.6685 35.3387L12.9112 34.9822L12.7069 34.8438L12.105 35.729Z" fill="url(#paint14_radial_1497_31530)" style=""/>
<path d="M13.7019 35.6671C13.6368 35.6859 13.5767 35.7178 13.5211 35.7628C13.4652 35.8082 13.4173 35.8664 13.3767 35.9371C13.3364 36.0076 13.3104 36.0771 13.2984 36.1478C13.2863 36.2183 13.2884 36.286 13.3046 36.3511C13.3206 36.4167 13.3507 36.4767 13.3945 36.5326C13.4386 36.5889 13.4972 36.6376 13.5693 36.6791C13.6407 36.7215 13.7119 36.7468 13.7833 36.757C13.8542 36.7663 13.9226 36.7612 13.9879 36.7419C14.0531 36.7222 14.1136 36.6895 14.1692 36.6436C14.2246 36.5973 14.2726 36.5398 14.3125 36.4696C14.353 36.3986 14.3792 36.3284 14.3903 36.2582C14.4019 36.1877 14.3989 36.1205 14.3822 36.0553C14.3655 35.9907 14.3349 35.9299 14.2902 35.8752C14.2459 35.8201 14.1882 35.7721 14.1173 35.7315C14.0466 35.6905 13.9757 35.6655 13.905 35.6546C13.8802 35.6509 13.8556 35.6492 13.8312 35.6492C13.7867 35.6492 13.7436 35.6553 13.7019 35.6671ZM13.8102 36.5247C13.7705 36.5229 13.7297 36.5099 13.6878 36.4855C13.6444 36.4596 13.6117 36.4299 13.5895 36.3961C13.5668 36.3622 13.5526 36.3268 13.5471 36.2888C13.5415 36.2514 13.5427 36.213 13.5517 36.1742C13.561 36.1353 13.5758 36.0978 13.5964 36.0618C13.6166 36.0268 13.6412 35.9958 13.6699 35.9682C13.6991 35.9404 13.7313 35.9202 13.7661 35.9058C13.8011 35.8912 13.8387 35.8852 13.8792 35.8878C13.9198 35.8901 13.9617 35.9035 14.0044 35.9281C14.0482 35.9536 14.0804 35.983 14.1022 36.0173C14.1235 36.0519 14.137 36.088 14.1421 36.126C14.1467 36.1636 14.1449 36.2018 14.1349 36.2401C14.1249 36.2783 14.1101 36.3152 14.0906 36.349C14.0712 36.3836 14.0466 36.4142 14.0178 36.4417C13.9893 36.4696 13.9576 36.4906 13.9226 36.505C13.8906 36.5185 13.8574 36.5249 13.8222 36.5249C13.8183 36.5249 13.8141 36.525 13.8102 36.5247Z" fill="url(#paint15_radial_1497_31530)" style=""/>
<path d="M14.3169 37.0774L14.7058 37.2637C14.7527 37.2864 14.8027 37.305 14.8549 37.3191C14.9073 37.3335 14.958 37.3393 15.0069 37.3356C15.0561 37.3323 15.1022 37.318 15.146 37.2915C15.1891 37.2658 15.2251 37.2225 15.2538 37.1627C15.2805 37.1073 15.2911 37.0537 15.2858 37.0027C15.2809 36.9515 15.2589 36.9056 15.2207 36.865C15.2649 36.8602 15.3032 36.8453 15.3352 36.8198C15.3671 36.7943 15.3922 36.7614 15.4112 36.7213C15.4337 36.6754 15.4441 36.6319 15.4432 36.5924C15.442 36.5528 15.4325 36.5171 15.4147 36.484C15.3964 36.451 15.3718 36.4223 15.34 36.3961C15.3085 36.3706 15.2728 36.3481 15.2336 36.3298L14.7793 36.1119L14.3169 37.0774ZM14.975 36.6766L14.8185 36.6015L14.9052 36.42L15.0825 36.5053C15.0997 36.5134 15.1159 36.5227 15.1312 36.5317C15.146 36.5414 15.1583 36.5517 15.1678 36.5635C15.1771 36.5758 15.1831 36.5887 15.1857 36.604C15.1875 36.6189 15.1843 36.6356 15.1757 36.6539C15.1583 36.6903 15.1319 36.7086 15.0964 36.709C15.0957 36.709 15.0953 36.709 15.0946 36.709C15.0596 36.709 15.0197 36.6981 14.975 36.6766ZM14.942 37.107C14.9219 37.1061 14.8999 37.1019 14.8764 37.094C14.853 37.0862 14.8287 37.0762 14.8032 37.0639L14.6354 36.9835L14.7299 36.786L14.9226 36.8778C14.9432 36.8877 14.9627 36.8986 14.9812 36.9093C14.9995 36.9204 15.0144 36.9325 15.0257 36.9459C15.0371 36.9594 15.044 36.974 15.0468 36.9907C15.0498 37.0071 15.0466 37.0254 15.0366 37.0451C15.0257 37.0679 15.0123 37.0836 14.9958 37.0936C14.9805 37.1024 14.9636 37.107 14.9455 37.107C14.9444 37.107 14.9432 37.107 14.942 37.107Z" fill="url(#paint16_radial_1497_31530)" style=""/>
<path d="M28.0555 36.6916C28.0099 36.6984 27.9654 36.7106 27.9227 36.7278C27.8745 36.7475 27.8307 36.7716 27.7934 36.8013C27.7553 36.8302 27.7254 36.8648 27.7025 36.9028C27.6807 36.9415 27.6666 36.9842 27.6605 37.0312C27.6554 37.0787 27.6617 37.1297 27.6784 37.1851L27.8998 37.0959C27.8926 37.0618 27.8977 37.0307 27.9157 37.0032C27.9334 36.9754 27.9607 36.9538 27.9992 36.9383C28.0328 36.9246 28.0643 36.9218 28.0926 36.9295C28.1211 36.9369 28.1417 36.9552 28.1547 36.9832C28.158 36.9916 28.161 37.0029 28.164 37.0164C28.1668 37.0301 28.1661 37.044 28.1614 37.0593C28.1568 37.0739 28.148 37.0882 28.1343 37.1031C28.1207 37.1179 28.1003 37.1309 28.0731 37.1418L27.9957 37.1728L28.0717 37.3608L28.1867 37.3145C28.2315 37.2961 28.2671 37.2934 28.2924 37.3061C28.3179 37.3184 28.3362 37.3376 28.3466 37.3638C28.355 37.3845 28.3582 37.4037 28.3562 37.4216C28.3541 37.4392 28.3483 37.4552 28.3388 37.4688C28.3293 37.4832 28.3165 37.4957 28.3005 37.5064C28.285 37.5173 28.2676 37.5266 28.2488 37.5337C28.2083 37.5504 28.1677 37.5564 28.1276 37.5523C28.0877 37.5483 28.0548 37.5277 28.0296 37.4902L27.8047 37.5808C27.8532 37.6816 27.9262 37.7454 28.0231 37.7706C28.1207 37.7959 28.2231 37.7871 28.3304 37.744C28.3733 37.7266 28.415 37.7043 28.4542 37.6777C28.4941 37.651 28.5279 37.6174 28.5569 37.5775C28.5856 37.5377 28.6039 37.4929 28.6111 37.4431C28.6185 37.3935 28.6109 37.3376 28.5873 37.2769C28.5669 37.2231 28.5356 37.18 28.4936 37.1478C28.4512 37.1151 28.4023 37.0991 28.3446 37.1007C28.3712 37.0676 28.3868 37.0291 28.3926 36.9853C28.3983 36.9417 28.393 36.8998 28.377 36.8595C28.3569 36.8101 28.33 36.7721 28.2964 36.7459C28.2634 36.7199 28.2259 36.7023 28.1851 36.6939C28.1626 36.6891 28.1397 36.6868 28.116 36.6868C28.0963 36.6868 28.0761 36.6884 28.0555 36.6916Z" fill="url(#paint17_radial_1497_31530)" style=""/>
<path d="M29.0626 36.2603C29.0032 36.2607 28.9416 36.2762 28.8778 36.3064C28.8138 36.3381 28.7624 36.3764 28.7246 36.4227C28.6857 36.4691 28.6609 36.5212 28.6481 36.5792C28.6356 36.6371 28.6367 36.7009 28.6493 36.7697C28.6622 36.8388 28.6875 36.9121 28.7246 36.9883C28.7617 37.0655 28.803 37.1306 28.8479 37.1839C28.8931 37.2373 28.9416 37.2769 28.9937 37.304C29.0461 37.3309 29.1022 37.3444 29.1618 37.3432C29.222 37.3423 29.2846 37.326 29.3502 37.2947C29.4151 37.2627 29.4673 37.2245 29.5048 37.1784C29.5426 37.132 29.5672 37.0803 29.579 37.0222C29.5906 36.9647 29.5901 36.9016 29.5774 36.833C29.5637 36.7649 29.5387 36.6918 29.5011 36.6144C29.4645 36.5382 29.4232 36.4735 29.3773 36.4209C29.3319 36.3676 29.2825 36.3275 29.2297 36.3003C29.1773 36.2732 29.1214 36.2603 29.0637 36.2603C29.0635 36.2603 29.063 36.2603 29.0626 36.2603ZM29.1585 37.1093C29.1289 37.1035 29.101 37.0912 29.0755 37.0708C29.0498 37.0511 29.0257 37.0245 29.0039 36.9913C28.9812 36.9584 28.9615 36.9223 28.9423 36.8833C28.9232 36.8441 28.9084 36.8059 28.8973 36.7683C28.8855 36.7303 28.8799 36.6953 28.8804 36.6631C28.8808 36.6302 28.8887 36.6008 28.9035 36.5743C28.9186 36.5484 28.9427 36.5273 28.9766 36.511C29.0095 36.4953 29.0396 36.49 29.0688 36.4953C29.0971 36.5006 29.1247 36.5134 29.1509 36.5338C29.1771 36.5542 29.2009 36.5808 29.223 36.613C29.2447 36.646 29.2649 36.6809 29.2832 36.7194C29.3025 36.7591 29.3178 36.7985 29.3291 36.8358C29.3405 36.8733 29.3463 36.9086 29.3463 36.9417C29.3463 36.9742 29.3396 37.0043 29.3243 37.0303C29.3094 37.0562 29.286 37.0773 29.2531 37.0929C29.2276 37.1051 29.2037 37.1112 29.1808 37.1112C29.1734 37.1112 29.1659 37.1105 29.1585 37.1093Z" fill="url(#paint18_radial_1497_31530)" style=""/>
<path d="M29.9966 35.756C29.938 35.7604 29.8777 35.7805 29.8165 35.8148C29.7544 35.8503 29.7057 35.8923 29.6705 35.9409C29.6357 35.9899 29.614 36.0436 29.6054 36.102C29.5968 36.1607 29.6014 36.2242 29.6191 36.2926C29.6376 36.3607 29.667 36.4314 29.709 36.5051C29.7507 36.5798 29.7966 36.6423 29.8448 36.6922C29.8935 36.7425 29.9452 36.7786 29.999 36.8023C30.0525 36.8259 30.1095 36.8347 30.1691 36.8301C30.2289 36.825 30.2903 36.8046 30.3536 36.7691C30.4164 36.7332 30.466 36.6908 30.5001 36.6424C30.5342 36.5939 30.5557 36.5404 30.5638 36.4819C30.5717 36.4238 30.5664 36.3607 30.5492 36.2933C30.5307 36.2258 30.5006 36.1547 30.4588 36.0803C30.4174 36.0068 30.3715 35.9449 30.3223 35.8951C30.2732 35.8452 30.222 35.8084 30.167 35.7847C30.1211 35.765 30.0731 35.755 30.024 35.755C30.015 35.755 30.0057 35.7553 29.9966 35.756ZM30.1499 36.5969C30.1202 36.5934 30.0917 36.5823 30.0643 36.5642C30.0372 36.5459 30.0117 36.5211 29.9876 36.4898C29.9635 36.4581 29.9403 36.4238 29.9192 36.3858C29.8981 36.3484 29.8801 36.3109 29.8666 36.2745C29.8522 36.2374 29.8446 36.2026 29.843 36.17C29.8416 36.1375 29.8464 36.1078 29.8601 36.0805C29.8729 36.0536 29.896 36.0309 29.9278 36.0123C29.9598 35.9945 29.9904 35.9871 30.0189 35.9903C30.0481 35.9936 30.0759 36.0047 30.1035 36.023C30.1313 36.0413 30.157 36.0666 30.1809 36.0979C30.205 36.1289 30.2273 36.1628 30.2479 36.1996C30.2697 36.2381 30.2878 36.2756 30.3015 36.3125C30.3156 36.3491 30.3239 36.3837 30.3265 36.4168C30.3286 36.4497 30.3232 36.4796 30.3103 36.5065C30.2968 36.5339 30.2743 36.5564 30.2433 36.5742C30.2159 36.5897 30.1893 36.5976 30.1635 36.5976C30.1589 36.5976 30.1545 36.5974 30.1499 36.5969Z" fill="url(#paint19_radial_1497_31530)" style=""/>
<path d="M30.8154 35.2188L31.429 36.0959L31.6311 35.9548L31.1462 35.2622L31.5653 34.9692L31.4359 34.7845L30.8154 35.2188Z" fill="url(#paint20_radial_1497_31530)" style=""/>
<path d="M32.1784 34.196L32.1971 35.011L31.7913 34.5089L31.5991 34.6638L32.2722 35.4968L32.425 35.373L32.4123 34.565L32.8116 35.0601L33.0033 34.9055L32.3307 34.0724L32.1784 34.196Z" fill="url(#paint21_radial_1497_31530)" style=""/>
<path d="M33.0203 33.439L33.1142 33.9353L33.018 34.0252L32.7261 33.7139L32.5465 33.8827L33.2781 34.6643L33.4581 34.4956L33.1712 34.1889L33.2771 34.089L33.75 34.2225L33.9595 34.0262L33.3221 33.8565L33.2264 33.246L33.0203 33.439Z" fill="url(#paint22_radial_1497_31530)" style=""/>
<path d="M33.7817 32.6511L33.9101 33.1399L33.8202 33.2364L33.5082 32.9457L33.3406 33.1265L34.1238 33.8557L34.2921 33.6754L33.9836 33.3886L34.083 33.2827L34.5635 33.3828L34.7596 33.1726L34.112 33.0472L33.9748 32.4446L33.7817 32.6511Z" fill="url(#paint23_radial_1497_31530)" style=""/>
<path d="M34.7129 31.7499C34.6461 31.7564 34.5824 31.777 34.5205 31.8123C34.4593 31.848 34.4032 31.8973 34.3511 31.9606C34.3003 32.0241 34.2639 32.0902 34.2428 32.1583C34.2215 32.2269 34.2148 32.2944 34.2233 32.3614C34.2317 32.4277 34.2537 32.4928 34.2889 32.5547C34.3256 32.6163 34.3759 32.6731 34.4389 32.7246C34.5017 32.7749 34.5669 32.812 34.6346 32.8347C34.702 32.8576 34.7692 32.8662 34.8364 32.8602C34.903 32.8549 34.9676 32.8347 35.0298 32.8002C35.0921 32.7654 35.1496 32.7156 35.2022 32.6504C35.2546 32.5865 35.2915 32.5204 35.3116 32.4513C35.3322 32.3825 35.3378 32.3143 35.3292 32.2469C35.3204 32.1794 35.2972 32.1143 35.2606 32.0524C35.2233 31.9903 35.1737 31.9344 35.1113 31.8834C35.0478 31.8322 34.9818 31.7956 34.9143 31.7735C34.8622 31.7564 34.81 31.7478 34.7583 31.7478C34.7433 31.7478 34.728 31.7485 34.7129 31.7499ZM34.8128 32.6115C34.7748 32.6115 34.737 32.6034 34.6999 32.5883C34.6633 32.5735 34.6283 32.5531 34.5958 32.5271C34.565 32.5016 34.5377 32.4729 34.5154 32.4397C34.4929 32.4066 34.4772 32.3716 34.4686 32.335C34.4602 32.2979 34.4602 32.2596 34.4686 32.2202C34.4779 32.1806 34.4971 32.1416 34.5282 32.1032C34.5597 32.0635 34.5944 32.0362 34.632 32.0206C34.6696 32.0047 34.7069 31.997 34.7449 31.9979C34.7831 31.9991 34.8202 32.0074 34.8568 32.0232C34.8932 32.039 34.9273 32.0593 34.9577 32.0839C34.9873 32.1085 35.0147 32.1372 35.0376 32.1697C35.0606 32.2028 35.0766 32.2378 35.0856 32.2749C35.0947 32.312 35.0947 32.3493 35.087 32.3883C35.0789 32.4274 35.0592 32.4652 35.0288 32.5032C34.9968 32.5419 34.9621 32.57 34.9257 32.5865C34.8891 32.6031 34.852 32.6115 34.8142 32.6115C34.8137 32.6115 34.8133 32.6115 34.8128 32.6115Z" fill="url(#paint24_radial_1497_31530)" style=""/>
<path d="M34.8981 30.7165C34.9203 30.7357 34.9328 30.7568 34.9349 30.7802C34.9373 30.8039 34.9301 30.8271 34.9141 30.8505C34.899 30.873 34.8798 30.8876 34.8566 30.8945C34.8334 30.9012 34.8086 30.898 34.7824 30.8848L34.6691 31.0493C34.7465 31.0936 34.8181 31.1052 34.8832 31.0841C34.9484 31.0628 35.0052 31.0171 35.0538 30.9464C35.1021 30.8764 35.1236 30.8074 35.1199 30.7388C35.1164 30.6701 35.081 30.6075 35.0121 30.5508L34.8981 30.7165ZM35.249 30.7612L35.4996 31.5366L34.9676 31.171L34.8278 31.3743L35.7103 31.9805L35.8215 31.8184L35.5786 31.0477L36.1032 31.4082L36.2427 31.2051L35.3605 30.5992L35.249 30.7612Z" fill="url(#paint25_radial_1497_31530)" style=""/>
<path d="M35.8495 29.7759L36.2225 29.9919L36.0115 30.3558L35.6386 30.1396L35.5153 30.3528L36.4413 30.8896L36.5648 30.6766L36.2042 30.4673L36.4149 30.1034L36.7755 30.3127L36.8998 30.0999L35.9735 29.5626L35.8495 29.7759Z" fill="url(#paint26_radial_1497_31530)" style=""/>
<path d="M36.602 28.595C36.539 28.6166 36.4806 28.6518 36.4289 28.7002C36.3777 28.7482 36.3339 28.8094 36.2986 28.8829C36.2627 28.9564 36.2423 29.0289 36.237 29.1001C36.2316 29.1715 36.2407 29.2385 36.2636 29.302C36.2873 29.3655 36.3234 29.4227 36.3723 29.4751C36.4222 29.5275 36.4829 29.5713 36.5566 29.6068C36.6299 29.642 36.7015 29.6627 36.7724 29.6696C36.8436 29.6763 36.9113 29.6696 36.9748 29.6487C37.0385 29.6281 37.0967 29.5936 37.1495 29.5458C37.2024 29.4979 37.2464 29.436 37.283 29.3611C37.3199 29.2867 37.3405 29.2141 37.3452 29.1423C37.3493 29.0704 37.3396 29.003 37.315 28.9392C37.2912 28.8755 37.2541 28.8173 37.2042 28.7654C37.1539 28.7135 37.0932 28.6701 37.0207 28.6351C36.9467 28.5996 36.8746 28.5788 36.8037 28.573C36.7872 28.5714 36.771 28.5707 36.755 28.5707C36.7019 28.5707 36.6509 28.5788 36.602 28.595ZM36.7803 29.4149C36.7409 29.4088 36.7024 29.3965 36.6653 29.3785C36.6292 29.3611 36.5962 29.3386 36.5663 29.3115C36.5369 29.2848 36.5137 29.2545 36.497 29.2204C36.4803 29.1865 36.4718 29.1495 36.4708 29.1089C36.4706 29.0683 36.4808 29.0257 36.5026 28.9809C36.5244 28.9357 36.5515 28.9012 36.5849 28.8773C36.6173 28.8532 36.6521 28.8375 36.6897 28.8298C36.7267 28.8222 36.7657 28.8212 36.8042 28.8287C36.8433 28.8356 36.8804 28.8481 36.9159 28.8651C36.9516 28.882 36.9838 28.9042 37.0137 28.9309C37.0436 28.9571 37.0668 28.9874 37.0842 29.0217C37.1015 29.0556 37.1104 29.0922 37.1115 29.1323C37.1127 29.1717 37.1029 29.2134 37.0816 29.257C37.0584 29.302 37.0313 29.3365 36.9991 29.3618C36.9671 29.3866 36.9326 29.4028 36.8957 29.4114C36.8739 29.4163 36.8517 29.4186 36.8292 29.4186C36.813 29.4186 36.7967 29.4174 36.7803 29.4149Z" fill="url(#paint27_radial_1497_31530)" style=""/>
<path d="M37.0615 27.4984C37.0228 27.5026 36.9871 27.5144 36.9558 27.5348C36.9243 27.5552 36.8972 27.5818 36.8735 27.6154C36.8501 27.6488 36.8304 27.6857 36.8142 27.7258L36.6301 28.1949L37.6266 28.5864L37.7842 28.1859C37.8037 28.1367 37.8183 28.0857 37.829 28.0324C37.8399 27.9796 37.8417 27.9288 37.8348 27.8797C37.828 27.831 37.81 27.7858 37.7805 27.7445C37.7513 27.7031 37.7061 27.6704 37.644 27.6463C37.5867 27.6238 37.533 27.6166 37.4824 27.6256C37.4317 27.634 37.3876 27.6592 37.3494 27.7007C37.3417 27.6567 37.3243 27.6196 37.2963 27.5899C37.2687 27.5598 37.2342 27.5369 37.1927 27.5209C37.1533 27.5053 37.1164 27.4975 37.0826 27.4975C37.0754 27.4975 37.0684 27.4977 37.0615 27.4984ZM36.9287 28.0473L37.0008 27.8644C37.0082 27.8465 37.0158 27.8298 37.0242 27.8143C37.0325 27.7988 37.042 27.7856 37.0529 27.7751C37.064 27.7647 37.0766 27.7578 37.0919 27.7547C37.1069 27.7515 37.1236 27.7536 37.1424 27.7608C37.1802 27.7756 37.2006 27.8006 37.2031 27.8359C37.2061 27.8713 37.198 27.9124 37.1795 27.9592L37.1157 28.1207L36.9287 28.0473ZM37.3063 28.1956L37.3841 27.9972C37.3925 27.9754 37.4018 27.9555 37.4113 27.9365C37.4208 27.9177 37.4321 27.9015 37.4449 27.8892C37.4572 27.8769 37.4715 27.8683 37.4875 27.8651C37.5038 27.8609 37.5218 27.863 37.5427 27.8713C37.5656 27.8804 37.5828 27.8927 37.5937 27.9084C37.6044 27.9239 37.6104 27.9416 37.6106 27.961C37.6118 27.981 37.6092 28.003 37.6027 28.0273C37.5965 28.0512 37.5886 28.0762 37.5782 28.1027L37.51 28.276L37.3063 28.1956Z" fill="url(#paint28_radial_1497_31530)" style=""/>
<path d="M4.52673 21.9997L5.71954 24.0481L6.91235 21.9997L5.71954 19.9518L4.52673 21.9997ZM5.34658 21.9997L5.71954 21.3593L6.09273 21.9997L5.71954 22.6404L5.34658 21.9997Z" fill="url(#paint29_radial_1497_31530)" style=""/>
<path d="M37.2902 22L38.4832 24.0483L39.6758 22L38.4832 19.9521L37.2902 22ZM38.11 22L38.4832 21.3595L38.8562 22L38.4832 22.6407L38.11 22Z" fill="url(#paint30_radial_1497_31530)" style=""/>
<path d="M7.2908 11.0024C7.07616 11.0842 6.8789 11.2047 6.69926 11.364C6.51916 11.5237 6.36131 11.711 6.22502 11.9265C6.03634 12.226 5.91209 12.5243 5.85229 12.8206C5.79295 13.1173 5.79504 13.4033 5.85879 13.678C5.92253 13.9536 6.04885 14.2143 6.23776 14.4614C6.42575 14.7081 6.67563 14.9292 6.98577 15.1253C7.28895 15.3163 7.59144 15.4447 7.89208 15.5094C8.19364 15.574 8.48315 15.5761 8.76177 15.5145C9.04108 15.4533 9.30208 15.332 9.54616 15.1519C9.79 14.9714 10.0074 14.7298 10.1991 14.4269C10.2842 14.2915 10.3572 14.1473 10.4182 13.9946C10.4791 13.8416 10.5236 13.6882 10.5512 13.5349C10.5793 13.3815 10.5883 13.2278 10.5779 13.0732C10.5686 12.9193 10.5348 12.7705 10.4773 12.6265C10.3651 12.3366 10.2028 12.0897 9.9912 11.8871C9.77934 11.6848 9.54013 11.4991 9.27333 11.3311L9.13102 11.2409L7.89741 13.1961L8.73001 13.7215L9.30718 12.8069C9.37416 12.8697 9.42099 12.9416 9.44672 13.0218C9.47314 13.102 9.48218 13.1856 9.47592 13.2735C9.46873 13.3609 9.44834 13.4503 9.41403 13.5405C9.38019 13.6316 9.33754 13.7174 9.28678 13.7973C9.17181 13.9802 9.04595 14.114 8.91012 14.1993C8.77498 14.2846 8.63428 14.3337 8.48848 14.3465C8.34245 14.359 8.19666 14.342 8.04993 14.2955C7.90297 14.2489 7.76018 14.1817 7.62157 14.0943C7.50104 14.018 7.38908 13.9255 7.28408 13.8159C7.17931 13.7067 7.10073 13.5829 7.04719 13.4448C6.9948 13.3066 6.97418 13.1583 6.98669 13.0007C6.99921 12.8426 7.06156 12.6761 7.17212 12.5009C7.29868 12.3004 7.43962 12.1606 7.59399 12.0818C7.74813 12.003 7.92267 11.9998 8.11715 12.0716L8.73557 11.0911C8.4704 10.9697 8.21705 10.9045 7.97529 10.8948C7.94956 10.8948 7.92383 10.8925 7.89857 10.8925C7.68532 10.8925 7.48296 10.9291 7.2908 11.0017" fill="url(#paint31_radial_1497_31530)" style=""/>
<path d="M8.61267 8.90299L11.601 12.3799L14.2237 10.1259L13.5184 9.3056L11.785 10.7958L11.3416 10.2801L12.7713 9.0518L12.0956 8.26601L10.6664 9.49453L10.2109 8.96417L11.9438 7.47375L11.235 6.64948L8.61267 8.90299Z" fill="url(#paint32_radial_1497_31530)" style=""/>
<path d="M12.6147 5.79794L14.5646 9.94751L17.6938 8.47727L17.2344 7.4984L15.1649 8.47053L14.8761 7.85489L16.5821 7.05382L16.141 6.11598L14.4355 6.91705L14.1381 6.28425L16.2075 5.31234L15.7447 4.32767L12.6147 5.79794Z" fill="url(#paint33_radial_1497_31530)" style=""/>
<path d="M20.1239 3.41159L19.4112 5.30255L18.7904 5.39737L18.5234 3.65659L17.3651 3.83369L18.0584 8.36572L19.2171 8.18862L18.9531 6.46638L19.6003 6.36741L20.7792 7.94894L22.1234 7.74357L20.4304 5.58536L21.4426 3.20947L20.1239 3.41159Z" fill="url(#paint34_radial_1497_31530)" style=""/>
<path d="M24.0845 3.54698C23.7899 3.61211 23.5289 3.72893 23.3013 3.8986C23.0732 4.06781 22.8834 4.28685 22.7318 4.55573C22.5802 4.82438 22.4759 5.13569 22.42 5.48964C22.3632 5.84799 22.3632 6.17899 22.42 6.48311C22.4766 6.78722 22.5865 7.05472 22.7485 7.28558C22.9103 7.51691 23.1235 7.70766 23.3857 7.85856C23.6481 8.00946 23.954 8.11237 24.3038 8.16777C24.5597 8.2081 24.8117 8.2109 25.059 8.17566C25.3079 8.14113 25.536 8.06579 25.7446 7.9499C25.9523 7.8347 26.1338 7.67729 26.2875 7.47842C26.4419 7.28 26.5515 7.03987 26.618 6.75731L25.4989 6.58047C25.4197 6.77749 25.2947 6.91934 25.1234 7.00603C24.9526 7.09249 24.7412 7.11567 24.4895 7.07603C24.2934 7.0452 24.1332 6.9817 24.0085 6.88504C23.8836 6.78908 23.7892 6.67548 23.7246 6.54521C23.6601 6.41495 23.6205 6.2731 23.6052 6.11988C23.5901 5.96667 23.5943 5.81763 23.6168 5.67299C23.6404 5.52371 23.6817 5.3793 23.7413 5.23999C23.8004 5.10068 23.8808 4.98016 23.9823 4.8784C24.0834 4.77618 24.2076 4.70084 24.3553 4.65193C24.5027 4.60325 24.6747 4.59422 24.871 4.62528C25.1267 4.66584 25.3175 4.75393 25.4419 4.88952C25.5669 5.02536 25.6389 5.1992 25.6577 5.41222L26.7509 5.58536C26.7727 5.28704 26.7434 5.02048 26.6651 4.78497C26.5865 4.54947 26.4695 4.34644 26.3158 4.17561C26.1612 4.00455 25.9737 3.86475 25.753 3.75534C25.5323 3.64617 25.2913 3.57084 25.0314 3.52958C24.8796 3.5057 24.7322 3.49367 24.5889 3.49367C24.4144 3.49367 24.2461 3.51151 24.0845 3.54698Z" fill="url(#paint35_radial_1497_31530)" style=""/>
<path d="M28.9458 5.22972C28.6681 5.31293 28.411 5.45572 28.1755 5.65808C27.9393 5.86043 27.7381 6.1184 27.5736 6.43155C27.4083 6.74471 27.307 7.05485 27.2697 7.36221C27.2321 7.66933 27.2565 7.9614 27.3418 8.23839C27.4282 8.51539 27.5722 8.77106 27.7759 9.00494C27.9797 9.23928 28.2395 9.44 28.5568 9.60689C28.8663 9.7703 29.1743 9.86791 29.4817 9.90059C29.7888 9.93327 30.0827 9.90545 30.3639 9.81644C30.6451 9.72836 30.9033 9.58118 31.1385 9.37558C31.3736 9.17021 31.5722 8.9129 31.7354 8.60346C31.9004 8.29077 31.9994 7.98062 32.0323 7.6728C32.0648 7.36544 32.0372 7.07524 31.9496 6.80219C31.8617 6.52891 31.7164 6.27672 31.5134 6.04515C31.3112 5.81406 31.0569 5.61819 30.7519 5.4571C30.442 5.29368 30.1335 5.1947 29.8257 5.15923C29.7327 5.14857 29.6414 5.14325 29.5515 5.14325C29.3421 5.14325 29.1405 5.172 28.9458 5.22972ZM29.1018 8.64265C28.9145 8.5439 28.7719 8.42822 28.6734 8.29586C28.5747 8.16351 28.5109 8.02235 28.4824 7.87308C28.4537 7.72403 28.4541 7.57291 28.4836 7.41993C28.5128 7.26695 28.564 7.12207 28.6366 6.98438C28.7042 6.85458 28.7921 6.73499 28.8987 6.62512C29.0058 6.51571 29.1268 6.43064 29.2633 6.3706C29.3999 6.31103 29.5508 6.28343 29.717 6.28807C29.8829 6.29247 30.0577 6.34301 30.2413 6.43967C30.4244 6.5361 30.5609 6.65363 30.6518 6.79178C30.7426 6.92969 30.7999 7.07341 30.8238 7.22268C30.8476 7.3715 30.8416 7.52145 30.8068 7.67119C30.7716 7.82093 30.7229 7.95559 30.6604 8.07358C30.5943 8.19944 30.5092 8.31697 30.4049 8.42545C30.3015 8.53463 30.1824 8.62038 30.0468 8.68297C29.911 8.74602 29.7635 8.77801 29.6038 8.7794C29.6013 8.7794 29.599 8.7794 29.5964 8.7794C29.4397 8.7794 29.2745 8.73374 29.1018 8.64265Z" fill="url(#paint36_radial_1497_31530)" style=""/>
<path d="M30.8831 11.0658L31.7616 11.8423L34.7978 8.40757L33.9193 7.63106L30.8831 11.0658Z" fill="url(#paint37_radial_1497_31530)" style=""/>
<path d="M32.3412 12.224L33.0113 13.1864L35.1313 11.7097L34.136 14.8015L34.7428 15.6731L38.5048 13.0536L37.8354 12.0917L35.6834 13.5902L36.7293 10.5027L36.1039 9.60475L32.3412 12.224Z" fill="url(#paint38_radial_1497_31530)" style=""/>
<path d="M13.2251 16.99C12.6984 17.3752 12.4316 17.8523 12.4316 18.4084C12.4316 18.7639 12.5331 19.0609 12.7337 19.2915C12.9374 19.5254 13.204 19.6443 13.5259 19.6443C13.8449 19.6443 14.1098 19.5437 14.3131 19.345C14.5166 19.1455 14.6202 18.8912 14.6202 18.5884C14.6202 18.3108 14.5222 18.053 14.3284 17.8226C14.1186 17.5723 14.0832 17.5062 14.0792 17.5062L14.0788 17.5064C14.0788 17.4555 14.1483 17.3905 14.2691 17.3284C14.4137 17.2538 14.5908 17.2158 14.7948 17.2158C15.1983 17.2158 15.4781 17.3275 15.6508 17.557C15.8269 17.7911 15.9162 18.1923 15.9162 18.7493C15.9162 19.4857 15.7646 20.013 15.4653 20.3162C15.1654 20.6203 14.6309 20.7914 13.8759 20.8246L13.7906 20.8285V21.7955H14.0924C14.734 21.7955 15.2097 21.9518 15.5064 22.2608C15.8038 22.5707 15.9549 23.0665 15.9549 23.735C15.9549 24.4361 15.8543 24.9533 15.6561 25.2725C15.4635 25.5821 15.1691 25.7326 14.7561 25.7326C14.525 25.7326 14.3131 25.6897 14.1258 25.6051C13.954 25.5274 13.9017 25.473 13.8861 25.4493C13.9095 25.4143 13.9673 25.3332 14.107 25.144C14.2804 24.9081 14.3687 24.6468 14.3687 24.3664C14.3687 24.043 14.2704 23.7783 14.0762 23.5792C13.881 23.3796 13.6242 23.2783 13.3131 23.2783C12.9708 23.2783 12.6843 23.4033 12.4611 23.6492C12.2404 23.8928 12.1289 24.2099 12.1289 24.5917C12.1289 25.1834 12.4022 25.666 12.9416 26.0253C13.4691 26.3772 14.1773 26.5557 15.0458 26.5557C16.0453 26.5557 16.8649 26.3086 17.4812 25.8213C18.1045 25.3292 18.4205 24.6816 18.4205 23.8958C18.4205 23.1849 18.1627 22.6041 17.6549 22.1694C17.2098 21.7888 16.5126 21.4727 15.5787 21.2274C16.4275 20.9924 17.061 20.6957 17.4657 20.3436C17.9326 19.937 18.169 19.4007 18.169 18.7493C18.169 18.0794 17.8778 17.5159 17.3035 17.0744C16.7356 16.6393 16.0066 16.4184 15.1362 16.4184C14.3859 16.4184 13.7424 16.6108 13.2251 16.99Z" fill="url(#paint39_linear_1497_31530)" style=""/>
<path d="M27.0945 17.8386C26.5062 18.7681 26.2079 19.9934 26.2079 21.4808C26.2079 23.0106 26.4986 24.2488 27.072 25.161C27.6534 26.0863 28.4394 26.5557 29.4087 26.5557C30.3473 26.5557 31.1266 26.0768 31.7255 25.1324C32.3161 24.2004 32.6156 22.9719 32.6156 21.4808C32.6156 19.9465 32.3249 18.7092 31.7512 17.8031C31.1699 16.8843 30.3813 16.4184 29.4087 16.4184C28.47 16.4184 27.6911 16.8964 27.0945 17.8386ZM28.8367 25.1056C28.7071 24.7039 28.6413 24.0064 28.6413 23.0331V19.896C28.6413 18.9181 28.7071 18.2178 28.8367 17.814C28.9574 17.4374 29.1445 17.2545 29.4087 17.2545C29.6765 17.2545 29.8656 17.4374 29.9868 17.814C30.1164 18.2178 30.182 18.9181 30.182 19.896V23.0331C30.182 24.0064 30.1164 24.7039 29.9868 25.1056C29.8656 25.4797 29.6765 25.6616 29.4087 25.6616C29.1445 25.6616 28.9574 25.4797 28.8367 25.1056Z" fill="url(#paint40_linear_1497_31530)" style=""/>
<path d="M19.9965 17.8386C19.4082 18.7681 19.1099 19.9934 19.1099 21.4808C19.1099 23.0106 19.4005 24.2488 19.9738 25.161C20.5553 26.0863 21.3416 26.5557 22.3105 26.5557C23.2492 26.5557 24.0285 26.0768 24.6275 25.1324C25.2181 24.2004 25.5176 22.9719 25.5176 21.4808C25.5176 19.9465 25.2267 18.7092 24.6532 17.8031C24.0716 16.8843 23.2833 16.4184 22.3105 16.4184C21.3717 16.4184 20.5933 16.8964 19.9965 17.8386ZM21.7384 25.1056C21.6091 24.7039 21.543 24.0064 21.543 23.0331V19.896C21.543 18.9181 21.6091 18.2178 21.7384 17.814C21.8592 17.4374 22.0465 17.2545 22.3105 17.2545C22.5784 17.2545 22.7676 17.4374 22.8888 17.814C23.0181 18.2178 23.084 18.9181 23.084 19.896V23.0331C23.084 24.0064 23.0181 24.7039 22.8888 25.1056C22.7676 25.4797 22.5784 25.6616 22.3105 25.6616C22.0465 25.6616 21.8592 25.4797 21.7384 25.1056Z" fill="url(#paint41_linear_1497_31530)" style=""/>
<defs>
<radialGradient id="paint0_radial_1497_31530" cx="0" cy="0" r="1" gradientUnits="userSpaceOnUse" gradientTransform="translate(22.0001 21.9999) scale(21.9999 21.9998)">
<stop stop-color="#77351D" style="stop-color:#77351D;stop-color:color(display-p3 0.4667 0.2078 0.1137);stop-opacity:1;"/>
<stop offset="0.526876" stop-color="#77351D" style="stop-color:#77351D;stop-color:color(display-p3 0.4667 0.2078 0.1137);stop-opacity:1;"/>
<stop offset="1" stop-color="#3F1417" style="stop-color:#3F1417;stop-color:color(display-p3 0.2471 0.0784 0.0902);stop-opacity:1;"/>
</radialGradient>
<linearGradient id="paint1_linear_1497_31530" x1="40.0993" y1="5.4744" x2="2.49981" y2="39.8044" gradientUnits="userSpaceOnUse">
<stop stop-color="#FAF778" style="stop-color:#FAF778;stop-color:color(display-p3 0.9804 0.9686 0.4706);stop-opacity:1;"/>
<stop offset="0.12058" stop-color="#FAF778" style="stop-color:#FAF778;stop-color:color(display-p3 0.9804 0.9686 0.4706);stop-opacity:1;"/>
<stop offset="0.363181" stop-color="#CDAD29" style="stop-color:#CDAD29;stop-color:color(display-p3 0.8039 0.6784 0.1608);stop-opacity:1;"/>
<stop offset="0.723895" stop-color="#C48E0A" style="stop-color:#C48E0A;stop-color:color(display-p3 0.7686 0.5569 0.0392);stop-opacity:1;"/>
<stop offset="0.986867" stop-color="#C48E0A" style="stop-color:#C48E0A;stop-color:color(display-p3 0.7686 0.5569 0.0392);stop-opacity:1;"/>
<stop offset="1" stop-color="#C48E0A" style="stop-color:#C48E0A;stop-color:color(display-p3 0.7686 0.5569 0.0392);stop-opacity:1;"/>
</linearGradient>
<radialGradient id="paint2_radial_1497_31530" cx="0" cy="0" r="1" gradientUnits="userSpaceOnUse" gradientTransform="translate(22.1032 20.2788) scale(11.9606 11.9606)">
<stop stop-color="#77351D" style="stop-color:#77351D;stop-color:color(display-p3 0.4667 0.2078 0.1137);stop-opacity:1;"/>
<stop offset="0.526876" stop-color="#77351D" style="stop-color:#77351D;stop-color:color(display-p3 0.4667 0.2078 0.1137);stop-opacity:1;"/>
<stop offset="1" stop-color="#3F1417" style="stop-color:#3F1417;stop-color:color(display-p3 0.2471 0.0784 0.0902);stop-opacity:1;"/>
</radialGradient>
<radialGradient id="paint3_radial_1497_31530" cx="0" cy="0" r="1" gradientUnits="userSpaceOnUse" gradientTransform="translate(22.0003 22) scale(20.3514 20.3514)">
<stop stop-color="#77351D" style="stop-color:#77351D;stop-color:color(display-p3 0.4667 0.2078 0.1137);stop-opacity:1;"/>
<stop offset="0.526876" stop-color="#77351D" style="stop-color:#77351D;stop-color:color(display-p3 0.4667 0.2078 0.1137);stop-opacity:1;"/>
<stop offset="1" stop-color="#3F1417" style="stop-color:#3F1417;stop-color:color(display-p3 0.2471 0.0784 0.0902);stop-opacity:1;"/>
</radialGradient>
<radialGradient id="paint4_radial_1497_31530" cx="0" cy="0" r="1" gradientUnits="userSpaceOnUse" gradientTransform="translate(22.0239 36.2578) scale(3.0473 3.0473)">
<stop stop-color="#77351D" style="stop-color:#77351D;stop-color:color(display-p3 0.4667 0.2078 0.1137);stop-opacity:1;"/>
<stop offset="0.526876" stop-color="#77351D" style="stop-color:#77351D;stop-color:color(display-p3 0.4667 0.2078 0.1137);stop-opacity:1;"/>
<stop offset="1" stop-color="#3F1417" style="stop-color:#3F1417;stop-color:color(display-p3 0.2471 0.0784 0.0902);stop-opacity:1;"/>
</radialGradient>
<radialGradient id="paint5_radial_1497_31530" cx="0" cy="0" r="1" gradientUnits="userSpaceOnUse" gradientTransform="translate(6.37397 26.989) scale(0.508779 0.508784)">
<stop stop-color="#77351D" style="stop-color:#77351D;stop-color:color(display-p3 0.4667 0.2078 0.1137);stop-opacity:1;"/>
<stop offset="0.526876" stop-color="#77351D" style="stop-color:#77351D;stop-color:color(display-p3 0.4667 0.2078 0.1137);stop-opacity:1;"/>
<stop offset="1" stop-color="#3F1417" style="stop-color:#3F1417;stop-color:color(display-p3 0.2471 0.0784 0.0902);stop-opacity:1;"/>
</radialGradient>
<radialGradient id="paint6_radial_1497_31530" cx="0" cy="0" r="1" gradientUnits="userSpaceOnUse" gradientTransform="translate(6.73629 27.994) scale(0.506032)">
<stop stop-color="#77351D" style="stop-color:#77351D;stop-color:color(display-p3 0.4667 0.2078 0.1137);stop-opacity:1;"/>
<stop offset="0.526876" stop-color="#77351D" style="stop-color:#77351D;stop-color:color(display-p3 0.4667 0.2078 0.1137);stop-opacity:1;"/>
<stop offset="1" stop-color="#3F1417" style="stop-color:#3F1417;stop-color:color(display-p3 0.2471 0.0784 0.0902);stop-opacity:1;"/>
</radialGradient>
<radialGradient id="paint7_radial_1497_31530" cx="0" cy="0" r="1" gradientUnits="userSpaceOnUse" gradientTransform="translate(7.17376 28.9996) scale(0.508659 0.50866)">
<stop stop-color="#77351D" style="stop-color:#77351D;stop-color:color(display-p3 0.4667 0.2078 0.1137);stop-opacity:1;"/>
<stop offset="0.526876" stop-color="#77351D" style="stop-color:#77351D;stop-color:color(display-p3 0.4667 0.2078 0.1137);stop-opacity:1;"/>
<stop offset="1" stop-color="#3F1417" style="stop-color:#3F1417;stop-color:color(display-p3 0.2471 0.0784 0.0902);stop-opacity:1;"/>
</radialGradient>
<radialGradient id="paint8_radial_1497_31530" cx="0" cy="0" r="1" gradientUnits="userSpaceOnUse" gradientTransform="translate(7.92788 30.189) scale(0.53586 0.535862)">
<stop stop-color="#77351D" style="stop-color:#77351D;stop-color:color(display-p3 0.4667 0.2078 0.1137);stop-opacity:1;"/>
<stop offset="0.526876" stop-color="#77351D" style="stop-color:#77351D;stop-color:color(display-p3 0.4667 0.2078 0.1137);stop-opacity:1;"/>
<stop offset="1" stop-color="#3F1417" style="stop-color:#3F1417;stop-color:color(display-p3 0.2471 0.0784 0.0902);stop-opacity:1;"/>
</radialGradient>
<radialGradient id="paint9_radial_1497_31530" cx="0" cy="0" r="1" gradientUnits="userSpaceOnUse" gradientTransform="translate(8.51861 31.3203) scale(0.69989 0.699892)">
<stop stop-color="#77351D" style="stop-color:#77351D;stop-color:color(display-p3 0.4667 0.2078 0.1137);stop-opacity:1;"/>
<stop offset="0.526876" stop-color="#77351D" style="stop-color:#77351D;stop-color:color(display-p3 0.4667 0.2078 0.1137);stop-opacity:1;"/>
<stop offset="1" stop-color="#3F1417" style="stop-color:#3F1417;stop-color:color(display-p3 0.2471 0.0784 0.0902);stop-opacity:1;"/>
</radialGradient>
<radialGradient id="paint10_radial_1497_31530" cx="0" cy="0" r="1" gradientUnits="userSpaceOnUse" gradientTransform="translate(9.27871 32.3287) scale(0.704351)">
<stop stop-color="#77351D" style="stop-color:#77351D;stop-color:color(display-p3 0.4667 0.2078 0.1137);stop-opacity:1;"/>
<stop offset="0.526876" stop-color="#77351D" style="stop-color:#77351D;stop-color:color(display-p3 0.4667 0.2078 0.1137);stop-opacity:1;"/>
<stop offset="1" stop-color="#3F1417" style="stop-color:#3F1417;stop-color:color(display-p3 0.2471 0.0784 0.0902);stop-opacity:1;"/>
</radialGradient>
<radialGradient id="paint11_radial_1497_31530" cx="0" cy="0" r="1" gradientUnits="userSpaceOnUse" gradientTransform="translate(10.0307 33.1906) scale(0.707527 0.707524)">
<stop stop-color="#77351D" style="stop-color:#77351D;stop-color:color(display-p3 0.4667 0.2078 0.1137);stop-opacity:1;"/>
<stop offset="0.526876" stop-color="#77351D" style="stop-color:#77351D;stop-color:color(display-p3 0.4667 0.2078 0.1137);stop-opacity:1;"/>
<stop offset="1" stop-color="#3F1417" style="stop-color:#3F1417;stop-color:color(display-p3 0.2471 0.0784 0.0902);stop-opacity:1;"/>
</radialGradient>
<radialGradient id="paint12_radial_1497_31530" cx="0" cy="0" r="1" gradientUnits="userSpaceOnUse" gradientTransform="translate(10.814 33.9658) scale(0.557529)">
<stop stop-color="#77351D" style="stop-color:#77351D;stop-color:color(display-p3 0.4667 0.2078 0.1137);stop-opacity:1;"/>
<stop offset="0.526876" stop-color="#77351D" style="stop-color:#77351D;stop-color:color(display-p3 0.4667 0.2078 0.1137);stop-opacity:1;"/>
<stop offset="1" stop-color="#3F1417" style="stop-color:#3F1417;stop-color:color(display-p3 0.2471 0.0784 0.0902);stop-opacity:1;"/>
</radialGradient>
<radialGradient id="paint13_radial_1497_31530" cx="0" cy="0" r="1" gradientUnits="userSpaceOnUse" gradientTransform="translate(11.8078 34.7293) scale(0.758987 0.758989)">
<stop stop-color="#77351D" style="stop-color:#77351D;stop-color:color(display-p3 0.4667 0.2078 0.1137);stop-opacity:1;"/>
<stop offset="0.526876" stop-color="#77351D" style="stop-color:#77351D;stop-color:color(display-p3 0.4667 0.2078 0.1137);stop-opacity:1;"/>
<stop offset="1" stop-color="#3F1417" style="stop-color:#3F1417;stop-color:color(display-p3 0.2471 0.0784 0.0902);stop-opacity:1;"/>
</radialGradient>
<radialGradient id="paint14_radial_1497_31530" cx="0" cy="0" r="1" gradientUnits="userSpaceOnUse" gradientTransform="translate(12.7836 35.5435) scale(0.689246 0.689244)">
<stop stop-color="#77351D" style="stop-color:#77351D;stop-color:color(display-p3 0.4667 0.2078 0.1137);stop-opacity:1;"/>
<stop offset="0.526876" stop-color="#77351D" style="stop-color:#77351D;stop-color:color(display-p3 0.4667 0.2078 0.1137);stop-opacity:1;"/>
<stop offset="1" stop-color="#3F1417" style="stop-color:#3F1417;stop-color:color(display-p3 0.2471 0.0784 0.0902);stop-opacity:1;"/>
</radialGradient>
<radialGradient id="paint15_radial_1497_31530" cx="0" cy="0" r="1" gradientUnits="userSpaceOnUse" gradientTransform="translate(13.844 36.2053) scale(0.554752 0.554751)">
<stop stop-color="#77351D" style="stop-color:#77351D;stop-color:color(display-p3 0.4667 0.2078 0.1137);stop-opacity:1;"/>
<stop offset="0.526876" stop-color="#77351D" style="stop-color:#77351D;stop-color:color(display-p3 0.4667 0.2078 0.1137);stop-opacity:1;"/>
<stop offset="1" stop-color="#3F1417" style="stop-color:#3F1417;stop-color:color(display-p3 0.2471 0.0784 0.0902);stop-opacity:1;"/>
</radialGradient>
<radialGradient id="paint16_radial_1497_31530" cx="0" cy="0" r="1" gradientUnits="userSpaceOnUse" gradientTransform="translate(14.8801 36.7242) scale(0.588279 0.588281)">
<stop stop-color="#77351D" style="stop-color:#77351D;stop-color:color(display-p3 0.4667 0.2078 0.1137);stop-opacity:1;"/>
<stop offset="0.526876" stop-color="#77351D" style="stop-color:#77351D;stop-color:color(display-p3 0.4667 0.2078 0.1137);stop-opacity:1;"/>
<stop offset="1" stop-color="#3F1417" style="stop-color:#3F1417;stop-color:color(display-p3 0.2471 0.0784 0.0902);stop-opacity:1;"/>
</radialGradient>
<radialGradient id="paint17_radial_1497_31530" cx="0" cy="0" r="1" gradientUnits="userSpaceOnUse" gradientTransform="translate(28.1365 37.2357) scale(0.514519 0.51452)">
<stop stop-color="#77351D" style="stop-color:#77351D;stop-color:color(display-p3 0.4667 0.2078 0.1137);stop-opacity:1;"/>
<stop offset="0.526876" stop-color="#77351D" style="stop-color:#77351D;stop-color:color(display-p3 0.4667 0.2078 0.1137);stop-opacity:1;"/>
<stop offset="1" stop-color="#3F1417" style="stop-color:#3F1417;stop-color:color(display-p3 0.2471 0.0784 0.0902);stop-opacity:1;"/>
</radialGradient>
<radialGradient id="paint18_radial_1497_31530" cx="0" cy="0" r="1" gradientUnits="userSpaceOnUse" gradientTransform="translate(29.1133 36.8017) scale(0.508853)">
<stop stop-color="#77351D" style="stop-color:#77351D;stop-color:color(display-p3 0.4667 0.2078 0.1137);stop-opacity:1;"/>
<stop offset="0.526876" stop-color="#77351D" style="stop-color:#77351D;stop-color:color(display-p3 0.4667 0.2078 0.1137);stop-opacity:1;"/>
<stop offset="1" stop-color="#3F1417" style="stop-color:#3F1417;stop-color:color(display-p3 0.2471 0.0784 0.0902);stop-opacity:1;"/>
</radialGradient>
<radialGradient id="paint19_radial_1497_31530" cx="0" cy="0" r="1" gradientUnits="userSpaceOnUse" gradientTransform="translate(30.0843 36.2932) scale(0.511362)">
<stop stop-color="#77351D" style="stop-color:#77351D;stop-color:color(display-p3 0.4667 0.2078 0.1137);stop-opacity:1;"/>
<stop offset="0.526876" stop-color="#77351D" style="stop-color:#77351D;stop-color:color(display-p3 0.4667 0.2078 0.1137);stop-opacity:1;"/>
<stop offset="1" stop-color="#3F1417" style="stop-color:#3F1417;stop-color:color(display-p3 0.2471 0.0784 0.0902);stop-opacity:1;"/>
</radialGradient>
<radialGradient id="paint20_radial_1497_31530" cx="0" cy="0" r="1" gradientUnits="userSpaceOnUse" gradientTransform="translate(31.2232 35.4403) scale(0.546065)">
<stop stop-color="#77351D" style="stop-color:#77351D;stop-color:color(display-p3 0.4667 0.2078 0.1137);stop-opacity:1;"/>
<stop offset="0.526876" stop-color="#77351D" style="stop-color:#77351D;stop-color:color(display-p3 0.4667 0.2078 0.1137);stop-opacity:1;"/>
<stop offset="1" stop-color="#3F1417" style="stop-color:#3F1417;stop-color:color(display-p3 0.2471 0.0784 0.0902);stop-opacity:1;"/>
</radialGradient>
<radialGradient id="paint21_radial_1497_31530" cx="0" cy="0" r="1" gradientUnits="userSpaceOnUse" gradientTransform="translate(32.3013 34.7846) scale(0.707041 0.707046)">
<stop stop-color="#77351D" style="stop-color:#77351D;stop-color:color(display-p3 0.4667 0.2078 0.1137);stop-opacity:1;"/>
<stop offset="0.526876" stop-color="#77351D" style="stop-color:#77351D;stop-color:color(display-p3 0.4667 0.2078 0.1137);stop-opacity:1;"/>
<stop offset="1" stop-color="#3F1417" style="stop-color:#3F1417;stop-color:color(display-p3 0.2471 0.0784 0.0902);stop-opacity:1;"/>
</radialGradient>
<radialGradient id="paint22_radial_1497_31530" cx="0" cy="0" r="1" gradientUnits="userSpaceOnUse" gradientTransform="translate(33.253 33.955) scale(0.707826 0.707827)">
<stop stop-color="#77351D" style="stop-color:#77351D;stop-color:color(display-p3 0.4667 0.2078 0.1137);stop-opacity:1;"/>
<stop offset="0.526876" stop-color="#77351D" style="stop-color:#77351D;stop-color:color(display-p3 0.4667 0.2078 0.1137);stop-opacity:1;"/>
<stop offset="1" stop-color="#3F1417" style="stop-color:#3F1417;stop-color:color(display-p3 0.2471 0.0784 0.0902);stop-opacity:1;"/>
</radialGradient>
<radialGradient id="paint23_radial_1497_31530" cx="0" cy="0" r="1" gradientUnits="userSpaceOnUse" gradientTransform="translate(34.0501 33.1501) scale(0.707625 0.707629)">
<stop stop-color="#77351D" style="stop-color:#77351D;stop-color:color(display-p3 0.4667 0.2078 0.1137);stop-opacity:1;"/>
<stop offset="0.526876" stop-color="#77351D" style="stop-color:#77351D;stop-color:color(display-p3 0.4667 0.2078 0.1137);stop-opacity:1;"/>
<stop offset="1" stop-color="#3F1417" style="stop-color:#3F1417;stop-color:color(display-p3 0.2471 0.0784 0.0902);stop-opacity:1;"/>
</radialGradient>
<radialGradient id="paint24_radial_1497_31530" cx="0" cy="0" r="1" gradientUnits="userSpaceOnUse" gradientTransform="translate(34.7765 32.305) scale(0.556941 0.556936)">
<stop stop-color="#77351D" style="stop-color:#77351D;stop-color:color(display-p3 0.4667 0.2078 0.1137);stop-opacity:1;"/>
<stop offset="0.526876" stop-color="#77351D" style="stop-color:#77351D;stop-color:color(display-p3 0.4667 0.2078 0.1137);stop-opacity:1;"/>
<stop offset="1" stop-color="#3F1417" style="stop-color:#3F1417;stop-color:color(display-p3 0.2471 0.0784 0.0902);stop-opacity:1;"/>
</radialGradient>
<radialGradient id="paint25_radial_1497_31530" cx="0" cy="0" r="1" gradientUnits="userSpaceOnUse" gradientTransform="translate(35.4559 31.2656) scale(0.751692 0.751695)">
<stop stop-color="#77351D" style="stop-color:#77351D;stop-color:color(display-p3 0.4667 0.2078 0.1137);stop-opacity:1;"/>
<stop offset="0.526876" stop-color="#77351D" style="stop-color:#77351D;stop-color:color(display-p3 0.4667 0.2078 0.1137);stop-opacity:1;"/>
<stop offset="1" stop-color="#3F1417" style="stop-color:#3F1417;stop-color:color(display-p3 0.2471 0.0784 0.0902);stop-opacity:1;"/>
</radialGradient>
<radialGradient id="paint26_radial_1497_31530" cx="0" cy="0" r="1" gradientUnits="userSpaceOnUse" gradientTransform="translate(36.2075 30.2262) scale(0.678045 0.678047)">
<stop stop-color="#77351D" style="stop-color:#77351D;stop-color:color(display-p3 0.4667 0.2078 0.1137);stop-opacity:1;"/>
<stop offset="0.526876" stop-color="#77351D" style="stop-color:#77351D;stop-color:color(display-p3 0.4667 0.2078 0.1137);stop-opacity:1;"/>
<stop offset="1" stop-color="#3F1417" style="stop-color:#3F1417;stop-color:color(display-p3 0.2471 0.0784 0.0902);stop-opacity:1;"/>
</radialGradient>
<radialGradient id="paint27_radial_1497_31530" cx="0" cy="0" r="1" gradientUnits="userSpaceOnUse" gradientTransform="translate(36.7908 29.1213) scale(0.55301 0.553013)">
<stop stop-color="#77351D" style="stop-color:#77351D;stop-color:color(display-p3 0.4667 0.2078 0.1137);stop-opacity:1;"/>
<stop offset="0.526876" stop-color="#77351D" style="stop-color:#77351D;stop-color:color(display-p3 0.4667 0.2078 0.1137);stop-opacity:1;"/>
<stop offset="1" stop-color="#3F1417" style="stop-color:#3F1417;stop-color:color(display-p3 0.2471 0.0784 0.0902);stop-opacity:1;"/>
</radialGradient>
<radialGradient id="paint28_radial_1497_31530" cx="0" cy="0" r="1" gradientUnits="userSpaceOnUse" gradientTransform="translate(37.2345 28.0419) scale(0.575221)">
<stop stop-color="#77351D" style="stop-color:#77351D;stop-color:color(display-p3 0.4667 0.2078 0.1137);stop-opacity:1;"/>
<stop offset="0.526876" stop-color="#77351D" style="stop-color:#77351D;stop-color:color(display-p3 0.4667 0.2078 0.1137);stop-opacity:1;"/>
<stop offset="1" stop-color="#3F1417" style="stop-color:#3F1417;stop-color:color(display-p3 0.2471 0.0784 0.0902);stop-opacity:1;"/>
</radialGradient>
<radialGradient id="paint29_radial_1497_31530" cx="0" cy="0" r="1" gradientUnits="userSpaceOnUse" gradientTransform="translate(5.7195 21.9999) scale(1.67591)">
<stop stop-color="#77351D" style="stop-color:#77351D;stop-color:color(display-p3 0.4667 0.2078 0.1137);stop-opacity:1;"/>
<stop offset="0.526876" stop-color="#77351D" style="stop-color:#77351D;stop-color:color(display-p3 0.4667 0.2078 0.1137);stop-opacity:1;"/>
<stop offset="1" stop-color="#3F1417" style="stop-color:#3F1417;stop-color:color(display-p3 0.2471 0.0784 0.0902);stop-opacity:1;"/>
</radialGradient>
<radialGradient id="paint30_radial_1497_31530" cx="0" cy="0" r="1" gradientUnits="userSpaceOnUse" gradientTransform="translate(38.4831 22.0001) scale(1.67591)">
<stop stop-color="#77351D" style="stop-color:#77351D;stop-color:color(display-p3 0.4667 0.2078 0.1137);stop-opacity:1;"/>
<stop offset="0.526876" stop-color="#77351D" style="stop-color:#77351D;stop-color:color(display-p3 0.4667 0.2078 0.1137);stop-opacity:1;"/>
<stop offset="1" stop-color="#3F1417" style="stop-color:#3F1417;stop-color:color(display-p3 0.2471 0.0784 0.0902);stop-opacity:1;"/>
</radialGradient>
<radialGradient id="paint31_radial_1497_31530" cx="0" cy="0" r="1" gradientUnits="userSpaceOnUse" gradientTransform="translate(8.19565 13.2262) scale(2.35987 2.35988)">
<stop stop-color="#77351D" style="stop-color:#77351D;stop-color:color(display-p3 0.4667 0.2078 0.1137);stop-opacity:1;"/>
<stop offset="0.526876" stop-color="#77351D" style="stop-color:#77351D;stop-color:color(display-p3 0.4667 0.2078 0.1137);stop-opacity:1;"/>
<stop offset="1" stop-color="#3F1417" style="stop-color:#3F1417;stop-color:color(display-p3 0.2471 0.0784 0.0902);stop-opacity:1;"/>
</radialGradient>
<radialGradient id="paint32_radial_1497_31530" cx="0" cy="0" r="1" gradientUnits="userSpaceOnUse" gradientTransform="translate(11.4182 9.51454) scale(2.83544 2.83544)">
<stop stop-color="#77351D" style="stop-color:#77351D;stop-color:color(display-p3 0.4667 0.2078 0.1137);stop-opacity:1;"/>
<stop offset="0.526876" stop-color="#77351D" style="stop-color:#77351D;stop-color:color(display-p3 0.4667 0.2078 0.1137);stop-opacity:1;"/>
<stop offset="1" stop-color="#3F1417" style="stop-color:#3F1417;stop-color:color(display-p3 0.2471 0.0784 0.0902);stop-opacity:1;"/>
</radialGradient>
<radialGradient id="paint33_radial_1497_31530" cx="0" cy="0" r="1" gradientUnits="userSpaceOnUse" gradientTransform="translate(15.1542 7.13755) scale(2.67816 2.67816)">
<stop stop-color="#77351D" style="stop-color:#77351D;stop-color:color(display-p3 0.4667 0.2078 0.1137);stop-opacity:1;"/>
<stop offset="0.526876" stop-color="#77351D" style="stop-color:#77351D;stop-color:color(display-p3 0.4667 0.2078 0.1137);stop-opacity:1;"/>
<stop offset="1" stop-color="#3F1417" style="stop-color:#3F1417;stop-color:color(display-p3 0.2471 0.0784 0.0902);stop-opacity:1;"/>
</radialGradient>
<radialGradient id="paint34_radial_1497_31530" cx="0" cy="0" r="1" gradientUnits="userSpaceOnUse" gradientTransform="translate(19.7443 5.78764) scale(2.48057 2.48058)">
<stop stop-color="#77351D" style="stop-color:#77351D;stop-color:color(display-p3 0.4667 0.2078 0.1137);stop-opacity:1;"/>
<stop offset="0.526876" stop-color="#77351D" style="stop-color:#77351D;stop-color:color(display-p3 0.4667 0.2078 0.1137);stop-opacity:1;"/>
<stop offset="1" stop-color="#3F1417" style="stop-color:#3F1417;stop-color:color(display-p3 0.2471 0.0784 0.0902);stop-opacity:1;"/>
</radialGradient>
<radialGradient id="paint35_radial_1497_31530" cx="0" cy="0" r="1" gradientUnits="userSpaceOnUse" gradientTransform="translate(24.5677 5.84695) scale(2.27324 2.27323)">
<stop stop-color="#77351D" style="stop-color:#77351D;stop-color:color(display-p3 0.4667 0.2078 0.1137);stop-opacity:1;"/>
<stop offset="0.526876" stop-color="#77351D" style="stop-color:#77351D;stop-color:color(display-p3 0.4667 0.2078 0.1137);stop-opacity:1;"/>
<stop offset="1" stop-color="#3F1417" style="stop-color:#3F1417;stop-color:color(display-p3 0.2471 0.0784 0.0902);stop-opacity:1;"/>
</radialGradient>
<radialGradient id="paint36_radial_1497_31530" cx="0" cy="0" r="1" gradientUnits="userSpaceOnUse" gradientTransform="translate(29.649 7.5285) scale(2.39094 2.39094)">
<stop stop-color="#77351D" style="stop-color:#77351D;stop-color:color(display-p3 0.4667 0.2078 0.1137);stop-opacity:1;"/>
<stop offset="0.526876" stop-color="#77351D" style="stop-color:#77351D;stop-color:color(display-p3 0.4667 0.2078 0.1137);stop-opacity:1;"/>
<stop offset="1" stop-color="#3F1417" style="stop-color:#3F1417;stop-color:color(display-p3 0.2471 0.0784 0.0902);stop-opacity:1;"/>
</radialGradient>
<radialGradient id="paint37_radial_1497_31530" cx="0" cy="0" r="1" gradientUnits="userSpaceOnUse" gradientTransform="translate(32.8404 9.7367) scale(2.03288 2.03287)">
<stop stop-color="#77351D" style="stop-color:#77351D;stop-color:color(display-p3 0.4667 0.2078 0.1137);stop-opacity:1;"/>
<stop offset="0.526876" stop-color="#77351D" style="stop-color:#77351D;stop-color:color(display-p3 0.4667 0.2078 0.1137);stop-opacity:1;"/>
<stop offset="1" stop-color="#3F1417" style="stop-color:#3F1417;stop-color:color(display-p3 0.2471 0.0784 0.0902);stop-opacity:1;"/>
</radialGradient>
<radialGradient id="paint38_radial_1497_31530" cx="0" cy="0" r="1" gradientUnits="userSpaceOnUse" gradientTransform="translate(35.4231 12.6389) scale(3.05818 3.05818)">
<stop stop-color="#77351D" style="stop-color:#77351D;stop-color:color(display-p3 0.4667 0.2078 0.1137);stop-opacity:1;"/>
<stop offset="0.526876" stop-color="#77351D" style="stop-color:#77351D;stop-color:color(display-p3 0.4667 0.2078 0.1137);stop-opacity:1;"/>
<stop offset="1" stop-color="#3F1417" style="stop-color:#3F1417;stop-color:color(display-p3 0.2471 0.0784 0.0902);stop-opacity:1;"/>
</radialGradient>
<linearGradient id="paint39_linear_1497_31530" x1="28.4945" y1="9.42115" x2="8.46871" y2="27.6759" gradientUnits="userSpaceOnUse">
<stop stop-color="#FAF778" style="stop-color:#FAF778;stop-color:color(display-p3 0.9804 0.9686 0.4706);stop-opacity:1;"/>
<stop offset="0.12058" stop-color="#FAF778" style="stop-color:#FAF778;stop-color:color(display-p3 0.9804 0.9686 0.4706);stop-opacity:1;"/>
<stop offset="0.363181" stop-color="#CDAD29" style="stop-color:#CDAD29;stop-color:color(display-p3 0.8039 0.6784 0.1608);stop-opacity:1;"/>
<stop offset="0.723895" stop-color="#C48E0A" style="stop-color:#C48E0A;stop-color:color(display-p3 0.7686 0.5569 0.0392);stop-opacity:1;"/>
<stop offset="0.986867" stop-color="#C48E0A" style="stop-color:#C48E0A;stop-color:color(display-p3 0.7686 0.5569 0.0392);stop-opacity:1;"/>
<stop offset="1" stop-color="#C48E0A" style="stop-color:#C48E0A;stop-color:color(display-p3 0.7686 0.5569 0.0392);stop-opacity:1;"/>
</linearGradient>
<linearGradient id="paint40_linear_1497_31530" x1="34.9167" y1="16.466" x2="14.8908" y2="34.7208" gradientUnits="userSpaceOnUse">
<stop stop-color="#FAF778" style="stop-color:#FAF778;stop-color:color(display-p3 0.9804 0.9686 0.4706);stop-opacity:1;"/>
<stop offset="0.12058" stop-color="#FAF778" style="stop-color:#FAF778;stop-color:color(display-p3 0.9804 0.9686 0.4706);stop-opacity:1;"/>
<stop offset="0.363181" stop-color="#CDAD29" style="stop-color:#CDAD29;stop-color:color(display-p3 0.8039 0.6784 0.1608);stop-opacity:1;"/>
<stop offset="0.723895" stop-color="#C48E0A" style="stop-color:#C48E0A;stop-color:color(display-p3 0.7686 0.5569 0.0392);stop-opacity:1;"/>
<stop offset="0.986867" stop-color="#C48E0A" style="stop-color:#C48E0A;stop-color:color(display-p3 0.7686 0.5569 0.0392);stop-opacity:1;"/>
<stop offset="1" stop-color="#C48E0A" style="stop-color:#C48E0A;stop-color:color(display-p3 0.7686 0.5569 0.0392);stop-opacity:1;"/>
</linearGradient>
<linearGradient id="paint41_linear_1497_31530" x1="31.6949" y1="12.9325" x2="11.6691" y2="31.1873" gradientUnits="userSpaceOnUse">
<stop stop-color="#FAF778" style="stop-color:#FAF778;stop-color:color(display-p3 0.9804 0.9686 0.4706);stop-opacity:1;"/>
<stop offset="0.12058" stop-color="#FAF778" style="stop-color:#FAF778;stop-color:color(display-p3 0.9804 0.9686 0.4706);stop-opacity:1;"/>
<stop offset="0.363181" stop-color="#CDAD29" style="stop-color:#CDAD29;stop-color:color(display-p3 0.8039 0.6784 0.1608);stop-opacity:1;"/>
<stop offset="0.723895" stop-color="#C48E0A" style="stop-color:#C48E0A;stop-color:color(display-p3 0.7686 0.5569 0.0392);stop-opacity:1;"/>
<stop offset="0.986867" stop-color="#C48E0A" style="stop-color:#C48E0A;stop-color:color(display-p3 0.7686 0.5569 0.0392);stop-opacity:1;"/>
<stop offset="1" stop-color="#C48E0A" style="stop-color:#C48E0A;stop-color:color(display-p3 0.7686 0.5569 0.0392);stop-opacity:1;"/>
</linearGradient>
</defs>
</svg>
