<svg width="44" height="44" viewBox="0 0 44 44" fill="none" xmlns="http://www.w3.org/2000/svg">
<path d="M0 21.9999C0 34.1503 9.84989 44.0002 22.0001 44.0002C34.1503 44.0002 44 34.1503 44 21.9999C44 9.8499 34.1503 1.90735e-05 22.0001 1.90735e-05C9.84989 1.90735e-05 0 9.8499 0 21.9999Z" fill="url(#paint0_linear_1497_31741)" style=""/>
<path d="M1.07849 22.0003C1.07849 33.555 10.4456 42.9216 21.9998 42.9216C33.5541 42.9216 42.9207 33.555 42.9207 22.0003C42.9207 10.446 33.5541 1.07941 21.9998 1.07941C10.4456 1.07941 1.07849 10.446 1.07849 22.0003Z" fill="url(#paint1_radial_1497_31741)" style=""/>
<path d="M9.31348 22.0012C9.31348 25.6916 10.8786 29.0142 13.3759 31.3479H30.8271C33.3281 29.0142 34.8934 25.6916 34.8934 22.0012C34.8934 14.935 29.1676 9.20894 22.1016 9.20894C15.0393 9.20894 9.31348 14.935 9.31348 22.0012Z" fill="url(#paint2_linear_1497_31741)" style=""/>
<path d="M1.6521 22.0017C1.6521 33.2236 10.7818 42.3535 22.0037 42.3535C33.2256 42.3535 42.355 33.2236 42.355 22.0017C42.355 10.78 33.2256 1.65033 22.0037 1.65033C10.7818 1.65033 1.6521 10.78 1.6521 22.0017ZM2.06075 22.0017C2.06075 11.0053 11.0071 2.05922 22.0037 2.05922C32.9998 2.05922 41.9466 11.0053 41.9466 22.0017C41.9466 32.998 32.9998 41.9449 22.0037 41.9449C11.0071 41.9449 2.06075 32.998 2.06075 22.0017Z" fill="url(#paint3_linear_1497_31741)" style=""/>
<path d="M20.2344 32.7086L19.5789 37.1127H20.5155L20.3816 38.0209H21.3229L20.2865 38.6636L20.1183 39.8064H23.8536L24.4688 35.6448H23.5321L23.9702 32.7086H20.2344ZM20.4358 34.7224C20.4754 34.4489 20.6222 34.2009 20.8285 34.0203C21.0348 33.84 21.2983 33.7297 21.5697 33.7276H21.5721H21.5742C21.5955 33.7276 21.6168 33.7276 21.6379 33.7297L21.5616 34.2517C21.5401 34.2473 21.519 34.2452 21.4956 34.2452C21.2348 34.2473 20.9914 34.4596 20.9513 34.7224C20.9131 34.9834 21.0939 35.1978 21.3549 35.1978C21.5357 35.1978 21.7067 35.0938 21.808 34.9436H21.4594L21.5229 34.5159H22.423L22.4253 34.5848C22.4267 34.6293 22.4218 34.6759 22.4151 34.7224C22.3752 34.9962 22.2262 35.2444 22.0199 35.4248C21.8138 35.6051 21.5503 35.7155 21.2786 35.7178H21.2765H21.2744C20.7311 35.7155 20.3538 35.2699 20.4358 34.7224Z" fill="url(#paint4_linear_1497_31741)" style=""/>
<path d="M6.44167 26.5146L6.51098 26.7328C6.54251 26.7279 6.57194 26.733 6.59998 26.7476C6.6278 26.7629 6.64983 26.7944 6.66559 26.8435C6.67903 26.8867 6.67787 26.9221 6.66188 26.9499C6.64589 26.9775 6.62201 26.9972 6.58909 27.0072C6.55919 27.0167 6.52906 27.0183 6.49777 27.0121C6.46671 27.0056 6.43635 26.9954 6.40761 26.9805C6.3784 26.9662 6.32508 26.9351 6.24627 26.8887C6.19133 26.8551 6.13757 26.8215 6.08518 26.7879C6.03233 26.7545 5.97995 26.7207 5.92825 26.6864L5.73633 26.7476L5.96186 27.4539L6.17325 27.3859L6.05621 27.0188C6.10071 27.0492 6.148 27.0807 6.1969 27.1138C6.24604 27.147 6.29611 27.1757 6.3478 27.2003C6.3988 27.2253 6.45303 27.2422 6.50982 27.251C6.56638 27.2603 6.62316 27.2554 6.67972 27.2376C6.73234 27.2207 6.77546 27.1963 6.80907 27.1653C6.84268 27.1335 6.86748 27.0981 6.8837 27.0582C6.89993 27.0181 6.90805 26.9741 6.90758 26.927C6.90758 26.8804 6.89993 26.8331 6.88464 26.7865C6.86841 26.7353 6.84686 26.6894 6.81927 26.6491C6.79146 26.609 6.75878 26.5761 6.72146 26.551C6.68391 26.526 6.64148 26.5098 6.59396 26.5028C6.57866 26.5005 6.5629 26.4993 6.5469 26.4993C6.51329 26.4993 6.47806 26.5044 6.44167 26.5146Z" fill="url(#paint5_linear_1497_31741)" style=""/>
<path d="M6.77027 27.4673C6.66991 27.4979 6.57 27.5288 6.47056 27.5596L6.54797 27.7601C6.5737 27.7747 6.59549 27.793 6.61473 27.8139C6.63305 27.8345 6.64835 27.8602 6.65994 27.8899C6.66921 27.9135 6.67292 27.9353 6.67199 27.9562C6.67037 27.9766 6.66595 27.9954 6.65784 28.0125C6.64973 28.0297 6.63884 28.0445 6.62516 28.0568C6.61079 28.0695 6.59526 28.0788 6.57857 28.0855C6.53917 28.1006 6.50231 28.1015 6.46754 28.0879C6.43277 28.0744 6.40566 28.0417 6.38573 27.9898C6.37321 27.9515 6.37227 27.9159 6.38317 27.8843C6.39406 27.8523 6.41307 27.8278 6.44111 27.8095L6.35419 27.5853C6.2471 27.6405 6.18058 27.71 6.15532 27.7935C6.12959 27.8769 6.13677 27.9706 6.17733 28.0753C6.1975 28.1291 6.22485 28.1757 6.25823 28.2156C6.29161 28.2554 6.33032 28.2863 6.37321 28.3083C6.41678 28.3298 6.4643 28.3419 6.51553 28.3442C6.56653 28.3463 6.62052 28.3366 6.67662 28.315C6.72529 28.2962 6.76702 28.2714 6.80155 28.242C6.83609 28.213 6.86229 28.1789 6.8799 28.14C6.89729 28.1015 6.90633 28.0589 6.90586 28.0125C6.90586 27.9659 6.8959 27.917 6.87573 27.8651C6.86437 27.8357 6.84978 27.8078 6.8324 27.7803C6.81455 27.7536 6.79229 27.7276 6.76494 27.7035C6.79322 27.6959 6.82196 27.688 6.85117 27.6792C6.88014 27.6709 6.90865 27.6623 6.93647 27.6537L7.11009 28.102L7.31615 28.0225L7.06511 27.3735C6.96845 27.4059 6.86994 27.4367 6.77027 27.4673Z" fill="url(#paint6_linear_1497_31741)" style=""/>
<path d="M7.14346 28.3898C7.07392 28.402 7.00113 28.4257 6.92394 28.4616C6.84652 28.4975 6.7807 28.5379 6.72669 28.5821C6.67269 28.6266 6.63189 28.6749 6.6043 28.7268C6.57695 28.7782 6.56281 28.8339 6.5635 28.8939C6.5635 28.9537 6.57835 29.0168 6.60894 29.0826C6.63908 29.1486 6.67685 29.2008 6.72228 29.2386C6.76841 29.2771 6.81987 29.3028 6.87735 29.3158C6.93484 29.3281 6.99788 29.3285 7.06696 29.316C7.13557 29.3033 7.2086 29.2796 7.28625 29.2435C7.36343 29.208 7.42856 29.1677 7.48233 29.1229C7.53565 29.0784 7.57645 29.03 7.6045 28.9774C7.63278 28.9247 7.64692 28.8691 7.64715 28.8102C7.64762 28.7511 7.63278 28.6892 7.60311 28.6253C7.57321 28.5604 7.53566 28.5087 7.48976 28.4697C7.4441 28.431 7.39217 28.4051 7.33422 28.3918C7.30362 28.3849 7.27164 28.3814 7.23803 28.3814C7.2079 28.3814 7.17637 28.3842 7.14346 28.3898ZM6.87365 29.0608C6.84722 29.0455 6.82706 29.0219 6.81199 28.9889C6.79576 28.9549 6.79089 28.9231 6.79715 28.8941C6.80248 28.8649 6.81593 28.8373 6.83632 28.8116C6.85649 28.7861 6.88339 28.7623 6.91677 28.7412C6.95038 28.7194 6.98676 28.6997 7.0257 28.6814C7.06534 28.6633 7.10382 28.6484 7.1416 28.6375C7.17938 28.6269 7.21461 28.6222 7.24753 28.6229C7.27998 28.6236 7.30919 28.632 7.33538 28.6473C7.36088 28.6623 7.38174 28.6874 7.39773 28.7208C7.41257 28.7539 7.41768 28.7845 7.41235 28.8132C7.40632 28.842 7.39287 28.8691 7.3727 28.8946C7.35161 28.9208 7.32495 28.9442 7.29181 28.9658C7.25889 28.9873 7.22342 29.0066 7.18471 29.0244C7.14438 29.0432 7.10568 29.0576 7.06767 29.0682C7.02988 29.0796 6.99488 29.0842 6.9615 29.0842C6.92882 29.084 6.89937 29.0763 6.87365 29.0608Z" fill="url(#paint7_linear_1497_31741)" style=""/>
<path d="M7.19519 30.2167L7.31919 30.4292L8.04935 30.0023L8.30711 30.4436L8.50182 30.33L8.11913 29.6761L7.19519 30.2167Z" fill="url(#paint8_linear_1497_31741)" style=""/>
<path d="M7.72363 31.099L7.83421 31.2615L8.64063 31.3148L8.11445 31.673L8.25283 31.8765L9.13828 31.2738L9.02748 31.112L8.21365 31.0636L8.74724 30.7003L8.60909 30.4968L7.72363 31.099Z" fill="url(#paint9_linear_1497_31741)" style=""/>
<path d="M8.46924 32.1715L8.62199 32.3648L8.95138 32.1033L9.04155 32.2174L8.87025 32.6773L9.04919 32.9023L9.26987 32.2811L9.8869 32.2355L9.71074 32.0143L9.20821 32.0672L9.12661 31.9645L9.46063 31.6991L9.30742 31.5062L8.46924 32.1715Z" fill="url(#paint10_linear_1497_31741)" style=""/>
<path d="M9.21472 33.0884L9.38138 33.2704L9.69153 32.9864L9.7891 33.0942L9.6505 33.565L9.84428 33.7769L10.0216 33.1422L10.6331 33.0541L10.443 32.8453L9.94557 32.9331L9.85678 32.8355L10.1716 32.5483L10.0051 32.3664L9.21472 33.0884Z" fill="url(#paint11_linear_1497_31741)" style=""/>
<path d="M10.6942 33.309C10.6269 33.3115 10.5609 33.3289 10.4964 33.3595C10.4315 33.3903 10.371 33.4353 10.3145 33.4944C10.2593 33.5531 10.2173 33.615 10.1891 33.6808C10.1608 33.7464 10.1466 33.8129 10.1471 33.8801C10.1476 33.9471 10.1622 34.0125 10.1916 34.0776C10.2208 34.1423 10.2665 34.2037 10.327 34.261C10.3861 34.3189 10.4496 34.3606 10.5164 34.3868C10.5829 34.4126 10.6503 34.4239 10.7187 34.4209C10.7864 34.4172 10.8532 34.3998 10.9176 34.3681C10.983 34.3365 11.0425 34.2916 11.0982 34.2329C11.1545 34.1738 11.1967 34.111 11.2238 34.0456C11.2518 33.9803 11.2651 33.9135 11.2637 33.8465C11.2632 33.78 11.2474 33.7144 11.2173 33.6502C11.1867 33.5862 11.142 33.5257 11.0829 33.4699C11.0238 33.4135 10.9609 33.3718 10.8944 33.3447C10.8344 33.3206 10.7739 33.3085 10.7129 33.3085C10.7067 33.3085 10.7004 33.3085 10.6942 33.309ZM10.5975 34.1673C10.5588 34.1564 10.5228 34.1342 10.4874 34.101C10.4517 34.0656 10.4269 34.0287 10.4127 33.9907C10.3993 33.9522 10.3935 33.9142 10.3972 33.8764C10.4005 33.8386 10.4114 33.8018 10.429 33.7659C10.4473 33.7304 10.4705 33.6975 10.4992 33.6678C10.5268 33.6386 10.5579 33.6138 10.5924 33.5939C10.6274 33.5739 10.6633 33.5612 10.7004 33.5559C10.7382 33.5503 10.7762 33.5531 10.8149 33.5656C10.8536 33.5769 10.8909 33.5997 10.9264 33.6342C10.963 33.6687 10.9881 33.7056 11.0006 33.7438C11.0136 33.7825 11.018 33.8203 11.0138 33.8588C11.0101 33.8968 10.9985 33.9328 10.9797 33.9682C10.9612 34.003 10.938 34.035 10.9109 34.0632C10.884 34.0918 10.8532 34.1163 10.8188 34.1363C10.7845 34.1564 10.7484 34.1699 10.7106 34.1752C10.6972 34.1775 10.6839 34.1785 10.6705 34.1785C10.6462 34.1785 10.6218 34.175 10.5975 34.1673Z" fill="url(#paint12_linear_1497_31741)" style=""/>
<path d="M11.9135 34.0702C11.9291 34.137 11.9706 34.1975 12.0371 34.2517C12.1029 34.3055 12.1699 34.3331 12.2388 34.3347C12.3071 34.3366 12.3727 34.3059 12.4349 34.242L12.2791 34.115C12.2582 34.1358 12.2355 34.146 12.2123 34.1467C12.1887 34.1467 12.166 34.1381 12.1439 34.12C12.1226 34.1031 12.1096 34.0827 12.1048 34.0596C12.0999 34.0357 12.1052 34.0113 12.1205 33.9861L11.9657 33.8604C11.9149 33.9335 11.8975 34.0035 11.9135 34.0702ZM10.9528 34.8224L11.106 34.9462L11.8931 34.7665L11.4914 35.2605L11.6829 35.416L12.3586 34.5853L12.2058 34.461L11.4124 34.6481L11.8199 34.1472L11.6284 33.9916L10.9528 34.8224Z" fill="url(#paint13_linear_1497_31741)" style=""/>
<path d="M11.9712 35.631L12.1738 35.7717L12.4116 35.4287L12.757 35.6686L12.5189 36.0116L12.7213 36.1519L13.3321 35.2729L13.1297 35.1317L12.884 35.4859L12.5384 35.246L12.7846 34.8918L12.5822 34.7516L11.9712 35.631Z" fill="url(#paint14_linear_1497_31741)" style=""/>
<path d="M13.5773 35.5909C13.5126 35.6095 13.4521 35.6407 13.3963 35.6857C13.3397 35.7302 13.291 35.7879 13.25 35.8584C13.2094 35.9284 13.1826 35.9982 13.1698 36.068C13.1573 36.1387 13.1587 36.2063 13.1742 36.2719C13.1897 36.3366 13.2194 36.3978 13.2623 36.4544C13.3063 36.5107 13.3638 36.5598 13.4359 36.6025C13.5071 36.6447 13.5782 36.6713 13.6494 36.6815C13.7201 36.6919 13.7885 36.6875 13.8541 36.6683C13.9192 36.6495 13.9799 36.6175 14.036 36.5716C14.0919 36.5262 14.1401 36.4687 14.1814 36.3987C14.2222 36.329 14.2491 36.2582 14.2609 36.188C14.2729 36.118 14.2706 36.0503 14.2546 35.9857C14.2381 35.9203 14.208 35.86 14.164 35.8049C14.1202 35.7492 14.0631 35.7003 13.9924 35.6593C13.9222 35.6178 13.8515 35.5918 13.7808 35.5805C13.7539 35.5765 13.7275 35.5745 13.7013 35.5745C13.6589 35.5745 13.6176 35.5798 13.5773 35.5909ZM13.6777 36.4495C13.6385 36.4476 13.5977 36.434 13.5562 36.4096C13.5129 36.3834 13.4806 36.3528 13.4584 36.319C13.4359 36.2851 13.4225 36.2492 13.4167 36.2117C13.4116 36.1741 13.4137 36.1359 13.4229 36.0967C13.4324 36.0575 13.4475 36.0204 13.4686 35.985C13.489 35.9497 13.514 35.9191 13.5435 35.892C13.5727 35.8647 13.6049 35.844 13.6399 35.8301C13.6747 35.8165 13.7124 35.8107 13.753 35.8134C13.7938 35.816 13.8351 35.8297 13.8779 35.8554C13.9213 35.8804 13.9537 35.9103 13.9748 35.9451C13.9962 35.9799 14.0089 36.0158 14.0135 36.0536C14.0182 36.0918 14.0154 36.1298 14.005 36.1681C13.9952 36.2063 13.9799 36.2423 13.96 36.2768C13.9401 36.3106 13.9157 36.341 13.887 36.3686C13.858 36.3959 13.826 36.4166 13.7905 36.4314C13.7602 36.4439 13.7277 36.4499 13.6937 36.4499C13.6883 36.4499 13.683 36.4497 13.6777 36.4495Z" fill="url(#paint15_linear_1497_31741)" style=""/>
<path d="M14.1711 37.0012L14.5578 37.1913C14.6048 37.2142 14.6542 37.2334 14.7066 37.2483C14.7587 37.2633 14.8093 37.2689 14.8586 37.2666C14.9076 37.2638 14.9539 37.249 14.9975 37.2235C15.0411 37.1975 15.0777 37.1553 15.1069 37.0953C15.134 37.0404 15.1451 36.9873 15.141 36.9361C15.1359 36.8851 15.1148 36.8387 15.0765 36.7972C15.121 36.7933 15.1595 36.7789 15.1915 36.7532C15.2235 36.7281 15.2494 36.6954 15.2689 36.656C15.2914 36.6099 15.3028 36.567 15.3016 36.5272C15.3011 36.4875 15.2921 36.4516 15.2745 36.4184C15.2569 36.386 15.2321 36.3566 15.2005 36.3299C15.169 36.3039 15.134 36.2812 15.0953 36.2625L14.6431 36.0402L14.1711 37.0012ZM14.8329 36.6069L14.6769 36.5299L14.7655 36.3494L14.9421 36.4363C14.959 36.4446 14.9752 36.4542 14.9903 36.4632C15.0051 36.4732 15.0174 36.4836 15.0265 36.4959C15.0357 36.5075 15.0418 36.5211 15.0436 36.5362C15.0457 36.5508 15.0427 36.5677 15.0339 36.586C15.0158 36.622 14.9891 36.6401 14.9539 36.6401C14.9535 36.6401 14.9528 36.6401 14.9521 36.6401C14.9171 36.6401 14.8772 36.6282 14.8329 36.6069ZM14.7954 37.0369C14.7754 37.036 14.7539 37.0311 14.7305 37.0237C14.707 37.0153 14.6825 37.0049 14.6572 36.9926L14.4901 36.9101L14.5867 36.7133L14.778 36.8076C14.7991 36.8176 14.8188 36.8287 14.8364 36.8396C14.8549 36.8507 14.8695 36.8626 14.8809 36.8767C14.892 36.8897 14.8992 36.9048 14.9015 36.921C14.9045 36.9377 14.9011 36.9555 14.8909 36.9757C14.8797 36.9984 14.8663 37.0142 14.8496 37.0239C14.8345 37.0322 14.8183 37.0369 14.8 37.0369C14.7986 37.0369 14.797 37.0369 14.7954 37.0369Z" fill="url(#paint16_linear_1497_31741)" style=""/>
<path d="M28.0391 36.7077C27.9919 36.7114 27.9457 36.7221 27.9003 36.7408C27.8505 36.7603 27.8066 36.7856 27.7682 36.8159C27.7299 36.8465 27.7 36.8813 27.6775 36.9207C27.6553 36.9603 27.6421 37.0035 27.6386 37.0512C27.6349 37.0987 27.6425 37.1495 27.6618 37.2026L27.8736 37.1175C27.8665 37.0869 27.8695 37.057 27.8825 37.0278C27.8957 36.9986 27.9253 36.9747 27.9728 36.9555C28.0153 36.9388 28.051 36.9374 28.0795 36.9511C28.1084 36.9652 28.1293 36.9879 28.1425 37.0199C28.1539 37.0489 28.1578 37.0793 28.1534 37.1108C28.1495 37.1423 28.1409 37.1731 28.1284 37.2028C28.1163 37.2329 28.0892 37.2888 28.048 37.3702C28.0185 37.4276 27.9888 37.4835 27.9599 37.5387C27.9297 37.5929 27.8998 37.6481 27.8695 37.7023L27.9448 37.8889L28.6323 37.6135L28.5498 37.4072L28.1917 37.5507C28.2186 37.5039 28.2466 37.4548 28.2763 37.4038C28.3057 37.3523 28.331 37.2999 28.3523 37.2469C28.3734 37.1938 28.3861 37.1391 28.3912 37.0811C28.3961 37.0243 28.3868 36.968 28.365 36.9128C28.3442 36.8614 28.3173 36.8204 28.2837 36.7893C28.2498 36.758 28.2125 36.7355 28.1713 36.7225C28.1388 36.7116 28.1045 36.7065 28.0686 36.7065C28.0588 36.7065 28.0491 36.7068 28.0391 36.7077Z" fill="url(#paint17_linear_1497_31741)" style=""/>
<path d="M28.4691 36.5144C28.5081 36.6085 28.5461 36.7047 28.5839 36.8023C28.6219 36.8994 28.6594 36.9968 28.697 37.0939L28.8917 37.0021C28.9044 36.9757 28.9211 36.9527 28.9404 36.9321C28.9598 36.9124 28.9844 36.895 29.0131 36.8813C29.0361 36.8704 29.0576 36.8649 29.0785 36.8649C29.0989 36.8644 29.1177 36.8679 29.1355 36.8744C29.1531 36.8813 29.1687 36.8911 29.1821 36.9043C29.1958 36.9175 29.2062 36.9321 29.2141 36.9486C29.2322 36.9868 29.2359 37.0237 29.2245 37.0591C29.2134 37.0946 29.1826 37.124 29.1323 37.1474C29.0952 37.163 29.0602 37.1664 29.0277 37.1576C28.9951 37.1493 28.9689 37.1319 28.9482 37.1055L28.7313 37.2079C28.7943 37.3111 28.8685 37.3725 28.9531 37.3915C29.0386 37.4112 29.1316 37.3971 29.2324 37.3498C29.2846 37.325 29.3295 37.2946 29.3671 37.2582C29.4044 37.2223 29.4325 37.1817 29.4508 37.137C29.4695 37.0923 29.4779 37.0441 29.4765 36.9928C29.4751 36.9418 29.4617 36.8888 29.4362 36.8341C29.4137 36.7865 29.3861 36.7471 29.3543 36.7145C29.3228 36.682 29.2867 36.6588 29.2468 36.644C29.2069 36.6294 29.1638 36.6236 29.1177 36.6273C29.0711 36.6305 29.0233 36.6444 28.973 36.6681C28.9443 36.6813 28.9174 36.6978 28.8914 36.717C28.8662 36.7367 28.8416 36.7608 28.8198 36.79C28.8103 36.7627 28.8001 36.7342 28.7895 36.7061C28.779 36.6774 28.7679 36.6495 28.7575 36.6227L29.1923 36.4171L29.098 36.2175L28.4691 36.5144Z" fill="url(#paint18_linear_1497_31741)" style=""/>
<path d="M29.8609 35.8348C29.8017 35.8388 29.7415 35.858 29.68 35.8918C29.617 35.9266 29.5683 35.9681 29.5324 36.0165C29.4972 36.065 29.4754 36.1188 29.4663 36.1774C29.4573 36.2356 29.4615 36.2993 29.4782 36.3675C29.4953 36.4356 29.5245 36.507 29.5653 36.5812C29.6068 36.6563 29.652 36.7189 29.7002 36.7692C29.748 36.8199 29.799 36.8575 29.8525 36.8809C29.9061 36.905 29.9631 36.9148 30.0229 36.9103C30.0824 36.9059 30.1439 36.8862 30.2079 36.851C30.2711 36.8162 30.3205 36.7743 30.3555 36.7261C30.39 36.6781 30.4123 36.6245 30.4209 36.5664C30.4297 36.5077 30.4248 36.4449 30.4079 36.3772C30.39 36.3098 30.3611 36.2386 30.3193 36.1633C30.2781 36.0896 30.2336 36.0272 30.1851 35.9769C30.1369 35.9266 30.085 35.8895 30.0305 35.8654C29.9842 35.8446 29.9355 35.8339 29.8852 35.8339C29.8771 35.8339 29.869 35.8341 29.8609 35.8348ZM30.0062 36.6769C29.9763 36.673 29.9475 36.6621 29.9209 36.6433C29.8935 36.6255 29.868 36.6 29.8446 36.5684C29.8205 36.5365 29.7978 36.5017 29.7776 36.4637C29.7563 36.4259 29.7387 36.3888 29.7257 36.3517C29.7116 36.3146 29.7044 36.2801 29.7032 36.2476C29.7016 36.2145 29.7074 36.1848 29.7213 36.1582C29.7345 36.1311 29.7575 36.1083 29.7895 36.0903C29.8214 36.0726 29.8518 36.0655 29.881 36.0689C29.91 36.0726 29.9383 36.0838 29.9654 36.103C29.9927 36.1218 30.0178 36.1468 30.0412 36.1779C30.0648 36.2096 30.0871 36.2439 30.1079 36.2806C30.1295 36.3197 30.1467 36.3573 30.1603 36.3941C30.174 36.4312 30.1812 36.4662 30.1837 36.4987C30.1858 36.5318 30.1803 36.5615 30.1666 36.5884C30.1536 36.6155 30.1311 36.6375 30.0994 36.6554C30.0718 36.6704 30.0461 36.6779 30.021 36.6779C30.0162 36.6779 30.0111 36.6776 30.0062 36.6769Z" fill="url(#paint19_linear_1497_31741)" style=""/>
<path d="M30.6906 35.3024L31.2962 36.1853L31.4995 36.046L31.0213 35.3488L31.4427 35.0595L31.3157 34.8738L30.6906 35.3024Z" fill="url(#paint20_linear_1497_31741)" style=""/>
<path d="M32.0621 34.2966L32.0725 35.1121L31.672 34.6056L31.4791 34.7588L32.1432 35.5977L32.2978 35.476L32.292 34.6677L32.6877 35.167L32.881 35.0142L32.2165 34.1749L32.0621 34.2966Z" fill="url(#paint21_linear_1497_31741)" style=""/>
<path d="M32.9062 33.5456L32.995 34.0423L32.8988 34.1315L32.6097 33.8177L32.4287 33.9841L33.1526 34.7727L33.3343 34.606L33.0497 34.2964L33.1566 34.1981L33.6282 34.3358L33.8399 34.1413L33.2038 33.9656L33.1144 33.3539L32.9062 33.5456Z" fill="url(#paint22_linear_1497_31741)" style=""/>
<path d="M33.6891 32.7555L33.8124 33.245L33.7216 33.341L33.4119 33.0471L33.2429 33.2262L34.0199 33.9626L34.1891 33.7835L33.8838 33.4947L33.984 33.3892L34.4642 33.4937L34.6613 33.2856L34.0155 33.1542L33.8831 32.5499L33.6891 32.7555Z" fill="url(#paint23_linear_1497_31741)" style=""/>
<path d="M34.6201 31.8657C34.5536 31.8718 34.4889 31.8919 34.4275 31.9264C34.3654 31.9614 34.3083 32.0104 34.2569 32.0734C34.2054 32.1367 34.1681 32.2023 34.1463 32.27C34.1243 32.3381 34.1169 32.4058 34.1248 32.4728C34.1326 32.5393 34.154 32.604 34.1894 32.6663C34.2249 32.7289 34.2745 32.7862 34.3371 32.8381C34.3999 32.8891 34.4646 32.9266 34.532 32.9496C34.5995 32.9732 34.6669 32.9825 34.7339 32.9774C34.8002 32.9723 34.8649 32.9526 34.9279 32.9185C34.9898 32.8847 35.048 32.8351 35.1011 32.7704C35.1546 32.7074 35.1917 32.6411 35.2126 32.5725C35.2334 32.5038 35.2399 32.4362 35.2316 32.3682C35.2232 32.3006 35.201 32.2359 35.1651 32.1733C35.1289 32.111 35.0798 32.0542 35.0169 32.0029C34.9537 31.951 34.8888 31.9139 34.8213 31.8912C34.7675 31.8731 34.714 31.8639 34.6609 31.8639C34.6472 31.8639 34.6336 31.8646 34.6201 31.8657ZM34.7126 32.7282C34.6743 32.7275 34.6366 32.7197 34.5997 32.7044C34.5624 32.6891 34.5283 32.668 34.4968 32.6415C34.4653 32.616 34.4386 32.5868 34.4161 32.5535C34.3939 32.5203 34.3788 32.4853 34.3705 32.4485C34.3621 32.4111 34.3621 32.3736 34.3721 32.3339C34.3807 32.2945 34.4011 32.2551 34.4321 32.2173C34.4646 32.1782 34.4987 32.1511 34.5362 32.1358C34.574 32.1205 34.6118 32.113 34.6498 32.1144C34.6885 32.1156 34.7247 32.1244 34.7613 32.1404C34.7979 32.1564 34.8313 32.177 34.8616 32.2023C34.892 32.2271 34.9182 32.2563 34.9411 32.2887C34.9634 32.3219 34.9789 32.3567 34.9877 32.3937C34.9961 32.4308 34.9963 32.4688 34.9877 32.5073C34.9796 32.5467 34.9601 32.5845 34.9295 32.6221C34.8971 32.6603 34.8621 32.6879 34.825 32.7044C34.7891 32.7201 34.7529 32.7282 34.7165 32.7282C34.7152 32.7282 34.7138 32.7282 34.7126 32.7282Z" fill="url(#paint24_linear_1497_31741)" style=""/>
<path d="M34.8149 30.8333C34.8372 30.8526 34.8493 30.8739 34.8518 30.8975C34.8534 30.9209 34.8462 30.9441 34.8303 30.9671C34.8147 30.9898 34.7952 31.0039 34.7718 31.0106C34.7487 31.0174 34.7243 31.0141 34.6977 31.0002L34.5836 31.1641C34.6599 31.2091 34.7313 31.2213 34.7966 31.2007C34.8627 31.1798 34.9195 31.1349 34.9689 31.0647C35.0175 30.9951 35.0398 30.9263 35.037 30.8574C35.0338 30.7888 34.9983 30.7262 34.9302 30.6685L34.8149 30.8333ZM35.1654 30.8811L35.4088 31.659L34.8805 31.2886L34.7387 31.4905L35.616 32.1042L35.7287 31.9429L35.4925 31.1708L36.014 31.5361L36.155 31.334L35.2781 30.72L35.1654 30.8811Z" fill="url(#paint25_linear_1497_31741)" style=""/>
<path d="M35.7721 29.9114L36.1429 30.1309L35.9283 30.4925L35.5577 30.273L35.4323 30.4849L36.3532 31.031L36.4788 30.8189L36.1198 30.6064L36.3339 30.2443L36.6932 30.4573L36.8186 30.245L35.8977 29.6991L35.7721 29.9114Z" fill="url(#paint26_linear_1497_31741)" style=""/>
<path d="M36.5381 28.7255C36.4742 28.7466 36.4162 28.7809 36.3641 28.8286C36.3121 28.8762 36.2674 28.9369 36.2315 29.0104C36.1953 29.0838 36.1745 29.1557 36.1689 29.2268C36.1629 29.2985 36.1712 29.3655 36.1937 29.429C36.2164 29.4925 36.2519 29.5507 36.301 29.6035C36.3497 29.6561 36.4109 29.7004 36.4837 29.7368C36.5562 29.7723 36.6279 29.7938 36.6985 29.8015C36.7699 29.8089 36.8374 29.8024 36.9016 29.7822C36.9651 29.7618 37.0238 29.7282 37.0771 29.6809C37.1304 29.6334 37.1749 29.5725 37.212 29.4974C37.2497 29.4234 37.2706 29.3509 37.2759 29.2788C37.2808 29.2076 37.2715 29.1397 37.2479 29.076C37.2245 29.012 37.1881 28.9536 37.1387 28.9014C37.0891 28.8488 37.0284 28.8045 36.9558 28.7688C36.8824 28.7329 36.8107 28.7113 36.7398 28.7046C36.7227 28.703 36.7055 28.7021 36.6888 28.7021C36.6367 28.7021 36.5864 28.71 36.5381 28.7255ZM36.709 29.5467C36.6698 29.54 36.6316 29.5275 36.5945 29.5096C36.5578 29.4916 36.5254 29.4688 36.4962 29.4415C36.467 29.4144 36.4438 29.3835 36.4278 29.3497C36.4113 29.3156 36.4028 29.2786 36.4028 29.2378C36.4025 29.1972 36.4132 29.1552 36.4348 29.1105C36.4573 29.0655 36.4851 29.031 36.518 29.0071C36.5511 28.9835 36.5864 28.9679 36.6239 28.9608C36.6608 28.9531 36.6988 28.9531 36.7384 28.9608C36.7769 28.9679 36.814 28.9802 36.8497 28.9978C36.8847 29.0155 36.9171 29.0379 36.9468 29.0641C36.9762 29.0913 36.9992 29.1221 37.0161 29.1564C37.0333 29.1905 37.0416 29.2269 37.0425 29.267C37.043 29.3064 37.033 29.3479 37.0112 29.3914C36.9883 29.4362 36.9602 29.4709 36.928 29.4953C36.896 29.5201 36.8613 29.5361 36.824 29.5444C36.8036 29.5488 36.7825 29.5509 36.7614 29.5509C36.744 29.5509 36.7266 29.5495 36.709 29.5467Z" fill="url(#paint27_linear_1497_31741)" style=""/>
<path d="M37.0066 27.6469C36.9677 27.6506 36.932 27.6624 36.9004 27.6824C36.8684 27.7021 36.8409 27.7292 36.8174 27.7619C36.7938 27.7952 36.7736 27.8323 36.7574 27.8724L36.5687 28.339L37.5613 28.741L37.7226 28.3414C37.7425 28.2927 37.7583 28.2419 37.7687 28.1886C37.7796 28.1358 37.7819 28.0848 37.7759 28.0361C37.7692 27.9869 37.752 27.942 37.7228 27.9005C37.6943 27.859 37.6491 27.8258 37.5872 27.8006C37.5302 27.7776 37.4764 27.7697 37.4261 27.7783C37.3754 27.7867 37.3306 27.8115 37.2924 27.852C37.2847 27.8082 37.2678 27.7711 37.2405 27.7408C37.2129 27.7109 37.1786 27.6872 37.1373 27.6705C37.0975 27.6543 37.0597 27.6462 37.0251 27.6462C37.0189 27.6462 37.0126 27.6464 37.0066 27.6469ZM36.868 28.1949L36.9419 28.0124C36.9493 27.9946 36.9572 27.9781 36.9656 27.9621C36.9741 27.9468 36.9839 27.9339 36.9952 27.9241C37.0061 27.9137 37.0193 27.9067 37.0346 27.9035C37.049 27.9005 37.0657 27.9028 37.0842 27.9104C37.122 27.9255 37.1417 27.9508 37.1443 27.9858C37.1471 28.021 37.1387 28.0625 37.1199 28.1089L37.0548 28.2704L36.868 28.1949ZM37.2439 28.3464L37.3237 28.1492C37.3323 28.1274 37.3418 28.107 37.3517 28.0885C37.3615 28.0697 37.3724 28.0539 37.3853 28.0416C37.3979 28.0293 37.412 28.0212 37.4284 28.0178C37.4449 28.0138 37.4632 28.0161 37.4834 28.0245C37.507 28.034 37.5242 28.0465 37.5339 28.0618C37.545 28.0776 37.5502 28.0954 37.5511 28.1156C37.5518 28.1351 37.5485 28.1575 37.5427 28.1812C37.536 28.2053 37.5277 28.2306 37.5172 28.2563L37.4472 28.429L37.2439 28.3464Z" fill="url(#paint28_linear_1497_31741)" style=""/>
<path d="M4.52673 22.0002L5.71955 24.0486L6.91236 22.0002L5.71955 19.9523L4.52673 22.0002ZM5.34659 22.0002L5.71955 21.3598L6.09274 22.0002L5.71955 22.6409L5.34659 22.0002Z" fill="url(#paint29_linear_1497_31741)" style=""/>
<path d="M37.2885 21.998L38.4813 24.0464L39.6739 21.998L38.4813 19.9501L37.2885 21.998ZM38.1083 21.998L38.4813 21.3576L38.8542 21.998L38.4813 22.6387L38.1083 21.998Z" fill="url(#paint30_linear_1497_31741)" style=""/>
<path d="M7.29104 11.0021C7.07617 11.0839 6.87891 11.2045 6.6995 11.3637C6.51963 11.5234 6.36132 11.7107 6.22526 11.9263C6.03635 12.2257 5.91257 12.5241 5.8523 12.8203C5.79319 13.117 5.79505 13.403 5.85902 13.6777C5.923 13.9533 6.04886 14.2141 6.23823 14.4612C6.42599 14.7078 6.6761 14.9289 6.98601 15.125C7.28943 15.316 7.59146 15.4444 7.89256 15.5091C8.19366 15.5738 8.48341 15.5759 8.76226 15.5142C9.04111 15.453 9.3021 15.3318 9.54618 15.1517C9.79026 14.9711 10.0079 14.7296 10.1994 14.4266C10.2844 14.2913 10.3572 14.1471 10.4184 13.9943C10.4794 13.8414 10.5237 13.6879 10.5512 13.5347C10.5795 13.3812 10.5883 13.2276 10.5779 13.073C10.5691 12.919 10.535 12.7702 10.4775 12.6263C10.3651 12.3363 10.2029 12.0894 9.99123 11.8869C9.77937 11.6845 9.54039 11.4988 9.27382 11.3308L9.1315 11.2406L7.89765 13.1958L8.73027 13.7213L9.3072 12.8066C9.37442 12.8694 9.42171 12.9413 9.44675 13.0215C9.4734 13.1017 9.48221 13.1854 9.47595 13.2732C9.46876 13.3606 9.4486 13.4501 9.41429 13.5402C9.38022 13.6313 9.33757 13.7171 9.28681 13.7971C9.17207 13.98 9.0462 14.1137 8.9106 14.199C8.77523 14.2843 8.63453 14.3335 8.48873 14.3462C8.3427 14.3587 8.19691 14.3418 8.04995 14.2952C7.90323 14.2486 7.7602 14.1814 7.62159 14.094C7.50129 14.0178 7.38933 13.9253 7.2841 13.8156C7.17956 13.7065 7.10121 13.5827 7.04744 13.4445C6.99505 13.3064 6.97464 13.158 6.98693 13.0004C6.99968 12.8423 7.06204 12.6759 7.17237 12.5006C7.29893 12.3001 7.43986 12.1604 7.59447 12.0816C7.74838 12.0028 7.92269 11.9995 8.11763 12.0714L8.73559 11.0909C8.47065 10.9694 8.2173 10.9043 7.97554 10.8945C7.94981 10.8945 7.92408 10.8922 7.89881 10.8922C7.68556 10.8922 7.4832 10.9289 7.29104 11.0014" fill="url(#paint31_linear_1497_31741)" style=""/>
<path d="M8.60889 8.90249L11.5967 12.3794L14.2195 10.1254L13.5144 9.3051L11.781 10.7953L11.3374 10.2796L12.7671 9.05129L12.0914 8.2655L10.6621 9.49403L10.2067 8.96366L11.9398 7.47324L11.231 6.64897L8.60889 8.90249Z" fill="url(#paint32_linear_1497_31741)" style=""/>
<path d="M12.6178 5.7989L14.5677 9.94849L17.6967 8.47824L17.2375 7.49936L15.168 8.4715L14.879 7.85585L16.5852 7.05479L16.1443 6.11694L14.4383 6.91801L14.1412 6.28521L16.2106 5.3133L15.7477 4.32862L12.6178 5.7989Z" fill="url(#paint33_linear_1497_31741)" style=""/>
<path d="M20.1246 3.4118L19.4118 5.30278L18.7913 5.39759L18.524 3.65681L17.366 3.83391L18.0593 8.36597L19.2178 8.18887L18.954 6.46662L19.6009 6.36764L20.7798 7.94918L22.1243 7.74381L20.431 5.58559L21.4432 3.20969L20.1246 3.4118Z" fill="url(#paint34_linear_1497_31741)" style=""/>
<path d="M24.0832 3.54524C23.7888 3.61038 23.5276 3.7272 23.2997 3.89687C23.0719 4.06608 22.882 4.28512 22.7302 4.554C22.5786 4.82265 22.4746 5.13396 22.4187 5.48791C22.3619 5.84627 22.3619 6.17727 22.4187 6.48139C22.4752 6.7855 22.5849 7.053 22.7469 7.28387C22.9092 7.5152 23.122 7.70595 23.3846 7.85685C23.6465 8.00775 23.9527 8.11066 24.3025 8.16606C24.5582 8.20639 24.8106 8.20919 25.0579 8.17395C25.3064 8.13942 25.5345 8.06408 25.7431 7.94819C25.951 7.83298 26.1325 7.67558 26.2864 7.4767C26.4403 7.27829 26.55 7.03816 26.6167 6.7556L25.4979 6.57875C25.4183 6.77578 25.2934 6.91762 25.1223 7.00431C24.9513 7.09077 24.7399 7.11395 24.4886 7.07432C24.2921 7.04349 24.1319 6.97998 24.0069 6.88332C23.8822 6.78736 23.7877 6.67376 23.7232 6.5435C23.6586 6.41323 23.6192 6.27138 23.6039 6.11816C23.5888 5.96495 23.5927 5.81591 23.6155 5.67127C23.6391 5.52199 23.6801 5.37757 23.7399 5.23826C23.799 5.09895 23.8795 4.97844 23.9808 4.87668C24.0821 4.77446 24.2061 4.69911 24.3539 4.6502C24.5014 4.60153 24.6731 4.59249 24.8697 4.62355C25.1254 4.66411 25.3164 4.7522 25.4406 4.8878C25.5655 5.02363 25.6379 5.19748 25.6566 5.4105L26.7498 5.58364C26.7711 5.28532 26.7419 5.01875 26.6635 4.78325C26.5852 4.54774 26.4684 4.34471 26.3142 4.17388C26.1599 4.00282 25.9721 3.86302 25.7514 3.75361C25.5308 3.64443 25.2897 3.5691 25.0299 3.52784C24.8783 3.50397 24.7306 3.49194 24.5874 3.49194C24.4131 3.49194 24.2448 3.50978 24.0832 3.54524Z" fill="url(#paint35_linear_1497_31741)" style=""/>
<path d="M28.9425 5.22872C28.6645 5.31193 28.4075 5.45472 28.1722 5.65708C27.9358 5.85943 27.7346 6.1174 27.57 6.43056C27.405 6.74371 27.3034 7.05386 27.2659 7.36122C27.2283 7.66835 27.2527 7.96041 27.338 8.23741C27.4244 8.5144 27.5686 8.77008 27.7726 9.00396C27.9761 9.2383 28.236 9.43902 28.553 9.60591C28.863 9.76933 29.1705 9.86693 29.4784 9.89961C29.785 9.9323 30.0792 9.90447 30.3604 9.81546C30.6413 9.72738 30.8995 9.5802 31.1348 9.3746C31.3703 9.16923 31.5687 8.91192 31.7321 8.60247C31.8969 8.28978 31.9959 7.97964 32.0286 7.67181C32.0613 7.36445 32.0334 7.07425 31.9461 6.8012C31.8582 6.52791 31.7126 6.27572 31.5098 6.04416C31.3079 5.81306 31.0537 5.61719 30.7484 5.4561C30.4385 5.29268 30.1302 5.1937 29.8221 5.15823C29.7294 5.14757 29.6378 5.14225 29.5479 5.14225C29.3386 5.14225 29.1367 5.171 28.9425 5.22872ZM29.098 8.64166C28.9109 8.54292 28.7684 8.42723 28.6696 8.29488C28.5711 8.16252 28.5074 8.02136 28.4789 7.87209C28.4501 7.72304 28.4504 7.57192 28.48 7.41894C28.509 7.26595 28.5605 7.12108 28.633 6.98339C28.7007 6.85359 28.7885 6.734 28.8949 6.62413C29.0023 6.51472 29.1235 6.42964 29.26 6.36961C29.3961 6.31004 29.5472 6.28244 29.7134 6.28707C29.8791 6.29148 30.0544 6.34202 30.2377 6.43868C30.4206 6.5351 30.5574 6.65263 30.6485 6.79078C30.7389 6.9287 30.7961 7.07242 30.82 7.22169C30.8441 7.37051 30.8383 7.52046 30.8033 7.6702C30.7681 7.81994 30.7196 7.95461 30.6571 8.07259C30.5905 8.19845 30.5057 8.31599 30.4016 8.42447C30.2982 8.53364 30.1789 8.6194 30.043 8.68198C29.9074 8.74503 29.76 8.77702 29.6003 8.77841C29.5977 8.77841 29.5954 8.77841 29.5929 8.77841C29.436 8.77841 29.2709 8.73276 29.098 8.64166Z" fill="url(#paint36_linear_1497_31741)" style=""/>
<path d="M30.8818 11.0658L31.7603 11.8423L34.7968 8.40755L33.9186 7.63104L30.8818 11.0658Z" fill="url(#paint37_linear_1497_31741)" style=""/>
<path d="M32.3428 12.225L33.0129 13.1874L35.1331 11.7106L34.1378 14.8025L34.7444 15.6741L38.5067 13.0546L37.8368 12.0926L35.6848 13.5912L36.7309 10.5036L36.1055 9.6057L32.3428 12.225Z" fill="url(#paint38_linear_1497_31741)" style=""/>
<path d="M12.9999 17.4603C12.4505 17.9179 12.1723 18.522 12.1723 19.2563C12.1723 19.6858 12.2855 20.0418 12.5094 20.3144C12.7372 20.5926 13.0332 20.7335 13.3895 20.7335C13.6878 20.7335 13.9312 20.6378 14.1122 20.4498C14.2928 20.2623 14.3841 20.0124 14.3841 19.7067C14.3841 19.4976 14.3345 19.3064 14.236 19.1388C14.1377 18.9723 13.9898 18.8284 13.8009 18.7148C13.7557 18.6833 13.6906 18.6469 13.6078 18.6075C13.3911 18.4944 13.3886 18.4323 13.3886 18.432C13.3886 18.3711 13.4368 18.2369 13.7587 18.0199C14.0158 17.8467 14.2928 17.7589 14.5819 17.7589C14.943 17.7589 15.2346 17.892 15.4729 18.1664C15.7109 18.4401 15.8317 18.792 15.8317 19.212C15.8317 19.5831 15.7457 19.9702 15.5758 20.3631C15.4052 20.7583 15.1595 21.1389 14.8452 21.4943C14.7223 21.6338 14.5455 21.8325 14.313 22.0905C13.4882 23.0209 12.9593 23.6919 12.7421 24.0839C12.5316 24.4529 12.374 24.8488 12.2729 25.2609C12.1726 25.6724 12.1216 26.1167 12.1216 26.5819V26.759H13.1788L13.1728 26.6649C13.1642 26.5351 13.1591 26.4417 13.157 26.3851C13.1549 26.3295 13.154 26.2764 13.154 26.2268C13.154 25.9227 13.2054 25.6793 13.3067 25.5034C13.4009 25.3411 13.5168 25.2621 13.6621 25.2621C13.7342 25.2621 13.9134 25.3184 14.3046 25.6942C14.4293 25.8145 14.5304 25.9067 14.6055 25.9691C14.9228 26.2526 15.213 26.4568 15.4671 26.5759C15.7253 26.6971 15.9972 26.759 16.2751 26.759C16.9851 26.759 17.5342 26.4535 17.9072 25.8513C18.2706 25.2637 18.4728 24.3729 18.5068 23.204L18.5098 23.1134H17.7447L17.7301 23.1834C17.6112 23.7485 17.4529 24.1446 17.2593 24.3606C17.0699 24.5711 16.802 24.6736 16.4399 24.6736C16.3558 24.6736 16.1629 24.6451 15.7209 24.5092C15.3484 24.3954 15.0313 24.3377 14.7784 24.3377C14.5589 24.3377 14.3331 24.3732 14.1085 24.4429C13.9275 24.499 13.7126 24.5918 13.4683 24.7188C13.5474 24.4422 13.6931 24.1673 13.9025 23.8996C14.1628 23.567 14.532 23.2351 15.0007 22.9117C15.1896 22.7775 15.5994 22.5216 16.2188 22.1512C16.8488 21.7743 17.3122 21.4266 17.5952 21.1181C17.801 20.8988 17.9575 20.6489 18.0604 20.3754C18.1629 20.1023 18.2152 19.7982 18.2152 19.4721C18.2152 18.6798 17.9257 18.025 17.3546 17.525C16.7862 17.0287 16.0412 16.7772 15.1398 16.7772C14.2643 16.7772 13.5446 17.007 12.9999 17.4603Z" fill="url(#paint39_radial_1497_31741)" style=""/>
<path d="M20.1285 16.8319C20.0525 17.6643 19.9514 18.5224 19.8276 19.3833C19.7034 20.2462 19.5511 21.128 19.3745 22.0044L19.3557 22.0978L20.3512 22.2176L20.3804 22.1678C20.5422 21.8927 20.7314 21.6766 20.9425 21.5257C21.1486 21.3788 21.363 21.3044 21.5795 21.3044C22.0457 21.3044 22.3822 21.4796 22.6085 21.8401C22.8393 22.2088 22.9568 22.7798 22.9568 23.5377C22.9568 24.3251 22.8266 24.9357 22.57 25.3531C22.3187 25.7625 21.9696 25.9609 21.5035 25.9609C21.271 25.9609 21.0582 25.9217 20.8714 25.8441C20.6839 25.7667 20.6398 25.7147 20.6266 25.7147C20.6357 25.7022 20.66 25.6728 20.7216 25.6109C21.0633 25.2736 21.2365 24.9347 21.2365 24.6033C21.2365 24.26 21.1322 23.977 20.9266 23.7621C20.7198 23.5463 20.4465 23.4367 20.1141 23.4367C19.7604 23.4367 19.4625 23.5648 19.2284 23.817C18.9959 24.0674 18.8784 24.3852 18.8784 24.7616C18.8784 25.3429 19.1466 25.8302 19.676 26.2096C20.1962 26.5824 20.8668 26.7717 21.6685 26.7717C22.7267 26.7717 23.6038 26.4509 24.2753 25.8186C24.948 25.1844 25.2892 24.3659 25.2892 23.3854C25.2892 22.5032 24.9999 21.7643 24.4294 21.1889C23.859 20.6141 23.1263 20.3225 22.252 20.3225C21.9212 20.3225 21.5981 20.3823 21.2912 20.4996C21.036 20.5976 20.7546 20.7546 20.4525 20.9669C20.5487 20.3934 20.6192 19.963 20.6646 19.676C20.7084 19.3983 20.7474 19.1464 20.7817 18.9192C21.0691 19.0207 21.348 19.1 21.612 19.1556C21.9084 19.2178 22.1857 19.2495 22.4358 19.2495C23.0586 19.2495 23.6105 19.0513 24.075 18.661C24.5338 18.2755 24.9315 17.683 25.257 16.8991L25.3077 16.7772H24.7189L24.6925 16.8131C24.5284 17.0373 24.3516 17.197 24.1664 17.2871C23.9809 17.3782 23.7359 17.4241 23.4378 17.4241C23.0326 17.4241 22.3465 17.2992 21.3987 17.0528L21.1829 16.9955L20.1378 16.7292L20.1285 16.8319Z" fill="url(#paint40_radial_1497_31741)" style=""/>
<path d="M26.7987 18.1754C26.2192 19.0908 25.9253 20.2973 25.9253 21.7618C25.9253 23.2682 26.2116 24.4874 26.776 25.3856C27.3487 26.2968 28.1229 26.759 29.077 26.759C30.0012 26.759 30.7689 26.2873 31.3586 25.3576C31.9401 24.4402 32.2345 23.2302 32.2345 21.7618C32.2345 20.2509 31.9485 19.0328 31.3838 18.1407C30.8108 17.236 30.0348 16.7772 29.077 16.7772C28.1526 16.7772 27.3861 17.2476 26.7987 18.1754ZM28.5137 25.3309C28.3863 24.9355 28.3216 24.2489 28.3216 23.2904V20.2013C28.3216 19.2387 28.3863 18.5489 28.5137 18.1513C28.6327 17.7805 28.8169 17.6003 29.077 17.6003C29.341 17.6003 29.5271 17.7805 29.6463 18.1513C29.7738 18.5489 29.8387 19.2387 29.8387 20.2013V23.2904C29.8387 24.2489 29.7738 24.9355 29.6463 25.3309C29.5271 25.6995 29.341 25.8787 29.077 25.8787C28.8169 25.8787 28.6327 25.6995 28.5137 25.3309Z" fill="url(#paint41_radial_1497_31741)" style=""/>
<defs>
<linearGradient id="paint0_linear_1497_31741" x1="40.2616" y1="5.20708" x2="1.29965" y2="41.0358" gradientUnits="userSpaceOnUse">
<stop stop-color="#B27D27" style="stop-color:#B27D27;stop-color:color(display-p3 0.6980 0.4902 0.1529);stop-opacity:1;"/>
<stop offset="0.00561798" stop-color="#B27D27" style="stop-color:#B27D27;stop-color:color(display-p3 0.6980 0.4902 0.1529);stop-opacity:1;"/>
<stop offset="0.174694" stop-color="#B27D27" style="stop-color:#B27D27;stop-color:color(display-p3 0.6980 0.4902 0.1529);stop-opacity:1;"/>
<stop offset="0.514866" stop-color="#E5C222" style="stop-color:#E5C222;stop-color:color(display-p3 0.8980 0.7608 0.1333);stop-opacity:1;"/>
<stop offset="0.795448" stop-color="#9D7818" style="stop-color:#9D7818;stop-color:color(display-p3 0.6157 0.4706 0.0941);stop-opacity:1;"/>
<stop offset="1" stop-color="#9D7818" style="stop-color:#9D7818;stop-color:color(display-p3 0.6157 0.4706 0.0941);stop-opacity:1;"/>
</linearGradient>
<radialGradient id="paint1_radial_1497_31741" cx="0" cy="0" r="1" gradientUnits="userSpaceOnUse" gradientTransform="translate(21.9997 22.0005) scale(20.9211 20.9211)">
<stop stop-color="#B00941" style="stop-color:#B00941;stop-color:color(display-p3 0.6902 0.0353 0.2549);stop-opacity:1;"/>
<stop offset="0.468012" stop-color="#B00941" style="stop-color:#B00941;stop-color:color(display-p3 0.6902 0.0353 0.2549);stop-opacity:1;"/>
<stop offset="0.997191" stop-color="#3F020B" style="stop-color:#3F020B;stop-color:color(display-p3 0.2471 0.0078 0.0431);stop-opacity:1;"/>
<stop offset="1" stop-color="#3F020B" style="stop-color:#3F020B;stop-color:color(display-p3 0.2471 0.0078 0.0431);stop-opacity:1;"/>
</radialGradient>
<linearGradient id="paint2_linear_1497_31741" x1="40.3075" y1="5.25626" x2="1.34556" y2="41.0849" gradientUnits="userSpaceOnUse">
<stop stop-color="#B27D27" style="stop-color:#B27D27;stop-color:color(display-p3 0.6980 0.4902 0.1529);stop-opacity:1;"/>
<stop offset="0.00561798" stop-color="#B27D27" style="stop-color:#B27D27;stop-color:color(display-p3 0.6980 0.4902 0.1529);stop-opacity:1;"/>
<stop offset="0.174694" stop-color="#B27D27" style="stop-color:#B27D27;stop-color:color(display-p3 0.6980 0.4902 0.1529);stop-opacity:1;"/>
<stop offset="0.514866" stop-color="#E5C222" style="stop-color:#E5C222;stop-color:color(display-p3 0.8980 0.7608 0.1333);stop-opacity:1;"/>
<stop offset="0.795448" stop-color="#9D7818" style="stop-color:#9D7818;stop-color:color(display-p3 0.6157 0.4706 0.0941);stop-opacity:1;"/>
<stop offset="1" stop-color="#9D7818" style="stop-color:#9D7818;stop-color:color(display-p3 0.6157 0.4706 0.0941);stop-opacity:1;"/>
</linearGradient>
<linearGradient id="paint3_linear_1497_31741" x1="40.2652" y1="5.20884" x2="1.3032" y2="41.0375" gradientUnits="userSpaceOnUse">
<stop stop-color="#B27D27" style="stop-color:#B27D27;stop-color:color(display-p3 0.6980 0.4902 0.1529);stop-opacity:1;"/>
<stop offset="0.00561798" stop-color="#B27D27" style="stop-color:#B27D27;stop-color:color(display-p3 0.6980 0.4902 0.1529);stop-opacity:1;"/>
<stop offset="0.174694" stop-color="#B27D27" style="stop-color:#B27D27;stop-color:color(display-p3 0.6980 0.4902 0.1529);stop-opacity:1;"/>
<stop offset="0.514866" stop-color="#E5C222" style="stop-color:#E5C222;stop-color:color(display-p3 0.8980 0.7608 0.1333);stop-opacity:1;"/>
<stop offset="0.795448" stop-color="#9D7818" style="stop-color:#9D7818;stop-color:color(display-p3 0.6157 0.4706 0.0941);stop-opacity:1;"/>
<stop offset="1" stop-color="#9D7818" style="stop-color:#9D7818;stop-color:color(display-p3 0.6157 0.4706 0.0941);stop-opacity:1;"/>
</linearGradient>
<linearGradient id="paint4_linear_1497_31741" x1="47.3857" y1="12.954" x2="8.42379" y2="48.7827" gradientUnits="userSpaceOnUse">
<stop stop-color="#B27D27" style="stop-color:#B27D27;stop-color:color(display-p3 0.6980 0.4902 0.1529);stop-opacity:1;"/>
<stop offset="0.00561798" stop-color="#B27D27" style="stop-color:#B27D27;stop-color:color(display-p3 0.6980 0.4902 0.1529);stop-opacity:1;"/>
<stop offset="0.174694" stop-color="#B27D27" style="stop-color:#B27D27;stop-color:color(display-p3 0.6980 0.4902 0.1529);stop-opacity:1;"/>
<stop offset="0.514866" stop-color="#E5C222" style="stop-color:#E5C222;stop-color:color(display-p3 0.8980 0.7608 0.1333);stop-opacity:1;"/>
<stop offset="0.795448" stop-color="#9D7818" style="stop-color:#9D7818;stop-color:color(display-p3 0.6157 0.4706 0.0941);stop-opacity:1;"/>
<stop offset="1" stop-color="#9D7818" style="stop-color:#9D7818;stop-color:color(display-p3 0.6157 0.4706 0.0941);stop-opacity:1;"/>
</linearGradient>
<linearGradient id="paint5_linear_1497_31741" x1="35.5251" y1="0.0565492" x2="-3.43673" y2="35.8851" gradientUnits="userSpaceOnUse">
<stop stop-color="#B27D27" style="stop-color:#B27D27;stop-color:color(display-p3 0.6980 0.4902 0.1529);stop-opacity:1;"/>
<stop offset="0.00561798" stop-color="#B27D27" style="stop-color:#B27D27;stop-color:color(display-p3 0.6980 0.4902 0.1529);stop-opacity:1;"/>
<stop offset="0.174694" stop-color="#B27D27" style="stop-color:#B27D27;stop-color:color(display-p3 0.6980 0.4902 0.1529);stop-opacity:1;"/>
<stop offset="0.514866" stop-color="#E5C222" style="stop-color:#E5C222;stop-color:color(display-p3 0.8980 0.7608 0.1333);stop-opacity:1;"/>
<stop offset="0.795448" stop-color="#9D7818" style="stop-color:#9D7818;stop-color:color(display-p3 0.6157 0.4706 0.0941);stop-opacity:1;"/>
<stop offset="1" stop-color="#9D7818" style="stop-color:#9D7818;stop-color:color(display-p3 0.6157 0.4706 0.0941);stop-opacity:1;"/>
</linearGradient>
<linearGradient id="paint6_linear_1497_31741" x1="36.1961" y1="0.790615" x2="-2.76576" y2="36.6193" gradientUnits="userSpaceOnUse">
<stop stop-color="#B27D27" style="stop-color:#B27D27;stop-color:color(display-p3 0.6980 0.4902 0.1529);stop-opacity:1;"/>
<stop offset="0.00561798" stop-color="#B27D27" style="stop-color:#B27D27;stop-color:color(display-p3 0.6980 0.4902 0.1529);stop-opacity:1;"/>
<stop offset="0.174694" stop-color="#B27D27" style="stop-color:#B27D27;stop-color:color(display-p3 0.6980 0.4902 0.1529);stop-opacity:1;"/>
<stop offset="0.514866" stop-color="#E5C222" style="stop-color:#E5C222;stop-color:color(display-p3 0.8980 0.7608 0.1333);stop-opacity:1;"/>
<stop offset="0.795448" stop-color="#9D7818" style="stop-color:#9D7818;stop-color:color(display-p3 0.6157 0.4706 0.0941);stop-opacity:1;"/>
<stop offset="1" stop-color="#9D7818" style="stop-color:#9D7818;stop-color:color(display-p3 0.6157 0.4706 0.0941);stop-opacity:1;"/>
</linearGradient>
<linearGradient id="paint7_linear_1497_31741" x1="36.8514" y1="1.49809" x2="-2.11052" y2="37.3272" gradientUnits="userSpaceOnUse">
<stop stop-color="#B27D27" style="stop-color:#B27D27;stop-color:color(display-p3 0.6980 0.4902 0.1529);stop-opacity:1;"/>
<stop offset="0.00561798" stop-color="#B27D27" style="stop-color:#B27D27;stop-color:color(display-p3 0.6980 0.4902 0.1529);stop-opacity:1;"/>
<stop offset="0.174694" stop-color="#B27D27" style="stop-color:#B27D27;stop-color:color(display-p3 0.6980 0.4902 0.1529);stop-opacity:1;"/>
<stop offset="0.514866" stop-color="#E5C222" style="stop-color:#E5C222;stop-color:color(display-p3 0.8980 0.7608 0.1333);stop-opacity:1;"/>
<stop offset="0.795448" stop-color="#9D7818" style="stop-color:#9D7818;stop-color:color(display-p3 0.6157 0.4706 0.0941);stop-opacity:1;"/>
<stop offset="1" stop-color="#9D7818" style="stop-color:#9D7818;stop-color:color(display-p3 0.6157 0.4706 0.0941);stop-opacity:1;"/>
</linearGradient>
<linearGradient id="paint8_linear_1497_31741" x1="37.8999" y1="2.63838" x2="-1.06248" y2="38.4672" gradientUnits="userSpaceOnUse">
<stop stop-color="#B27D27" style="stop-color:#B27D27;stop-color:color(display-p3 0.6980 0.4902 0.1529);stop-opacity:1;"/>
<stop offset="0.00561798" stop-color="#B27D27" style="stop-color:#B27D27;stop-color:color(display-p3 0.6980 0.4902 0.1529);stop-opacity:1;"/>
<stop offset="0.174694" stop-color="#B27D27" style="stop-color:#B27D27;stop-color:color(display-p3 0.6980 0.4902 0.1529);stop-opacity:1;"/>
<stop offset="0.514866" stop-color="#E5C222" style="stop-color:#E5C222;stop-color:color(display-p3 0.8980 0.7608 0.1333);stop-opacity:1;"/>
<stop offset="0.795448" stop-color="#9D7818" style="stop-color:#9D7818;stop-color:color(display-p3 0.6157 0.4706 0.0941);stop-opacity:1;"/>
<stop offset="1" stop-color="#9D7818" style="stop-color:#9D7818;stop-color:color(display-p3 0.6157 0.4706 0.0941);stop-opacity:1;"/>
</linearGradient>
<linearGradient id="paint9_linear_1497_31741" x1="38.6242" y1="3.42148" x2="-0.337987" y2="39.2503" gradientUnits="userSpaceOnUse">
<stop stop-color="#B27D27" style="stop-color:#B27D27;stop-color:color(display-p3 0.6980 0.4902 0.1529);stop-opacity:1;"/>
<stop offset="0.00561798" stop-color="#B27D27" style="stop-color:#B27D27;stop-color:color(display-p3 0.6980 0.4902 0.1529);stop-opacity:1;"/>
<stop offset="0.174694" stop-color="#B27D27" style="stop-color:#B27D27;stop-color:color(display-p3 0.6980 0.4902 0.1529);stop-opacity:1;"/>
<stop offset="0.514866" stop-color="#E5C222" style="stop-color:#E5C222;stop-color:color(display-p3 0.8980 0.7608 0.1333);stop-opacity:1;"/>
<stop offset="0.795448" stop-color="#9D7818" style="stop-color:#9D7818;stop-color:color(display-p3 0.6157 0.4706 0.0941);stop-opacity:1;"/>
<stop offset="1" stop-color="#9D7818" style="stop-color:#9D7818;stop-color:color(display-p3 0.6157 0.4706 0.0941);stop-opacity:1;"/>
</linearGradient>
<linearGradient id="paint10_linear_1497_31741" x1="39.4712" y1="4.34662" x2="0.509158" y2="40.1755" gradientUnits="userSpaceOnUse">
<stop stop-color="#B27D27" style="stop-color:#B27D27;stop-color:color(display-p3 0.6980 0.4902 0.1529);stop-opacity:1;"/>
<stop offset="0.00561798" stop-color="#B27D27" style="stop-color:#B27D27;stop-color:color(display-p3 0.6980 0.4902 0.1529);stop-opacity:1;"/>
<stop offset="0.174694" stop-color="#B27D27" style="stop-color:#B27D27;stop-color:color(display-p3 0.6980 0.4902 0.1529);stop-opacity:1;"/>
<stop offset="0.514866" stop-color="#E5C222" style="stop-color:#E5C222;stop-color:color(display-p3 0.8980 0.7608 0.1333);stop-opacity:1;"/>
<stop offset="0.795448" stop-color="#9D7818" style="stop-color:#9D7818;stop-color:color(display-p3 0.6157 0.4706 0.0941);stop-opacity:1;"/>
<stop offset="1" stop-color="#9D7818" style="stop-color:#9D7818;stop-color:color(display-p3 0.6157 0.4706 0.0941);stop-opacity:1;"/>
</linearGradient>
<linearGradient id="paint11_linear_1497_31741" x1="40.2466" y1="5.18746" x2="1.28488" y2="41.0163" gradientUnits="userSpaceOnUse">
<stop stop-color="#B27D27" style="stop-color:#B27D27;stop-color:color(display-p3 0.6980 0.4902 0.1529);stop-opacity:1;"/>
<stop offset="0.00561798" stop-color="#B27D27" style="stop-color:#B27D27;stop-color:color(display-p3 0.6980 0.4902 0.1529);stop-opacity:1;"/>
<stop offset="0.174694" stop-color="#B27D27" style="stop-color:#B27D27;stop-color:color(display-p3 0.6980 0.4902 0.1529);stop-opacity:1;"/>
<stop offset="0.514866" stop-color="#E5C222" style="stop-color:#E5C222;stop-color:color(display-p3 0.8980 0.7608 0.1333);stop-opacity:1;"/>
<stop offset="0.795448" stop-color="#9D7818" style="stop-color:#9D7818;stop-color:color(display-p3 0.6157 0.4706 0.0941);stop-opacity:1;"/>
<stop offset="1" stop-color="#9D7818" style="stop-color:#9D7818;stop-color:color(display-p3 0.6157 0.4706 0.0941);stop-opacity:1;"/>
</linearGradient>
<linearGradient id="paint12_linear_1497_31741" x1="40.9979" y1="6.00832" x2="2.03587" y2="41.8371" gradientUnits="userSpaceOnUse">
<stop stop-color="#B27D27" style="stop-color:#B27D27;stop-color:color(display-p3 0.6980 0.4902 0.1529);stop-opacity:1;"/>
<stop offset="0.00561798" stop-color="#B27D27" style="stop-color:#B27D27;stop-color:color(display-p3 0.6980 0.4902 0.1529);stop-opacity:1;"/>
<stop offset="0.174694" stop-color="#B27D27" style="stop-color:#B27D27;stop-color:color(display-p3 0.6980 0.4902 0.1529);stop-opacity:1;"/>
<stop offset="0.514866" stop-color="#E5C222" style="stop-color:#E5C222;stop-color:color(display-p3 0.8980 0.7608 0.1333);stop-opacity:1;"/>
<stop offset="0.795448" stop-color="#9D7818" style="stop-color:#9D7818;stop-color:color(display-p3 0.6157 0.4706 0.0941);stop-opacity:1;"/>
<stop offset="1" stop-color="#9D7818" style="stop-color:#9D7818;stop-color:color(display-p3 0.6157 0.4706 0.0941);stop-opacity:1;"/>
</linearGradient>
<linearGradient id="paint13_linear_1497_31741" x1="41.8514" y1="6.93657" x2="2.88945" y2="42.7651" gradientUnits="userSpaceOnUse">
<stop stop-color="#B27D27" style="stop-color:#B27D27;stop-color:color(display-p3 0.6980 0.4902 0.1529);stop-opacity:1;"/>
<stop offset="0.00561798" stop-color="#B27D27" style="stop-color:#B27D27;stop-color:color(display-p3 0.6980 0.4902 0.1529);stop-opacity:1;"/>
<stop offset="0.174694" stop-color="#B27D27" style="stop-color:#B27D27;stop-color:color(display-p3 0.6980 0.4902 0.1529);stop-opacity:1;"/>
<stop offset="0.514866" stop-color="#E5C222" style="stop-color:#E5C222;stop-color:color(display-p3 0.8980 0.7608 0.1333);stop-opacity:1;"/>
<stop offset="0.795448" stop-color="#9D7818" style="stop-color:#9D7818;stop-color:color(display-p3 0.6157 0.4706 0.0941);stop-opacity:1;"/>
<stop offset="1" stop-color="#9D7818" style="stop-color:#9D7818;stop-color:color(display-p3 0.6157 0.4706 0.0941);stop-opacity:1;"/>
</linearGradient>
<linearGradient id="paint14_linear_1497_31741" x1="42.6813" y1="7.83713" x2="3.71917" y2="43.666" gradientUnits="userSpaceOnUse">
<stop stop-color="#B27D27" style="stop-color:#B27D27;stop-color:color(display-p3 0.6980 0.4902 0.1529);stop-opacity:1;"/>
<stop offset="0.00561798" stop-color="#B27D27" style="stop-color:#B27D27;stop-color:color(display-p3 0.6980 0.4902 0.1529);stop-opacity:1;"/>
<stop offset="0.174694" stop-color="#B27D27" style="stop-color:#B27D27;stop-color:color(display-p3 0.6980 0.4902 0.1529);stop-opacity:1;"/>
<stop offset="0.514866" stop-color="#E5C222" style="stop-color:#E5C222;stop-color:color(display-p3 0.8980 0.7608 0.1333);stop-opacity:1;"/>
<stop offset="0.795448" stop-color="#9D7818" style="stop-color:#9D7818;stop-color:color(display-p3 0.6157 0.4706 0.0941);stop-opacity:1;"/>
<stop offset="1" stop-color="#9D7818" style="stop-color:#9D7818;stop-color:color(display-p3 0.6157 0.4706 0.0941);stop-opacity:1;"/>
</linearGradient>
<linearGradient id="paint15_linear_1497_31741" x1="43.5056" y1="8.73462" x2="4.54357" y2="44.5635" gradientUnits="userSpaceOnUse">
<stop stop-color="#B27D27" style="stop-color:#B27D27;stop-color:color(display-p3 0.6980 0.4902 0.1529);stop-opacity:1;"/>
<stop offset="0.00561798" stop-color="#B27D27" style="stop-color:#B27D27;stop-color:color(display-p3 0.6980 0.4902 0.1529);stop-opacity:1;"/>
<stop offset="0.174694" stop-color="#B27D27" style="stop-color:#B27D27;stop-color:color(display-p3 0.6980 0.4902 0.1529);stop-opacity:1;"/>
<stop offset="0.514866" stop-color="#E5C222" style="stop-color:#E5C222;stop-color:color(display-p3 0.8980 0.7608 0.1333);stop-opacity:1;"/>
<stop offset="0.795448" stop-color="#9D7818" style="stop-color:#9D7818;stop-color:color(display-p3 0.6157 0.4706 0.0941);stop-opacity:1;"/>
<stop offset="1" stop-color="#9D7818" style="stop-color:#9D7818;stop-color:color(display-p3 0.6157 0.4706 0.0941);stop-opacity:1;"/>
</linearGradient>
<linearGradient id="paint16_linear_1497_31741" x1="44.2656" y1="9.55792" x2="5.30394" y2="45.3867" gradientUnits="userSpaceOnUse">
<stop stop-color="#B27D27" style="stop-color:#B27D27;stop-color:color(display-p3 0.6980 0.4902 0.1529);stop-opacity:1;"/>
<stop offset="0.00561798" stop-color="#B27D27" style="stop-color:#B27D27;stop-color:color(display-p3 0.6980 0.4902 0.1529);stop-opacity:1;"/>
<stop offset="0.174694" stop-color="#B27D27" style="stop-color:#B27D27;stop-color:color(display-p3 0.6980 0.4902 0.1529);stop-opacity:1;"/>
<stop offset="0.514866" stop-color="#E5C222" style="stop-color:#E5C222;stop-color:color(display-p3 0.8980 0.7608 0.1333);stop-opacity:1;"/>
<stop offset="0.795448" stop-color="#9D7818" style="stop-color:#9D7818;stop-color:color(display-p3 0.6157 0.4706 0.0941);stop-opacity:1;"/>
<stop offset="1" stop-color="#9D7818" style="stop-color:#9D7818;stop-color:color(display-p3 0.6157 0.4706 0.0941);stop-opacity:1;"/>
</linearGradient>
<linearGradient id="paint17_linear_1497_31741" x1="50.6841" y1="16.5386" x2="11.7225" y2="52.3672" gradientUnits="userSpaceOnUse">
<stop stop-color="#B27D27" style="stop-color:#B27D27;stop-color:color(display-p3 0.6980 0.4902 0.1529);stop-opacity:1;"/>
<stop offset="0.00561798" stop-color="#B27D27" style="stop-color:#B27D27;stop-color:color(display-p3 0.6980 0.4902 0.1529);stop-opacity:1;"/>
<stop offset="0.174694" stop-color="#B27D27" style="stop-color:#B27D27;stop-color:color(display-p3 0.6980 0.4902 0.1529);stop-opacity:1;"/>
<stop offset="0.514866" stop-color="#E5C222" style="stop-color:#E5C222;stop-color:color(display-p3 0.8980 0.7608 0.1333);stop-opacity:1;"/>
<stop offset="0.795448" stop-color="#9D7818" style="stop-color:#9D7818;stop-color:color(display-p3 0.6157 0.4706 0.0941);stop-opacity:1;"/>
<stop offset="1" stop-color="#9D7818" style="stop-color:#9D7818;stop-color:color(display-p3 0.6157 0.4706 0.0941);stop-opacity:1;"/>
</linearGradient>
<linearGradient id="paint18_linear_1497_31741" x1="50.8487" y1="16.7195" x2="11.8868" y2="52.5482" gradientUnits="userSpaceOnUse">
<stop stop-color="#B27D27" style="stop-color:#B27D27;stop-color:color(display-p3 0.6980 0.4902 0.1529);stop-opacity:1;"/>
<stop offset="0.00561798" stop-color="#B27D27" style="stop-color:#B27D27;stop-color:color(display-p3 0.6980 0.4902 0.1529);stop-opacity:1;"/>
<stop offset="0.174694" stop-color="#B27D27" style="stop-color:#B27D27;stop-color:color(display-p3 0.6980 0.4902 0.1529);stop-opacity:1;"/>
<stop offset="0.514866" stop-color="#E5C222" style="stop-color:#E5C222;stop-color:color(display-p3 0.8980 0.7608 0.1333);stop-opacity:1;"/>
<stop offset="0.795448" stop-color="#9D7818" style="stop-color:#9D7818;stop-color:color(display-p3 0.6157 0.4706 0.0941);stop-opacity:1;"/>
<stop offset="1" stop-color="#9D7818" style="stop-color:#9D7818;stop-color:color(display-p3 0.6157 0.4706 0.0941);stop-opacity:1;"/>
</linearGradient>
<linearGradient id="paint19_linear_1497_31741" x1="51.0617" y1="16.9522" x2="12.0999" y2="52.7812" gradientUnits="userSpaceOnUse">
<stop stop-color="#B27D27" style="stop-color:#B27D27;stop-color:color(display-p3 0.6980 0.4902 0.1529);stop-opacity:1;"/>
<stop offset="0.00561798" stop-color="#B27D27" style="stop-color:#B27D27;stop-color:color(display-p3 0.6980 0.4902 0.1529);stop-opacity:1;"/>
<stop offset="0.174694" stop-color="#B27D27" style="stop-color:#B27D27;stop-color:color(display-p3 0.6980 0.4902 0.1529);stop-opacity:1;"/>
<stop offset="0.514866" stop-color="#E5C222" style="stop-color:#E5C222;stop-color:color(display-p3 0.8980 0.7608 0.1333);stop-opacity:1;"/>
<stop offset="0.795448" stop-color="#9D7818" style="stop-color:#9D7818;stop-color:color(display-p3 0.6157 0.4706 0.0941);stop-opacity:1;"/>
<stop offset="1" stop-color="#9D7818" style="stop-color:#9D7818;stop-color:color(display-p3 0.6157 0.4706 0.0941);stop-opacity:1;"/>
</linearGradient>
<linearGradient id="paint20_linear_1497_31741" x1="51.2418" y1="17.1475" x2="12.2797" y2="52.976" gradientUnits="userSpaceOnUse">
<stop stop-color="#B27D27" style="stop-color:#B27D27;stop-color:color(display-p3 0.6980 0.4902 0.1529);stop-opacity:1;"/>
<stop offset="0.00561798" stop-color="#B27D27" style="stop-color:#B27D27;stop-color:color(display-p3 0.6980 0.4902 0.1529);stop-opacity:1;"/>
<stop offset="0.174694" stop-color="#B27D27" style="stop-color:#B27D27;stop-color:color(display-p3 0.6980 0.4902 0.1529);stop-opacity:1;"/>
<stop offset="0.514866" stop-color="#E5C222" style="stop-color:#E5C222;stop-color:color(display-p3 0.8980 0.7608 0.1333);stop-opacity:1;"/>
<stop offset="0.795448" stop-color="#9D7818" style="stop-color:#9D7818;stop-color:color(display-p3 0.6157 0.4706 0.0941);stop-opacity:1;"/>
<stop offset="1" stop-color="#9D7818" style="stop-color:#9D7818;stop-color:color(display-p3 0.6157 0.4706 0.0941);stop-opacity:1;"/>
</linearGradient>
<linearGradient id="paint21_linear_1497_31741" x1="51.3478" y1="17.2602" x2="12.3858" y2="53.0891" gradientUnits="userSpaceOnUse">
<stop stop-color="#B27D27" style="stop-color:#B27D27;stop-color:color(display-p3 0.6980 0.4902 0.1529);stop-opacity:1;"/>
<stop offset="0.00561798" stop-color="#B27D27" style="stop-color:#B27D27;stop-color:color(display-p3 0.6980 0.4902 0.1529);stop-opacity:1;"/>
<stop offset="0.174694" stop-color="#B27D27" style="stop-color:#B27D27;stop-color:color(display-p3 0.6980 0.4902 0.1529);stop-opacity:1;"/>
<stop offset="0.514866" stop-color="#E5C222" style="stop-color:#E5C222;stop-color:color(display-p3 0.8980 0.7608 0.1333);stop-opacity:1;"/>
<stop offset="0.795448" stop-color="#9D7818" style="stop-color:#9D7818;stop-color:color(display-p3 0.6157 0.4706 0.0941);stop-opacity:1;"/>
<stop offset="1" stop-color="#9D7818" style="stop-color:#9D7818;stop-color:color(display-p3 0.6157 0.4706 0.0941);stop-opacity:1;"/>
</linearGradient>
<linearGradient id="paint22_linear_1497_31741" x1="51.3729" y1="17.2908" x2="12.4107" y2="53.1196" gradientUnits="userSpaceOnUse">
<stop stop-color="#B27D27" style="stop-color:#B27D27;stop-color:color(display-p3 0.6980 0.4902 0.1529);stop-opacity:1;"/>
<stop offset="0.00561798" stop-color="#B27D27" style="stop-color:#B27D27;stop-color:color(display-p3 0.6980 0.4902 0.1529);stop-opacity:1;"/>
<stop offset="0.174694" stop-color="#B27D27" style="stop-color:#B27D27;stop-color:color(display-p3 0.6980 0.4902 0.1529);stop-opacity:1;"/>
<stop offset="0.514866" stop-color="#E5C222" style="stop-color:#E5C222;stop-color:color(display-p3 0.8980 0.7608 0.1333);stop-opacity:1;"/>
<stop offset="0.795448" stop-color="#9D7818" style="stop-color:#9D7818;stop-color:color(display-p3 0.6157 0.4706 0.0941);stop-opacity:1;"/>
<stop offset="1" stop-color="#9D7818" style="stop-color:#9D7818;stop-color:color(display-p3 0.6157 0.4706 0.0941);stop-opacity:1;"/>
</linearGradient>
<linearGradient id="paint23_linear_1497_31741" x1="51.3487" y1="17.2584" x2="12.3869" y2="53.0872" gradientUnits="userSpaceOnUse">
<stop stop-color="#B27D27" style="stop-color:#B27D27;stop-color:color(display-p3 0.6980 0.4902 0.1529);stop-opacity:1;"/>
<stop offset="0.00561798" stop-color="#B27D27" style="stop-color:#B27D27;stop-color:color(display-p3 0.6980 0.4902 0.1529);stop-opacity:1;"/>
<stop offset="0.174694" stop-color="#B27D27" style="stop-color:#B27D27;stop-color:color(display-p3 0.6980 0.4902 0.1529);stop-opacity:1;"/>
<stop offset="0.514866" stop-color="#E5C222" style="stop-color:#E5C222;stop-color:color(display-p3 0.8980 0.7608 0.1333);stop-opacity:1;"/>
<stop offset="0.795448" stop-color="#9D7818" style="stop-color:#9D7818;stop-color:color(display-p3 0.6157 0.4706 0.0941);stop-opacity:1;"/>
<stop offset="1" stop-color="#9D7818" style="stop-color:#9D7818;stop-color:color(display-p3 0.6157 0.4706 0.0941);stop-opacity:1;"/>
</linearGradient>
<linearGradient id="paint24_linear_1497_31741" x1="51.2607" y1="17.1738" x2="12.2991" y2="53.0027" gradientUnits="userSpaceOnUse">
<stop stop-color="#B27D27" style="stop-color:#B27D27;stop-color:color(display-p3 0.6980 0.4902 0.1529);stop-opacity:1;"/>
<stop offset="0.00561798" stop-color="#B27D27" style="stop-color:#B27D27;stop-color:color(display-p3 0.6980 0.4902 0.1529);stop-opacity:1;"/>
<stop offset="0.174694" stop-color="#B27D27" style="stop-color:#B27D27;stop-color:color(display-p3 0.6980 0.4902 0.1529);stop-opacity:1;"/>
<stop offset="0.514866" stop-color="#E5C222" style="stop-color:#E5C222;stop-color:color(display-p3 0.8980 0.7608 0.1333);stop-opacity:1;"/>
<stop offset="0.795448" stop-color="#9D7818" style="stop-color:#9D7818;stop-color:color(display-p3 0.6157 0.4706 0.0941);stop-opacity:1;"/>
<stop offset="1" stop-color="#9D7818" style="stop-color:#9D7818;stop-color:color(display-p3 0.6157 0.4706 0.0941);stop-opacity:1;"/>
</linearGradient>
<linearGradient id="paint25_linear_1497_31741" x1="51.0175" y1="16.9082" x2="12.0557" y2="52.7369" gradientUnits="userSpaceOnUse">
<stop stop-color="#B27D27" style="stop-color:#B27D27;stop-color:color(display-p3 0.6980 0.4902 0.1529);stop-opacity:1;"/>
<stop offset="0.00561798" stop-color="#B27D27" style="stop-color:#B27D27;stop-color:color(display-p3 0.6980 0.4902 0.1529);stop-opacity:1;"/>
<stop offset="0.174694" stop-color="#B27D27" style="stop-color:#B27D27;stop-color:color(display-p3 0.6980 0.4902 0.1529);stop-opacity:1;"/>
<stop offset="0.514866" stop-color="#E5C222" style="stop-color:#E5C222;stop-color:color(display-p3 0.8980 0.7608 0.1333);stop-opacity:1;"/>
<stop offset="0.795448" stop-color="#9D7818" style="stop-color:#9D7818;stop-color:color(display-p3 0.6157 0.4706 0.0941);stop-opacity:1;"/>
<stop offset="1" stop-color="#9D7818" style="stop-color:#9D7818;stop-color:color(display-p3 0.6157 0.4706 0.0941);stop-opacity:1;"/>
</linearGradient>
<linearGradient id="paint26_linear_1497_31741" x1="50.9013" y1="16.7776" x2="11.9395" y2="52.6064" gradientUnits="userSpaceOnUse">
<stop stop-color="#B27D27" style="stop-color:#B27D27;stop-color:color(display-p3 0.6980 0.4902 0.1529);stop-opacity:1;"/>
<stop offset="0.00561798" stop-color="#B27D27" style="stop-color:#B27D27;stop-color:color(display-p3 0.6980 0.4902 0.1529);stop-opacity:1;"/>
<stop offset="0.174694" stop-color="#B27D27" style="stop-color:#B27D27;stop-color:color(display-p3 0.6980 0.4902 0.1529);stop-opacity:1;"/>
<stop offset="0.514866" stop-color="#E5C222" style="stop-color:#E5C222;stop-color:color(display-p3 0.8980 0.7608 0.1333);stop-opacity:1;"/>
<stop offset="0.795448" stop-color="#9D7818" style="stop-color:#9D7818;stop-color:color(display-p3 0.6157 0.4706 0.0941);stop-opacity:1;"/>
<stop offset="1" stop-color="#9D7818" style="stop-color:#9D7818;stop-color:color(display-p3 0.6157 0.4706 0.0941);stop-opacity:1;"/>
</linearGradient>
<linearGradient id="paint27_linear_1497_31741" x1="50.6199" y1="16.4733" x2="11.658" y2="52.3021" gradientUnits="userSpaceOnUse">
<stop stop-color="#B27D27" style="stop-color:#B27D27;stop-color:color(display-p3 0.6980 0.4902 0.1529);stop-opacity:1;"/>
<stop offset="0.00561798" stop-color="#B27D27" style="stop-color:#B27D27;stop-color:color(display-p3 0.6980 0.4902 0.1529);stop-opacity:1;"/>
<stop offset="0.174694" stop-color="#B27D27" style="stop-color:#B27D27;stop-color:color(display-p3 0.6980 0.4902 0.1529);stop-opacity:1;"/>
<stop offset="0.514866" stop-color="#E5C222" style="stop-color:#E5C222;stop-color:color(display-p3 0.8980 0.7608 0.1333);stop-opacity:1;"/>
<stop offset="0.795448" stop-color="#9D7818" style="stop-color:#9D7818;stop-color:color(display-p3 0.6157 0.4706 0.0941);stop-opacity:1;"/>
<stop offset="1" stop-color="#9D7818" style="stop-color:#9D7818;stop-color:color(display-p3 0.6157 0.4706 0.0941);stop-opacity:1;"/>
</linearGradient>
<linearGradient id="paint28_linear_1497_31741" x1="50.334" y1="16.159" x2="11.3719" y2="51.9877" gradientUnits="userSpaceOnUse">
<stop stop-color="#B27D27" style="stop-color:#B27D27;stop-color:color(display-p3 0.6980 0.4902 0.1529);stop-opacity:1;"/>
<stop offset="0.00561798" stop-color="#B27D27" style="stop-color:#B27D27;stop-color:color(display-p3 0.6980 0.4902 0.1529);stop-opacity:1;"/>
<stop offset="0.174694" stop-color="#B27D27" style="stop-color:#B27D27;stop-color:color(display-p3 0.6980 0.4902 0.1529);stop-opacity:1;"/>
<stop offset="0.514866" stop-color="#E5C222" style="stop-color:#E5C222;stop-color:color(display-p3 0.8980 0.7608 0.1333);stop-opacity:1;"/>
<stop offset="0.795448" stop-color="#9D7818" style="stop-color:#9D7818;stop-color:color(display-p3 0.6157 0.4706 0.0941);stop-opacity:1;"/>
<stop offset="1" stop-color="#9D7818" style="stop-color:#9D7818;stop-color:color(display-p3 0.6157 0.4706 0.0941);stop-opacity:1;"/>
</linearGradient>
<linearGradient id="paint29_linear_1497_31741" x1="32.8024" y1="-2.9044" x2="-6.15957" y2="32.9243" gradientUnits="userSpaceOnUse">
<stop stop-color="#B27D27" style="stop-color:#B27D27;stop-color:color(display-p3 0.6980 0.4902 0.1529);stop-opacity:1;"/>
<stop offset="0.00561798" stop-color="#B27D27" style="stop-color:#B27D27;stop-color:color(display-p3 0.6980 0.4902 0.1529);stop-opacity:1;"/>
<stop offset="0.174694" stop-color="#B27D27" style="stop-color:#B27D27;stop-color:color(display-p3 0.6980 0.4902 0.1529);stop-opacity:1;"/>
<stop offset="0.514866" stop-color="#E5C222" style="stop-color:#E5C222;stop-color:color(display-p3 0.8980 0.7608 0.1333);stop-opacity:1;"/>
<stop offset="0.795448" stop-color="#9D7818" style="stop-color:#9D7818;stop-color:color(display-p3 0.6157 0.4706 0.0941);stop-opacity:1;"/>
<stop offset="1" stop-color="#9D7818" style="stop-color:#9D7818;stop-color:color(display-p3 0.6157 0.4706 0.0941);stop-opacity:1;"/>
</linearGradient>
<linearGradient id="paint30_linear_1497_31741" x1="47.8122" y1="13.4177" x2="8.85021" y2="49.2465" gradientUnits="userSpaceOnUse">
<stop stop-color="#B27D27" style="stop-color:#B27D27;stop-color:color(display-p3 0.6980 0.4902 0.1529);stop-opacity:1;"/>
<stop offset="0.00561798" stop-color="#B27D27" style="stop-color:#B27D27;stop-color:color(display-p3 0.6980 0.4902 0.1529);stop-opacity:1;"/>
<stop offset="0.174694" stop-color="#B27D27" style="stop-color:#B27D27;stop-color:color(display-p3 0.6980 0.4902 0.1529);stop-opacity:1;"/>
<stop offset="0.514866" stop-color="#E5C222" style="stop-color:#E5C222;stop-color:color(display-p3 0.8980 0.7608 0.1333);stop-opacity:1;"/>
<stop offset="0.795448" stop-color="#9D7818" style="stop-color:#9D7818;stop-color:color(display-p3 0.6157 0.4706 0.0941);stop-opacity:1;"/>
<stop offset="1" stop-color="#9D7818" style="stop-color:#9D7818;stop-color:color(display-p3 0.6157 0.4706 0.0941);stop-opacity:1;"/>
</linearGradient>
<linearGradient id="paint31_linear_1497_31741" x1="29.5518" y1="-6.43984" x2="-9.41027" y2="29.3888" gradientUnits="userSpaceOnUse">
<stop stop-color="#B27D27" style="stop-color:#B27D27;stop-color:color(display-p3 0.6980 0.4902 0.1529);stop-opacity:1;"/>
<stop offset="0.00561798" stop-color="#B27D27" style="stop-color:#B27D27;stop-color:color(display-p3 0.6980 0.4902 0.1529);stop-opacity:1;"/>
<stop offset="0.174694" stop-color="#B27D27" style="stop-color:#B27D27;stop-color:color(display-p3 0.6980 0.4902 0.1529);stop-opacity:1;"/>
<stop offset="0.514866" stop-color="#E5C222" style="stop-color:#E5C222;stop-color:color(display-p3 0.8980 0.7608 0.1333);stop-opacity:1;"/>
<stop offset="0.795448" stop-color="#9D7818" style="stop-color:#9D7818;stop-color:color(display-p3 0.6157 0.4706 0.0941);stop-opacity:1;"/>
<stop offset="1" stop-color="#9D7818" style="stop-color:#9D7818;stop-color:color(display-p3 0.6157 0.4706 0.0941);stop-opacity:1;"/>
</linearGradient>
<linearGradient id="paint32_linear_1497_31741" x1="29.1888" y1="-6.83115" x2="-9.77316" y2="28.9976" gradientUnits="userSpaceOnUse">
<stop stop-color="#B27D27" style="stop-color:#B27D27;stop-color:color(display-p3 0.6980 0.4902 0.1529);stop-opacity:1;"/>
<stop offset="0.00561798" stop-color="#B27D27" style="stop-color:#B27D27;stop-color:color(display-p3 0.6980 0.4902 0.1529);stop-opacity:1;"/>
<stop offset="0.174694" stop-color="#B27D27" style="stop-color:#B27D27;stop-color:color(display-p3 0.6980 0.4902 0.1529);stop-opacity:1;"/>
<stop offset="0.514866" stop-color="#E5C222" style="stop-color:#E5C222;stop-color:color(display-p3 0.8980 0.7608 0.1333);stop-opacity:1;"/>
<stop offset="0.795448" stop-color="#9D7818" style="stop-color:#9D7818;stop-color:color(display-p3 0.6157 0.4706 0.0941);stop-opacity:1;"/>
<stop offset="1" stop-color="#9D7818" style="stop-color:#9D7818;stop-color:color(display-p3 0.6157 0.4706 0.0941);stop-opacity:1;"/>
</linearGradient>
<linearGradient id="paint33_linear_1497_31741" x1="29.7231" y1="-6.25594" x2="-9.2389" y2="29.5728" gradientUnits="userSpaceOnUse">
<stop stop-color="#B27D27" style="stop-color:#B27D27;stop-color:color(display-p3 0.6980 0.4902 0.1529);stop-opacity:1;"/>
<stop offset="0.00561798" stop-color="#B27D27" style="stop-color:#B27D27;stop-color:color(display-p3 0.6980 0.4902 0.1529);stop-opacity:1;"/>
<stop offset="0.174694" stop-color="#B27D27" style="stop-color:#B27D27;stop-color:color(display-p3 0.6980 0.4902 0.1529);stop-opacity:1;"/>
<stop offset="0.514866" stop-color="#E5C222" style="stop-color:#E5C222;stop-color:color(display-p3 0.8980 0.7608 0.1333);stop-opacity:1;"/>
<stop offset="0.795448" stop-color="#9D7818" style="stop-color:#9D7818;stop-color:color(display-p3 0.6157 0.4706 0.0941);stop-opacity:1;"/>
<stop offset="1" stop-color="#9D7818" style="stop-color:#9D7818;stop-color:color(display-p3 0.6157 0.4706 0.0941);stop-opacity:1;"/>
</linearGradient>
<linearGradient id="paint34_linear_1497_31741" x1="31.1516" y1="-4.70031" x2="-7.81041" y2="31.1284" gradientUnits="userSpaceOnUse">
<stop stop-color="#B27D27" style="stop-color:#B27D27;stop-color:color(display-p3 0.6980 0.4902 0.1529);stop-opacity:1;"/>
<stop offset="0.00561798" stop-color="#B27D27" style="stop-color:#B27D27;stop-color:color(display-p3 0.6980 0.4902 0.1529);stop-opacity:1;"/>
<stop offset="0.174694" stop-color="#B27D27" style="stop-color:#B27D27;stop-color:color(display-p3 0.6980 0.4902 0.1529);stop-opacity:1;"/>
<stop offset="0.514866" stop-color="#E5C222" style="stop-color:#E5C222;stop-color:color(display-p3 0.8980 0.7608 0.1333);stop-opacity:1;"/>
<stop offset="0.795448" stop-color="#9D7818" style="stop-color:#9D7818;stop-color:color(display-p3 0.6157 0.4706 0.0941);stop-opacity:1;"/>
<stop offset="1" stop-color="#9D7818" style="stop-color:#9D7818;stop-color:color(display-p3 0.6157 0.4706 0.0941);stop-opacity:1;"/>
</linearGradient>
<linearGradient id="paint35_linear_1497_31741" x1="33.419" y1="-2.2341" x2="-5.54292" y2="33.5946" gradientUnits="userSpaceOnUse">
<stop stop-color="#B27D27" style="stop-color:#B27D27;stop-color:color(display-p3 0.6980 0.4902 0.1529);stop-opacity:1;"/>
<stop offset="0.00561798" stop-color="#B27D27" style="stop-color:#B27D27;stop-color:color(display-p3 0.6980 0.4902 0.1529);stop-opacity:1;"/>
<stop offset="0.174694" stop-color="#B27D27" style="stop-color:#B27D27;stop-color:color(display-p3 0.6980 0.4902 0.1529);stop-opacity:1;"/>
<stop offset="0.514866" stop-color="#E5C222" style="stop-color:#E5C222;stop-color:color(display-p3 0.8980 0.7608 0.1333);stop-opacity:1;"/>
<stop offset="0.795448" stop-color="#9D7818" style="stop-color:#9D7818;stop-color:color(display-p3 0.6157 0.4706 0.0941);stop-opacity:1;"/>
<stop offset="1" stop-color="#9D7818" style="stop-color:#9D7818;stop-color:color(display-p3 0.6157 0.4706 0.0941);stop-opacity:1;"/>
</linearGradient>
<linearGradient id="paint36_linear_1497_31741" x1="36.5499" y1="1.17363" x2="-2.41214" y2="37.0023" gradientUnits="userSpaceOnUse">
<stop stop-color="#B27D27" style="stop-color:#B27D27;stop-color:color(display-p3 0.6980 0.4902 0.1529);stop-opacity:1;"/>
<stop offset="0.00561798" stop-color="#B27D27" style="stop-color:#B27D27;stop-color:color(display-p3 0.6980 0.4902 0.1529);stop-opacity:1;"/>
<stop offset="0.174694" stop-color="#B27D27" style="stop-color:#B27D27;stop-color:color(display-p3 0.6980 0.4902 0.1529);stop-opacity:1;"/>
<stop offset="0.514866" stop-color="#E5C222" style="stop-color:#E5C222;stop-color:color(display-p3 0.8980 0.7608 0.1333);stop-opacity:1;"/>
<stop offset="0.795448" stop-color="#9D7818" style="stop-color:#9D7818;stop-color:color(display-p3 0.6157 0.4706 0.0941);stop-opacity:1;"/>
<stop offset="1" stop-color="#9D7818" style="stop-color:#9D7818;stop-color:color(display-p3 0.6157 0.4706 0.0941);stop-opacity:1;"/>
</linearGradient>
<linearGradient id="paint37_linear_1497_31741" x1="39.1176" y1="3.96338" x2="0.155701" y2="39.792" gradientUnits="userSpaceOnUse">
<stop stop-color="#B27D27" style="stop-color:#B27D27;stop-color:color(display-p3 0.6980 0.4902 0.1529);stop-opacity:1;"/>
<stop offset="0.00561798" stop-color="#B27D27" style="stop-color:#B27D27;stop-color:color(display-p3 0.6980 0.4902 0.1529);stop-opacity:1;"/>
<stop offset="0.174694" stop-color="#B27D27" style="stop-color:#B27D27;stop-color:color(display-p3 0.6980 0.4902 0.1529);stop-opacity:1;"/>
<stop offset="0.514866" stop-color="#E5C222" style="stop-color:#E5C222;stop-color:color(display-p3 0.8980 0.7608 0.1333);stop-opacity:1;"/>
<stop offset="0.795448" stop-color="#9D7818" style="stop-color:#9D7818;stop-color:color(display-p3 0.6157 0.4706 0.0941);stop-opacity:1;"/>
<stop offset="1" stop-color="#9D7818" style="stop-color:#9D7818;stop-color:color(display-p3 0.6157 0.4706 0.0941);stop-opacity:1;"/>
</linearGradient>
<linearGradient id="paint38_linear_1497_31741" x1="41.7491" y1="6.82398" x2="2.78724" y2="42.6526" gradientUnits="userSpaceOnUse">
<stop stop-color="#B27D27" style="stop-color:#B27D27;stop-color:color(display-p3 0.6980 0.4902 0.1529);stop-opacity:1;"/>
<stop offset="0.00561798" stop-color="#B27D27" style="stop-color:#B27D27;stop-color:color(display-p3 0.6980 0.4902 0.1529);stop-opacity:1;"/>
<stop offset="0.174694" stop-color="#B27D27" style="stop-color:#B27D27;stop-color:color(display-p3 0.6980 0.4902 0.1529);stop-opacity:1;"/>
<stop offset="0.514866" stop-color="#E5C222" style="stop-color:#E5C222;stop-color:color(display-p3 0.8980 0.7608 0.1333);stop-opacity:1;"/>
<stop offset="0.795448" stop-color="#9D7818" style="stop-color:#9D7818;stop-color:color(display-p3 0.6157 0.4706 0.0941);stop-opacity:1;"/>
<stop offset="1" stop-color="#9D7818" style="stop-color:#9D7818;stop-color:color(display-p3 0.6157 0.4706 0.0941);stop-opacity:1;"/>
</linearGradient>
<radialGradient id="paint39_radial_1497_31741" cx="0" cy="0" r="1" gradientUnits="userSpaceOnUse" gradientTransform="translate(15.3156 21.768) scale(4.18995 4.18995)">
<stop stop-color="#B00941" style="stop-color:#B00941;stop-color:color(display-p3 0.6902 0.0353 0.2549);stop-opacity:1;"/>
<stop offset="0.525396" stop-color="#B00941" style="stop-color:#B00941;stop-color:color(display-p3 0.6902 0.0353 0.2549);stop-opacity:1;"/>
<stop offset="0.997191" stop-color="#3F020B" style="stop-color:#3F020B;stop-color:color(display-p3 0.2471 0.0078 0.0431);stop-opacity:1;"/>
<stop offset="1" stop-color="#3F020B" style="stop-color:#3F020B;stop-color:color(display-p3 0.2471 0.0078 0.0431);stop-opacity:1;"/>
</radialGradient>
<radialGradient id="paint40_radial_1497_31741" cx="0" cy="0" r="1" gradientUnits="userSpaceOnUse" gradientTransform="translate(22.093 21.7504) scale(4.21589 4.21589)">
<stop stop-color="#B00941" style="stop-color:#B00941;stop-color:color(display-p3 0.6902 0.0353 0.2549);stop-opacity:1;"/>
<stop offset="0.525396" stop-color="#B00941" style="stop-color:#B00941;stop-color:color(display-p3 0.6902 0.0353 0.2549);stop-opacity:1;"/>
<stop offset="0.997191" stop-color="#3F020B" style="stop-color:#3F020B;stop-color:color(display-p3 0.2471 0.0078 0.0431);stop-opacity:1;"/>
<stop offset="1" stop-color="#3F020B" style="stop-color:#3F020B;stop-color:color(display-p3 0.2471 0.0078 0.0431);stop-opacity:1;"/>
</radialGradient>
<radialGradient id="paint41_radial_1497_31741" cx="0" cy="0" r="1" gradientUnits="userSpaceOnUse" gradientTransform="translate(29.0801 21.768) scale(4.17498 4.17498)">
<stop stop-color="#B00941" style="stop-color:#B00941;stop-color:color(display-p3 0.6902 0.0353 0.2549);stop-opacity:1;"/>
<stop offset="0.525396" stop-color="#B00941" style="stop-color:#B00941;stop-color:color(display-p3 0.6902 0.0353 0.2549);stop-opacity:1;"/>
<stop offset="0.997191" stop-color="#3F020B" style="stop-color:#3F020B;stop-color:color(display-p3 0.2471 0.0078 0.0431);stop-opacity:1;"/>
<stop offset="1" stop-color="#3F020B" style="stop-color:#3F020B;stop-color:color(display-p3 0.2471 0.0078 0.0431);stop-opacity:1;"/>
</radialGradient>
</defs>
</svg>
