<svg width="44" height="44" viewBox="0 0 44 44" fill="none" xmlns="http://www.w3.org/2000/svg">
<path d="M0 22C0 34.1499 9.85007 43.9995 22 43.9995C34.1502 43.9995 44 34.1499 44 22C44 9.84958 34.1502 -3.05176e-05 22 -3.05176e-05C9.85007 -3.05176e-05 0 9.84958 0 22Z" fill="url(#paint0_radial_1497_31952)" style=""/>
<path d="M1.07886 21.9999C1.07886 33.5539 10.4456 42.9207 21.9999 42.9207C33.5543 42.9207 42.9211 33.5539 42.9211 21.9999C42.9211 10.4452 33.5543 1.07864 21.9999 1.07864C10.4456 1.07864 1.07886 10.4452 1.07886 21.9999Z" fill="url(#paint1_linear_1497_31952)" style=""/>
<path d="M9.31299 22.0013C9.31299 25.6917 10.8785 29.0142 13.3754 31.3481H30.8265C33.3277 29.0142 34.893 25.6917 34.893 22.0013C34.893 14.9351 29.1673 9.20929 22.101 9.20929C15.0388 9.20929 9.31299 14.9351 9.31299 22.0013Z" fill="url(#paint2_radial_1497_31952)" style=""/>
<path d="M1.64844 21.9998C1.64844 33.2216 10.7781 42.3511 21.9999 42.3511C33.2217 42.3511 42.3514 33.2216 42.3514 21.9998C42.3514 10.778 33.2217 1.64834 21.9999 1.64834C10.7781 1.64834 1.64844 10.778 1.64844 21.9998ZM2.05709 21.9998C2.05709 11.0035 11.0039 2.05699 21.9999 2.05699C32.9962 2.05699 41.9427 11.0035 41.9427 21.9998C41.9427 32.9961 32.9962 41.9424 21.9999 41.9424C11.0039 41.9424 2.05709 32.9961 2.05709 21.9998Z" fill="url(#paint3_radial_1497_31952)" style=""/>
<path d="M20.2348 32.7087L19.5789 37.1127H20.5155L20.3813 38.0214H21.3233L20.2868 38.6639L20.1185 39.8066H23.8538L24.4685 35.645H23.5321L23.9702 32.7087H20.2348ZM20.4358 34.7227C20.4754 34.449 20.6224 34.2007 20.8285 34.0206C21.035 33.84 21.2988 33.7299 21.5702 33.7279H21.5723H21.5744C21.5955 33.7279 21.6168 33.7279 21.6381 33.73L21.5619 34.2519C21.5403 34.2475 21.519 34.2455 21.4958 34.2455C21.2348 34.2475 20.9914 34.4596 20.9513 34.7227C20.9131 34.9837 21.0943 35.1979 21.3551 35.1979C21.5359 35.1979 21.7065 35.0938 21.808 34.9439H21.4596L21.5229 34.5157H22.4232L22.4255 34.5848C22.4269 34.6293 22.422 34.6761 22.4151 34.7227C22.3755 34.9965 22.2264 35.2447 22.0201 35.4248C21.814 35.6052 21.5503 35.7155 21.2786 35.7176H21.2765H21.2744C20.7313 35.7155 20.354 35.2702 20.4358 34.7227Z" fill="url(#paint4_radial_1497_31952)" style=""/>
<path d="M6.44192 26.5149L6.51123 26.7328C6.54298 26.7279 6.57242 26.733 6.60023 26.748C6.62828 26.7631 6.65007 26.7944 6.66583 26.8438C6.67951 26.8867 6.67812 26.9224 6.66236 26.9502C6.64613 26.9778 6.62225 26.9972 6.58957 27.0072C6.55967 27.0169 6.52931 27.0183 6.49802 27.0121C6.46695 27.0056 6.43682 26.9954 6.40808 26.9803C6.37887 26.9662 6.32533 26.9349 6.24675 26.8885C6.19158 26.8551 6.13758 26.8215 6.08542 26.7882C6.03281 26.7545 5.98065 26.7207 5.9285 26.6862L5.73657 26.748L5.96211 27.4539L6.17374 27.3859L6.05691 27.0188C6.10118 27.0492 6.14801 27.0807 6.19738 27.1138C6.24629 27.147 6.29659 27.1757 6.34804 27.2005C6.39927 27.2258 6.45351 27.2425 6.5103 27.2513C6.56662 27.2603 6.62341 27.2554 6.6802 27.2376C6.73282 27.2207 6.77594 27.1966 6.80931 27.1653C6.84316 27.1338 6.86772 27.0983 6.88395 27.0584C6.90041 27.0181 6.90852 26.9741 6.90806 26.927C6.90806 26.8802 6.90041 26.8334 6.88534 26.7865C6.86911 26.7355 6.84733 26.6896 6.81928 26.6493C6.79193 26.6087 6.75925 26.5763 6.7217 26.551C6.68414 26.526 6.64196 26.51 6.59444 26.5026C6.57937 26.5005 6.56408 26.4993 6.54808 26.4993C6.51447 26.4993 6.47901 26.5044 6.44192 26.5149Z" fill="url(#paint5_radial_1497_31952)" style=""/>
<path d="M6.77198 27.4527C6.70221 27.4605 6.62781 27.4798 6.5483 27.5104C6.46856 27.5414 6.40065 27.5776 6.34409 27.6184C6.2873 27.6594 6.24396 27.7049 6.21266 27.7547C6.18207 27.8045 6.16445 27.8592 6.16097 27.919C6.15726 27.9791 6.16839 28.0428 6.19482 28.1105C6.22124 28.1782 6.25578 28.2324 6.29866 28.2735C6.34201 28.3149 6.39207 28.3435 6.44863 28.3597C6.50542 28.3761 6.568 28.3805 6.63754 28.3727C6.70638 28.3641 6.78126 28.3451 6.86076 28.3133C6.94003 28.2832 7.00772 28.2468 7.06404 28.2053C7.12037 28.1643 7.16418 28.1184 7.19524 28.0676C7.22653 28.0173 7.24414 27.9626 7.24855 27.9037C7.25249 27.8446 7.2416 27.7818 7.2161 27.7164C7.19014 27.6497 7.15537 27.5955 7.11249 27.554C7.06937 27.512 7.01907 27.4833 6.96228 27.4666C6.92311 27.455 6.88069 27.449 6.83526 27.449C6.81487 27.449 6.79377 27.4501 6.77198 27.4527ZM6.54737 28.1344C6.51423 28.1316 6.48525 28.1219 6.46045 28.1056C6.43542 28.0887 6.41641 28.0632 6.4032 28.0294C6.38999 27.9946 6.38697 27.9626 6.39485 27.9339C6.40227 27.9047 6.41711 27.8785 6.43913 27.8541C6.46092 27.8298 6.48942 27.8078 6.52373 27.7888C6.55873 27.7695 6.59605 27.7517 6.63661 27.7355C6.67648 27.7204 6.71612 27.7081 6.75437 27.6998C6.79261 27.6914 6.82808 27.6886 6.86076 27.6916C6.89321 27.6944 6.92195 27.7044 6.94722 27.7211C6.97179 27.738 6.99103 27.764 7.0047 27.7985C7.01768 27.8326 7.02093 27.8636 7.01328 27.8922C7.00632 27.92 6.99103 27.9469 6.96877 27.971C6.94629 27.9951 6.91801 28.0169 6.88371 28.0366C6.84987 28.0558 6.81278 28.0732 6.77337 28.088C6.73188 28.1042 6.69201 28.1168 6.65377 28.1253C6.62363 28.1318 6.59536 28.1351 6.56847 28.1351C6.56128 28.1351 6.55433 28.1348 6.54737 28.1344Z" fill="url(#paint6_radial_1497_31952)" style=""/>
<path d="M7.16842 28.4465C7.09888 28.4593 7.02633 28.4831 6.94914 28.5191C6.87172 28.5554 6.80589 28.596 6.75258 28.6405C6.69857 28.685 6.65801 28.7332 6.63019 28.7852C6.6033 28.8371 6.58986 28.8925 6.59009 28.9523C6.59009 29.0128 6.60562 29.0758 6.63622 29.1412C6.66682 29.207 6.70483 29.2585 6.75096 29.297C6.79639 29.3352 6.84831 29.3605 6.9058 29.3728C6.96328 29.3855 7.02633 29.3855 7.0954 29.3728C7.16401 29.36 7.23703 29.3354 7.31491 29.2997C7.3914 29.2634 7.45654 29.2235 7.51008 29.1783C7.56363 29.1333 7.60419 29.0846 7.63177 29.0318C7.65982 28.9796 7.6735 28.9238 7.6735 28.8647C7.67419 28.8056 7.65889 28.7441 7.62922 28.6804C7.59909 28.6153 7.56061 28.5638 7.51472 28.5251C7.46882 28.4866 7.41713 28.4609 7.35918 28.4477C7.32928 28.4409 7.29799 28.4377 7.26507 28.4377C7.23425 28.4377 7.20203 28.4405 7.16842 28.4465ZM6.98924 29.1412C6.95632 29.1412 6.92689 29.1335 6.90093 29.1185C6.87497 29.1034 6.85434 29.0798 6.83904 29.0466C6.82328 29.0128 6.81794 28.981 6.82397 28.9516C6.82953 28.9226 6.84252 28.895 6.86268 28.8695C6.88308 28.8433 6.90973 28.8202 6.94334 28.7984C6.97626 28.7768 7.01288 28.7564 7.05182 28.7381C7.091 28.7203 7.12971 28.705 7.16726 28.6943C7.20504 28.6834 7.24028 28.6783 7.27296 28.679C7.30587 28.6799 7.33508 28.6878 7.36127 28.7031C7.387 28.7179 7.40786 28.7427 7.42385 28.7766C7.43938 28.8093 7.44379 28.8399 7.43869 28.8691C7.4329 28.8976 7.42038 28.9245 7.39905 28.9504C7.37842 28.9764 7.35154 29.0003 7.31885 29.0214C7.28617 29.0427 7.25047 29.0626 7.21223 29.0807C7.17213 29.0999 7.13272 29.1143 7.0954 29.1252C7.05947 29.1359 7.0261 29.1412 6.99457 29.1412C6.99272 29.1412 6.99109 29.1412 6.98924 29.1412Z" fill="url(#paint7_radial_1497_31952)" style=""/>
<path d="M7.22644 30.2712L7.35161 30.4833L8.07967 30.054L8.33951 30.4946L8.53352 30.3797L8.14875 29.7274L7.22644 30.2712Z" fill="url(#paint8_radial_1497_31952)" style=""/>
<path d="M7.75513 31.1534L7.86592 31.3154L8.6721 31.3655L8.14778 31.7257L8.28709 31.9287L9.16953 31.323L9.0585 31.1608L8.24468 31.1163L8.7771 30.7505L8.63756 30.5472L7.75513 31.1534Z" fill="url(#paint9_radial_1497_31952)" style=""/>
<path d="M8.50635 32.2219L8.66026 32.4141L8.98871 32.1515L9.07934 32.2648L8.90944 32.7258L9.08908 32.9507L9.30789 32.3281L9.92423 32.2801L9.74784 32.0594L9.24577 32.1144L9.16348 32.0119L9.49634 31.7454L9.3422 31.5527L8.50635 32.2219Z" fill="url(#paint10_radial_1497_31952)" style=""/>
<path d="M9.25415 33.1371L9.42127 33.3177L9.73072 33.0335L9.82877 33.1399L9.69131 33.6118L9.88625 33.8232L10.061 33.187L10.673 33.0973L10.4813 32.8889L9.98453 32.9788L9.89506 32.8819L10.2091 32.5929L10.042 32.4116L9.25415 33.1371Z" fill="url(#paint11_radial_1497_31952)" style=""/>
<path d="M10.7376 33.3504C10.6704 33.3534 10.6041 33.3701 10.5397 33.4016C10.475 33.4327 10.4145 33.4784 10.3584 33.5375C10.3032 33.5961 10.2617 33.6587 10.2337 33.7243C10.2057 33.7901 10.1917 33.8564 10.1927 33.9229C10.1929 33.9899 10.208 34.0562 10.2381 34.1209C10.2675 34.1856 10.3125 34.247 10.3737 34.3042C10.433 34.3615 10.4966 34.403 10.5633 34.4292C10.6303 34.4549 10.6977 34.4658 10.7661 34.4619C10.8338 34.4586 10.9003 34.4405 10.965 34.4086C11.0297 34.3768 11.0897 34.3316 11.1446 34.2727C11.201 34.2132 11.2425 34.1508 11.27 34.0854C11.2972 34.0196 11.3104 33.9528 11.3092 33.8863C11.3081 33.8193 11.2921 33.7535 11.2617 33.6895C11.2309 33.6258 11.1861 33.5655 11.1268 33.5097C11.0672 33.4531 11.0046 33.4121 10.9379 33.3859C10.8788 33.3622 10.819 33.3499 10.7589 33.3499C10.752 33.3499 10.7448 33.35 10.7376 33.3504ZM10.6435 34.2097C10.6057 34.1988 10.5689 34.1765 10.5336 34.1434C10.4977 34.1079 10.4727 34.0711 10.4588 34.033C10.4449 33.995 10.4391 33.957 10.4428 33.919C10.4458 33.881 10.4562 33.8444 10.4745 33.8084C10.4919 33.773 10.5149 33.7398 10.5434 33.7095C10.5707 33.6805 10.602 33.6557 10.6368 33.636C10.6716 33.616 10.7075 33.6031 10.7448 33.5973C10.7819 33.5917 10.8204 33.5947 10.8591 33.6061C10.8978 33.6179 10.9353 33.6408 10.9713 33.6747C11.0079 33.7092 11.0327 33.7456 11.0454 33.7846C11.0587 33.8226 11.0631 33.8608 11.0589 33.8986C11.0549 33.9366 11.044 33.9732 11.0253 34.0082C11.0067 34.0437 10.984 34.0755 10.9571 34.1042C10.93 34.1325 10.8994 34.1573 10.8649 34.1777C10.8308 34.1976 10.7946 34.2106 10.7573 34.2166C10.7439 34.2189 10.7302 34.2201 10.7168 34.2201C10.6924 34.2201 10.6678 34.2166 10.6435 34.2097Z" fill="url(#paint12_radial_1497_31952)" style=""/>
<path d="M11.9602 34.1074C11.9762 34.1744 12.0179 34.2351 12.0845 34.2884C12.1503 34.3417 12.2177 34.3691 12.2863 34.3707C12.355 34.3723 12.4206 34.3417 12.4822 34.2773L12.3258 34.1507C12.3051 34.1716 12.2829 34.1825 12.2592 34.1827C12.2356 34.1832 12.2129 34.1744 12.1911 34.1563C12.1695 34.1396 12.1565 34.1192 12.1514 34.0958C12.1466 34.0724 12.1519 34.0478 12.167 34.0228L12.0114 33.8974C11.9616 33.9704 11.9442 34.0411 11.9602 34.1074ZM11.0024 34.8632L11.1557 34.9866L11.9428 34.8037L11.5428 35.2995L11.7344 35.4539L12.4069 34.6206L12.2541 34.4972L11.4614 34.6875L11.8668 34.1848L11.6753 34.0302L11.0024 34.8632Z" fill="url(#paint13_radial_1497_31952)" style=""/>
<path d="M12.0221 35.669L12.2254 35.8088L12.4623 35.4655L12.8081 35.704L12.571 36.048L12.7743 36.1875L13.3816 35.3058L13.179 35.166L12.9342 35.5209L12.5881 35.2824L12.8329 34.9277L12.6296 34.7875L12.0221 35.669Z" fill="url(#paint14_radial_1497_31952)" style=""/>
<path d="M13.6288 35.623C13.5643 35.6413 13.5036 35.6731 13.4477 35.718C13.3919 35.763 13.3432 35.821 13.3024 35.8917C13.2616 35.961 13.2354 36.0312 13.2231 36.1014C13.2106 36.1721 13.2122 36.24 13.2282 36.3047C13.2438 36.3701 13.2737 36.4306 13.317 36.4869C13.3611 36.5432 13.419 36.5924 13.4913 36.6348C13.5623 36.6767 13.6336 36.7034 13.7048 36.7129C13.7757 36.7233 13.8441 36.7185 13.9095 36.699C13.9748 36.6798 14.0356 36.6473 14.091 36.6014C14.1471 36.556 14.1948 36.4985 14.2354 36.4283C14.2764 36.358 14.3031 36.2878 14.3144 36.2176C14.3262 36.1469 14.3237 36.0796 14.3075 36.015C14.2908 35.9498 14.2602 35.8896 14.2164 35.8339C14.1721 35.779 14.1146 35.7308 14.0444 35.6893C13.9739 35.6483 13.903 35.6225 13.8321 35.6119C13.8056 35.6077 13.7794 35.6056 13.7539 35.6056C13.7111 35.6056 13.6696 35.6114 13.6288 35.623ZM13.7326 36.4809C13.6932 36.479 13.6524 36.4658 13.6107 36.4415C13.5673 36.4153 13.5347 36.3851 13.5129 36.3513C13.4904 36.317 13.4765 36.2815 13.4709 36.244C13.4651 36.2064 13.4672 36.168 13.4765 36.129C13.4858 36.0898 13.5006 36.0528 13.5215 36.0168C13.5416 35.9821 13.5667 35.951 13.5956 35.9236C13.6248 35.8968 13.6573 35.8759 13.6925 35.8615C13.7271 35.8476 13.7651 35.842 13.8052 35.8444C13.846 35.8471 13.8875 35.8608 13.9303 35.8856C13.9739 35.9109 14.0064 35.9406 14.0277 35.9753C14.0488 36.0101 14.0618 36.046 14.0669 36.0838C14.0715 36.1216 14.0692 36.1596 14.0592 36.1981C14.0488 36.2368 14.034 36.2727 14.014 36.307C13.9945 36.3409 13.97 36.3717 13.9412 36.3991C13.9123 36.4266 13.8803 36.4477 13.845 36.4621C13.8142 36.4751 13.782 36.4813 13.7477 36.4813C13.7428 36.4813 13.7377 36.4811 13.7326 36.4809Z" fill="url(#paint15_radial_1497_31952)" style=""/>
<path d="M14.2246 37.031L14.6119 37.2196C14.6588 37.2421 14.7086 37.2609 14.7608 37.2757C14.8129 37.2906 14.8637 37.2961 14.9128 37.2936C14.9619 37.2906 15.0083 37.2757 15.0516 37.2502C15.095 37.2241 15.1316 37.1814 15.1606 37.1218C15.1875 37.0664 15.1986 37.0129 15.1937 36.9619C15.1889 36.9107 15.1675 36.8648 15.1291 36.8233C15.1738 36.8198 15.2116 36.8045 15.244 36.7792C15.276 36.754 15.3013 36.7211 15.321 36.6817C15.3435 36.6353 15.3541 36.5922 15.3534 36.5528C15.3527 36.5131 15.3435 36.4767 15.3254 36.4441C15.3078 36.4109 15.2832 36.382 15.2517 36.356C15.2197 36.3296 15.1845 36.3073 15.1458 36.2885L14.6928 36.0681L14.2246 37.031ZM14.8848 36.6341L14.7285 36.5579L14.8166 36.3771L14.9935 36.4633C15.0106 36.4716 15.0266 36.4807 15.0417 36.4902C15.0565 36.4995 15.069 36.5104 15.0783 36.5222C15.0876 36.534 15.0931 36.5474 15.0957 36.5623C15.0975 36.5776 15.0945 36.5943 15.0857 36.6126C15.0681 36.6485 15.0412 36.6668 15.0058 36.6668C15.0051 36.6668 15.0046 36.6668 15.0039 36.6668C14.9694 36.6668 14.9295 36.6559 14.8848 36.6341ZM14.8488 37.0639C14.8289 37.0632 14.8073 37.0588 14.7839 37.0507C14.7605 37.0428 14.7359 37.0324 14.7105 37.0201L14.5431 36.9387L14.6391 36.7415L14.831 36.8349C14.8516 36.8453 14.8713 36.8557 14.8894 36.8666C14.9075 36.878 14.9223 36.8898 14.9339 36.9037C14.945 36.9165 14.9524 36.9315 14.9548 36.9478C14.9575 36.9649 14.9538 36.9825 14.9443 37.0029C14.9332 37.0256 14.9195 37.0412 14.9031 37.0514C14.8875 37.0599 14.8706 37.0639 14.8518 37.0639C14.8507 37.0639 14.8498 37.0639 14.8488 37.0639Z" fill="url(#paint16_radial_1497_31952)" style=""/>
<path d="M28.0359 36.7065C27.9888 36.71 27.9425 36.7208 27.897 36.7396C27.8472 36.7593 27.8034 36.7844 27.7649 36.8147C27.7264 36.8456 27.6968 36.8801 27.6743 36.9197C27.6518 36.9594 27.6388 37.0023 27.6351 37.0502C27.6316 37.0978 27.639 37.1483 27.6583 37.2016L27.8704 37.1165C27.8632 37.0857 27.8662 37.0558 27.879 37.0268C27.8922 36.9976 27.9221 36.9735 27.9696 36.9543C28.012 36.9376 28.0475 36.936 28.0762 36.9499C28.1054 36.964 28.126 36.9867 28.1393 37.0187C28.1504 37.0479 28.1543 37.0781 28.1499 37.1098C28.146 37.1413 28.1376 37.1719 28.1249 37.2021C28.1128 37.2317 28.0857 37.2878 28.0447 37.369C28.015 37.4267 27.9856 37.4825 27.9564 37.5375C27.9265 37.5919 27.8966 37.6466 27.8662 37.7011L27.9415 37.8879L28.629 37.6126L28.5463 37.4063L28.1882 37.5495C28.2151 37.5027 28.2436 37.4538 28.273 37.4026C28.3024 37.3511 28.3275 37.2987 28.3488 37.2459C28.3699 37.1926 28.3826 37.1379 28.3877 37.0801C28.3926 37.0231 28.3836 36.9668 28.3615 36.9119C28.3409 36.8602 28.3136 36.8191 28.2802 36.7881C28.2466 36.757 28.209 36.7345 28.168 36.7213C28.1356 36.7107 28.1012 36.7053 28.0653 36.7053C28.0556 36.7053 28.0458 36.7058 28.0359 36.7065Z" fill="url(#paint17_radial_1497_31952)" style=""/>
<path d="M28.8009 36.3424C28.7362 36.3732 28.6845 36.4114 28.6458 36.4578C28.608 36.5035 28.5823 36.5558 28.5695 36.6136C28.557 36.6717 28.5568 36.735 28.5695 36.8045C28.5823 36.8736 28.6071 36.9466 28.6437 37.0231C28.6796 37.1005 28.7209 37.1661 28.7654 37.2192C28.8111 37.273 28.8593 37.3133 28.9107 37.3405C28.9631 37.3678 29.019 37.3813 29.0792 37.3803C29.1391 37.3796 29.2016 37.3641 29.2672 37.333C29.3331 37.302 29.3845 37.263 29.4225 37.2176C29.4603 37.1713 29.4853 37.1198 29.4976 37.0621C29.5099 37.0039 29.5099 36.9411 29.4967 36.8727C29.4835 36.8041 29.4587 36.7311 29.4216 36.6537C29.3857 36.5772 29.3446 36.5125 29.2994 36.459C29.2542 36.4059 29.2056 36.3655 29.1523 36.3382C29.0999 36.3108 29.044 36.2967 28.9849 36.2967C28.9256 36.2972 28.8641 36.3125 28.8009 36.3424ZM29.0767 37.1467C29.0473 37.1411 29.0199 37.1284 28.9939 37.108C28.9682 37.0873 28.9443 37.0612 28.9223 37.0282C28.901 36.9944 28.8804 36.9585 28.8616 36.9195C28.8437 36.8804 28.8284 36.8421 28.8176 36.8041C28.8062 36.7665 28.8009 36.7315 28.8018 36.6989C28.8023 36.6659 28.8101 36.637 28.825 36.6105C28.8398 36.5844 28.8641 36.5635 28.898 36.5475C28.9307 36.532 28.9615 36.5269 28.9902 36.532C29.019 36.5375 29.0466 36.5503 29.0728 36.5711C29.0983 36.5913 29.1221 36.618 29.1437 36.6509C29.1655 36.6836 29.1854 36.719 29.2035 36.7575C29.2225 36.7971 29.2376 36.8361 29.2489 36.8741C29.26 36.9116 29.2656 36.9471 29.2656 36.9798C29.2654 37.0129 29.258 37.0419 29.2429 37.0686C29.2283 37.0943 29.2042 37.1154 29.1715 37.1309C29.146 37.1427 29.1217 37.1485 29.0989 37.1485C29.0913 37.1485 29.0841 37.1478 29.0767 37.1467Z" fill="url(#paint18_radial_1497_31952)" style=""/>
<path d="M29.9131 35.804C29.8542 35.8082 29.7939 35.8272 29.7327 35.8615C29.6697 35.8967 29.621 35.9387 29.586 35.9869C29.5508 36.0356 29.529 36.0891 29.5202 36.1478C29.5114 36.2064 29.5153 36.2699 29.5325 36.3383C29.5503 36.4064 29.579 36.4774 29.6203 36.5513C29.6625 36.6264 29.7077 36.689 29.7561 36.7391C29.8046 36.7894 29.8549 36.8267 29.9087 36.8501C29.9627 36.8737 30.0192 36.8832 30.0788 36.8788C30.1391 36.8742 30.2005 36.854 30.264 36.819C30.327 36.7836 30.3762 36.7416 30.4114 36.6932C30.446 36.645 30.4675 36.5919 30.4759 36.5332C30.4842 36.4751 30.4796 36.4118 30.462 36.3446C30.4446 36.2766 30.4149 36.2055 30.3729 36.1306C30.3315 36.0569 30.2867 35.9948 30.2378 35.9449C30.1889 35.8946 30.1379 35.8576 30.0832 35.8337C30.0366 35.8133 29.9884 35.8031 29.9386 35.8031C29.93 35.8031 29.9216 35.8033 29.9131 35.804ZM30.0612 36.6454C30.0317 36.6417 30.0035 36.631 29.9761 36.6127C29.9492 36.5944 29.9235 36.5692 29.8996 36.5372C29.8757 36.5061 29.8528 36.4714 29.8317 36.4331C29.8106 36.3956 29.793 36.358 29.7798 36.3214C29.7663 36.2841 29.7582 36.2497 29.7571 36.2168C29.7554 36.1844 29.7615 36.1547 29.7742 36.1278C29.7874 36.1007 29.8106 36.0778 29.8433 36.0599C29.8746 36.0421 29.9047 36.0351 29.9344 36.0381C29.9636 36.0416 29.9919 36.0527 30.0185 36.072C30.0456 36.0905 30.0716 36.1153 30.095 36.1466C30.1187 36.1777 30.1411 36.212 30.1618 36.2491C30.1838 36.2875 30.2009 36.3253 30.2149 36.3619C30.2285 36.399 30.2364 36.434 30.2383 36.4665C30.2408 36.4992 30.2353 36.5293 30.222 36.5564C30.2088 36.5835 30.1866 36.6058 30.1546 36.6234C30.1277 36.6387 30.1015 36.6464 30.076 36.6464C30.0711 36.6464 30.066 36.6461 30.0612 36.6454Z" fill="url(#paint19_radial_1497_31952)" style=""/>
<path d="M30.739 35.2688L31.3477 36.1489L31.551 36.0089L31.07 35.3138L31.4903 35.0229L31.3618 34.8379L30.739 35.2688Z" fill="url(#paint20_radial_1497_31952)" style=""/>
<path d="M32.1039 34.257L32.1181 35.072L31.7155 34.5674L31.5231 34.7208L32.1904 35.5579L32.3441 35.4352L32.336 34.6277L32.7333 35.1251L32.9259 34.9712L32.2574 34.1346L32.1039 34.257Z" fill="url(#paint21_radial_1497_31952)" style=""/>
<path d="M32.9508 33.5043L33.0419 34.0008L32.9457 34.0907L32.656 33.7773L32.4747 33.9449L33.2026 34.7307L33.3831 34.5631L33.0973 34.2546L33.204 34.1561L33.6761 34.2922L33.8873 34.097L33.2503 33.9234L33.1581 33.3124L32.9508 33.5043Z" fill="url(#paint22_radial_1497_31952)" style=""/>
<path d="M33.7256 32.7125L33.8505 33.202L33.7606 33.2977L33.4498 33.0061L33.2812 33.1851L34.0612 33.9187L34.23 33.7391L33.9235 33.4512L34.0232 33.3452L34.504 33.4482L34.7008 33.2391L34.0536 33.1102L33.9189 32.5066L33.7256 32.7125Z" fill="url(#paint23_radial_1497_31952)" style=""/>
<path d="M34.6603 31.8159C34.5933 31.8223 34.5291 31.8427 34.4672 31.878C34.4062 31.9127 34.3494 31.9621 34.298 32.0252C34.2456 32.0887 34.2097 32.154 34.1877 32.2222C34.1663 32.2906 34.1589 32.358 34.167 32.425C34.1747 32.492 34.1965 32.5564 34.2324 32.6188C34.2686 32.6814 34.3179 32.7379 34.381 32.7896C34.4438 32.8404 34.5082 32.8775 34.5757 32.9006C34.6436 32.9238 34.7108 32.9333 34.7773 32.9275C34.8443 32.9224 34.9092 32.9025 34.9716 32.8682C35.0339 32.8337 35.0914 32.7843 35.1445 32.7191C35.1976 32.6559 35.2342 32.5896 35.2553 32.5207C35.2762 32.4521 35.2822 32.384 35.2734 32.3163C35.265 32.2491 35.2425 32.1842 35.2059 32.1218C35.1698 32.0595 35.1199 32.0034 35.0573 31.9522C34.9938 31.9007 34.9289 31.8636 34.8615 31.8407C34.8079 31.823 34.7546 31.814 34.7018 31.814C34.6879 31.814 34.674 31.8147 34.6603 31.8159ZM34.7553 32.6781C34.7173 32.6781 34.6802 32.6702 34.6427 32.6549C34.606 32.6394 34.5708 32.619 34.5388 32.5931C34.5078 32.5676 34.4813 32.5379 34.4591 32.505C34.4368 32.4718 34.4208 32.4366 34.4127 32.3997C34.4044 32.3631 34.4044 32.3246 34.4132 32.2852C34.4225 32.2458 34.4424 32.2069 34.4735 32.1684C34.505 32.1295 34.54 32.1021 34.5773 32.0866C34.6149 32.0706 34.6526 32.0636 34.6911 32.0646C34.7284 32.0657 34.766 32.0743 34.8026 32.0905C34.8388 32.1065 34.8721 32.1269 34.9027 32.1515C34.9333 32.1763 34.9595 32.2057 34.9822 32.2382C35.005 32.2709 35.0212 32.3061 35.0295 32.343C35.0386 32.38 35.0386 32.4178 35.0307 32.4565C35.0223 32.4955 35.0029 32.5335 34.9727 32.571C34.9398 32.61 34.9048 32.6376 34.8677 32.6538C34.8323 32.6695 34.7966 32.6781 34.7604 32.6781C34.7588 32.6781 34.7569 32.6781 34.7553 32.6781Z" fill="url(#paint24_radial_1497_31952)" style=""/>
<path d="M34.8504 30.7834C34.8724 30.8026 34.8845 30.8237 34.8868 30.8474C34.8887 30.8708 34.8819 30.8944 34.866 30.9176C34.8504 30.9398 34.8312 30.9542 34.8082 30.9609C34.7851 30.9679 34.7603 30.9642 34.7338 30.9512L34.6205 31.1151C34.6967 31.1598 34.7684 31.1719 34.8337 31.151C34.8986 31.1304 34.9563 31.0845 35.0048 31.0142C35.053 30.9442 35.076 30.8756 35.0727 30.8066C35.069 30.7384 35.0338 30.6754 34.9649 30.6181L34.8504 30.7834ZM35.2007 30.8297L35.4475 31.6069L34.9169 31.2384L34.7767 31.4408L35.6557 32.0518L35.7681 31.8902L35.5293 31.1183L36.052 31.4815L36.1927 31.2792L35.3131 30.6684L35.2007 30.8297Z" fill="url(#paint25_radial_1497_31952)" style=""/>
<path d="M35.8018 29.8591L36.1736 30.0774L35.9604 30.4397L35.589 30.2214L35.4639 30.4337L36.3866 30.9761L36.5116 30.7638L36.1523 30.5521L36.3651 30.1901L36.7248 30.4015L36.8498 30.1891L35.927 29.6465L35.8018 29.8591Z" fill="url(#paint26_radial_1497_31952)" style=""/>
<path d="M36.567 28.6719C36.5033 28.693 36.4451 28.7273 36.3936 28.7758C36.3412 28.8238 36.2974 28.8843 36.261 28.9578C36.2256 29.0312 36.2047 29.1035 36.1987 29.1747C36.1934 29.2459 36.2017 29.3133 36.2249 29.3768C36.2476 29.4399 36.2838 29.4981 36.3327 29.5502C36.3818 29.6031 36.443 29.6473 36.5162 29.683C36.5888 29.7185 36.6607 29.7396 36.7311 29.7472C36.8027 29.7544 36.8702 29.7475 36.9335 29.7273C36.9979 29.7069 37.0561 29.6731 37.1092 29.6251C37.162 29.5773 37.207 29.5161 37.2436 29.441C37.2809 29.3671 37.3018 29.2941 37.3067 29.2227C37.3118 29.1511 37.3018 29.0829 37.2782 29.0192C37.254 28.9554 37.2179 28.8973 37.1676 28.8451C37.118 28.7929 37.0573 28.7491 36.9847 28.7134C36.9115 28.678 36.8394 28.6569 36.7689 28.6499C36.7522 28.6485 36.7358 28.6478 36.7198 28.6478C36.6662 28.6478 36.6155 28.6557 36.567 28.6719ZM36.7406 29.4925C36.701 29.4856 36.663 29.4733 36.6259 29.4554C36.5897 29.4378 36.5566 29.4155 36.5274 29.388C36.4982 29.3606 36.4752 29.33 36.4583 29.2962C36.4421 29.2626 36.4337 29.225 36.433 29.1849C36.4328 29.1441 36.4435 29.1017 36.465 29.0574C36.4875 29.012 36.5146 28.9772 36.5475 28.9538C36.5807 28.9302 36.6159 28.9142 36.653 28.9065C36.6901 28.8991 36.7288 28.8991 36.7677 28.9063C36.8067 28.9139 36.8438 28.9262 36.8795 28.9429C36.9145 28.9605 36.9472 28.9826 36.9766 29.0092C37.0063 29.0359 37.0299 29.0662 37.0466 29.1005C37.0637 29.1351 37.0726 29.1717 37.0732 29.2111C37.0742 29.2512 37.064 29.2922 37.0427 29.336C37.0195 29.381 36.9919 29.4155 36.9597 29.4401C36.9272 29.4649 36.8929 29.4811 36.8558 29.4895C36.8347 29.4941 36.8132 29.4964 36.7912 29.4964C36.7745 29.4964 36.7575 29.4951 36.7406 29.4925Z" fill="url(#paint27_radial_1497_31952)" style=""/>
<path d="M37.0278 27.5899C36.9882 27.5934 36.953 27.6057 36.9217 27.6254C36.8897 27.6455 36.8626 27.6722 36.8387 27.7058C36.8146 27.7392 36.7951 27.7758 36.7791 27.8164L36.5925 28.2837L37.5858 28.6816L37.7462 28.2816C37.7654 28.2329 37.7805 28.1817 37.7914 28.1288C37.8025 28.0753 37.8046 28.0245 37.7981 27.9758C37.7918 27.9272 37.7737 27.8817 37.745 27.8402C37.7163 27.7992 37.6704 27.7656 37.6085 27.7413C37.5515 27.7181 37.4981 27.7114 37.4474 27.7197C37.3966 27.728 37.3521 27.7528 37.3141 27.7943C37.3064 27.7498 37.2888 27.7127 37.2617 27.6826C37.2341 27.6527 37.1996 27.6291 37.1588 27.6131C37.1192 27.5968 37.0823 27.589 37.0485 27.589C37.0415 27.589 37.0346 27.5892 37.0278 27.5899ZM36.8913 28.1379L36.9643 27.9554C36.9715 27.9376 36.9792 27.9209 36.988 27.9051C36.9963 27.8896 37.0058 27.8766 37.0174 27.8664C37.0283 27.8565 37.0413 27.85 37.0556 27.8465C37.0709 27.843 37.0876 27.8449 37.106 27.8525C37.144 27.8674 37.1641 27.8929 37.1667 27.9281C37.1695 27.9635 37.1616 28.0041 37.1428 28.0514L37.0781 28.213L36.8913 28.1379ZM37.2677 28.2888L37.3468 28.0903C37.3556 28.069 37.3644 28.0488 37.3744 28.0296C37.3843 28.0108 37.3955 27.9955 37.408 27.9832C37.4203 27.9707 37.4346 27.9624 37.4509 27.9587C37.4666 27.9552 37.4854 27.9571 37.506 27.9654C37.5294 27.9747 37.5461 27.9872 37.5566 28.003C37.5675 28.0187 37.573 28.0361 37.5739 28.0563C37.5746 28.0757 37.5719 28.098 37.5649 28.1219C37.5589 28.146 37.5503 28.171 37.5401 28.1974L37.471 28.3701L37.2677 28.2888Z" fill="url(#paint28_radial_1497_31952)" style=""/>
<path d="M4.52637 21.9999L5.71941 24.0479L6.91222 21.9999L5.71941 19.9516L4.52637 21.9999ZM5.34622 21.9999L5.71941 21.3593L6.09236 21.9999L5.71941 22.6404L5.34622 21.9999Z" fill="url(#paint29_radial_1497_31952)" style=""/>
<path d="M37.2903 21.9997L38.4831 24.0476L39.6761 21.9997L38.4831 19.9514L37.2903 21.9997ZM38.1101 21.9997L38.4831 21.359L38.8565 21.9997L38.4831 22.6402L38.1101 21.9997Z" fill="url(#paint30_radial_1497_31952)" style=""/>
<path d="M7.29034 11.0026C7.0757 11.0842 6.87868 11.2047 6.69904 11.3639C6.51893 11.5239 6.36085 11.7112 6.22479 11.9265C6.03611 12.226 5.91186 12.5241 5.85206 12.8208C5.79249 13.1172 5.79435 13.4035 5.85855 13.6782C5.9223 13.9538 6.04839 14.2145 6.23753 14.4614C6.42552 14.708 6.67539 14.9292 6.98553 15.125C7.28872 15.3165 7.59075 15.4447 7.89185 15.5093C8.19341 15.5742 8.48292 15.5759 8.76154 15.5147C9.04038 15.4532 9.30138 15.332 9.54569 15.1519C9.78954 14.9716 10.0072 14.7298 10.1987 14.4266C10.2837 14.2917 10.3567 14.1476 10.4177 13.9946C10.4789 13.8418 10.5232 13.6884 10.5508 13.5349C10.579 13.3815 10.5881 13.2278 10.5776 13.0734C10.5684 12.9193 10.5343 12.7705 10.4768 12.6268C10.3649 12.3366 10.2024 12.0897 9.99074 11.8871C9.77888 11.6847 9.53967 11.4991 9.27311 11.3313L9.13055 11.2411L7.89718 13.1963L8.72978 13.7215L9.30672 12.8069C9.37371 12.8697 9.42076 12.9415 9.44649 13.0217C9.47268 13.1022 9.48195 13.1858 9.47569 13.2737C9.46827 13.3613 9.44788 13.4503 9.4138 13.5407C9.37973 13.6316 9.33685 13.7173 9.28632 13.7973C9.17158 13.9802 9.04572 14.1139 8.90988 14.1992C8.77475 14.2845 8.63382 14.3339 8.48802 14.3467C8.34199 14.3592 8.19642 14.3423 8.04947 14.2954C7.90251 14.2488 7.75972 14.1819 7.62134 14.0942C7.50081 14.018 7.38862 13.9255 7.28362 13.8163C7.17908 13.7067 7.10027 13.5831 7.04696 13.445C6.99434 13.3068 6.97394 13.1582 6.98623 13.0009C6.99898 12.8425 7.06133 12.6761 7.1719 12.5009C7.29845 12.3004 7.43916 12.1604 7.59376 12.082C7.74767 12.0032 7.92221 11.9998 8.11692 12.0716L8.73511 11.0914C8.47017 10.9697 8.21659 10.9045 7.97483 10.8948C7.9491 10.8939 7.9236 10.8932 7.8981 10.8932C7.68485 10.8932 7.4825 10.93 7.29034 11.0026Z" fill="url(#paint31_radial_1497_31952)" style=""/>
<path d="M8.6123 8.9032L11.6006 12.3799L14.2231 10.1259L13.5178 9.30583L11.7844 10.796L11.341 10.2805L12.7709 9.0518L12.095 8.26624L10.666 9.49429L10.2103 8.96417L11.9432 7.47397L11.2346 6.64948L8.6123 8.9032Z" fill="url(#paint32_radial_1497_31952)" style=""/>
<path d="M12.6141 5.7977L14.5642 9.94727L17.6932 8.47699L17.2338 7.49814L15.1643 8.47027L14.8755 7.85463L16.5817 7.05355L16.1406 6.11595L14.4349 6.91703L14.1375 6.28399L16.2069 5.31209L15.7441 4.32743L12.6141 5.7977Z" fill="url(#paint33_radial_1497_31952)" style=""/>
<path d="M20.1243 3.41184L19.4113 5.30305L18.791 5.39785L18.5238 3.65685L17.3657 3.83418L18.059 8.36597L19.2173 8.18888L18.9537 6.46712L19.6009 6.36768L20.7796 7.94943L22.1237 7.74384L20.4307 5.58584L21.443 3.20996L20.1243 3.41184Z" fill="url(#paint34_radial_1497_31952)" style=""/>
<path d="M24.0851 3.54685C23.7903 3.61198 23.5295 3.7288 23.3017 3.89847C23.0738 4.06768 22.8838 4.28696 22.7322 4.55584C22.5803 4.82448 22.4763 5.13578 22.4204 5.48973C22.3636 5.84785 22.3636 6.17909 22.4204 6.4832C22.477 6.78708 22.5868 7.05457 22.7488 7.28544C22.9109 7.51677 23.1239 7.70754 23.386 7.85867C23.6484 8.00934 23.9546 8.11225 24.3042 8.16765C24.5601 8.20798 24.8123 8.21099 25.0596 8.17576C25.3083 8.14099 25.5364 8.06543 25.745 7.94999C25.9529 7.83456 26.1344 7.67717 26.2881 7.47852C26.442 7.28011 26.5521 7.03974 26.6186 6.75718L25.4995 6.58032C25.42 6.77758 25.2951 6.91944 25.124 7.0059C24.9532 7.09259 24.7418 7.11576 24.4901 7.07613C24.2938 7.04506 24.1338 6.9818 24.0089 6.88491C23.8842 6.78894 23.7898 6.67559 23.7252 6.54532C23.6605 6.41482 23.6211 6.27296 23.6058 6.11998C23.5905 5.96653 23.5944 5.81773 23.6171 5.67286C23.6408 5.52381 23.6818 5.37916 23.7419 5.23986C23.8007 5.10078 23.8812 4.98002 23.9825 4.87826C24.084 4.77627 24.208 4.70071 24.3556 4.65227C24.5033 4.60336 24.6751 4.59408 24.8714 4.62514C25.1273 4.66594 25.3178 4.75402 25.4425 4.88962C25.5675 5.02545 25.6395 5.19907 25.6583 5.41209L26.7515 5.58524C26.7733 5.28692 26.744 5.02035 26.6652 4.78508C26.5871 4.54935 26.4701 4.34653 26.3162 4.17546C26.1618 4.00463 25.9743 3.86486 25.7534 3.75545C25.5327 3.64628 25.2916 3.57095 25.0316 3.52993C24.8797 3.50559 24.7323 3.49376 24.5888 3.49376C24.4145 3.49376 24.2465 3.51138 24.0851 3.54685Z" fill="url(#paint35_radial_1497_31952)" style=""/>
<path d="M28.9464 5.23C28.6685 5.31298 28.4115 5.456 28.1762 5.65812C27.9398 5.86048 27.7388 6.1187 27.5742 6.43185C27.409 6.74477 27.3077 7.05537 27.2701 7.36227C27.2326 7.66939 27.2571 7.96146 27.3424 8.23845C27.4287 8.51545 27.5726 8.77111 27.7766 9.00522C27.9801 9.23957 28.2402 9.43984 28.5573 9.60696C28.8669 9.77037 29.1748 9.86796 29.4824 9.90088C29.7892 9.93356 30.0834 9.90551 30.3643 9.8165C30.6455 9.72842 30.9037 9.58123 31.1392 9.37563C31.374 9.1705 31.5729 8.91297 31.7361 8.60376C31.9011 8.29084 31.9999 7.98069 32.0328 7.6731C32.0655 7.36574 32.0374 7.07554 31.95 6.80249C31.8622 6.5292 31.7171 6.27701 31.5138 6.04545C31.3119 5.81435 31.0576 5.61826 30.7524 5.4574C30.4427 5.29421 30.1342 5.19477 29.8259 5.15931C29.7334 5.14864 29.6421 5.14331 29.5521 5.14331C29.3428 5.14331 29.1409 5.17229 28.9464 5.23ZM29.102 8.64293C28.9151 8.54419 28.7724 8.42852 28.6739 8.2964C28.5753 8.16358 28.5116 8.02265 28.4829 7.87337C28.4543 7.72433 28.4548 7.57297 28.4843 7.42021C28.5135 7.267 28.5645 7.12237 28.637 6.98468C28.7049 6.85488 28.7928 6.73504 28.8994 6.6254C29.0062 6.51577 29.1275 6.43092 29.264 6.37112C29.4001 6.31108 29.5514 6.2835 29.7174 6.2879C29.8836 6.29254 30.0584 6.34331 30.2419 6.43973C30.4246 6.53616 30.5616 6.65368 30.6524 6.79206C30.7433 6.92998 30.8001 7.07368 30.8242 7.22273C30.8481 7.372 30.8421 7.52151 30.8075 7.67125C30.7723 7.82122 30.7236 7.95566 30.661 8.07365C30.5947 8.19951 30.5099 8.31726 30.4056 8.42574C30.3022 8.53468 30.1828 8.62044 30.047 8.68303C29.9114 8.7463 29.7642 8.7783 29.6045 8.77946C29.602 8.77946 29.5994 8.77946 29.5971 8.77946C29.4399 8.77946 29.2749 8.73403 29.102 8.64293Z" fill="url(#paint36_radial_1497_31952)" style=""/>
<path d="M30.8823 11.0658L31.7608 11.8425L34.7973 8.40757L33.9186 7.6313L30.8823 11.0658Z" fill="url(#paint37_radial_1497_31952)" style=""/>
<path d="M32.3406 12.2235L33.0107 13.1857L35.1309 11.7092L34.1356 14.8008L34.7422 15.6726L38.5044 13.0529L37.8348 12.0909L35.6828 13.5897L36.7289 10.502L36.1035 9.60401L32.3406 12.2235Z" fill="url(#paint38_radial_1497_31952)" style=""/>
<path d="M13.2923 17.2831C12.7629 17.7237 12.495 18.3058 12.495 19.0132C12.495 19.4269 12.6041 19.77 12.8197 20.0329C13.0394 20.3006 13.3243 20.4364 13.6676 20.4364C13.955 20.4364 14.1894 20.3442 14.3641 20.1629C14.5377 19.9823 14.6258 19.7415 14.6258 19.4471C14.6258 19.2457 14.5778 19.0616 14.483 18.9001C14.3882 18.7395 14.2459 18.6011 14.0642 18.4917C14.0204 18.4613 13.9578 18.4261 13.8781 18.3883C13.6694 18.2789 13.6667 18.2195 13.6667 18.2188C13.6667 18.1604 13.7133 18.0311 14.0234 17.822C14.271 17.6551 14.5377 17.5707 14.8164 17.5707C15.1645 17.5707 15.4452 17.6989 15.6747 17.9634C15.9042 18.227 16.0208 18.5661 16.0208 18.9705C16.0208 19.3282 15.9375 19.7012 15.7741 20.0794C15.6096 20.4605 15.3727 20.827 15.0699 21.1693C14.952 21.3038 14.7814 21.4948 14.5572 21.7435C13.7626 22.6401 13.2534 23.2865 13.0441 23.6641C12.8415 24.0197 12.6894 24.4012 12.5921 24.7978C12.4954 25.1944 12.446 25.6223 12.446 26.0706V26.2412H13.4648L13.459 26.1508C13.4509 26.0257 13.4458 25.9357 13.4437 25.881C13.4416 25.8275 13.4407 25.7762 13.4407 25.7285C13.4407 25.4355 13.4905 25.2009 13.5881 25.0317C13.6783 24.8753 13.7904 24.7992 13.9302 24.7992C13.9998 24.7992 14.1727 24.8535 14.5493 25.2153C14.6694 25.3312 14.767 25.4197 14.8391 25.4802C15.1448 25.7533 15.4246 25.9501 15.6694 26.0648C15.9181 26.1819 16.1798 26.2412 16.4477 26.2412C17.1315 26.2412 17.6607 25.9468 18.02 25.3667C18.3702 24.8006 18.5647 23.9425 18.5976 22.8165L18.6004 22.7291H17.8633L17.8492 22.7968C17.7349 23.341 17.5824 23.7223 17.396 23.9305C17.2133 24.1333 16.9554 24.2323 16.6065 24.2323C16.5256 24.2323 16.3395 24.2047 15.9134 24.0739C15.5549 23.9641 15.2491 23.9084 15.0057 23.9084C14.7941 23.9084 14.5769 23.9428 14.3604 24.01C14.1859 24.064 13.9789 24.1535 13.7436 24.2756C13.8201 24.0095 13.9599 23.7443 14.1622 23.4863C14.4126 23.1662 14.7684 22.8464 15.2199 22.5348C15.4019 22.4053 15.7966 22.1591 16.3933 21.8021C17.0003 21.4391 17.4468 21.1037 17.7194 20.807C17.9178 20.5957 18.0687 20.3548 18.1676 20.0915C18.2666 19.8284 18.3169 19.5354 18.3169 19.2211C18.3169 18.458 18.0378 17.8269 17.4873 17.3454C16.9401 16.8672 16.2222 16.6248 15.3539 16.6248C14.5106 16.6248 13.8169 16.8462 13.2923 17.2831Z" fill="url(#paint39_linear_1497_31952)" style=""/>
<path d="M26.5883 17.972C26.0303 18.8537 25.7473 20.0162 25.7473 21.4269C25.7473 22.8784 26.0229 24.0531 26.5669 24.9184C27.1184 25.7959 27.8643 26.2412 28.7836 26.2412C29.6739 26.2412 30.4136 25.7869 30.9817 24.891C31.5417 24.0072 31.8256 22.8415 31.8256 21.4269C31.8256 19.9714 31.5498 18.7979 31.0058 17.9384C30.4541 17.0668 29.7064 16.6248 28.7836 16.6248C27.893 16.6248 27.1545 17.0779 26.5883 17.972ZM28.2407 24.8655C28.1181 24.4847 28.0555 23.8231 28.0555 22.8997V19.9237C28.0555 18.9963 28.1181 18.3317 28.2407 17.9488C28.3555 17.5914 28.533 17.418 28.7836 17.418C29.0379 17.418 29.217 17.5914 29.332 17.9488C29.4546 18.3317 29.5172 18.9963 29.5172 19.9237V22.8997C29.5172 23.8231 29.4546 24.4847 29.332 24.8655C29.217 25.2206 29.0379 25.3931 28.7836 25.3931C28.533 25.3931 28.3555 25.2206 28.2407 24.8655Z" fill="url(#paint40_linear_1497_31952)" style=""/>
<path d="M19.886 17.972C19.3278 18.8537 19.0448 20.0162 19.0448 21.4269C19.0448 22.8784 19.3204 24.0531 19.8642 24.9184C20.4161 25.7959 21.1618 26.2412 22.0808 26.2412C22.9716 26.2412 23.7108 25.7869 24.2789 24.891C24.839 24.0072 25.1229 22.8415 25.1229 21.4269C25.1229 19.9714 24.8471 18.7979 24.303 17.9384C23.7516 17.0668 23.0036 16.6248 22.0808 16.6248C21.1903 16.6248 20.4518 17.0779 19.886 17.972ZM21.5384 24.8655C21.4154 24.4847 21.353 23.8231 21.353 22.8997V19.9237C21.353 18.9963 21.4154 18.3317 21.5384 17.9488C21.6529 17.5914 21.8305 17.418 22.0808 17.418C22.3353 17.418 22.5145 17.5914 22.6295 17.9488C22.7523 18.3317 22.8149 18.9963 22.8149 19.9237V22.8997C22.8149 23.8231 22.7523 24.4847 22.6295 24.8655C22.5145 25.2206 22.3353 25.3931 22.0808 25.3931C21.8305 25.3931 21.6529 25.2206 21.5384 24.8655Z" fill="url(#paint41_linear_1497_31952)" style=""/>
<defs>
<radialGradient id="paint0_radial_1497_31952" cx="0" cy="0" r="1" gradientUnits="userSpaceOnUse" gradientTransform="translate(22 21.9998) scale(21.9999 21.9999)">
<stop stop-color="#2745A1" style="stop-color:#2745A1;stop-color:color(display-p3 0.1529 0.2706 0.6314);stop-opacity:1;"/>
<stop offset="0.526876" stop-color="#2745A1" style="stop-color:#2745A1;stop-color:color(display-p3 0.1529 0.2706 0.6314);stop-opacity:1;"/>
<stop offset="1" stop-color="#1C1E5A" style="stop-color:#1C1E5A;stop-color:color(display-p3 0.1098 0.1176 0.3529);stop-opacity:1;"/>
</radialGradient>
<linearGradient id="paint1_linear_1497_31952" x1="40.1861" y1="3.15927" x2="-4.69764" y2="49.6576" gradientUnits="userSpaceOnUse">
<stop stop-color="#E5E4E4" style="stop-color:#E5E4E4;stop-color:color(display-p3 0.8980 0.8941 0.8941);stop-opacity:1;"/>
<stop offset="0.0898036" stop-color="#E5E4E4" style="stop-color:#E5E4E4;stop-color:color(display-p3 0.8980 0.8941 0.8941);stop-opacity:1;"/>
<stop offset="0.270484" stop-color="#919EA5" style="stop-color:#919EA5;stop-color:color(display-p3 0.5686 0.6196 0.6471);stop-opacity:1;"/>
<stop offset="0.608176" stop-color="#A6BAC3" style="stop-color:#A6BAC3;stop-color:color(display-p3 0.6510 0.7294 0.7647);stop-opacity:1;"/>
<stop offset="0.751405" stop-color="#A6BAC3" style="stop-color:#A6BAC3;stop-color:color(display-p3 0.6510 0.7294 0.7647);stop-opacity:1;"/>
<stop offset="0.895182" stop-color="#657178" style="stop-color:#657178;stop-color:color(display-p3 0.3961 0.4431 0.4706);stop-opacity:1;"/>
<stop offset="1" stop-color="#657178" style="stop-color:#657178;stop-color:color(display-p3 0.3961 0.4431 0.4706);stop-opacity:1;"/>
</linearGradient>
<radialGradient id="paint2_radial_1497_31952" cx="0" cy="0" r="1" gradientUnits="userSpaceOnUse" gradientTransform="translate(22.1031 20.2786) scale(11.9606 11.9606)">
<stop stop-color="#2745A1" style="stop-color:#2745A1;stop-color:color(display-p3 0.1529 0.2706 0.6314);stop-opacity:1;"/>
<stop offset="0.526876" stop-color="#2745A1" style="stop-color:#2745A1;stop-color:color(display-p3 0.1529 0.2706 0.6314);stop-opacity:1;"/>
<stop offset="1" stop-color="#1C1E5A" style="stop-color:#1C1E5A;stop-color:color(display-p3 0.1098 0.1176 0.3529);stop-opacity:1;"/>
</radialGradient>
<radialGradient id="paint3_radial_1497_31952" cx="0" cy="0" r="1" gradientUnits="userSpaceOnUse" gradientTransform="translate(22 21.9999) scale(20.3514)">
<stop stop-color="#2745A1" style="stop-color:#2745A1;stop-color:color(display-p3 0.1529 0.2706 0.6314);stop-opacity:1;"/>
<stop offset="0.526876" stop-color="#2745A1" style="stop-color:#2745A1;stop-color:color(display-p3 0.1529 0.2706 0.6314);stop-opacity:1;"/>
<stop offset="1" stop-color="#1C1E5A" style="stop-color:#1C1E5A;stop-color:color(display-p3 0.1098 0.1176 0.3529);stop-opacity:1;"/>
</radialGradient>
<radialGradient id="paint4_radial_1497_31952" cx="0" cy="0" r="1" gradientUnits="userSpaceOnUse" gradientTransform="translate(22.0238 36.2577) scale(3.0473 3.0473)">
<stop stop-color="#2745A1" style="stop-color:#2745A1;stop-color:color(display-p3 0.1529 0.2706 0.6314);stop-opacity:1;"/>
<stop offset="0.526876" stop-color="#2745A1" style="stop-color:#2745A1;stop-color:color(display-p3 0.1529 0.2706 0.6314);stop-opacity:1;"/>
<stop offset="1" stop-color="#1C1E5A" style="stop-color:#1C1E5A;stop-color:color(display-p3 0.1098 0.1176 0.3529);stop-opacity:1;"/>
</radialGradient>
<radialGradient id="paint5_radial_1497_31952" cx="0" cy="0" r="1" gradientUnits="userSpaceOnUse" gradientTransform="translate(6.32237 26.9767) scale(0.534206 0.534204)">
<stop stop-color="#2745A1" style="stop-color:#2745A1;stop-color:color(display-p3 0.1529 0.2706 0.6314);stop-opacity:1;"/>
<stop offset="0.526876" stop-color="#2745A1" style="stop-color:#2745A1;stop-color:color(display-p3 0.1529 0.2706 0.6314);stop-opacity:1;"/>
<stop offset="1" stop-color="#1C1E5A" style="stop-color:#1C1E5A;stop-color:color(display-p3 0.1098 0.1176 0.3529);stop-opacity:1;"/>
</radialGradient>
<radialGradient id="paint6_radial_1497_31952" cx="0" cy="0" r="1" gradientUnits="userSpaceOnUse" gradientTransform="translate(6.70477 27.9127) scale(0.505751 0.505756)">
<stop stop-color="#2745A1" style="stop-color:#2745A1;stop-color:color(display-p3 0.1529 0.2706 0.6314);stop-opacity:1;"/>
<stop offset="0.526876" stop-color="#2745A1" style="stop-color:#2745A1;stop-color:color(display-p3 0.1529 0.2706 0.6314);stop-opacity:1;"/>
<stop offset="1" stop-color="#1C1E5A" style="stop-color:#1C1E5A;stop-color:color(display-p3 0.1098 0.1176 0.3529);stop-opacity:1;"/>
</radialGradient>
<radialGradient id="paint7_radial_1497_31952" cx="0" cy="0" r="1" gradientUnits="userSpaceOnUse" gradientTransform="translate(7.13188 28.91) scale(0.508243 0.508241)">
<stop stop-color="#2745A1" style="stop-color:#2745A1;stop-color:color(display-p3 0.1529 0.2706 0.6314);stop-opacity:1;"/>
<stop offset="0.526876" stop-color="#2745A1" style="stop-color:#2745A1;stop-color:color(display-p3 0.1529 0.2706 0.6314);stop-opacity:1;"/>
<stop offset="1" stop-color="#1C1E5A" style="stop-color:#1C1E5A;stop-color:color(display-p3 0.1098 0.1176 0.3529);stop-opacity:1;"/>
</radialGradient>
<radialGradient id="paint8_radial_1497_31952" cx="0" cy="0" r="1" gradientUnits="userSpaceOnUse" gradientTransform="translate(7.87989 30.111) scale(0.53583)">
<stop stop-color="#2745A1" style="stop-color:#2745A1;stop-color:color(display-p3 0.1529 0.2706 0.6314);stop-opacity:1;"/>
<stop offset="0.526876" stop-color="#2745A1" style="stop-color:#2745A1;stop-color:color(display-p3 0.1529 0.2706 0.6314);stop-opacity:1;"/>
<stop offset="1" stop-color="#1C1E5A" style="stop-color:#1C1E5A;stop-color:color(display-p3 0.1098 0.1176 0.3529);stop-opacity:1;"/>
</radialGradient>
<radialGradient id="paint9_radial_1497_31952" cx="0" cy="0" r="1" gradientUnits="userSpaceOnUse" gradientTransform="translate(8.46229 31.2381) scale(0.698992 0.698988)">
<stop stop-color="#2745A1" style="stop-color:#2745A1;stop-color:color(display-p3 0.1529 0.2706 0.6314);stop-opacity:1;"/>
<stop offset="0.526876" stop-color="#2745A1" style="stop-color:#2745A1;stop-color:color(display-p3 0.1529 0.2706 0.6314);stop-opacity:1;"/>
<stop offset="1" stop-color="#1C1E5A" style="stop-color:#1C1E5A;stop-color:color(display-p3 0.1098 0.1176 0.3529);stop-opacity:1;"/>
</radialGradient>
<radialGradient id="paint10_radial_1497_31952" cx="0" cy="0" r="1" gradientUnits="userSpaceOnUse" gradientTransform="translate(9.21533 32.2518) scale(0.703849 0.703851)">
<stop stop-color="#2745A1" style="stop-color:#2745A1;stop-color:color(display-p3 0.1529 0.2706 0.6314);stop-opacity:1;"/>
<stop offset="0.526876" stop-color="#2745A1" style="stop-color:#2745A1;stop-color:color(display-p3 0.1529 0.2706 0.6314);stop-opacity:1;"/>
<stop offset="1" stop-color="#1C1E5A" style="stop-color:#1C1E5A;stop-color:color(display-p3 0.1098 0.1176 0.3529);stop-opacity:1;"/>
</radialGradient>
<radialGradient id="paint11_radial_1497_31952" cx="0" cy="0" r="1" gradientUnits="userSpaceOnUse" gradientTransform="translate(9.9635 33.1174) scale(0.707627 0.707623)">
<stop stop-color="#2745A1" style="stop-color:#2745A1;stop-color:color(display-p3 0.1529 0.2706 0.6314);stop-opacity:1;"/>
<stop offset="0.526876" stop-color="#2745A1" style="stop-color:#2745A1;stop-color:color(display-p3 0.1529 0.2706 0.6314);stop-opacity:1;"/>
<stop offset="1" stop-color="#1C1E5A" style="stop-color:#1C1E5A;stop-color:color(display-p3 0.1098 0.1176 0.3529);stop-opacity:1;"/>
</radialGradient>
<radialGradient id="paint12_radial_1497_31952" cx="0" cy="0" r="1" gradientUnits="userSpaceOnUse" gradientTransform="translate(10.7509 33.9062) scale(0.557413)">
<stop stop-color="#2745A1" style="stop-color:#2745A1;stop-color:color(display-p3 0.1529 0.2706 0.6314);stop-opacity:1;"/>
<stop offset="0.526876" stop-color="#2745A1" style="stop-color:#2745A1;stop-color:color(display-p3 0.1529 0.2706 0.6314);stop-opacity:1;"/>
<stop offset="1" stop-color="#1C1E5A" style="stop-color:#1C1E5A;stop-color:color(display-p3 0.1098 0.1176 0.3529);stop-opacity:1;"/>
</radialGradient>
<radialGradient id="paint13_radial_1497_31952" cx="0" cy="0" r="1" gradientUnits="userSpaceOnUse" gradientTransform="translate(11.7424 34.6756) scale(0.759352 0.759354)">
<stop stop-color="#2745A1" style="stop-color:#2745A1;stop-color:color(display-p3 0.1529 0.2706 0.6314);stop-opacity:1;"/>
<stop offset="0.526876" stop-color="#2745A1" style="stop-color:#2745A1;stop-color:color(display-p3 0.1529 0.2706 0.6314);stop-opacity:1;"/>
<stop offset="1" stop-color="#1C1E5A" style="stop-color:#1C1E5A;stop-color:color(display-p3 0.1098 0.1176 0.3529);stop-opacity:1;"/>
</radialGradient>
<radialGradient id="paint14_radial_1497_31952" cx="0" cy="0" r="1" gradientUnits="userSpaceOnUse" gradientTransform="translate(12.7019 35.4875) scale(0.689938 0.689936)">
<stop stop-color="#2745A1" style="stop-color:#2745A1;stop-color:color(display-p3 0.1529 0.2706 0.6314);stop-opacity:1;"/>
<stop offset="0.526876" stop-color="#2745A1" style="stop-color:#2745A1;stop-color:color(display-p3 0.1529 0.2706 0.6314);stop-opacity:1;"/>
<stop offset="1" stop-color="#1C1E5A" style="stop-color:#1C1E5A;stop-color:color(display-p3 0.1098 0.1176 0.3529);stop-opacity:1;"/>
</radialGradient>
<radialGradient id="paint15_radial_1497_31952" cx="0" cy="0" r="1" gradientUnits="userSpaceOnUse" gradientTransform="translate(13.7683 36.1619) scale(0.554872 0.554868)">
<stop stop-color="#2745A1" style="stop-color:#2745A1;stop-color:color(display-p3 0.1529 0.2706 0.6314);stop-opacity:1;"/>
<stop offset="0.526876" stop-color="#2745A1" style="stop-color:#2745A1;stop-color:color(display-p3 0.1529 0.2706 0.6314);stop-opacity:1;"/>
<stop offset="1" stop-color="#1C1E5A" style="stop-color:#1C1E5A;stop-color:color(display-p3 0.1098 0.1176 0.3529);stop-opacity:1;"/>
</radialGradient>
<radialGradient id="paint16_radial_1497_31952" cx="0" cy="0" r="1" gradientUnits="userSpaceOnUse" gradientTransform="translate(14.7891 36.6812) scale(0.589175 0.589174)">
<stop stop-color="#2745A1" style="stop-color:#2745A1;stop-color:color(display-p3 0.1529 0.2706 0.6314);stop-opacity:1;"/>
<stop offset="0.526876" stop-color="#2745A1" style="stop-color:#2745A1;stop-color:color(display-p3 0.1529 0.2706 0.6314);stop-opacity:1;"/>
<stop offset="1" stop-color="#1C1E5A" style="stop-color:#1C1E5A;stop-color:color(display-p3 0.1098 0.1176 0.3529);stop-opacity:1;"/>
</radialGradient>
<radialGradient id="paint17_radial_1497_31952" cx="0" cy="0" r="1" gradientUnits="userSpaceOnUse" gradientTransform="translate(28.1316 37.2967) scale(0.546315)">
<stop stop-color="#2745A1" style="stop-color:#2745A1;stop-color:color(display-p3 0.1529 0.2706 0.6314);stop-opacity:1;"/>
<stop offset="0.526876" stop-color="#2745A1" style="stop-color:#2745A1;stop-color:color(display-p3 0.1529 0.2706 0.6314);stop-opacity:1;"/>
<stop offset="1" stop-color="#1C1E5A" style="stop-color:#1C1E5A;stop-color:color(display-p3 0.1098 0.1176 0.3529);stop-opacity:1;"/>
</radialGradient>
<radialGradient id="paint18_radial_1497_31952" cx="0" cy="0" r="1" gradientUnits="userSpaceOnUse" gradientTransform="translate(29.0334 36.8387) scale(0.508709 0.508708)">
<stop stop-color="#2745A1" style="stop-color:#2745A1;stop-color:color(display-p3 0.1529 0.2706 0.6314);stop-opacity:1;"/>
<stop offset="0.526876" stop-color="#2745A1" style="stop-color:#2745A1;stop-color:color(display-p3 0.1529 0.2706 0.6314);stop-opacity:1;"/>
<stop offset="1" stop-color="#1C1E5A" style="stop-color:#1C1E5A;stop-color:color(display-p3 0.1098 0.1176 0.3529);stop-opacity:1;"/>
</radialGradient>
<radialGradient id="paint19_radial_1497_31952" cx="0" cy="0" r="1" gradientUnits="userSpaceOnUse" gradientTransform="translate(29.9977 36.3416) scale(0.511053 0.51105)">
<stop stop-color="#2745A1" style="stop-color:#2745A1;stop-color:color(display-p3 0.1529 0.2706 0.6314);stop-opacity:1;"/>
<stop offset="0.526876" stop-color="#2745A1" style="stop-color:#2745A1;stop-color:color(display-p3 0.1529 0.2706 0.6314);stop-opacity:1;"/>
<stop offset="1" stop-color="#1C1E5A" style="stop-color:#1C1E5A;stop-color:color(display-p3 0.1098 0.1176 0.3529);stop-opacity:1;"/>
</radialGradient>
<radialGradient id="paint20_radial_1497_31952" cx="0" cy="0" r="1" gradientUnits="userSpaceOnUse" gradientTransform="translate(31.145 35.4934) scale(0.545198 0.5452)">
<stop stop-color="#2745A1" style="stop-color:#2745A1;stop-color:color(display-p3 0.1529 0.2706 0.6314);stop-opacity:1;"/>
<stop offset="0.526876" stop-color="#2745A1" style="stop-color:#2745A1;stop-color:color(display-p3 0.1529 0.2706 0.6314);stop-opacity:1;"/>
<stop offset="1" stop-color="#1C1E5A" style="stop-color:#1C1E5A;stop-color:color(display-p3 0.1098 0.1176 0.3529);stop-opacity:1;"/>
</radialGradient>
<radialGradient id="paint21_radial_1497_31952" cx="0" cy="0" r="1" gradientUnits="userSpaceOnUse" gradientTransform="translate(32.2244 34.8462) scale(0.706545 0.706547)">
<stop stop-color="#2745A1" style="stop-color:#2745A1;stop-color:color(display-p3 0.1529 0.2706 0.6314);stop-opacity:1;"/>
<stop offset="0.526876" stop-color="#2745A1" style="stop-color:#2745A1;stop-color:color(display-p3 0.1529 0.2706 0.6314);stop-opacity:1;"/>
<stop offset="1" stop-color="#1C1E5A" style="stop-color:#1C1E5A;stop-color:color(display-p3 0.1098 0.1176 0.3529);stop-opacity:1;"/>
</radialGradient>
<radialGradient id="paint22_radial_1497_31952" cx="0" cy="0" r="1" gradientUnits="userSpaceOnUse" gradientTransform="translate(33.181 34.0215) scale(0.707725 0.707728)">
<stop stop-color="#2745A1" style="stop-color:#2745A1;stop-color:color(display-p3 0.1529 0.2706 0.6314);stop-opacity:1;"/>
<stop offset="0.526876" stop-color="#2745A1" style="stop-color:#2745A1;stop-color:color(display-p3 0.1529 0.2706 0.6314);stop-opacity:1;"/>
<stop offset="1" stop-color="#1C1E5A" style="stop-color:#1C1E5A;stop-color:color(display-p3 0.1098 0.1176 0.3529);stop-opacity:1;"/>
</radialGradient>
<radialGradient id="paint23_radial_1497_31952" cx="0" cy="0" r="1" gradientUnits="userSpaceOnUse" gradientTransform="translate(33.991 33.2127) scale(0.707825 0.707824)">
<stop stop-color="#2745A1" style="stop-color:#2745A1;stop-color:color(display-p3 0.1529 0.2706 0.6314);stop-opacity:1;"/>
<stop offset="0.526876" stop-color="#2745A1" style="stop-color:#2745A1;stop-color:color(display-p3 0.1529 0.2706 0.6314);stop-opacity:1;"/>
<stop offset="1" stop-color="#1C1E5A" style="stop-color:#1C1E5A;stop-color:color(display-p3 0.1098 0.1176 0.3529);stop-opacity:1;"/>
</radialGradient>
<radialGradient id="paint24_radial_1497_31952" cx="0" cy="0" r="1" gradientUnits="userSpaceOnUse" gradientTransform="translate(34.7205 32.3716) scale(0.557103)">
<stop stop-color="#2745A1" style="stop-color:#2745A1;stop-color:color(display-p3 0.1529 0.2706 0.6314);stop-opacity:1;"/>
<stop offset="0.526876" stop-color="#2745A1" style="stop-color:#2745A1;stop-color:color(display-p3 0.1529 0.2706 0.6314);stop-opacity:1;"/>
<stop offset="1" stop-color="#1C1E5A" style="stop-color:#1C1E5A;stop-color:color(display-p3 0.1098 0.1176 0.3529);stop-opacity:1;"/>
</radialGradient>
<radialGradient id="paint25_radial_1497_31952" cx="0" cy="0" r="1" gradientUnits="userSpaceOnUse" gradientTransform="translate(35.4066 31.335) scale(0.752223)">
<stop stop-color="#2745A1" style="stop-color:#2745A1;stop-color:color(display-p3 0.1529 0.2706 0.6314);stop-opacity:1;"/>
<stop offset="0.526876" stop-color="#2745A1" style="stop-color:#2745A1;stop-color:color(display-p3 0.1529 0.2706 0.6314);stop-opacity:1;"/>
<stop offset="1" stop-color="#1C1E5A" style="stop-color:#1C1E5A;stop-color:color(display-p3 0.1098 0.1176 0.3529);stop-opacity:1;"/>
</radialGradient>
<radialGradient id="paint26_radial_1497_31952" cx="0" cy="0" r="1" gradientUnits="userSpaceOnUse" gradientTransform="translate(36.1567 30.3114) scale(0.679037 0.679032)">
<stop stop-color="#2745A1" style="stop-color:#2745A1;stop-color:color(display-p3 0.1529 0.2706 0.6314);stop-opacity:1;"/>
<stop offset="0.526876" stop-color="#2745A1" style="stop-color:#2745A1;stop-color:color(display-p3 0.1529 0.2706 0.6314);stop-opacity:1;"/>
<stop offset="1" stop-color="#1C1E5A" style="stop-color:#1C1E5A;stop-color:color(display-p3 0.1098 0.1176 0.3529);stop-opacity:1;"/>
</radialGradient>
<radialGradient id="paint27_radial_1497_31952" cx="0" cy="0" r="1" gradientUnits="userSpaceOnUse" gradientTransform="translate(36.7526 29.1988) scale(0.55325 0.553255)">
<stop stop-color="#2745A1" style="stop-color:#2745A1;stop-color:color(display-p3 0.1529 0.2706 0.6314);stop-opacity:1;"/>
<stop offset="0.526876" stop-color="#2745A1" style="stop-color:#2745A1;stop-color:color(display-p3 0.1529 0.2706 0.6314);stop-opacity:1;"/>
<stop offset="1" stop-color="#1C1E5A" style="stop-color:#1C1E5A;stop-color:color(display-p3 0.1098 0.1176 0.3529);stop-opacity:1;"/>
</radialGradient>
<radialGradient id="paint28_radial_1497_31952" cx="0" cy="0" r="1" gradientUnits="userSpaceOnUse" gradientTransform="translate(37.1971 28.1352) scale(0.576219)">
<stop stop-color="#2745A1" style="stop-color:#2745A1;stop-color:color(display-p3 0.1529 0.2706 0.6314);stop-opacity:1;"/>
<stop offset="0.526876" stop-color="#2745A1" style="stop-color:#2745A1;stop-color:color(display-p3 0.1529 0.2706 0.6314);stop-opacity:1;"/>
<stop offset="1" stop-color="#1C1E5A" style="stop-color:#1C1E5A;stop-color:color(display-p3 0.1098 0.1176 0.3529);stop-opacity:1;"/>
</radialGradient>
<radialGradient id="paint29_radial_1497_31952" cx="0" cy="0" r="1" gradientUnits="userSpaceOnUse" gradientTransform="translate(5.71933 21.9998) scale(1.67591)">
<stop stop-color="#2745A1" style="stop-color:#2745A1;stop-color:color(display-p3 0.1529 0.2706 0.6314);stop-opacity:1;"/>
<stop offset="0.526876" stop-color="#2745A1" style="stop-color:#2745A1;stop-color:color(display-p3 0.1529 0.2706 0.6314);stop-opacity:1;"/>
<stop offset="1" stop-color="#1C1E5A" style="stop-color:#1C1E5A;stop-color:color(display-p3 0.1098 0.1176 0.3529);stop-opacity:1;"/>
</radialGradient>
<radialGradient id="paint30_radial_1497_31952" cx="0" cy="0" r="1" gradientUnits="userSpaceOnUse" gradientTransform="translate(38.4832 21.9995) scale(1.67591)">
<stop stop-color="#2745A1" style="stop-color:#2745A1;stop-color:color(display-p3 0.1529 0.2706 0.6314);stop-opacity:1;"/>
<stop offset="0.526876" stop-color="#2745A1" style="stop-color:#2745A1;stop-color:color(display-p3 0.1529 0.2706 0.6314);stop-opacity:1;"/>
<stop offset="1" stop-color="#1C1E5A" style="stop-color:#1C1E5A;stop-color:color(display-p3 0.1098 0.1176 0.3529);stop-opacity:1;"/>
</radialGradient>
<radialGradient id="paint31_radial_1497_31952" cx="0" cy="0" r="1" gradientUnits="userSpaceOnUse" gradientTransform="translate(8.19529 13.2263) scale(2.35987 2.35987)">
<stop stop-color="#2745A1" style="stop-color:#2745A1;stop-color:color(display-p3 0.1529 0.2706 0.6314);stop-opacity:1;"/>
<stop offset="0.526876" stop-color="#2745A1" style="stop-color:#2745A1;stop-color:color(display-p3 0.1529 0.2706 0.6314);stop-opacity:1;"/>
<stop offset="1" stop-color="#1C1E5A" style="stop-color:#1C1E5A;stop-color:color(display-p3 0.1098 0.1176 0.3529);stop-opacity:1;"/>
</radialGradient>
<radialGradient id="paint32_radial_1497_31952" cx="0" cy="0" r="1" gradientUnits="userSpaceOnUse" gradientTransform="translate(11.4177 9.51462) scale(2.83544)">
<stop stop-color="#2745A1" style="stop-color:#2745A1;stop-color:color(display-p3 0.1529 0.2706 0.6314);stop-opacity:1;"/>
<stop offset="0.526876" stop-color="#2745A1" style="stop-color:#2745A1;stop-color:color(display-p3 0.1529 0.2706 0.6314);stop-opacity:1;"/>
<stop offset="1" stop-color="#1C1E5A" style="stop-color:#1C1E5A;stop-color:color(display-p3 0.1098 0.1176 0.3529);stop-opacity:1;"/>
</radialGradient>
<radialGradient id="paint33_radial_1497_31952" cx="0" cy="0" r="1" gradientUnits="userSpaceOnUse" gradientTransform="translate(15.1537 7.13738) scale(2.67816 2.67816)">
<stop stop-color="#2745A1" style="stop-color:#2745A1;stop-color:color(display-p3 0.1529 0.2706 0.6314);stop-opacity:1;"/>
<stop offset="0.526876" stop-color="#2745A1" style="stop-color:#2745A1;stop-color:color(display-p3 0.1529 0.2706 0.6314);stop-opacity:1;"/>
<stop offset="1" stop-color="#1C1E5A" style="stop-color:#1C1E5A;stop-color:color(display-p3 0.1098 0.1176 0.3529);stop-opacity:1;"/>
</radialGradient>
<radialGradient id="paint34_radial_1497_31952" cx="0" cy="0" r="1" gradientUnits="userSpaceOnUse" gradientTransform="translate(19.7447 5.78798) scale(2.48057 2.48057)">
<stop stop-color="#2745A1" style="stop-color:#2745A1;stop-color:color(display-p3 0.1529 0.2706 0.6314);stop-opacity:1;"/>
<stop offset="0.526876" stop-color="#2745A1" style="stop-color:#2745A1;stop-color:color(display-p3 0.1529 0.2706 0.6314);stop-opacity:1;"/>
<stop offset="1" stop-color="#1C1E5A" style="stop-color:#1C1E5A;stop-color:color(display-p3 0.1098 0.1176 0.3529);stop-opacity:1;"/>
</radialGradient>
<radialGradient id="paint35_radial_1497_31952" cx="0" cy="0" r="1" gradientUnits="userSpaceOnUse" gradientTransform="translate(24.5682 5.84692) scale(2.27324)">
<stop stop-color="#2745A1" style="stop-color:#2745A1;stop-color:color(display-p3 0.1529 0.2706 0.6314);stop-opacity:1;"/>
<stop offset="0.526876" stop-color="#2745A1" style="stop-color:#2745A1;stop-color:color(display-p3 0.1529 0.2706 0.6314);stop-opacity:1;"/>
<stop offset="1" stop-color="#1C1E5A" style="stop-color:#1C1E5A;stop-color:color(display-p3 0.1098 0.1176 0.3529);stop-opacity:1;"/>
</radialGradient>
<radialGradient id="paint36_radial_1497_31952" cx="0" cy="0" r="1" gradientUnits="userSpaceOnUse" gradientTransform="translate(29.6495 7.52865) scale(2.39094 2.39094)">
<stop stop-color="#2745A1" style="stop-color:#2745A1;stop-color:color(display-p3 0.1529 0.2706 0.6314);stop-opacity:1;"/>
<stop offset="0.526876" stop-color="#2745A1" style="stop-color:#2745A1;stop-color:color(display-p3 0.1529 0.2706 0.6314);stop-opacity:1;"/>
<stop offset="1" stop-color="#1C1E5A" style="stop-color:#1C1E5A;stop-color:color(display-p3 0.1098 0.1176 0.3529);stop-opacity:1;"/>
</radialGradient>
<radialGradient id="paint37_radial_1497_31952" cx="0" cy="0" r="1" gradientUnits="userSpaceOnUse" gradientTransform="translate(32.8398 9.73679) scale(2.03287 2.03288)">
<stop stop-color="#2745A1" style="stop-color:#2745A1;stop-color:color(display-p3 0.1529 0.2706 0.6314);stop-opacity:1;"/>
<stop offset="0.526876" stop-color="#2745A1" style="stop-color:#2745A1;stop-color:color(display-p3 0.1529 0.2706 0.6314);stop-opacity:1;"/>
<stop offset="1" stop-color="#1C1E5A" style="stop-color:#1C1E5A;stop-color:color(display-p3 0.1098 0.1176 0.3529);stop-opacity:1;"/>
</radialGradient>
<radialGradient id="paint38_radial_1497_31952" cx="0" cy="0" r="1" gradientUnits="userSpaceOnUse" gradientTransform="translate(35.4226 12.6383) scale(3.05818 3.05819)">
<stop stop-color="#2745A1" style="stop-color:#2745A1;stop-color:color(display-p3 0.1529 0.2706 0.6314);stop-opacity:1;"/>
<stop offset="0.526876" stop-color="#2745A1" style="stop-color:#2745A1;stop-color:color(display-p3 0.1529 0.2706 0.6314);stop-opacity:1;"/>
<stop offset="1" stop-color="#1C1E5A" style="stop-color:#1C1E5A;stop-color:color(display-p3 0.1098 0.1176 0.3529);stop-opacity:1;"/>
</radialGradient>
<linearGradient id="paint39_linear_1497_31952" x1="29.5267" y1="7.02991" x2="3.40195" y2="34.0019" gradientUnits="userSpaceOnUse">
<stop stop-color="#E5E4E4" style="stop-color:#E5E4E4;stop-color:color(display-p3 0.8980 0.8941 0.8941);stop-opacity:1;"/>
<stop offset="0.0898036" stop-color="#E5E4E4" style="stop-color:#E5E4E4;stop-color:color(display-p3 0.8980 0.8941 0.8941);stop-opacity:1;"/>
<stop offset="0.270484" stop-color="#919EA5" style="stop-color:#919EA5;stop-color:color(display-p3 0.5686 0.6196 0.6471);stop-opacity:1;"/>
<stop offset="0.608176" stop-color="#A6BAC3" style="stop-color:#A6BAC3;stop-color:color(display-p3 0.6510 0.7294 0.7647);stop-opacity:1;"/>
<stop offset="0.751405" stop-color="#A6BAC3" style="stop-color:#A6BAC3;stop-color:color(display-p3 0.6510 0.7294 0.7647);stop-opacity:1;"/>
<stop offset="0.895182" stop-color="#657178" style="stop-color:#657178;stop-color:color(display-p3 0.3961 0.4431 0.4706);stop-opacity:1;"/>
<stop offset="1" stop-color="#657178" style="stop-color:#657178;stop-color:color(display-p3 0.3961 0.4431 0.4706);stop-opacity:1;"/>
</linearGradient>
<linearGradient id="paint40_linear_1497_31952" x1="36.3415" y1="13.6299" x2="10.2167" y2="40.6019" gradientUnits="userSpaceOnUse">
<stop stop-color="#E5E4E4" style="stop-color:#E5E4E4;stop-color:color(display-p3 0.8980 0.8941 0.8941);stop-opacity:1;"/>
<stop offset="0.0898036" stop-color="#E5E4E4" style="stop-color:#E5E4E4;stop-color:color(display-p3 0.8980 0.8941 0.8941);stop-opacity:1;"/>
<stop offset="0.270484" stop-color="#919EA5" style="stop-color:#919EA5;stop-color:color(display-p3 0.5686 0.6196 0.6471);stop-opacity:1;"/>
<stop offset="0.608176" stop-color="#A6BAC3" style="stop-color:#A6BAC3;stop-color:color(display-p3 0.6510 0.7294 0.7647);stop-opacity:1;"/>
<stop offset="0.751405" stop-color="#A6BAC3" style="stop-color:#A6BAC3;stop-color:color(display-p3 0.6510 0.7294 0.7647);stop-opacity:1;"/>
<stop offset="0.895182" stop-color="#657178" style="stop-color:#657178;stop-color:color(display-p3 0.3961 0.4431 0.4706);stop-opacity:1;"/>
<stop offset="1" stop-color="#657178" style="stop-color:#657178;stop-color:color(display-p3 0.3961 0.4431 0.4706);stop-opacity:1;"/>
</linearGradient>
<linearGradient id="paint41_linear_1497_31952" x1="32.8827" y1="10.2809" x2="6.75798" y2="37.2529" gradientUnits="userSpaceOnUse">
<stop stop-color="#E5E4E4" style="stop-color:#E5E4E4;stop-color:color(display-p3 0.8980 0.8941 0.8941);stop-opacity:1;"/>
<stop offset="0.0898036" stop-color="#E5E4E4" style="stop-color:#E5E4E4;stop-color:color(display-p3 0.8980 0.8941 0.8941);stop-opacity:1;"/>
<stop offset="0.270484" stop-color="#919EA5" style="stop-color:#919EA5;stop-color:color(display-p3 0.5686 0.6196 0.6471);stop-opacity:1;"/>
<stop offset="0.608176" stop-color="#A6BAC3" style="stop-color:#A6BAC3;stop-color:color(display-p3 0.6510 0.7294 0.7647);stop-opacity:1;"/>
<stop offset="0.751405" stop-color="#A6BAC3" style="stop-color:#A6BAC3;stop-color:color(display-p3 0.6510 0.7294 0.7647);stop-opacity:1;"/>
<stop offset="0.895182" stop-color="#657178" style="stop-color:#657178;stop-color:color(display-p3 0.3961 0.4431 0.4706);stop-opacity:1;"/>
<stop offset="1" stop-color="#657178" style="stop-color:#657178;stop-color:color(display-p3 0.3961 0.4431 0.4706);stop-opacity:1;"/>
</linearGradient>
</defs>
</svg>
