<svg width="180" height="240" viewBox="0 0 180 240" fill="none" xmlns="http://www.w3.org/2000/svg">
<path d="M37.0311 21.2583L17.3657 153.382H45.4662L41.4471 180.626H69.6867L38.5962 199.909L33.5475 234.192H145.609L164.064 109.343H135.964L149.106 21.2583H37.0311ZM43.0743 81.6731C44.2632 73.4678 48.6648 66.0272 54.8538 60.6101C61.0428 55.1999 68.9493 51.89 77.0922 51.8273H77.1618H77.2248C77.8644 51.8273 78.504 51.8273 79.1367 51.8897L76.8489 67.55C76.2024 67.4177 75.5697 67.355 74.8674 67.355C67.0443 67.4177 59.7426 73.7876 58.5396 81.6731C57.3921 89.5031 62.8164 95.9354 70.6464 95.9354C76.0704 95.9354 81.2022 92.813 84.2409 88.307H73.7826L75.6879 75.4775H102.689L102.759 77.5427C102.801 78.8777 102.655 80.2754 102.453 81.6731C101.257 89.8856 96.7857 97.3331 90.5967 102.743C84.4146 108.153 76.5081 111.463 68.3583 111.533H68.2959H68.2332C51.9333 111.463 40.6125 98.0981 43.0743 81.6731Z" fill="url(#paint0_linear_7_505)"/>
<defs>
<linearGradient id="paint0_linear_7_505" x1="851.571" y1="-571.38" x2="-317.286" y2="503.481" gradientUnits="userSpaceOnUse">
<stop stop-color="#B27D27"/>
<stop offset="0.00561798" stop-color="#B27D27"/>
<stop offset="0.174694" stop-color="#B27D27"/>
<stop offset="0.514866" stop-color="#E5C222"/>
<stop offset="0.795448" stop-color="#9D7818"/>
<stop offset="1" stop-color="#9D7818"/>
</linearGradient>
</defs>
</svg>
