<svg width="244" height="244" viewBox="0 0 244 244" fill="none" xmlns="http://www.w3.org/2000/svg">
<path fill-rule="evenodd" clip-rule="evenodd" d="M127.749 45.8475C140.437 46.6771 152.168 49.9369 162.992 55.6807C173.777 61.3854 182.99 68.7396 190.593 77.7041C195.922 83.9847 200.924 91.5877 205.633 100.469C210.418 109.423 214.214 118.871 216.955 128.646C220.248 140.537 222.297 152.737 223.07 165.051C223.933 177.734 224.348 189.51 224.348 200.334V226.695H75.4839C74.7372 226.695 74.4103 224.709 74.4493 220.791C74.4932 216.818 74.7421 213.637 75.2301 211.201C75.5229 209.259 76.3086 206.531 77.5091 202.979C78.7486 199.426 80.7299 195.127 83.5798 190.047C84.8632 187.441 87.923 183.683 92.7542 178.725C97.6293 173.767 103.163 167.984 109.488 161.455C113.123 157.736 115.929 153.066 117.998 147.405C120.063 141.788 120.931 136.664 120.599 132.033C117.632 134.468 114.337 136.472 110.81 137.987C93.7058 144.101 81.3106 152.983 73.6636 164.593C73.0878 165.339 71.2724 168.604 68.2127 174.426C66.6023 177.486 65.1968 179.594 64.0793 180.706C62.5519 182.239 60.3217 183.102 57.4279 183.268C52.9236 183.478 49.41 181.326 46.8871 176.7C43.5052 177.69 40.4845 178.105 37.8005 177.939C33.2963 176.246 30.0316 174.426 28.0112 172.488C23.8779 168.355 21.2329 164.266 19.9544 160.132C18.6873 155.813 18.0609 151.331 18.0951 146.829C18.0951 140.051 22.2675 131.086 30.6952 119.931C40.5284 107.121 45.7744 97.3315 46.3942 90.6361C46.3942 87.7423 46.687 84.4825 47.2628 80.842C47.7886 78.2461 48.8128 75.7768 50.2787 73.5708C51.3523 71.9604 52.055 70.8477 52.3868 70.267C52.7577 69.6473 53.4214 68.7396 54.412 67.5391C55.1148 66.5485 55.7296 65.8067 56.2274 65.3089C56.6812 64.7721 57.301 64.0694 58.0476 63.1617C58.9163 62.1272 60.0289 60.9316 61.4344 59.5261C57.1581 47.8924 55.3838 35.4874 56.2274 23.1213C72.2582 28.8261 85.7709 37.8345 96.6338 50.1077C99.3227 40.9724 104.569 33.5792 112.377 27.9574C118.823 32.4617 123.947 38.4494 127.749 45.8475Z" fill="#1F1A17"/>
<path fill-rule="evenodd" clip-rule="evenodd" d="M209.723 218.102C209.64 218.102 209.723 215.911 209.928 211.533C210.177 207.112 210.299 202.359 210.299 197.279C210.382 187.197 210.382 176.783 210.299 165.998C210.2 155.104 208.743 144.265 205.96 133.731C203.193 123.4 200.178 114.602 196.874 107.287C193.565 99.9764 189.973 93.6959 186.089 88.362C180.306 79.6464 172.371 72.2483 162.372 66.2166C152.373 60.1459 141.925 56.1784 131.013 54.3192C131.755 58.2866 132.087 62.1711 132.004 65.9677C131.838 68.8616 130.476 70.3109 127.871 70.3109C124.894 70.3109 123.576 68.8616 123.869 65.9677C124.113 55.3098 120.311 46.1793 112.499 38.6202C106.389 45.0618 103.041 52.5428 102.587 61.0926C102.421 63.9474 100.977 65.1869 98.205 64.8502C95.643 64.7721 94.3645 63.2886 94.3645 60.3899C94.3645 60.3899 94.4474 60.0629 94.5694 59.3992C91.2657 60.4728 87.796 61.9612 84.1604 63.9035C81.8473 65.5139 79.9441 65.104 78.4996 62.7079C77.0502 60.2679 77.67 58.3647 80.4418 57.0032C83.9066 55.2268 86.5126 53.9044 88.2889 52.9967C81.4235 45.9544 73.4018 40.1411 64.5721 35.8093C65.5097 46.933 68.6429 57.7605 73.7904 67.666C75.1519 69.7302 74.8201 71.5895 72.7949 73.1999C70.5257 74.9762 68.6225 74.7273 67.095 72.3703C66.2128 70.9585 65.4128 69.4969 64.699 67.9929C63.0056 69.6863 61.849 70.9697 61.3122 71.7505C60.7315 72.4972 59.7409 74.1076 58.3354 76.5866C56.93 79.1096 55.8954 81.1738 55.2366 82.7842C54.5339 84.8094 54.2021 86.4198 54.329 87.7032C54.451 88.9428 54.573 90.3043 54.6559 91.8756C53.9034 96.6283 52.2344 101.189 49.7418 105.305C46.5633 110.474 43.3129 115.599 39.9915 120.677C37.1396 125.065 34.2325 129.417 31.271 133.731C29.2458 136.664 27.7183 140.339 26.6838 144.887C25.942 147.615 25.942 150.958 26.6838 154.842C27.3865 158.771 29.0018 161.826 31.3978 164.017C35.1164 167.774 38.7081 169.512 42.1826 169.224C43.2953 169.224 44.8227 168.77 46.721 167.857C48.6242 166.989 50.0736 165.295 51.1472 162.777C53.2114 158.19 54.9487 155.877 56.3542 155.877C58.3354 155.877 59.453 157.033 59.614 159.264C59.614 159.761 58.9552 161.787 57.6766 165.339C56.93 166.95 55.9784 168.643 54.7828 170.419C53.2114 172.527 52.5526 173.396 52.7186 173.064C53.9971 177.69 56.1443 178.481 59.1211 175.504C59.9898 174.636 61.0243 172.942 62.137 170.546C63.2935 168.106 65.0698 164.841 67.4659 160.752C70.3158 155.96 73.3317 152.114 76.5574 149.099C79.7782 146.122 82.6281 143.687 85.1462 141.871C86.5955 140.798 88.3718 139.597 90.48 138.236C92.5882 136.83 95.399 135.425 98.9517 133.98C101.763 132.863 104.9 131.457 108.331 129.803C111.762 128.149 114.817 126.045 117.457 123.444C121.18 119.809 124.03 115.344 126.055 110.015C127.129 107.038 127.5 103.363 127.251 98.9858C126.548 96.253 127.914 94.8915 131.384 94.8915C133.985 94.8915 135.435 96.214 135.766 98.898C135.766 107.989 133.16 116.295 127.997 123.815C129.691 128.978 130.145 134.639 129.315 140.754C128.617 145.673 126.88 150.958 124.191 156.58C121.468 162.157 116.012 168.394 107.794 175.255C91.0558 189.139 83.1698 203.432 84.0774 218.102H143.491H209.723ZM45.5694 144.511C43.2123 145.961 41.8118 147.903 41.314 150.338C41.397 152.983 40.1574 154.432 37.5954 154.681C34.7455 155.008 33.301 153.813 33.2132 151.041C33.545 145.712 35.8972 141.5 40.3624 138.358C42.4706 136.664 44.4128 136.786 46.1891 138.811C47.9654 141.003 47.7605 142.896 45.5694 144.511ZM81.5154 86.7956C82.55 88.406 82.9599 90.0993 82.711 91.8756C81.9302 97.0387 79.0364 99.1908 74.1222 98.4051C72.8498 98.221 71.6427 97.7247 70.6086 96.9606C70.3158 97.3315 69.823 98.2392 69.1593 99.6007C68.2906 102.207 66.5973 103.075 64.0792 102.285C61.6002 101.299 60.6095 99.4787 61.1854 96.8337C64.821 87.5373 71.3894 81.1738 80.8957 77.7041C83.6626 76.8745 85.4829 77.7041 86.3466 80.1002C87.3422 82.7061 86.5955 84.4824 84.1604 85.4292C83.7321 85.6746 83.2906 85.8962 82.8379 86.0928C82.4231 86.2978 82.0083 86.5467 81.5154 86.7956Z" fill="url(#paint0_linear_26_2475)"/>
<defs>
<linearGradient id="paint0_linear_26_2475" x1="104.456" y1="182.248" x2="378.888" y2="182.248" gradientUnits="userSpaceOnUse">
<stop stop-color="white"/>
<stop offset="1" stop-color="white" stop-opacity="0"/>
</linearGradient>
</defs>
</svg>
